  0
SECTION
  2
HEADER
  9
$ACADVER
  1
AC1014
  9
$HANDSEED
  5
FFFF
  9
$MEASUREMENT
 70
     1
  0
ENDSEC
  0
SECTION
  2
TABLES
  0
TABLE
  2
VPORT
  5
8
330
0
100
AcDbSymbolTable
 70
     4
  0
VPORT
  5
2E
330
8
100
AcDbSymbolTableRecord
100
AcDbViewportTableRecord
  2
*ACTIVE
 70
     0
 10
0.0
 20
0.0
 11
1.0
 21
1.0
 12
210.0
 22
148.5
 13
0.0
 23
0.0
 14
10.0
 24
10.0
 15
10.0
 25
10.0
 16
0.0
 26
0.0
 36
1.0
 17
0.0
 27
0.0
 37
0.0
 40
341.0
 41
1.24
 42
50.0
 43
0.0
 44
0.0
 50
0.0
 51
0.0
 71
     0
 72
   100
 73
     1
 74
     3
 75
     0
 76
     0
 77
     0
 78
     0
  0
ENDTAB
  0
TABLE
  2
LTYPE
  5
5
330
0
100
AcDbSymbolTable
 70
     1
  0
LTYPE
  5
14
330
5
100
AcDbSymbolTableRecord
100
AcDbLinetypeTableRecord
  2
BYBLOCK
 70
     0
  3

 72
    65
 73
     0
 40
0.0
  0
LTYPE
  5
15
330
5
100
AcDbSymbolTableRecord
100
AcDbLinetypeTableRecord
  2
BYLAYER
 70
     0
  3

 72
    65
 73
     0
 40
0.0
  0
LTYPE
  5
16
330
5
100
AcDbSymbolTableRecord
100
AcDbLinetypeTableRecord
  2
CONTINUOUS
 70
     0
  3
Solid line
 72
    65
 73
     0
 40
0.0
  0
ENDTAB
  0
TABLE
  2
LAYER
  5
2
100
AcDbSymbolTable
 70
1
  0
LAYER
  5
50
100
AcDbSymbolTableRecord
100
AcDbLayerTableRecord
  2
0
 70
0
  6
CONTINUOUS
  0
ENDTAB
  0
TABLE
  2
STYLE
  5
3
330
0
100
AcDbSymbolTable
 70
     1
  0
STYLE
  5
11
330
3
100
AcDbSymbolTableRecord
100
AcDbTextStyleTableRecord
  2
STANDARD
 70
     0
 40
0.0
 41
1.0
 50
0.0
 71
     0
 42
2.5
  3
txt
  4

  0
ENDTAB
  0
TABLE
  2
VIEW
  5
6
330
0
100
AcDbSymbolTable
 70
     0
  0
ENDTAB
  0
TABLE
  2
UCS
  5
7
330
0
100
AcDbSymbolTable
 70
     0
  0
ENDTAB
  0
TABLE
  2
APPID
  5
9
330
0
100
AcDbSymbolTable
 70
     2
  0
APPID
  5
12
330
9
100
AcDbSymbolTableRecord
100
AcDbRegAppTableRecord
  2
ACAD
 70
     0
  0
ENDTAB
  0
TABLE
  2
DIMSTYLE
  5
A
330
0
100
AcDbSymbolTable
 70
     1
  0
DIMSTYLE
105
27
330
A
100
AcDbSymbolTableRecord
100
AcDbDimStyleTableRecord
  2
ISO-25
 70
     0
  3

  4

  5

  6

  7

 40
1.0
 41
2.5
 42
0.625
 43
3.75
 44
1.25
 45
0.0
 46
0.0
 47
0.0
 48
0.0
140
2.5
141
2.5
142
0.0
143
0.03937007874016
144
1.0
145
0.0
146
1.0
147
0.625
 71
     0
 72
     0
 73
     0
 74
     0
 75
     0
 76
     0
 77
     1
 78
     8
170
     0
171
     3
172
     1
173
     0
174
     0
175
     0
176
     0
177
     0
178
     0
270
     2
271
     2
272
     2
273
     2
274
     3
340
11
275
     0
280
     0
281
     0
282
     0
283
     0
284
     8
285
     0
286
     0
287
     3
288
     0
  0
ENDTAB
  0
TABLE
  2
BLOCK_RECORD
  5
1
330
0
100
AcDbSymbolTable
 70
     1
  0
BLOCK_RECORD
  5
1F
330
1
100
AcDbSymbolTableRecord
100
AcDbBlockTableRecord
  2
*MODEL_SPACE
  0
BLOCK_RECORD
  5
1B
330
1
100
AcDbSymbolTableRecord
100
AcDbBlockTableRecord
  2
*PAPER_SPACE
  0
ENDTAB
  0
ENDSEC
  0
SECTION
  2
BLOCKS
  0
BLOCK
  5
20
330
1F
100
AcDbEntity
  8
0
100
AcDbBlockBegin
  2
*MODEL_SPACE
 70
     0
 10
0.0
 20
0.0
 30
0.0
  3
*MODEL_SPACE
  1

  0
ENDBLK
  5
21
330
1F
100
AcDbEntity
  8
0
100
AcDbBlockEnd
  0
BLOCK
  5
1C
330
1B
100
AcDbEntity
 67
     1
  8
0
100
AcDbBlockBegin
  2
*PAPER_SPACE
  1

  0
ENDBLK
  5
1D
330
1B
100
AcDbEntity
 67
     1
  8
0
100
AcDbBlockEnd
  0
ENDSEC
  0
SECTION
  2
ENTITIES
  0
LWPOLYLINE
  5
100
100
AcDbEntity
  8
0
 62
7
100
AcDbPolyline
 90
2
 70
0
 10
358.422890
 20
-343.618243
 30
0.0
 10
506.886890
 20
-343.618243
 30
0.0
  0
LWPOLYLINE
  5
101
100
AcDbEntity
  8
0
 62
7
100
AcDbPolyline
 90
2
 70
0
 10
598.046090
 20
-343.618243
 30
0.0
 10
568.792490
 20
-343.618243
 30
0.0
  0
LWPOLYLINE
  5
102
100
AcDbEntity
  8
0
 62
7
100
AcDbPolyline
 90
2
 70
0
 10
228.419690
 20
-327.310243
 30
0.0
 10
227.368490
 20
-326.259043
 30
0.0
  0
LWPOLYLINE
  5
103
100
AcDbEntity
  8
0
 62
7
100
AcDbPolyline
 90
2
 70
0
 10
229.326890
 20
-330.103843
 30
0.0
 10
229.096490
 20
-328.635043
 30
0.0
  0
LWPOLYLINE
  5
104
100
AcDbEntity
  8
0
 62
7
100
AcDbPolyline
 90
3
 70
0
 10
223.106090
 20
-334.618243
 30
0.0
 10
224.574890
 20
-334.848643
 30
0.0
 10
226.043690
 20
-334.618243
 30
0.0
  0
LWPOLYLINE
  5
105
100
AcDbEntity
  8
0
 62
7
100
AcDbPolyline
 90
2
 70
0
 10
227.368490
 20
-333.941443
 30
0.0
 10
228.419690
 20
-332.890243
 30
0.0
  0
LWPOLYLINE
  5
106
100
AcDbEntity
  8
0
 62
7
100
AcDbPolyline
 90
2
 70
0
 10
224.574890
 20
-325.344643
 30
0.0
 10
223.106090
 20
-325.582243
 30
0.0
  0
LWPOLYLINE
  5
107
100
AcDbEntity
  8
0
 62
7
100
AcDbPolyline
 90
2
 70
0
 10
226.043690
 20
-325.582243
 30
0.0
 10
224.574890
 20
-325.344643
 30
0.0
  0
LWPOLYLINE
  5
108
100
AcDbEntity
  8
0
 62
7
100
AcDbPolyline
 90
2
 70
0
 10
226.043690
 20
-334.618243
 30
0.0
 10
227.368490
 20
-333.941443
 30
0.0
  0
LWPOLYLINE
  5
109
100
AcDbEntity
  8
0
 62
7
100
AcDbPolyline
 90
2
 70
0
 10
228.419690
 20
-332.890243
 30
0.0
 10
229.096490
 20
-331.565443
 30
0.0
  0
LWPOLYLINE
  5
10a
100
AcDbEntity
  8
0
 62
7
100
AcDbPolyline
 90
2
 70
0
 10
220.730090
 20
-332.890243
 30
0.0
 10
221.781290
 20
-333.941443
 30
0.0
  0
LWPOLYLINE
  5
10b
100
AcDbEntity
  8
0
 62
7
100
AcDbPolyline
 90
2
 70
0
 10
229.096490
 20
-331.565443
 30
0.0
 10
229.326890
 20
-330.103843
 30
0.0
  0
LWPOLYLINE
  5
10c
100
AcDbEntity
  8
0
 62
7
100
AcDbPolyline
 90
2
 70
0
 10
229.096490
 20
-328.635043
 30
0.0
 10
228.419690
 20
-327.310243
 30
0.0
  0
LWPOLYLINE
  5
10d
100
AcDbEntity
  8
0
 62
7
100
AcDbPolyline
 90
2
 70
0
 10
227.368490
 20
-326.259043
 30
0.0
 10
226.043690
 20
-325.582243
 30
0.0
  0
LWPOLYLINE
  5
10e
100
AcDbEntity
  8
0
 62
7
100
AcDbPolyline
 90
2
 70
0
 10
219.830090
 20
-330.103843
 30
0.0
 10
220.060490
 20
-331.565443
 30
0.0
  0
LWPOLYLINE
  5
10f
100
AcDbEntity
  8
0
 62
7
100
AcDbPolyline
 90
2
 70
0
 10
221.781290
 20
-333.941443
 30
0.0
 10
223.106090
 20
-334.618243
 30
0.0
  0
LWPOLYLINE
  5
110
100
AcDbEntity
  8
0
 62
7
100
AcDbPolyline
 90
2
 70
0
 10
220.060490
 20
-331.565443
 30
0.0
 10
220.730090
 20
-332.890243
 30
0.0
  0
LWPOLYLINE
  5
111
100
AcDbEntity
  8
0
 62
7
100
AcDbPolyline
 90
2
 70
0
 10
434.368490
 20
-326.259043
 30
0.0
 10
433.050890
 20
-325.582243
 30
0.0
  0
LWPOLYLINE
  5
112
100
AcDbEntity
  8
0
 62
7
100
AcDbPolyline
 90
2
 70
0
 10
634.744490
 20
-327.310243
 30
0.0
 10
634.067690
 20
-328.635043
 30
0.0
  0
LWPOLYLINE
  5
113
100
AcDbEntity
  8
0
 62
7
100
AcDbPolyline
 90
2
 70
0
 10
428.795690
 20
-333.941443
 30
0.0
 10
430.113290
 20
-334.618243
 30
0.0
  0
LWPOLYLINE
  5
114
100
AcDbEntity
  8
0
 62
7
100
AcDbPolyline
 90
2
 70
0
 10
640.058090
 20
-334.618243
 30
0.0
 10
641.382890
 20
-333.941443
 30
0.0
  0
LWPOLYLINE
  5
115
100
AcDbEntity
  8
0
 62
7
100
AcDbPolyline
 90
2
 70
0
 10
428.795690
 20
-326.259043
 30
0.0
 10
427.737290
 20
-327.310243
 30
0.0
  0
LWPOLYLINE
  5
116
100
AcDbEntity
  8
0
 62
7
100
AcDbPolyline
 90
2
 70
0
 10
638.589290
 20
-325.344643
 30
0.0
 10
637.120490
 20
-325.582243
 30
0.0
  0
LWPOLYLINE
  5
117
100
AcDbEntity
  8
0
 62
7
100
AcDbPolyline
 90
2
 70
0
 10
637.120490
 20
-334.618243
 30
0.0
 10
638.589290
 20
-334.848643
 30
0.0
  0
LWPOLYLINE
  5
118
100
AcDbEntity
  8
0
 62
7
100
AcDbPolyline
 90
2
 70
0
 10
640.058090
 20
-325.582243
 30
0.0
 10
638.589290
 20
-325.344643
 30
0.0
  0
LWPOLYLINE
  5
119
100
AcDbEntity
  8
0
 62
7
100
AcDbPolyline
 90
2
 70
0
 10
436.096490
 20
-328.635043
 30
0.0
 10
435.426890
 20
-327.310243
 30
0.0
  0
LWPOLYLINE
  5
11a
100
AcDbEntity
  8
0
 62
7
100
AcDbPolyline
 90
2
 70
0
 10
436.334090
 20
-330.103843
 30
0.0
 10
436.096490
 20
-328.635043
 30
0.0
  0
LWPOLYLINE
  5
11b
100
AcDbEntity
  8
0
 62
7
100
AcDbPolyline
 90
2
 70
0
 10
436.096490
 20
-331.565443
 30
0.0
 10
436.334090
 20
-330.103843
 30
0.0
  0
LWPOLYLINE
  5
11c
100
AcDbEntity
  8
0
 62
7
100
AcDbPolyline
 90
2
 70
0
 10
426.837290
 20
-330.103843
 30
0.0
 10
427.067690
 20
-331.565443
 30
0.0
  0
LWPOLYLINE
  5
11d
100
AcDbEntity
  8
0
 62
7
100
AcDbPolyline
 90
2
 70
0
 10
427.737290
 20
-327.310243
 30
0.0
 10
427.067690
 20
-328.635043
 30
0.0
  0
LWPOLYLINE
  5
11e
100
AcDbEntity
  8
0
 62
7
100
AcDbPolyline
 90
2
 70
0
 10
435.426890
 20
-332.890243
 30
0.0
 10
436.096490
 20
-331.565443
 30
0.0
  0
LWPOLYLINE
  5
11f
100
AcDbEntity
  8
0
 62
7
100
AcDbPolyline
 90
2
 70
0
 10
641.382890
 20
-333.941443
 30
0.0
 10
642.426890
 20
-332.890243
 30
0.0
  0
LWPOLYLINE
  5
120
100
AcDbEntity
  8
0
 62
7
100
AcDbPolyline
 90
2
 70
0
 10
433.050890
 20
-334.618243
 30
0.0
 10
434.368490
 20
-333.941443
 30
0.0
  0
LWPOLYLINE
  5
121
100
AcDbEntity
  8
0
 62
7
100
AcDbPolyline
 90
2
 70
0
 10
427.067690
 20
-328.635043
 30
0.0
 10
426.837290
 20
-330.103843
 30
0.0
  0
LWPOLYLINE
  5
122
100
AcDbEntity
  8
0
 62
7
100
AcDbPolyline
 90
2
 70
0
 10
637.120490
 20
-325.582243
 30
0.0
 10
635.795690
 20
-326.259043
 30
0.0
  0
LWPOLYLINE
  5
123
100
AcDbEntity
  8
0
 62
7
100
AcDbPolyline
 90
2
 70
0
 10
634.067690
 20
-331.565443
 30
0.0
 10
634.744490
 20
-332.890243
 30
0.0
  0
LWPOLYLINE
  5
124
100
AcDbEntity
  8
0
 62
7
100
AcDbPolyline
 90
2
 70
0
 10
17.574890
 20
-325.344643
 30
0.0
 10
16.106090
 20
-325.582243
 30
0.0
  0
LWPOLYLINE
  5
125
100
AcDbEntity
  8
0
 62
7
100
AcDbPolyline
 90
2
 70
0
 10
220.060490
 20
-328.635043
 30
0.0
 10
219.830090
 20
-330.103843
 30
0.0
  0
LWPOLYLINE
  5
126
100
AcDbEntity
  8
0
 62
7
100
AcDbPolyline
 90
2
 70
0
 10
635.795690
 20
-333.941443
 30
0.0
 10
637.120490
 20
-334.618243
 30
0.0
  0
LWPOLYLINE
  5
127
100
AcDbEntity
  8
0
 62
7
100
AcDbPolyline
 90
2
 70
0
 10
641.382890
 20
-326.259043
 30
0.0
 10
640.058090
 20
-325.582243
 30
0.0
  0
LWPOLYLINE
  5
128
100
AcDbEntity
  8
0
 62
7
100
AcDbPolyline
 90
2
 70
0
 10
643.103690
 20
-328.635043
 30
0.0
 10
642.426890
 20
-327.310243
 30
0.0
  0
LWPOLYLINE
  5
129
100
AcDbEntity
  8
0
 62
7
100
AcDbPolyline
 90
3
 70
0
 10
634.067690
 20
-328.635043
 30
0.0
 10
633.837290
 20
-330.103843
 30
0.0
 10
634.067690
 20
-331.565443
 30
0.0
  0
LWPOLYLINE
  5
12a
100
AcDbEntity
  8
0
 62
7
100
AcDbPolyline
 90
2
 70
0
 10
220.730090
 20
-327.310243
 30
0.0
 10
220.060490
 20
-328.635043
 30
0.0
  0
LWPOLYLINE
  5
12b
100
AcDbEntity
  8
0
 62
7
100
AcDbPolyline
 90
2
 70
0
 10
221.781290
 20
-326.259043
 30
0.0
 10
220.730090
 20
-327.310243
 30
0.0
  0
LWPOLYLINE
  5
12c
100
AcDbEntity
  8
0
 62
7
100
AcDbPolyline
 90
2
 70
0
 10
643.103690
 20
-331.565443
 30
0.0
 10
643.334090
 20
-330.103843
 30
0.0
  0
LWPOLYLINE
  5
12d
100
AcDbEntity
  8
0
 62
7
100
AcDbPolyline
 90
2
 70
0
 10
223.106090
 20
-325.582243
 30
0.0
 10
221.781290
 20
-326.259043
 30
0.0
  0
LWPOLYLINE
  5
12e
100
AcDbEntity
  8
0
 62
7
100
AcDbPolyline
 90
2
 70
0
 10
430.113290
 20
-334.618243
 30
0.0
 10
431.582090
 20
-334.848643
 30
0.0
  0
LWPOLYLINE
  5
12f
100
AcDbEntity
  8
0
 62
7
100
AcDbPolyline
 90
2
 70
0
 10
642.426890
 20
-332.890243
 30
0.0
 10
643.103690
 20
-331.565443
 30
0.0
  0
LWPOLYLINE
  5
130
100
AcDbEntity
  8
0
 62
7
100
AcDbPolyline
 90
3
 70
0
 10
427.067690
 20
-331.565443
 30
0.0
 10
427.737290
 20
-332.890243
 30
0.0
 10
428.795690
 20
-333.941443
 30
0.0
  0
LWPOLYLINE
  5
131
100
AcDbEntity
  8
0
 62
7
100
AcDbPolyline
 90
2
 70
0
 10
430.113290
 20
-325.582243
 30
0.0
 10
428.795690
 20
-326.259043
 30
0.0
  0
LWPOLYLINE
  5
132
100
AcDbEntity
  8
0
 62
7
100
AcDbPolyline
 90
2
 70
0
 10
638.589290
 20
-334.848643
 30
0.0
 10
640.058090
 20
-334.618243
 30
0.0
  0
LWPOLYLINE
  5
133
100
AcDbEntity
  8
0
 62
7
100
AcDbPolyline
 90
2
 70
0
 10
635.795690
 20
-326.259043
 30
0.0
 10
634.744490
 20
-327.310243
 30
0.0
  0
LWPOLYLINE
  5
134
100
AcDbEntity
  8
0
 62
7
100
AcDbPolyline
 90
2
 70
0
 10
435.426890
 20
-327.310243
 30
0.0
 10
434.368490
 20
-326.259043
 30
0.0
  0
LWPOLYLINE
  5
135
100
AcDbEntity
  8
0
 62
7
100
AcDbPolyline
 90
2
 70
0
 10
431.582090
 20
-334.848643
 30
0.0
 10
433.050890
 20
-334.618243
 30
0.0
  0
LWPOLYLINE
  5
136
100
AcDbEntity
  8
0
 62
7
100
AcDbPolyline
 90
2
 70
0
 10
19.036490
 20
-325.582243
 30
0.0
 10
17.574890
 20
-325.344643
 30
0.0
  0
LWPOLYLINE
  5
137
100
AcDbEntity
  8
0
 62
7
100
AcDbPolyline
 90
2
 70
0
 10
642.426890
 20
-327.310243
 30
0.0
 10
641.382890
 20
-326.259043
 30
0.0
  0
LWPOLYLINE
  5
138
100
AcDbEntity
  8
0
 62
7
100
AcDbPolyline
 90
2
 70
0
 10
634.744490
 20
-332.890243
 30
0.0
 10
635.795690
 20
-333.941443
 30
0.0
  0
LWPOLYLINE
  5
139
100
AcDbEntity
  8
0
 62
7
100
AcDbPolyline
 90
2
 70
0
 10
643.334090
 20
-330.103843
 30
0.0
 10
643.103690
 20
-328.635043
 30
0.0
  0
LWPOLYLINE
  5
13a
100
AcDbEntity
  8
0
 62
7
100
AcDbPolyline
 90
2
 70
0
 10
434.368490
 20
-333.941443
 30
0.0
 10
435.426890
 20
-332.890243
 30
0.0
  0
LWPOLYLINE
  5
13b
100
AcDbEntity
  8
0
 62
7
100
AcDbPolyline
 90
2
 70
0
 10
431.582090
 20
-325.344643
 30
0.0
 10
430.113290
 20
-325.582243
 30
0.0
  0
LWPOLYLINE
  5
13c
100
AcDbEntity
  8
0
 62
7
100
AcDbPolyline
 90
2
 70
0
 10
433.050890
 20
-325.582243
 30
0.0
 10
431.582090
 20
-325.344643
 30
0.0
  0
LWPOLYLINE
  5
13d
100
AcDbEntity
  8
0
 62
7
100
AcDbPolyline
 90
2
 70
0
 10
633.837290
 20
-573.111043
 30
0.0
 10
634.067690
 20
-574.579843
 30
0.0
  0
LWPOLYLINE
  5
13e
100
AcDbEntity
  8
0
 62
7
100
AcDbPolyline
 90
2
 70
0
 10
634.744490
 20
-570.324643
 30
0.0
 10
634.067690
 20
-571.649443
 30
0.0
  0
LWPOLYLINE
  5
13f
100
AcDbEntity
  8
0
 62
7
100
AcDbPolyline
 90
2
 70
0
 10
435.426890
 20
-570.324643
 30
0.0
 10
434.368490
 20
-569.273443
 30
0.0
  0
LWPOLYLINE
  5
140
100
AcDbEntity
  8
0
 62
7
100
AcDbPolyline
 90
2
 70
0
 10
634.067690
 20
-571.649443
 30
0.0
 10
633.837290
 20
-573.111043
 30
0.0
  0
LWPOLYLINE
  5
141
100
AcDbEntity
  8
0
 62
7
100
AcDbPolyline
 90
2
 70
0
 10
638.589290
 20
-568.366243
 30
0.0
 10
637.120490
 20
-568.596643
 30
0.0
  0
LWPOLYLINE
  5
142
100
AcDbEntity
  8
0
 62
7
100
AcDbPolyline
 90
2
 70
0
 10
431.582090
 20
-568.366243
 30
0.0
 10
430.113290
 20
-568.596643
 30
0.0
  0
LWPOLYLINE
  5
143
100
AcDbEntity
  8
0
 62
7
100
AcDbPolyline
 90
2
 70
0
 10
13.053290
 20
-331.565443
 30
0.0
 10
13.730090
 20
-332.890243
 30
0.0
  0
LWPOLYLINE
  5
144
100
AcDbEntity
  8
0
 62
7
100
AcDbPolyline
 90
2
 70
0
 10
14.781290
 20
-333.941443
 30
0.0
 10
16.106090
 20
-334.618243
 30
0.0
  0
LWPOLYLINE
  5
145
100
AcDbEntity
  8
0
 62
7
100
AcDbPolyline
 90
2
 70
0
 10
642.426890
 20
-570.324643
 30
0.0
 10
641.382890
 20
-569.273443
 30
0.0
  0
LWPOLYLINE
  5
146
100
AcDbEntity
  8
0
 62
7
100
AcDbPolyline
 90
2
 70
0
 10
14.781290
 20
-326.259043
 30
0.0
 10
13.730090
 20
-327.310243
 30
0.0
  0
LWPOLYLINE
  5
147
100
AcDbEntity
  8
0
 62
7
100
AcDbPolyline
 90
2
 70
0
 10
641.382890
 20
-569.273443
 30
0.0
 10
640.058090
 20
-568.596643
 30
0.0
  0
LWPOLYLINE
  5
148
100
AcDbEntity
  8
0
 62
7
100
AcDbPolyline
 90
2
 70
0
 10
19.036490
 20
-334.618243
 30
0.0
 10
20.361290
 20
-333.941443
 30
0.0
  0
LWPOLYLINE
  5
149
100
AcDbEntity
  8
0
 62
7
100
AcDbPolyline
 90
2
 70
0
 10
640.058090
 20
-568.596643
 30
0.0
 10
638.589290
 20
-568.366243
 30
0.0
  0
LWPOLYLINE
  5
14a
100
AcDbEntity
  8
0
 62
7
100
AcDbPolyline
 90
2
 70
0
 10
643.103690
 20
-571.649443
 30
0.0
 10
642.426890
 20
-570.324643
 30
0.0
  0
LWPOLYLINE
  5
14b
100
AcDbEntity
  8
0
 62
7
100
AcDbPolyline
 90
2
 70
0
 10
641.382890
 20
-576.955843
 30
0.0
 10
642.426890
 20
-575.904643
 30
0.0
  0
LWPOLYLINE
  5
14c
100
AcDbEntity
  8
0
 62
7
100
AcDbPolyline
 90
2
 70
0
 10
635.795690
 20
-576.955843
 30
0.0
 10
637.120490
 20
-577.632643
 30
0.0
  0
LWPOLYLINE
  5
14d
100
AcDbEntity
  8
0
 62
7
100
AcDbPolyline
 90
3
 70
0
 10
436.096490
 20
-574.579843
 30
0.0
 10
436.334090
 20
-573.111043
 30
0.0
 10
436.096490
 20
-571.649443
 30
0.0
  0
LWPOLYLINE
  5
14e
100
AcDbEntity
  8
0
 62
7
100
AcDbPolyline
 90
2
 70
0
 10
637.120490
 20
-568.596643
 30
0.0
 10
635.795690
 20
-569.273443
 30
0.0
  0
LWPOLYLINE
  5
14f
100
AcDbEntity
  8
0
 62
7
100
AcDbPolyline
 90
2
 70
0
 10
436.096490
 20
-571.649443
 30
0.0
 10
435.426890
 20
-570.324643
 30
0.0
  0
LWPOLYLINE
  5
150
100
AcDbEntity
  8
0
 62
7
100
AcDbPolyline
 90
2
 70
0
 10
634.744490
 20
-575.904643
 30
0.0
 10
635.795690
 20
-576.955843
 30
0.0
  0
LWPOLYLINE
  5
151
100
AcDbEntity
  8
0
 62
7
100
AcDbPolyline
 90
2
 70
0
 10
20.361290
 20
-326.259043
 30
0.0
 10
19.036490
 20
-325.582243
 30
0.0
  0
LWPOLYLINE
  5
152
100
AcDbEntity
  8
0
 62
7
100
AcDbPolyline
 90
2
 70
0
 10
21.412490
 20
-327.310243
 30
0.0
 10
20.361290
 20
-326.259043
 30
0.0
  0
LWPOLYLINE
  5
153
100
AcDbEntity
  8
0
 62
7
100
AcDbPolyline
 90
2
 70
0
 10
17.574890
 20
-334.848643
 30
0.0
 10
19.036490
 20
-334.618243
 30
0.0
  0
LWPOLYLINE
  5
154
100
AcDbEntity
  8
0
 62
7
100
AcDbPolyline
 90
2
 70
0
 10
13.730090
 20
-327.310243
 30
0.0
 10
13.053290
 20
-328.635043
 30
0.0
  0
LWPOLYLINE
  5
155
100
AcDbEntity
  8
0
 62
7
100
AcDbPolyline
 90
2
 70
0
 10
435.426890
 20
-575.904643
 30
0.0
 10
436.096490
 20
-574.579843
 30
0.0
  0
LWPOLYLINE
  5
156
100
AcDbEntity
  8
0
 62
7
100
AcDbPolyline
 90
2
 70
0
 10
22.089290
 20
-328.635043
 30
0.0
 10
21.412490
 20
-327.310243
 30
0.0
  0
LWPOLYLINE
  5
157
100
AcDbEntity
  8
0
 62
7
100
AcDbPolyline
 90
2
 70
0
 10
640.058090
 20
-577.632643
 30
0.0
 10
641.382890
 20
-576.955843
 30
0.0
  0
LWPOLYLINE
  5
158
100
AcDbEntity
  8
0
 62
7
100
AcDbPolyline
 90
2
 70
0
 10
22.319690
 20
-330.103843
 30
0.0
 10
22.089290
 20
-328.635043
 30
0.0
  0
LWPOLYLINE
  5
159
100
AcDbEntity
  8
0
 62
7
100
AcDbPolyline
 90
2
 70
0
 10
22.089290
 20
-331.565443
 30
0.0
 10
22.319690
 20
-330.103843
 30
0.0
  0
LWPOLYLINE
  5
15a
100
AcDbEntity
  8
0
 62
7
100
AcDbPolyline
 90
2
 70
0
 10
16.106090
 20
-325.582243
 30
0.0
 10
14.781290
 20
-326.259043
 30
0.0
  0
LWPOLYLINE
  5
15b
100
AcDbEntity
  8
0
 62
7
100
AcDbPolyline
 90
2
 70
0
 10
637.120490
 20
-577.632643
 30
0.0
 10
638.589290
 20
-577.863043
 30
0.0
  0
LWPOLYLINE
  5
15c
100
AcDbEntity
  8
0
 62
7
100
AcDbPolyline
 90
2
 70
0
 10
16.106090
 20
-334.618243
 30
0.0
 10
17.574890
 20
-334.848643
 30
0.0
  0
LWPOLYLINE
  5
15d
100
AcDbEntity
  8
0
 62
7
100
AcDbPolyline
 90
2
 70
0
 10
21.412490
 20
-332.890243
 30
0.0
 10
22.089290
 20
-331.565443
 30
0.0
  0
LWPOLYLINE
  5
15e
100
AcDbEntity
  8
0
 62
7
100
AcDbPolyline
 90
2
 70
0
 10
635.795690
 20
-569.273443
 30
0.0
 10
634.744490
 20
-570.324643
 30
0.0
  0
LWPOLYLINE
  5
15f
100
AcDbEntity
  8
0
 62
7
100
AcDbPolyline
 90
2
 70
0
 10
20.361290
 20
-333.941443
 30
0.0
 10
21.412490
 20
-332.890243
 30
0.0
  0
LWPOLYLINE
  5
160
100
AcDbEntity
  8
0
 62
7
100
AcDbPolyline
 90
2
 70
0
 10
13.730090
 20
-332.890243
 30
0.0
 10
14.781290
 20
-333.941443
 30
0.0
  0
LWPOLYLINE
  5
161
100
AcDbEntity
  8
0
 62
7
100
AcDbPolyline
 90
2
 70
0
 10
12.822890
 20
-330.103843
 30
0.0
 10
13.053290
 20
-331.565443
 30
0.0
  0
LWPOLYLINE
  5
162
100
AcDbEntity
  8
0
 62
7
100
AcDbPolyline
 90
2
 70
0
 10
434.368490
 20
-569.273443
 30
0.0
 10
433.050890
 20
-568.596643
 30
0.0
  0
LWPOLYLINE
  5
163
100
AcDbEntity
  8
0
 62
7
100
AcDbPolyline
 90
2
 70
0
 10
13.053290
 20
-328.635043
 30
0.0
 10
12.822890
 20
-330.103843
 30
0.0
  0
LWPOLYLINE
  5
164
100
AcDbEntity
  8
0
 62
7
100
AcDbPolyline
 90
2
 70
0
 10
642.426890
 20
-575.904643
 30
0.0
 10
643.103690
 20
-574.579843
 30
0.0
  0
LWPOLYLINE
  5
165
100
AcDbEntity
  8
0
 62
7
100
AcDbPolyline
 90
2
 70
0
 10
638.589290
 20
-577.863043
 30
0.0
 10
640.058090
 20
-577.632643
 30
0.0
  0
LWPOLYLINE
  5
166
100
AcDbEntity
  8
0
 62
7
100
AcDbPolyline
 90
2
 70
0
 10
433.050890
 20
-568.596643
 30
0.0
 10
431.582090
 20
-568.366243
 30
0.0
  0
LWPOLYLINE
  5
167
100
AcDbEntity
  8
0
 62
7
100
AcDbPolyline
 90
2
 70
0
 10
643.334090
 20
-573.111043
 30
0.0
 10
643.103690
 20
-571.649443
 30
0.0
  0
LWPOLYLINE
  5
168
100
AcDbEntity
  8
0
 62
7
100
AcDbPolyline
 90
2
 70
0
 10
643.103690
 20
-574.579843
 30
0.0
 10
643.334090
 20
-573.111043
 30
0.0
  0
LWPOLYLINE
  5
169
100
AcDbEntity
  8
0
 62
7
100
AcDbPolyline
 90
2
 70
0
 10
634.067690
 20
-574.579843
 30
0.0
 10
634.744490
 20
-575.904643
 30
0.0
  0
LWPOLYLINE
  5
16a
100
AcDbEntity
  8
0
 62
7
100
AcDbPolyline
 90
2
 70
0
 10
430.113290
 20
-577.632643
 30
0.0
 10
431.582090
 20
-577.863043
 30
0.0
  0
LWPOLYLINE
  5
16b
100
AcDbEntity
  8
0
 62
7
100
AcDbPolyline
 90
2
 70
0
 10
427.067690
 20
-571.649443
 30
0.0
 10
426.837290
 20
-573.111043
 30
0.0
  0
LWPOLYLINE
  5
16c
100
AcDbEntity
  8
0
 62
7
100
AcDbPolyline
 90
2
 70
0
 10
226.043690
 20
-568.596643
 30
0.0
 10
224.574890
 20
-568.366243
 30
0.0
  0
LWPOLYLINE
  5
16d
100
AcDbEntity
  8
0
 62
7
100
AcDbPolyline
 90
2
 70
0
 10
427.737290
 20
-575.904643
 30
0.0
 10
428.795690
 20
-576.955843
 30
0.0
  0
LWPOLYLINE
  5
16e
100
AcDbEntity
  8
0
 62
7
100
AcDbPolyline
 90
2
 70
0
 10
221.781290
 20
-569.273443
 30
0.0
 10
220.730090
 20
-570.324643
 30
0.0
  0
LWPOLYLINE
  5
16f
100
AcDbEntity
  8
0
 62
7
100
AcDbPolyline
 90
2
 70
0
 10
19.036490
 20
-568.596643
 30
0.0
 10
17.574890
 20
-568.366243
 30
0.0
  0
LWPOLYLINE
  5
170
100
AcDbEntity
  8
0
 62
7
100
AcDbPolyline
 90
2
 70
0
 10
19.036490
 20
-577.632643
 30
0.0
 10
20.361290
 20
-576.955843
 30
0.0
  0
LWPOLYLINE
  5
171
100
AcDbEntity
  8
0
 62
7
100
AcDbPolyline
 90
2
 70
0
 10
434.368490
 20
-576.955843
 30
0.0
 10
435.426890
 20
-575.904643
 30
0.0
  0
LWPOLYLINE
  5
172
100
AcDbEntity
  8
0
 62
7
100
AcDbPolyline
 90
2
 70
0
 10
428.795690
 20
-576.955843
 30
0.0
 10
430.113290
 20
-577.632643
 30
0.0
  0
LWPOLYLINE
  5
173
100
AcDbEntity
  8
0
 62
7
100
AcDbPolyline
 90
2
 70
0
 10
17.574890
 20
-568.366243
 30
0.0
 10
16.106090
 20
-568.596643
 30
0.0
  0
LWPOLYLINE
  5
174
100
AcDbEntity
  8
0
 62
7
100
AcDbPolyline
 90
2
 70
0
 10
427.067690
 20
-574.579843
 30
0.0
 10
427.737290
 20
-575.904643
 30
0.0
  0
LWPOLYLINE
  5
175
100
AcDbEntity
  8
0
 62
7
100
AcDbPolyline
 90
2
 70
0
 10
426.837290
 20
-573.111043
 30
0.0
 10
427.067690
 20
-574.579843
 30
0.0
  0
LWPOLYLINE
  5
176
100
AcDbEntity
  8
0
 62
7
100
AcDbPolyline
 90
2
 70
0
 10
21.412490
 20
-575.904643
 30
0.0
 10
22.089290
 20
-574.579843
 30
0.0
  0
LWPOLYLINE
  5
177
100
AcDbEntity
  8
0
 62
7
100
AcDbPolyline
 90
2
 70
0
 10
427.737290
 20
-570.324643
 30
0.0
 10
427.067690
 20
-571.649443
 30
0.0
  0
LWPOLYLINE
  5
178
100
AcDbEntity
  8
0
 62
7
100
AcDbPolyline
 90
2
 70
0
 10
20.361290
 20
-576.955843
 30
0.0
 10
21.412490
 20
-575.904643
 30
0.0
  0
LWPOLYLINE
  5
179
100
AcDbEntity
  8
0
 62
7
100
AcDbPolyline
 90
2
 70
0
 10
227.368490
 20
-569.273443
 30
0.0
 10
226.043690
 20
-568.596643
 30
0.0
  0
LWPOLYLINE
  5
17a
100
AcDbEntity
  8
0
 62
7
100
AcDbPolyline
 90
2
 70
0
 10
14.781290
 20
-576.955843
 30
0.0
 10
16.106090
 20
-577.632643
 30
0.0
  0
LWPOLYLINE
  5
17b
100
AcDbEntity
  8
0
 62
7
100
AcDbPolyline
 90
2
 70
0
 10
228.419690
 20
-570.324643
 30
0.0
 10
227.368490
 20
-569.273443
 30
0.0
  0
LWPOLYLINE
  5
17c
100
AcDbEntity
  8
0
 62
7
100
AcDbPolyline
 90
2
 70
0
 10
22.089290
 20
-574.579843
 30
0.0
 10
22.319690
 20
-573.111043
 30
0.0
  0
LWPOLYLINE
  5
17d
100
AcDbEntity
  8
0
 62
7
100
AcDbPolyline
 90
2
 70
0
 10
227.368490
 20
-576.955843
 30
0.0
 10
228.419690
 20
-575.904643
 30
0.0
  0
LWPOLYLINE
  5
17e
100
AcDbEntity
  8
0
 62
7
100
AcDbPolyline
 90
2
 70
0
 10
224.574890
 20
-577.863043
 30
0.0
 10
226.043690
 20
-577.632643
 30
0.0
  0
LWPOLYLINE
  5
17f
100
AcDbEntity
  8
0
 62
7
100
AcDbPolyline
 90
2
 70
0
 10
21.412490
 20
-570.324643
 30
0.0
 10
20.361290
 20
-569.273443
 30
0.0
  0
LWPOLYLINE
  5
180
100
AcDbEntity
  8
0
 62
7
100
AcDbPolyline
 90
2
 70
0
 10
221.781290
 20
-576.955843
 30
0.0
 10
223.106090
 20
-577.632643
 30
0.0
  0
LWPOLYLINE
  5
181
100
AcDbEntity
  8
0
 62
7
100
AcDbPolyline
 90
2
 70
0
 10
219.830090
 20
-573.111043
 30
0.0
 10
220.060490
 20
-574.579843
 30
0.0
  0
LWPOLYLINE
  5
182
100
AcDbEntity
  8
0
 62
7
100
AcDbPolyline
 90
2
 70
0
 10
220.730090
 20
-570.324643
 30
0.0
 10
220.060490
 20
-571.649443
 30
0.0
  0
LWPOLYLINE
  5
183
100
AcDbEntity
  8
0
 62
7
100
AcDbPolyline
 90
2
 70
0
 10
223.106090
 20
-568.596643
 30
0.0
 10
221.781290
 20
-569.273443
 30
0.0
  0
LWPOLYLINE
  5
184
100
AcDbEntity
  8
0
 62
7
100
AcDbPolyline
 90
2
 70
0
 10
220.730090
 20
-575.904643
 30
0.0
 10
221.781290
 20
-576.955843
 30
0.0
  0
LWPOLYLINE
  5
185
100
AcDbEntity
  8
0
 62
7
100
AcDbPolyline
 90
2
 70
0
 10
229.096490
 20
-574.579843
 30
0.0
 10
229.326890
 20
-573.111043
 30
0.0
  0
LWPOLYLINE
  5
186
100
AcDbEntity
  8
0
 62
7
100
AcDbPolyline
 90
2
 70
0
 10
228.419690
 20
-575.904643
 30
0.0
 10
229.096490
 20
-574.579843
 30
0.0
  0
LWPOLYLINE
  5
187
100
AcDbEntity
  8
0
 62
7
100
AcDbPolyline
 90
2
 70
0
 10
20.361290
 20
-569.273443
 30
0.0
 10
19.036490
 20
-568.596643
 30
0.0
  0
LWPOLYLINE
  5
188
100
AcDbEntity
  8
0
 62
7
100
AcDbPolyline
 90
2
 70
0
 10
430.113290
 20
-568.596643
 30
0.0
 10
428.795690
 20
-569.273443
 30
0.0
  0
LWPOLYLINE
  5
189
100
AcDbEntity
  8
0
 62
7
100
AcDbPolyline
 90
2
 70
0
 10
16.106090
 20
-577.632643
 30
0.0
 10
17.574890
 20
-577.863043
 30
0.0
  0
LWPOLYLINE
  5
18a
100
AcDbEntity
  8
0
 62
7
100
AcDbPolyline
 90
2
 70
0
 10
220.060490
 20
-571.649443
 30
0.0
 10
219.830090
 20
-573.111043
 30
0.0
  0
LWPOLYLINE
  5
18b
100
AcDbEntity
  8
0
 62
7
100
AcDbPolyline
 90
2
 70
0
 10
220.060490
 20
-574.579843
 30
0.0
 10
220.730090
 20
-575.904643
 30
0.0
  0
LWPOLYLINE
  5
18c
100
AcDbEntity
  8
0
 62
7
100
AcDbPolyline
 90
2
 70
0
 10
22.089290
 20
-571.649443
 30
0.0
 10
21.412490
 20
-570.324643
 30
0.0
  0
LWPOLYLINE
  5
18d
100
AcDbEntity
  8
0
 62
7
100
AcDbPolyline
 90
2
 70
0
 10
428.795690
 20
-569.273443
 30
0.0
 10
427.737290
 20
-570.324643
 30
0.0
  0
LWPOLYLINE
  5
18e
100
AcDbEntity
  8
0
 62
7
100
AcDbPolyline
 90
2
 70
0
 10
13.730090
 20
-575.904643
 30
0.0
 10
14.781290
 20
-576.955843
 30
0.0
  0
LWPOLYLINE
  5
18f
100
AcDbEntity
  8
0
 62
7
100
AcDbPolyline
 90
2
 70
0
 10
229.326890
 20
-573.111043
 30
0.0
 10
229.096490
 20
-571.649443
 30
0.0
  0
LWPOLYLINE
  5
190
100
AcDbEntity
  8
0
 62
7
100
AcDbPolyline
 90
2
 70
0
 10
433.050890
 20
-577.632643
 30
0.0
 10
434.368490
 20
-576.955843
 30
0.0
  0
LWPOLYLINE
  5
191
100
AcDbEntity
  8
0
 62
7
100
AcDbPolyline
 90
2
 70
0
 10
431.582090
 20
-577.863043
 30
0.0
 10
433.050890
 20
-577.632643
 30
0.0
  0
LWPOLYLINE
  5
192
100
AcDbEntity
  8
0
 62
7
100
AcDbPolyline
 90
2
 70
0
 10
224.574890
 20
-568.366243
 30
0.0
 10
223.106090
 20
-568.596643
 30
0.0
  0
LWPOLYLINE
  5
193
100
AcDbEntity
  8
0
 62
7
100
AcDbPolyline
 90
2
 70
0
 10
22.319690
 20
-573.111043
 30
0.0
 10
22.089290
 20
-571.649443
 30
0.0
  0
LWPOLYLINE
  5
194
100
AcDbEntity
  8
0
 62
7
100
AcDbPolyline
 90
2
 70
0
 10
223.106090
 20
-577.632643
 30
0.0
 10
224.574890
 20
-577.863043
 30
0.0
  0
LWPOLYLINE
  5
195
100
AcDbEntity
  8
0
 62
7
100
AcDbPolyline
 90
2
 70
0
 10
226.043690
 20
-577.632643
 30
0.0
 10
227.368490
 20
-576.955843
 30
0.0
  0
LWPOLYLINE
  5
196
100
AcDbEntity
  8
0
 62
7
100
AcDbPolyline
 90
2
 70
0
 10
229.096490
 20
-571.649443
 30
0.0
 10
228.419690
 20
-570.324643
 30
0.0
  0
LWPOLYLINE
  5
197
100
AcDbEntity
  8
0
 62
7
100
AcDbPolyline
 90
2
 70
0
 10
17.574890
 20
-577.863043
 30
0.0
 10
19.036490
 20
-577.632643
 30
0.0
  0
LWPOLYLINE
  5
198
100
AcDbEntity
  8
0
 62
7
100
AcDbPolyline
 90
2
 70
0
 10
12.354890
 20
-316.380643
 30
0.0
 10
506.872490
 20
-316.380643
 30
0.0
  0
LWPOLYLINE
  5
199
100
AcDbEntity
  8
0
 62
7
100
AcDbPolyline
 90
2
 70
0
 10
4.262090
 20
-322.255843
 30
0.0
 10
4.499690
 20
-321.629443
 30
0.0
  0
LWPOLYLINE
  5
19a
100
AcDbEntity
  8
0
 62
7
100
AcDbPolyline
 90
2
 70
0
 10
6.335690
 20
-318.864643
 30
0.0
 10
6.832490
 20
-318.418243
 30
0.0
  0
LWPOLYLINE
  5
19b
100
AcDbEntity
  8
0
 62
7
100
AcDbPolyline
 90
2
 70
0
 10
4.499690
 20
-321.629443
 30
0.0
 10
4.773290
 20
-321.024643
 30
0.0
  0
LWPOLYLINE
  5
19c
100
AcDbEntity
  8
0
 62
7
100
AcDbPolyline
 90
2
 70
0
 10
13.730090
 20
-570.324643
 30
0.0
 10
13.053290
 20
-571.649443
 30
0.0
  0
LWPOLYLINE
  5
19d
100
AcDbEntity
  8
0
 62
7
100
AcDbPolyline
 90
2
 70
0
 10
14.781290
 20
-569.273443
 30
0.0
 10
13.730090
 20
-570.324643
 30
0.0
  0
LWPOLYLINE
  5
19e
100
AcDbEntity
  8
0
 62
7
100
AcDbPolyline
 90
2
 70
0
 10
7.358090
 20
-318.000643
 30
0.0
 10
7.912490
 20
-317.633443
 30
0.0
  0
LWPOLYLINE
  5
19f
100
AcDbEntity
  8
0
 62
7
100
AcDbPolyline
 90
2
 70
0
 10
16.106090
 20
-568.596643
 30
0.0
 10
14.781290
 20
-569.273443
 30
0.0
  0
LWPOLYLINE
  5
1a0
100
AcDbEntity
  8
0
 62
7
100
AcDbPolyline
 90
2
 70
0
 10
5.471690
 20
-319.879843
 30
0.0
 10
5.889290
 20
-319.361443
 30
0.0
  0
LWPOLYLINE
  5
1a1
100
AcDbEntity
  8
0
 62
7
100
AcDbPolyline
 90
2
 70
0
 10
9.100490
 20
-317.028643
 30
0.0
 10
9.726890
 20
-316.791043
 30
0.0
  0
LWPOLYLINE
  5
1a2
100
AcDbEntity
  8
0
 62
7
100
AcDbPolyline
 90
2
 70
0
 10
11.022890
 20
-316.481443
 30
0.0
 10
11.685290
 20
-316.409443
 30
0.0
  0
LWPOLYLINE
  5
1a3
100
AcDbEntity
  8
0
 62
7
100
AcDbPolyline
 90
2
 70
0
 10
5.104490
 20
-320.434243
 30
0.0
 10
5.471690
 20
-319.879843
 30
0.0
  0
LWPOLYLINE
  5
1a4
100
AcDbEntity
  8
0
 62
7
100
AcDbPolyline
 90
2
 70
0
 10
6.832490
 20
-318.418243
 30
0.0
 10
7.358090
 20
-318.000643
 30
0.0
  0
LWPOLYLINE
  5
1a5
100
AcDbEntity
  8
0
 62
7
100
AcDbPolyline
 90
2
 70
0
 10
9.726890
 20
-316.791043
 30
0.0
 10
10.367690
 20
-316.611043
 30
0.0
  0
LWPOLYLINE
  5
1a6
100
AcDbEntity
  8
0
 62
7
100
AcDbPolyline
 90
2
 70
0
 10
13.053290
 20
-574.579843
 30
0.0
 10
13.730090
 20
-575.904643
 30
0.0
  0
LWPOLYLINE
  5
1a7
100
AcDbEntity
  8
0
 62
7
100
AcDbPolyline
 90
2
 70
0
 10
12.822890
 20
-573.111043
 30
0.0
 10
13.053290
 20
-574.579843
 30
0.0
  0
LWPOLYLINE
  5
1a8
100
AcDbEntity
  8
0
 62
7
100
AcDbPolyline
 90
2
 70
0
 10
11.685290
 20
-316.409443
 30
0.0
 10
12.354890
 20
-316.380643
 30
0.0
  0
LWPOLYLINE
  5
1a9
100
AcDbEntity
  8
0
 62
7
100
AcDbPolyline
 90
2
 70
0
 10
8.495690
 20
-317.302243
 30
0.0
 10
9.100490
 20
-317.028643
 30
0.0
  0
LWPOLYLINE
  5
1aa
100
AcDbEntity
  8
0
 62
7
100
AcDbPolyline
 90
2
 70
0
 10
10.367690
 20
-316.611043
 30
0.0
 10
11.022890
 20
-316.481443
 30
0.0
  0
LWPOLYLINE
  5
1ab
100
AcDbEntity
  8
0
 62
7
100
AcDbPolyline
 90
2
 70
0
 10
5.889290
 20
-319.361443
 30
0.0
 10
6.335690
 20
-318.864643
 30
0.0
  0
LWPOLYLINE
  5
1ac
100
AcDbEntity
  8
0
 62
7
100
AcDbPolyline
 90
2
 70
0
 10
4.773290
 20
-321.024643
 30
0.0
 10
5.104490
 20
-320.434243
 30
0.0
  0
LWPOLYLINE
  5
1ad
100
AcDbEntity
  8
0
 62
7
100
AcDbPolyline
 90
2
 70
0
 10
13.053290
 20
-571.649443
 30
0.0
 10
12.822890
 20
-573.111043
 30
0.0
  0
LWPOLYLINE
  5
1ae
100
AcDbEntity
  8
0
 62
7
100
AcDbPolyline
 90
2
 70
0
 10
7.912490
 20
-317.633443
 30
0.0
 10
8.495690
 20
-317.302243
 30
0.0
  0
LWPOLYLINE
  5
1af
100
AcDbEntity
  8
0
 62
7
100
AcDbPolyline
 90
2
 70
0
 10
3.880490
 20
-579.000643
 30
0.0
 10
3.851690
 20
-578.331043
 30
0.0
  0
LWPOLYLINE
  5
1b0
100
AcDbEntity
  8
0
 62
7
100
AcDbPolyline
 90
2
 70
0
 10
4.082090
 20
-580.318243
 30
0.0
 10
3.952490
 20
-579.663043
 30
0.0
  0
LWPOLYLINE
  5
1b1
100
AcDbEntity
  8
0
 62
7
100
AcDbPolyline
 90
2
 70
0
 10
9.726890
 20
-586.416643
 30
0.0
 10
9.100490
 20
-586.186243
 30
0.0
  0
LWPOLYLINE
  5
1b2
100
AcDbEntity
  8
0
 62
7
100
AcDbPolyline
 90
2
 70
0
 10
4.262090
 20
-580.959043
 30
0.0
 10
4.082090
 20
-580.318243
 30
0.0
  0
LWPOLYLINE
  5
1b3
100
AcDbEntity
  8
0
 62
7
100
AcDbPolyline
 90
2
 70
0
 10
4.499690
 20
-581.585443
 30
0.0
 10
4.262090
 20
-580.959043
 30
0.0
  0
LWPOLYLINE
  5
1b4
100
AcDbEntity
  8
0
 62
7
100
AcDbPolyline
 90
2
 70
0
 10
4.773290
 20
-582.190243
 30
0.0
 10
4.499690
 20
-581.585443
 30
0.0
  0
LWPOLYLINE
  5
1b5
100
AcDbEntity
  8
0
 62
7
100
AcDbPolyline
 90
2
 70
0
 10
5.471690
 20
-583.327843
 30
0.0
 10
5.104490
 20
-582.773443
 30
0.0
  0
LWPOLYLINE
  5
1b6
100
AcDbEntity
  8
0
 62
7
100
AcDbPolyline
 90
2
 70
0
 10
5.889290
 20
-583.853443
 30
0.0
 10
5.471690
 20
-583.327843
 30
0.0
  0
LWPOLYLINE
  5
1b7
100
AcDbEntity
  8
0
 62
7
100
AcDbPolyline
 90
2
 70
0
 10
7.358090
 20
-585.214243
 30
0.0
 10
6.832490
 20
-584.796643
 30
0.0
  0
LWPOLYLINE
  5
1b8
100
AcDbEntity
  8
0
 62
7
100
AcDbPolyline
 90
2
 70
0
 10
5.104490
 20
-582.773443
 30
0.0
 10
4.773290
 20
-582.190243
 30
0.0
  0
LWPOLYLINE
  5
1b9
100
AcDbEntity
  8
0
 62
7
100
AcDbPolyline
 90
2
 70
0
 10
10.367690
 20
-586.603843
 30
0.0
 10
9.726890
 20
-586.416643
 30
0.0
  0
LWPOLYLINE
  5
1ba
100
AcDbEntity
  8
0
 62
7
100
AcDbPolyline
 90
2
 70
0
 10
8.495690
 20
-585.912643
 30
0.0
 10
7.912490
 20
-585.581443
 30
0.0
  0
LWPOLYLINE
  5
1bb
100
AcDbEntity
  8
0
 62
7
100
AcDbPolyline
 90
2
 70
0
 10
6.832490
 20
-584.796643
 30
0.0
 10
6.335690
 20
-584.343043
 30
0.0
  0
LWPOLYLINE
  5
1bc
100
AcDbEntity
  8
0
 62
7
100
AcDbPolyline
 90
2
 70
0
 10
3.851690
 20
-324.883843
 30
0.0
 10
3.880490
 20
-324.214243
 30
0.0
  0
LWPOLYLINE
  5
1bd
100
AcDbEntity
  8
0
 62
7
100
AcDbPolyline
 90
2
 70
0
 10
11.022890
 20
-586.733443
 30
0.0
 10
10.367690
 20
-586.603843
 30
0.0
  0
LWPOLYLINE
  5
1be
100
AcDbEntity
  8
0
 62
7
100
AcDbPolyline
 90
2
 70
0
 10
4.082090
 20
-322.896643
 30
0.0
 10
4.262090
 20
-322.255843
 30
0.0
  0
LWPOLYLINE
  5
1bf
100
AcDbEntity
  8
0
 62
7
100
AcDbPolyline
 90
2
 70
0
 10
9.100490
 20
-586.186243
 30
0.0
 10
8.495690
 20
-585.912643
 30
0.0
  0
LWPOLYLINE
  5
1c0
100
AcDbEntity
  8
0
 62
7
100
AcDbPolyline
 90
2
 70
0
 10
3.952490
 20
-323.551843
 30
0.0
 10
4.082090
 20
-322.896643
 30
0.0
  0
LWPOLYLINE
  5
1c1
100
AcDbEntity
  8
0
 62
7
100
AcDbPolyline
 90
2
 70
0
 10
3.952490
 20
-579.663043
 30
0.0
 10
3.880490
 20
-579.000643
 30
0.0
  0
LWPOLYLINE
  5
1c2
100
AcDbEntity
  8
0
 62
7
100
AcDbPolyline
 90
2
 70
0
 10
6.335690
 20
-584.343043
 30
0.0
 10
5.889290
 20
-583.853443
 30
0.0
  0
LWPOLYLINE
  5
1c3
100
AcDbEntity
  8
0
 62
7
100
AcDbPolyline
 90
2
 70
0
 10
7.912490
 20
-585.581443
 30
0.0
 10
7.358090
 20
-585.214243
 30
0.0
  0
LWPOLYLINE
  5
1c4
100
AcDbEntity
  8
0
 62
7
100
AcDbPolyline
 90
2
 70
0
 10
3.880490
 20
-324.214243
 30
0.0
 10
3.952490
 20
-323.551843
 30
0.0
  0
LWPOLYLINE
  5
1c5
100
AcDbEntity
  8
0
 62
7
100
AcDbPolyline
 90
2
 70
0
 10
3.851690
 20
-578.331043
 30
0.0
 10
3.851690
 20
-324.883843
 30
0.0
  0
LWPOLYLINE
  5
1c6
100
AcDbEntity
  8
0
 62
7
100
AcDbPolyline
 90
2
 70
0
 10
646.430090
 20
-586.416643
 30
0.0
 10
645.789290
 20
-586.603843
 30
0.0
  0
LWPOLYLINE
  5
1c7
100
AcDbEntity
  8
0
 62
7
100
AcDbPolyline
 90
2
 70
0
 10
647.056490
 20
-586.186243
 30
0.0
 10
646.430090
 20
-586.416643
 30
0.0
  0
LWPOLYLINE
  5
1c8
100
AcDbEntity
  8
0
 62
7
100
AcDbPolyline
 90
2
 70
0
 10
651.052490
 20
-582.773443
 30
0.0
 10
650.685290
 20
-583.327843
 30
0.0
  0
LWPOLYLINE
  5
1c9
100
AcDbEntity
  8
0
 62
7
100
AcDbPolyline
 90
2
 70
0
 10
652.204490
 20
-579.663043
 30
0.0
 10
652.074890
 20
-580.318243
 30
0.0
  0
LWPOLYLINE
  5
1ca
100
AcDbEntity
  8
0
 62
7
100
AcDbPolyline
 90
2
 70
0
 10
652.283690
 20
-579.000643
 30
0.0
 10
652.204490
 20
-579.663043
 30
0.0
  0
LWPOLYLINE
  5
1cb
100
AcDbEntity
  8
0
 62
7
100
AcDbPolyline
 90
2
 70
0
 10
649.814090
 20
-584.343043
 30
0.0
 10
649.324490
 20
-584.796643
 30
0.0
  0
LWPOLYLINE
  5
1cc
100
AcDbEntity
  8
0
 62
7
100
AcDbPolyline
 90
2
 70
0
 10
648.244490
 20
-585.581443
 30
0.0
 10
647.661290
 20
-585.912643
 30
0.0
  0
LWPOLYLINE
  5
1cd
100
AcDbEntity
  8
0
 62
7
100
AcDbPolyline
 90
2
 70
0
 10
649.324490
 20
-584.796643
 30
0.0
 10
648.798890
 20
-585.214243
 30
0.0
  0
LWPOLYLINE
  5
1ce
100
AcDbEntity
  8
0
 62
7
100
AcDbPolyline
 90
2
 70
0
 10
647.661290
 20
-585.912643
 30
0.0
 10
647.056490
 20
-586.186243
 30
0.0
  0
LWPOLYLINE
  5
1cf
100
AcDbEntity
  8
0
 62
7
100
AcDbPolyline
 90
2
 70
0
 10
648.798890
 20
-585.214243
 30
0.0
 10
648.244490
 20
-585.581443
 30
0.0
  0
LWPOLYLINE
  5
1d0
100
AcDbEntity
  8
0
 62
7
100
AcDbPolyline
 90
3
 70
0
 10
650.685290
 20
-583.327843
 30
0.0
 10
650.267690
 20
-583.853443
 30
0.0
 10
649.814090
 20
-584.343043
 30
0.0
  0
LWPOLYLINE
  5
1d1
100
AcDbEntity
  8
0
 62
7
100
AcDbPolyline
 90
2
 70
0
 10
651.383690
 20
-582.190243
 30
0.0
 10
651.052490
 20
-582.773443
 30
0.0
  0
LWPOLYLINE
  5
1d2
100
AcDbEntity
  8
0
 62
7
100
AcDbPolyline
 90
2
 70
0
 10
651.887690
 20
-580.959043
 30
0.0
 10
651.657290
 20
-581.585443
 30
0.0
  0
LWPOLYLINE
  5
1d3
100
AcDbEntity
  8
0
 62
7
100
AcDbPolyline
 90
2
 70
0
 10
11.685290
 20
-586.805443
 30
0.0
 10
11.022890
 20
-586.733443
 30
0.0
  0
LWPOLYLINE
  5
1d4
100
AcDbEntity
  8
0
 62
7
100
AcDbPolyline
 90
2
 70
0
 10
652.074890
 20
-580.318243
 30
0.0
 10
651.887690
 20
-580.959043
 30
0.0
  0
LWPOLYLINE
  5
1d5
100
AcDbEntity
  8
0
 62
7
100
AcDbPolyline
 90
2
 70
0
 10
12.354890
 20
-586.834243
 30
0.0
 10
11.685290
 20
-586.805443
 30
0.0
  0
LWPOLYLINE
  5
1d6
100
AcDbEntity
  8
0
 62
7
100
AcDbPolyline
 90
2
 70
0
 10
645.134090
 20
-586.733443
 30
0.0
 10
644.471690
 20
-586.805443
 30
0.0
  0
LWPOLYLINE
  5
1d7
100
AcDbEntity
  8
0
 62
7
100
AcDbPolyline
 90
2
 70
0
 10
651.657290
 20
-581.585443
 30
0.0
 10
651.383690
 20
-582.190243
 30
0.0
  0
LWPOLYLINE
  5
1d8
100
AcDbEntity
  8
0
 62
7
100
AcDbPolyline
 90
2
 70
0
 10
643.802090
 20
-586.834243
 30
0.0
 10
12.354890
 20
-586.834243
 30
0.0
  0
LWPOLYLINE
  5
1d9
100
AcDbEntity
  8
0
 62
7
100
AcDbPolyline
 90
2
 70
0
 10
644.471690
 20
-586.805443
 30
0.0
 10
643.802090
 20
-586.834243
 30
0.0
  0
LWPOLYLINE
  5
1da
100
AcDbEntity
  8
0
 62
7
100
AcDbPolyline
 90
2
 70
0
 10
652.305290
 20
-578.331043
 30
0.0
 10
652.283690
 20
-579.000643
 30
0.0
  0
LWPOLYLINE
  5
1db
100
AcDbEntity
  8
0
 62
7
100
AcDbPolyline
 90
2
 70
0
 10
645.789290
 20
-586.603843
 30
0.0
 10
645.134090
 20
-586.733443
 30
0.0
  0
LWPOLYLINE
  5
1dc
100
AcDbEntity
  8
0
 62
7
100
AcDbPolyline
 90
2
 70
0
 10
643.802090
 20
-316.380643
 30
0.0
 10
644.471690
 20
-316.409443
 30
0.0
  0
LWPOLYLINE
  5
1dd
100
AcDbEntity
  8
0
 62
7
100
AcDbPolyline
 90
2
 70
0
 10
568.814090
 20
-343.647043
 30
0.0
 10
568.814090
 20
-316.380643
 30
0.0
  0
LWPOLYLINE
  5
1de
100
AcDbEntity
  8
0
 62
7
100
AcDbPolyline
 90
2
 70
0
 10
648.798890
 20
-318.000643
 30
0.0
 10
649.324490
 20
-318.418243
 30
0.0
  0
LWPOLYLINE
  5
1df
100
AcDbEntity
  8
0
 62
7
100
AcDbPolyline
 90
2
 70
0
 10
652.305290
 20
-324.883843
 30
0.0
 10
652.305290
 20
-578.331043
 30
0.0
  0
LWPOLYLINE
  5
1e0
100
AcDbEntity
  8
0
 62
7
100
AcDbPolyline
 90
2
 70
0
 10
650.267690
 20
-319.361443
 30
0.0
 10
650.685290
 20
-319.879843
 30
0.0
  0
LWPOLYLINE
  5
1e1
100
AcDbEntity
  8
0
 62
7
100
AcDbPolyline
 90
2
 70
0
 10
652.283690
 20
-324.214243
 30
0.0
 10
652.305290
 20
-324.883843
 30
0.0
  0
LWPOLYLINE
  5
1e2
100
AcDbEntity
  8
0
 62
7
100
AcDbPolyline
 90
2
 70
0
 10
651.052490
 20
-320.434243
 30
0.0
 10
651.383690
 20
-321.024643
 30
0.0
  0
LWPOLYLINE
  5
1e3
100
AcDbEntity
  8
0
 62
7
100
AcDbPolyline
 90
2
 70
0
 10
652.204490
 20
-323.551843
 30
0.0
 10
652.283690
 20
-324.214243
 30
0.0
  0
LWPOLYLINE
  5
1e4
100
AcDbEntity
  8
0
 62
7
100
AcDbPolyline
 90
2
 70
0
 10
649.324490
 20
-318.418243
 30
0.0
 10
649.814090
 20
-318.864643
 30
0.0
  0
LWPOLYLINE
  5
1e5
100
AcDbEntity
  8
0
 62
7
100
AcDbPolyline
 90
2
 70
0
 10
647.056490
 20
-317.028643
 30
0.0
 10
647.661290
 20
-317.302243
 30
0.0
  0
LWPOLYLINE
  5
1e6
100
AcDbEntity
  8
0
 62
7
100
AcDbPolyline
 90
2
 70
0
 10
645.789290
 20
-316.611043
 30
0.0
 10
646.430090
 20
-316.791043
 30
0.0
  0
LWPOLYLINE
  5
1e7
100
AcDbEntity
  8
0
 62
7
100
AcDbPolyline
 90
2
 70
0
 10
649.814090
 20
-318.864643
 30
0.0
 10
650.267690
 20
-319.361443
 30
0.0
  0
LWPOLYLINE
  5
1e8
100
AcDbEntity
  8
0
 62
7
100
AcDbPolyline
 90
2
 70
0
 10
652.074890
 20
-322.896643
 30
0.0
 10
652.204490
 20
-323.551843
 30
0.0
  0
LWPOLYLINE
  5
1e9
100
AcDbEntity
  8
0
 62
7
100
AcDbPolyline
 90
2
 70
0
 10
651.887690
 20
-322.255843
 30
0.0
 10
652.074890
 20
-322.896643
 30
0.0
  0
LWPOLYLINE
  5
1ea
100
AcDbEntity
  8
0
 62
7
100
AcDbPolyline
 90
3
 70
0
 10
651.383690
 20
-321.024643
 30
0.0
 10
651.657290
 20
-321.629443
 30
0.0
 10
651.887690
 20
-322.255843
 30
0.0
  0
LWPOLYLINE
  5
1eb
100
AcDbEntity
  8
0
 62
7
100
AcDbPolyline
 90
2
 70
0
 10
645.134090
 20
-316.481443
 30
0.0
 10
645.789290
 20
-316.611043
 30
0.0
  0
LWPOLYLINE
  5
1ec
100
AcDbEntity
  8
0
 62
7
100
AcDbPolyline
 90
2
 70
0
 10
650.685290
 20
-319.879843
 30
0.0
 10
651.052490
 20
-320.434243
 30
0.0
  0
LWPOLYLINE
  5
1ed
100
AcDbEntity
  8
0
 62
7
100
AcDbPolyline
 90
2
 70
0
 10
648.244490
 20
-317.633443
 30
0.0
 10
648.798890
 20
-318.000643
 30
0.0
  0
LWPOLYLINE
  5
1ee
100
AcDbEntity
  8
0
 62
7
100
AcDbPolyline
 90
2
 70
0
 10
568.814090
 20
-316.380643
 30
0.0
 10
643.802090
 20
-316.380643
 30
0.0
  0
LWPOLYLINE
  5
1ef
100
AcDbEntity
  8
0
 62
7
100
AcDbPolyline
 90
2
 70
0
 10
647.661290
 20
-317.302243
 30
0.0
 10
648.244490
 20
-317.633443
 30
0.0
  0
LWPOLYLINE
  5
1f0
100
AcDbEntity
  8
0
 62
7
100
AcDbPolyline
 90
2
 70
0
 10
646.430090
 20
-316.791043
 30
0.0
 10
647.056490
 20
-317.028643
 30
0.0
  0
LWPOLYLINE
  5
1f1
100
AcDbEntity
  8
0
 62
7
100
AcDbPolyline
 90
2
 70
0
 10
644.471690
 20
-316.409443
 30
0.0
 10
645.134090
 20
-316.481443
 30
0.0
  0
LWPOLYLINE
  5
1f2
100
AcDbEntity
  8
0
 62
7
100
AcDbPolyline
 90
2
 70
0
 10
506.872490
 20
-316.380643
 30
0.0
 10
506.886890
 20
-343.625443
 30
0.0
  0
SPLINE
  5
1f3
100
AcDbEntity
  8
0
 62
7
100
AcDbSpline
 70
8
 71
3
 72
8
 73
4
 74
0
 40
0
 40
0
 40
0
 40
0
 40
1
 40
1
 40
1
 40
1
 10
621.677210
 20
-336.872275
 30
0.0
 10
621.677207
 20
-335.977108
 30
0.0
 10
621.321577
 20
-335.118612
 30
0.0
 10
620.688564
 20
-334.485667
 30
0.0
  0
SPLINE
  5
1f4
100
AcDbEntity
  8
0
 62
7
100
AcDbSpline
 70
8
 71
3
 72
8
 73
4
 74
0
 40
0
 40
0
 40
0
 40
0
 40
1
 40
1
 40
1
 40
1
 10
620.688564
 20
-334.485667
 30
0.0
 10
620.055552
 20
-333.852722
 30
0.0
 10
619.197017
 20
-333.497184
 30
0.0
 10
618.301850
 20
-333.497275
 30
0.0
  0
SPLINE
  5
1f5
100
AcDbEntity
  8
0
 62
7
100
AcDbSpline
 70
8
 71
3
 72
8
 73
4
 74
0
 40
0
 40
0
 40
0
 40
0
 40
1
 40
1
 40
1
 40
1
 10
598.051850
 20
-343.622347
 30
0.0
 10
598.947017
 20
-343.622439
 30
0.0
 10
599.805552
 20
-343.266900
 30
0.0
 10
600.438564
 20
-342.633956
 30
0.0
  0
SPLINE
  5
1f6
100
AcDbEntity
  8
0
 62
7
100
AcDbSpline
 70
8
 71
3
 72
8
 73
4
 74
0
 40
0
 40
0
 40
0
 40
0
 40
1
 40
1
 40
1
 40
1
 10
600.438564
 20
-342.633956
 30
0.0
 10
601.071577
 20
-342.001011
 30
0.0
 10
601.427207
 20
-341.142514
 30
0.0
 10
601.427210
 20
-340.247347
 30
0.0
  0
LWPOLYLINE
  5
1f7
100
AcDbEntity
  8
0
 62
7
100
AcDbPolyline
 90
3
 70
0
 10
621.676490
 20
-336.871843
 30
0.0
 10
621.676490
 20
-343.618243
 30
0.0
 10
625.046090
 20
-346.995043
 30
0.0
  0
LWPOLYLINE
  5
1f8
100
AcDbEntity
  8
0
 62
7
100
AcDbPolyline
 90
2
 70
0
 10
601.422890
 20
-336.871843
 30
0.0
 10
601.422890
 20
-340.241443
 30
0.0
  0
LWPOLYLINE
  5
1f9
100
AcDbEntity
  8
0
 62
7
100
AcDbPolyline
 90
2
 70
0
 10
618.299690
 20
-333.495043
 30
0.0
 10
604.799690
 20
-333.495043
 30
0.0
  0
SPLINE
  5
1fa
100
AcDbEntity
  8
0
 62
7
100
AcDbSpline
 70
8
 71
3
 72
8
 73
4
 74
0
 40
0
 40
0
 40
0
 40
0
 40
1
 40
1
 40
1
 40
1
 10
635.177210
 20
-350.372347
 30
0.0
 10
635.177202
 20
-348.508530
 30
0.0
 10
633.666388
 20
-346.997554
 30
0.0
 10
631.802570
 20
-346.997347
 30
0.0
  0
LWPOLYLINE
  5
1fb
100
AcDbEntity
  8
0
 62
7
100
AcDbPolyline
 90
2
 70
0
 10
625.046090
 20
-346.995043
 30
0.0
 10
631.799690
 20
-346.995043
 30
0.0
  0
SPLINE
  5
1fc
100
AcDbEntity
  8
0
 62
7
100
AcDbSpline
 70
8
 71
3
 72
8
 73
4
 74
0
 40
0
 40
0
 40
0
 40
0
 40
1
 40
1
 40
1
 40
1
 10
628.427210
 20
-367.247419
 30
0.0
 10
627.532044
 20
-367.247328
 30
0.0
 10
626.673509
 20
-367.602866
 30
0.0
 10
626.040497
 20
-368.235811
 30
0.0
  0
SPLINE
  5
1fd
100
AcDbEntity
  8
0
 62
7
100
AcDbSpline
 70
8
 71
3
 72
8
 73
4
 74
0
 40
0
 40
0
 40
0
 40
0
 40
1
 40
1
 40
1
 40
1
 10
626.040497
 20
-368.235811
 30
0.0
 10
625.407484
 20
-368.868756
 30
0.0
 10
625.051854
 20
-369.727252
 30
0.0
 10
625.051850
 20
-370.622419
 30
0.0
  0
LWPOLYLINE
  5
1fe
100
AcDbEntity
  8
0
 62
7
100
AcDbPolyline
 90
2
 70
0
 10
635.176490
 20
-350.371843
 30
0.0
 10
635.176490
 20
-363.871843
 30
0.0
  0
SPLINE
  5
1ff
100
AcDbEntity
  8
0
 62
7
100
AcDbSpline
 70
8
 71
3
 72
8
 73
4
 74
0
 40
0
 40
0
 40
0
 40
0
 40
1
 40
1
 40
1
 40
1
 10
631.802570
 20
-367.247419
 30
0.0
 10
633.666388
 20
-367.247212
 30
0.0
 10
635.177202
 20
-365.736236
 30
0.0
 10
635.177210
 20
-363.872419
 30
0.0
  0
SPLINE
  5
200
100
AcDbEntity
  8
0
 62
7
100
AcDbSpline
 70
8
 71
3
 72
8
 73
4
 74
0
 40
0
 40
0
 40
0
 40
0
 40
1
 40
1
 40
1
 40
1
 10
604.801850
 20
-333.497275
 30
0.0
 10
602.938033
 20
-333.497482
 30
0.0
 10
601.427218
 20
-335.008458
 30
0.0
 10
601.427210
 20
-336.872275
 30
0.0
  0
SPLINE
  5
201
100
AcDbEntity
  8
0
 62
7
100
AcDbSpline
 70
8
 71
3
 72
8
 73
4
 74
0
 40
0
 40
0
 40
0
 40
0
 40
1
 40
1
 40
1
 40
1
 10
635.177210
 20
-539.373283
 30
0.0
 10
635.177401
 20
-537.509325
 30
0.0
 10
633.666528
 20
-535.998130
 30
0.0
 10
631.802570
 20
-535.997923
 30
0.0
  0
LWPOLYLINE
  5
202
100
AcDbEntity
  8
0
 62
7
100
AcDbPolyline
 90
2
 70
0
 10
631.799690
 20
-367.241443
 30
0.0
 10
628.422890
 20
-367.241443
 30
0.0
  0
SPLINE
  5
203
100
AcDbEntity
  8
0
 62
7
100
AcDbSpline
 70
8
 71
3
 72
8
 73
4
 74
0
 40
0
 40
0
 40
0
 40
0
 40
1
 40
1
 40
1
 40
1
 10
631.802570
 20
-556.247923
 30
0.0
 10
633.666247
 20
-556.247716
 30
0.0
 10
635.177004
 20
-554.736960
 30
0.0
 10
635.177210
 20
-552.873283
 30
0.0
  0
LWPOLYLINE
  5
204
100
AcDbEntity
  8
0
 62
7
100
AcDbPolyline
 90
2
 70
0
 10
625.046090
 20
-556.241443
 30
0.0
 10
631.799690
 20
-556.241443
 30
0.0
  0
LWPOLYLINE
  5
205
100
AcDbEntity
  8
0
 62
7
100
AcDbPolyline
 90
2
 70
0
 10
635.176490
 20
-552.871843
 30
0.0
 10
635.176490
 20
-539.371843
 30
0.0
  0
LWPOLYLINE
  5
206
100
AcDbEntity
  8
0
 62
7
100
AcDbPolyline
 90
2
 70
0
 10
631.799690
 20
-535.995043
 30
0.0
 10
628.422890
 20
-535.995043
 30
0.0
  0
SPLINE
  5
207
100
AcDbEntity
  8
0
 62
7
100
AcDbSpline
 70
8
 71
3
 72
8
 73
4
 74
0
 40
0
 40
0
 40
0
 40
0
 40
1
 40
1
 40
1
 40
1
 10
601.427210
 20
-566.373283
 30
0.0
 10
601.427417
 20
-568.236960
 30
0.0
 10
602.938174
 20
-569.747716
 30
0.0
 10
604.801850
 20
-569.747923
 30
0.0
  0
SPLINE
  5
208
100
AcDbEntity
  8
0
 62
7
100
AcDbSpline
 70
8
 71
3
 72
8
 73
4
 74
0
 40
0
 40
0
 40
0
 40
0
 40
1
 40
1
 40
1
 40
1
 10
618.301850
 20
-569.747923
 30
0.0
 10
620.165808
 20
-569.748114
 30
0.0
 10
621.677004
 20
-568.237241
 30
0.0
 10
621.677210
 20
-566.373283
 30
0.0
  0
LWPOLYLINE
  5
209
100
AcDbEntity
  8
0
 62
7
100
AcDbPolyline
 90
2
 70
0
 10
601.422890
 20
-566.371843
 30
0.0
 10
601.422890
 20
-562.995043
 30
0.0
  0
LWPOLYLINE
  5
20a
100
AcDbEntity
  8
0
 62
7
100
AcDbPolyline
 90
2
 70
0
 10
618.299690
 20
-569.741443
 30
0.0
 10
604.799690
 20
-569.741443
 30
0.0
  0
SPLINE
  5
20b
100
AcDbEntity
  8
0
 62
7
100
AcDbSpline
 70
8
 71
3
 72
8
 73
4
 74
0
 40
0
 40
0
 40
0
 40
0
 40
1
 40
1
 40
1
 40
1
 10
601.427210
 20
-562.997923
 30
0.0
 10
601.427004
 20
-561.133965
 30
0.0
 10
599.915808
 20
-559.623092
 30
0.0
 10
598.051850
 20
-559.623283
 30
0.0
  0
LWPOLYLINE
  5
20c
100
AcDbEntity
  8
0
 62
7
100
AcDbPolyline
 90
2
 70
0
 10
621.676490
 20
-559.618243
 30
0.0
 10
621.676490
 20
-566.371843
 30
0.0
  0
SPLINE
  5
20d
100
AcDbEntity
  8
0
 62
7
100
AcDbSpline
 70
8
 71
3
 72
8
 73
4
 74
0
 40
0
 40
0
 40
0
 40
0
 40
1
 40
1
 40
1
 40
1
 10
625.051850
 20
-532.623283
 30
0.0
 10
625.052057
 20
-534.487241
 30
0.0
 10
626.563253
 20
-535.998114
 30
0.0
 10
628.427210
 20
-535.997923
 30
0.0
  0
LWPOLYLINE
  5
20e
100
AcDbEntity
  8
0
 62
7
100
AcDbPolyline
 90
2
 70
0
 10
625.046090
 20
-556.241443
 30
0.0
 10
621.676490
 20
-559.618243
 30
0.0
  0
LWPOLYLINE
  5
20f
100
AcDbEntity
  8
0
 62
7
100
AcDbPolyline
 90
2
 70
0
 10
24.292490
 20
-367.241443
 30
0.0
 10
27.669290
 20
-367.241443
 30
0.0
  0
SPLINE
  5
210
100
AcDbEntity
  8
0
 62
7
100
AcDbSpline
 70
8
 71
3
 72
8
 73
4
 74
0
 40
0
 40
0
 40
0
 40
0
 40
1
 40
1
 40
1
 40
1
 10
24.299690
 20
-346.997347
 30
0.0
 10
22.435733
 20
-346.997355
 30
0.0
 10
20.924698
 20
-348.508389
 30
0.0
 10
20.924690
 20
-350.372347
 30
0.0
  0
SPLINE
  5
211
100
AcDbEntity
  8
0
 62
7
100
AcDbSpline
 70
8
 71
3
 72
8
 73
4
 74
0
 40
0
 40
0
 40
0
 40
0
 40
1
 40
1
 40
1
 40
1
 10
20.924690
 20
-363.872419
 30
0.0
 10
20.924698
 20
-365.736377
 30
0.0
 10
22.435733
 20
-367.247411
 30
0.0
 10
24.299690
 20
-367.247419
 30
0.0
  0
LWPOLYLINE
  5
212
100
AcDbEntity
  8
0
 62
7
100
AcDbPolyline
 90
2
 70
0
 10
20.922890
 20
-350.371843
 30
0.0
 10
20.922890
 20
-363.871843
 30
0.0
  0
LWPOLYLINE
  5
213
100
AcDbEntity
  8
0
 62
7
100
AcDbPolyline
 90
2
 70
0
 10
34.422890
 20
-343.618243
 30
0.0
 10
31.046090
 20
-346.995043
 30
0.0
  0
LWPOLYLINE
  5
214
100
AcDbEntity
  8
0
 62
7
100
AcDbPolyline
 90
2
 70
0
 10
54.669290
 20
-336.871843
 30
0.0
 10
54.669290
 20
-340.241443
 30
0.0
  0
SPLINE
  5
215
100
AcDbEntity
  8
0
 62
7
100
AcDbSpline
 70
8
 71
3
 72
8
 73
4
 74
0
 40
0
 40
0
 40
0
 40
0
 40
1
 40
1
 40
1
 40
1
 10
37.799762
 20
-333.497275
 30
0.0
 10
36.904645
 20
-333.497260
 30
0.0
 10
36.046185
 20
-333.852832
 30
0.0
 10
35.413235
 20
-334.485769
 30
0.0
  0
SPLINE
  5
216
100
AcDbEntity
  8
0
 62
7
100
AcDbSpline
 70
8
 71
3
 72
8
 73
4
 74
0
 40
0
 40
0
 40
0
 40
0
 40
1
 40
1
 40
1
 40
1
 10
35.413235
 20
-334.485769
 30
0.0
 10
34.780285
 20
-335.118705
 30
0.0
 10
34.424694
 20
-335.977158
 30
0.0
 10
34.424690
 20
-336.872275
 30
0.0
  0
SPLINE
  5
217
100
AcDbEntity
  8
0
 62
7
100
AcDbSpline
 70
8
 71
3
 72
8
 73
4
 74
0
 40
0
 40
0
 40
0
 40
0
 40
1
 40
1
 40
1
 40
1
 10
54.674834
 20
-336.872275
 30
0.0
 10
54.674831
 20
-335.977158
 30
0.0
 10
54.319240
 20
-335.118705
 30
0.0
 10
53.686290
 20
-334.485769
 30
0.0
  0
SPLINE
  5
218
100
AcDbEntity
  8
0
 62
7
100
AcDbSpline
 70
8
 71
3
 72
8
 73
4
 74
0
 40
0
 40
0
 40
0
 40
0
 40
1
 40
1
 40
1
 40
1
 10
53.686290
 20
-334.485769
 30
0.0
 10
53.053340
 20
-333.852832
 30
0.0
 10
52.194879
 20
-333.497260
 30
0.0
 10
51.299762
 20
-333.497275
 30
0.0
  0
SPLINE
  5
219
100
AcDbEntity
  8
0
 62
7
100
AcDbSpline
 70
8
 71
3
 72
8
 73
4
 74
0
 40
0
 40
0
 40
0
 40
0
 40
1
 40
1
 40
1
 40
1
 10
54.674834
 20
-340.247347
 30
0.0
 10
54.674842
 20
-342.111305
 30
0.0
 10
56.185877
 20
-343.622339
 30
0.0
 10
58.049834
 20
-343.622347
 30
0.0
  0
LWPOLYLINE
  5
21a
100
AcDbEntity
  8
0
 62
7
100
AcDbPolyline
 90
2
 70
0
 10
37.799690
 20
-333.495043
 30
0.0
 10
51.299690
 20
-333.495043
 30
0.0
  0
LWPOLYLINE
  5
21b
100
AcDbEntity
  8
0
 62
7
100
AcDbPolyline
 90
2
 70
0
 10
34.422890
 20
-343.618243
 30
0.0
 10
34.422890
 20
-336.871843
 30
0.0
  0
SPLINE
  5
21c
100
AcDbEntity
  8
0
 62
7
100
AcDbSpline
 70
8
 71
3
 72
8
 73
4
 74
0
 40
0
 40
0
 40
0
 40
0
 40
1
 40
1
 40
1
 40
1
 10
31.049690
 20
-370.622419
 30
0.0
 10
31.049682
 20
-368.758461
 30
0.0
 10
29.538648
 20
-367.247427
 30
0.0
 10
27.674690
 20
-367.247419
 30
0.0
  0
LWPOLYLINE
  5
21d
100
AcDbEntity
  8
0
 62
7
100
AcDbPolyline
 90
2
 70
0
 10
31.046090
 20
-346.995043
 30
0.0
 10
24.292490
 20
-346.995043
 30
0.0
  0
LWPOLYLINE
  5
21e
100
AcDbEntity
  8
0
 62
7
100
AcDbPolyline
 90
2
 70
0
 10
24.292490
 20
-535.995043
 30
0.0
 10
27.669290
 20
-535.995043
 30
0.0
  0
SPLINE
  5
21f
100
AcDbEntity
  8
0
 62
7
100
AcDbSpline
 70
8
 71
3
 72
8
 73
4
 74
0
 40
0
 40
0
 40
0
 40
0
 40
1
 40
1
 40
1
 40
1
 10
24.299690
 20
-535.997923
 30
0.0
 10
23.404524
 20
-535.997927
 30
0.0
 10
22.546027
 20
-536.353557
 30
0.0
 10
21.913082
 20
-536.986569
 30
0.0
  0
SPLINE
  5
220
100
AcDbEntity
  8
0
 62
7
100
AcDbSpline
 70
8
 71
3
 72
8
 73
4
 74
0
 40
0
 40
0
 40
0
 40
0
 40
1
 40
1
 40
1
 40
1
 10
21.913082
 20
-536.986569
 30
0.0
 10
21.280137
 20
-537.619582
 30
0.0
 10
20.924599
 20
-538.478116
 30
0.0
 10
20.924690
 20
-539.373283
 30
0.0
  0
SPLINE
  5
221
100
AcDbEntity
  8
0
 62
7
100
AcDbSpline
 70
8
 71
3
 72
8
 73
4
 74
0
 40
0
 40
0
 40
0
 40
0
 40
1
 40
1
 40
1
 40
1
 10
20.924690
 20
-552.873283
 30
0.0
 10
20.924897
 20
-554.737100
 30
0.0
 10
22.435873
 20
-556.247915
 30
0.0
 10
24.299690
 20
-556.247923
 30
0.0
  0
LWPOLYLINE
  5
222
100
AcDbEntity
  8
0
 62
7
100
AcDbPolyline
 90
2
 70
0
 10
20.922890
 20
-552.871843
 30
0.0
 10
20.922890
 20
-539.371843
 30
0.0
  0
SPLINE
  5
223
100
AcDbEntity
  8
0
 62
7
100
AcDbSpline
 70
8
 71
3
 72
8
 73
4
 74
0
 40
0
 40
0
 40
0
 40
0
 40
1
 40
1
 40
1
 40
1
 10
27.674690
 20
-535.997923
 30
0.0
 10
29.538508
 20
-535.997915
 30
0.0
 10
31.049484
 20
-534.487100
 30
0.0
 10
31.049690
 20
-532.623283
 30
0.0
  0
LWPOLYLINE
  5
224
100
AcDbEntity
  8
0
 62
7
100
AcDbPolyline
 90
2
 70
0
 10
31.046090
 20
-556.241443
 30
0.0
 10
24.292490
 20
-556.241443
 30
0.0
  0
LWPOLYLINE
  5
225
100
AcDbEntity
  8
0
 62
7
100
AcDbPolyline
 90
2
 70
0
 10
31.046090
 20
-556.241443
 30
0.0
 10
34.422890
 20
-559.618243
 30
0.0
  0
LWPOLYLINE
  5
226
100
AcDbEntity
  8
0
 62
7
100
AcDbPolyline
 90
2
 70
0
 10
54.669290
 20
-566.371843
 30
0.0
 10
54.669290
 20
-562.995043
 30
0.0
  0
SPLINE
  5
227
100
AcDbEntity
  8
0
 62
7
100
AcDbSpline
 70
8
 71
3
 72
8
 73
4
 74
0
 40
0
 40
0
 40
0
 40
0
 40
1
 40
1
 40
1
 40
1
 10
34.424690
 20
-566.373283
 30
0.0
 10
34.424897
 20
-568.237128
 30
0.0
 10
35.935917
 20
-569.747955
 30
0.0
 10
37.799762
 20
-569.747923
 30
0.0
  0
SPLINE
  5
228
100
AcDbEntity
  8
0
 62
7
100
AcDbSpline
 70
8
 71
3
 72
8
 73
4
 74
0
 40
0
 40
0
 40
0
 40
0
 40
1
 40
1
 40
1
 40
1
 10
51.299762
 20
-569.747923
 30
0.0
 10
53.163608
 20
-569.747955
 30
0.0
 10
54.674628
 20
-568.237128
 30
0.0
 10
54.674834
 20
-566.373283
 30
0.0
  0
SPLINE
  5
229
100
AcDbEntity
  8
0
 62
7
100
AcDbSpline
 70
8
 71
3
 72
8
 73
4
 74
0
 40
0
 40
0
 40
0
 40
0
 40
1
 40
1
 40
1
 40
1
 10
58.049834
 20
-559.623283
 30
0.0
 10
56.186017
 20
-559.623291
 30
0.0
 10
54.675041
 20
-561.134106
 30
0.0
 10
54.674834
 20
-562.997923
 30
0.0
  0
LWPOLYLINE
  5
22a
100
AcDbEntity
  8
0
 62
7
100
AcDbPolyline
 90
2
 70
0
 10
37.799690
 20
-569.741443
 30
0.0
 10
51.299690
 20
-569.741443
 30
0.0
  0
LWPOLYLINE
  5
22b
100
AcDbEntity
  8
0
 62
7
100
AcDbPolyline
 90
2
 70
0
 10
34.422890
 20
-559.618243
 30
0.0
 10
34.422890
 20
-566.371843
 30
0.0
  0
LWPOLYLINE
  5
22c
100
AcDbEntity
  8
0
 62
7
100
AcDbPolyline
 90
2
 70
0
 10
625.046090
 20
-370.618243
 30
0.0
 10
625.046090
 20
-532.618243
 30
0.0
  0
LWPOLYLINE
  5
22d
100
AcDbEntity
  8
0
 62
7
100
AcDbPolyline
 90
2
 70
0
 10
31.046090
 20
-532.618243
 30
0.0
 10
31.046090
 20
-370.618243
 30
0.0
  0
SPLINE
  5
22e
100
AcDbEntity
  8
0
 62
7
100
AcDbSpline
 70
8
 71
3
 72
8
 73
4
 74
0
 40
0
 40
0
 40
0
 40
0
 40
1
 40
1
 40
1
 40
1
 10
355.051130
 20
-340.247347
 30
0.0
 10
355.051138
 20
-342.111164
 30
0.0
 10
356.561953
 20
-343.622140
 30
0.0
 10
358.425770
 20
-343.622347
 30
0.0
  0
SPLINE
  5
22f
100
AcDbEntity
  8
0
 62
7
100
AcDbSpline
 70
8
 71
3
 72
8
 73
4
 74
0
 40
0
 40
0
 40
0
 40
0
 40
1
 40
1
 40
1
 40
1
 10
355.051130
 20
-336.872275
 30
0.0
 10
355.051127
 20
-335.977108
 30
0.0
 10
354.695497
 20
-335.118612
 30
0.0
 10
354.062484
 20
-334.485667
 30
0.0
  0
SPLINE
  5
230
100
AcDbEntity
  8
0
 62
7
100
AcDbSpline
 70
8
 71
3
 72
8
 73
4
 74
0
 40
0
 40
0
 40
0
 40
0
 40
1
 40
1
 40
1
 40
1
 10
354.062484
 20
-334.485667
 30
0.0
 10
353.429472
 20
-333.852722
 30
0.0
 10
352.570937
 20
-333.497184
 30
0.0
 10
351.675770
 20
-333.497275
 30
0.0
  0
SPLINE
  5
231
100
AcDbEntity
  8
0
 62
7
100
AcDbSpline
 70
8
 71
3
 72
8
 73
4
 74
0
 40
0
 40
0
 40
0
 40
0
 40
1
 40
1
 40
1
 40
1
 10
304.425770
 20
-333.497275
 30
0.0
 10
302.561953
 20
-333.497482
 30
0.0
 10
301.051138
 20
-335.008458
 30
0.0
 10
301.051130
 20
-336.872275
 30
0.0
  0
SPLINE
  5
232
100
AcDbEntity
  8
0
 62
7
100
AcDbSpline
 70
8
 71
3
 72
8
 73
4
 74
0
 40
0
 40
0
 40
0
 40
0
 40
1
 40
1
 40
1
 40
1
 10
297.675770
 20
-343.622347
 30
0.0
 10
298.570937
 20
-343.622439
 30
0.0
 10
299.429472
 20
-343.266900
 30
0.0
 10
300.062484
 20
-342.633956
 30
0.0
  0
SPLINE
  5
233
100
AcDbEntity
  8
0
 62
7
100
AcDbSpline
 70
8
 71
3
 72
8
 73
4
 74
0
 40
0
 40
0
 40
0
 40
0
 40
1
 40
1
 40
1
 40
1
 10
300.062484
 20
-342.633956
 30
0.0
 10
300.695497
 20
-342.001011
 30
0.0
 10
301.051127
 20
-341.142514
 30
0.0
 10
301.051130
 20
-340.247347
 30
0.0
  0
SPLINE
  5
234
100
AcDbEntity
  8
0
 62
7
100
AcDbSpline
 70
8
 71
3
 72
8
 73
4
 74
0
 40
0
 40
0
 40
0
 40
0
 40
1
 40
1
 40
1
 40
1
 10
358.425770
 20
-559.623283
 30
0.0
 10
356.562094
 20
-559.623490
 30
0.0
 10
355.051337
 20
-561.134247
 30
0.0
 10
355.051130
 20
-562.997923
 30
0.0
  0
SPLINE
  5
235
100
AcDbEntity
  8
0
 62
7
100
AcDbSpline
 70
8
 71
3
 72
8
 73
4
 74
0
 40
0
 40
0
 40
0
 40
0
 40
1
 40
1
 40
1
 40
1
 10
351.675770
 20
-569.747923
 30
0.0
 10
353.539728
 20
-569.748114
 30
0.0
 10
355.050924
 20
-568.237241
 30
0.0
 10
355.051130
 20
-566.373283
 30
0.0
  0
SPLINE
  5
236
100
AcDbEntity
  8
0
 62
7
100
AcDbSpline
 70
8
 71
3
 72
8
 73
4
 74
0
 40
0
 40
0
 40
0
 40
0
 40
1
 40
1
 40
1
 40
1
 10
301.051130
 20
-566.373283
 30
0.0
 10
301.051337
 20
-568.236960
 30
0.0
 10
302.562094
 20
-569.747716
 30
0.0
 10
304.425770
 20
-569.747923
 30
0.0
  0
SPLINE
  5
237
100
AcDbEntity
  8
0
 62
7
100
AcDbSpline
 70
8
 71
3
 72
8
 73
4
 74
0
 40
0
 40
0
 40
0
 40
0
 40
1
 40
1
 40
1
 40
1
 10
301.051130
 20
-562.997923
 30
0.0
 10
301.050924
 20
-561.133965
 30
0.0
 10
299.539728
 20
-559.623092
 30
0.0
 10
297.675770
 20
-559.623283
 30
0.0
  0
LWPOLYLINE
  5
238
100
AcDbEntity
  8
0
 62
7
100
AcDbPolyline
 90
2
 70
0
 10
358.422890
 20
-559.618243
 30
0.0
 10
598.046090
 20
-559.618243
 30
0.0
  0
LWPOLYLINE
  5
239
100
AcDbEntity
  8
0
 62
7
100
AcDbPolyline
 90
2
 70
0
 10
297.669290
 20
-559.618243
 30
0.0
 10
58.046090
 20
-559.618243
 30
0.0
  0
LWPOLYLINE
  5
23a
100
AcDbEntity
  8
0
 62
7
100
AcDbPolyline
 90
2
 70
0
 10
355.046090
 20
-566.371843
 30
0.0
 10
355.046090
 20
-562.995043
 30
0.0
  0
LWPOLYLINE
  5
23b
100
AcDbEntity
  8
0
 62
7
100
AcDbPolyline
 90
2
 70
0
 10
304.422890
 20
-569.741443
 30
0.0
 10
351.669290
 20
-569.741443
 30
0.0
  0
LWPOLYLINE
  5
23c
100
AcDbEntity
  8
0
 62
7
100
AcDbPolyline
 90
2
 70
0
 10
301.046090
 20
-562.995043
 30
0.0
 10
301.046090
 20
-566.371843
 30
0.0
  0
LWPOLYLINE
  5
23d
100
AcDbEntity
  8
0
 62
7
100
AcDbPolyline
 90
2
 70
0
 10
297.669290
 20
-343.618243
 30
0.0
 10
58.046090
 20
-343.618243
 30
0.0
  0
LWPOLYLINE
  5
23e
100
AcDbEntity
  8
0
 62
7
100
AcDbPolyline
 90
2
 70
0
 10
355.046090
 20
-336.871843
 30
0.0
 10
355.046090
 20
-340.241443
 30
0.0
  0
LWPOLYLINE
  5
23f
100
AcDbEntity
  8
0
 62
7
100
AcDbPolyline
 90
2
 70
0
 10
304.422890
 20
-333.495043
 30
0.0
 10
351.669290
 20
-333.495043
 30
0.0
  0
LWPOLYLINE
  5
240
100
AcDbEntity
  8
0
 62
7
100
AcDbPolyline
 90
2
 70
0
 10
301.046090
 20
-340.241443
 30
0.0
 10
301.046090
 20
-336.871843
 30
0.0
  0
LWPOLYLINE
  5
241
100
AcDbEntity
  8
0
 62
7
100
AcDbPolyline
 90
1
 70
1
 10
601.422890
 20
-336.871843
 30
0.0
  0
LWPOLYLINE
  5
242
100
AcDbEntity
  8
0
 62
7
100
AcDbPolyline
 90
1
 70
1
 10
621.676490
 20
-336.871843
 30
0.0
  0
ENDSEC
  0
SECTION
  2
OBJECTS
  0
DICTIONARY
  5
C
330
0
100
AcDbDictionary
  3
ACAD_GROUP
350
D
  3
ACAD_MLINESTYLE
350
17
  0
DICTIONARY
  5
D
330
C
100
AcDbDictionary
  0
DICTIONARY
  5
1A
330
C
100
AcDbDictionary
  0
DICTIONARY
  5
17
330
C
100
AcDbDictionary
  3
STANDARD
350
18
  0
DICTIONARY
  5
19
330
C
100
AcDbDictionary
  0
ENDSEC
  0
EOF
