  0
SECTION
  2
HEADER
  9
$ACADVER
  1
AC1009
  9
$EXTMIN
 10
0.0
 20
0.0
 30
0.0
  9
$EXTMAX
 10
1000.0
 20
1000.0
 30
0.0
  9
$FILLMODE
 70
 0
  9
$SPLFRAME
 70
 1
  0
ENDSEC
  0
SECTION
  2
TABLES
  0
TABLE
  2
LAYER
 70
1
  0
LAYER
  2
0
 70
     0
 62
     7
  6
CONTINUOUS
  0
ENDTAB
  0
ENDSEC
  0
SECTION
  2
ENTITIES
  0
LINE
  8
0
 62
     0
 10
177.551
 20
95.5075
 30
0.0
 11
177.551
 21
85.827
 31
0.0
  0
LINE
  8
0
 62
     0
 10
177.551
 20
85.827
 30
0.0
 11
9.77579
 21
85.827
 31
0.0
  0
LINE
  8
0
 62
     0
 10
9.77579
 20
85.827
 30
0.0
 11
9.77579
 21
9.77579
 31
0.0
  0
LINE
  8
0
 62
     0
 10
9.77579
 20
9.77579
 30
0.0
 11
219.177
 21
9.77579
 31
0.0
  0
LINE
  8
0
 62
     0
 10
219.177
 20
9.77579
 30
0.0
 11
219.177
 21
85.827
 31
0.0
  0
LINE
  8
0
 62
     0
 10
219.177
 20
85.827
 30
0.0
 11
199.401
 21
85.827
 31
0.0
  0
LINE
  8
0
 62
     0
 10
199.401
 20
85.827
 30
0.0
 11
199.401
 21
95.5075
 31
0.0
  0
LINE
  8
0
 62
     0
 10
199.401
 20
95.5075
 30
0.0
 11
225.856
 21
95.5075
 31
0.0
  0
LINE
  8
0
 62
     0
 10
225.856
 20
95.5075
 30
0.0
 11
226.092
 21
95.498
 31
0.0
  0
LINE
  8
0
 62
     0
 10
226.092
 20
95.498
 30
0.0
 11
226.325
 21
95.4719
 31
0.0
  0
LINE
  8
0
 62
     0
 10
226.325
 20
95.4719
 30
0.0
 11
226.556
 21
95.425
 31
0.0
  0
LINE
  8
0
 62
     0
 10
226.556
 20
95.425
 30
0.0
 11
226.784
 21
95.3615
 31
0.0
  0
LINE
  8
0
 62
     0
 10
226.784
 20
95.3615
 30
0.0
 11
227.004
 21
95.2789
 31
0.0
  0
LINE
  8
0
 62
     0
 10
227.004
 20
95.2789
 30
0.0
 11
227.218
 21
95.1812
 31
0.0
  0
LINE
  8
0
 62
     0
 10
227.218
 20
95.1812
 30
0.0
 11
227.423
 21
95.0655
 31
0.0
  0
LINE
  8
0
 62
     0
 10
227.423
 20
95.0655
 30
0.0
 11
227.619
 21
94.9357
 31
0.0
  0
LINE
  8
0
 62
     0
 10
227.619
 20
94.9357
 30
0.0
 11
227.805
 21
94.7896
 31
0.0
  0
LINE
  8
0
 62
     0
 10
227.805
 20
94.7896
 30
0.0
 11
227.977
 21
94.6298
 31
0.0
  0
LINE
  8
0
 62
     0
 10
227.977
 20
94.6298
 30
0.0
 11
228.137
 21
94.4563
 31
0.0
  0
LINE
  8
0
 62
     0
 10
228.137
 20
94.4563
 30
0.0
 11
228.283
 21
94.2717
 31
0.0
  0
LINE
  8
0
 62
     0
 10
228.283
 20
94.2717
 30
0.0
 11
228.414
 21
94.076
 31
0.0
  0
LINE
  8
0
 62
     0
 10
228.414
 20
94.076
 30
0.0
 11
228.53
 21
93.8692
 31
0.0
  0
LINE
  8
0
 62
     0
 10
228.53
 20
93.8692
 30
0.0
 11
228.628
 21
93.6554
 31
0.0
  0
LINE
  8
0
 62
     0
 10
228.628
 20
93.6554
 30
0.0
 11
228.709
 21
93.435
 31
0.0
  0
LINE
  8
0
 62
     0
 10
228.709
 20
93.435
 30
0.0
 11
228.774
 21
93.2078
 31
0.0
  0
LINE
  8
0
 62
     0
 10
228.774
 20
93.2078
 30
0.0
 11
228.819
 21
92.9778
 31
0.0
  0
LINE
  8
0
 62
     0
 10
228.819
 20
92.9778
 30
0.0
 11
228.847
 21
92.7435
 31
0.0
  0
LINE
  8
0
 62
     0
 10
228.847
 20
92.7435
 30
0.0
 11
228.856
 21
92.5079
 31
0.0
  0
LINE
  8
0
 62
     0
 10
228.856
 20
92.5079
 30
0.0
 11
228.856
 21
3.09645
 31
0.0
  0
LINE
  8
0
 62
     0
 10
228.856
 20
3.09645
 30
0.0
 11
228.847
 21
2.86081
 31
0.0
  0
LINE
  8
0
 62
     0
 10
228.847
 20
2.86081
 30
0.0
 11
228.819
 21
2.62792
 31
0.0
  0
LINE
  8
0
 62
     0
 10
228.819
 20
2.62792
 30
0.0
 11
228.774
 21
2.39641
 31
0.0
  0
LINE
  8
0
 62
     0
 10
228.774
 20
2.39641
 30
0.0
 11
228.709
 21
2.16903
 31
0.0
  0
LINE
  8
0
 62
     0
 10
228.709
 20
2.16903
 30
0.0
 11
228.628
 21
1.94855
 31
0.0
  0
LINE
  8
0
 62
     0
 10
228.628
 20
1.94855
 30
0.0
 11
228.53
 21
1.73495
 31
0.0
  0
LINE
  8
0
 62
     0
 10
228.53
 20
1.73495
 30
0.0
 11
228.414
 21
1.52962
 31
0.0
  0
LINE
  8
0
 62
     0
 10
228.414
 20
1.52962
 30
0.0
 11
228.283
 21
1.33394
 31
0.0
  0
LINE
  8
0
 62
     0
 10
228.283
 20
1.33394
 30
0.0
 11
228.137
 21
1.14791
 31
0.0
  0
LINE
  8
0
 62
     0
 10
228.137
 20
1.14791
 30
0.0
 11
227.977
 21
0.975653
 31
0.0
  0
LINE
  8
0
 62
     0
 10
227.977
 20
0.975653
 30
0.0
 11
227.805
 21
0.815799
 31
0.0
  0
LINE
  8
0
 62
     0
 10
227.805
 20
0.815799
 30
0.0
 11
227.619
 21
0.669727
 31
0.0
  0
LINE
  8
0
 62
     0
 10
227.619
 20
0.669727
 30
0.0
 11
227.423
 21
0.538812
 31
0.0
  0
LINE
  8
0
 62
     0
 10
227.423
 20
0.538812
 30
0.0
 11
227.218
 21
0.423058
 31
0.0
  0
LINE
  8
0
 62
     0
 10
227.218
 20
0.423058
 30
0.0
 11
227.004
 21
0.325217
 31
0.0
  0
LINE
  8
0
 62
     0
 10
227.004
 20
0.325217
 30
0.0
 11
226.784
 21
0.243913
 31
0.0
  0
LINE
  8
0
 62
     0
 10
226.784
 20
0.243913
 30
0.0
 11
226.556
 21
0.179145
 31
0.0
  0
LINE
  8
0
 62
     0
 10
226.556
 20
0.179145
 30
0.0
 11
226.325
 21
0.13367
 31
0.0
  0
LINE
  8
0
 62
     0
 10
226.325
 20
0.13367
 30
0.0
 11
226.092
 21
0.106109
 31
0.0
  0
LINE
  8
0
 62
     0
 10
226.092
 20
0.106109
 30
0.0
 11
225.856
 21
0.0964629
 31
0.0
  0
LINE
  8
0
 62
     0
 10
225.856
 20
0.0964629
 30
0.0
 11
3.09507
 21
0.0964629
 31
0.0
  0
LINE
  8
0
 62
     0
 10
3.09507
 20
0.0964629
 30
0.0
 11
2.85943
 21
0.106109
 31
0.0
  0
LINE
  8
0
 62
     0
 10
2.85943
 20
0.106109
 30
0.0
 11
2.62516
 21
0.13367
 31
0.0
  0
LINE
  8
0
 62
     0
 10
2.62516
 20
0.13367
 30
0.0
 11
2.39503
 21
0.179145
 31
0.0
  0
LINE
  8
0
 62
     0
 10
2.39503
 20
0.179145
 30
0.0
 11
2.16765
 21
0.243913
 31
0.0
  0
LINE
  8
0
 62
     0
 10
2.16765
 20
0.243913
 30
0.0
 11
1.94717
 21
0.325217
 31
0.0
  0
LINE
  8
0
 62
     0
 10
1.94717
 20
0.325217
 30
0.0
 11
1.73357
 21
0.423058
 31
0.0
  0
LINE
  8
0
 62
     0
 10
1.73357
 20
0.423058
 30
0.0
 11
1.52687
 21
0.538812
 31
0.0
  0
LINE
  8
0
 62
     0
 10
1.52687
 20
0.538812
 30
0.0
 11
1.33119
 21
0.669727
 31
0.0
  0
LINE
  8
0
 62
     0
 10
1.33119
 20
0.669727
 30
0.0
 11
1.14653
 21
0.815799
 31
0.0
  0
LINE
  8
0
 62
     0
 10
1.14653
 20
0.815799
 30
0.0
 11
0.972894
 21
0.975653
 31
0.0
  0
LINE
  8
0
 62
     0
 10
0.972894
 20
0.975653
 30
0.0
 11
0.813043
 21
1.14791
 31
0.0
  0
LINE
  8
0
 62
     0
 10
0.813043
 20
1.14791
 30
0.0
 11
0.666972
 21
1.33394
 31
0.0
  0
LINE
  8
0
 62
     0
 10
0.666972
 20
1.33394
 30
0.0
 11
0.537436
 21
1.52962
 31
0.0
  0
LINE
  8
0
 62
     0
 10
0.537436
 20
1.52962
 30
0.0
 11
0.421679
 21
1.73495
 31
0.0
  0
LINE
  8
0
 62
     0
 10
0.421679
 20
1.73495
 30
0.0
 11
0.323839
 21
1.94855
 31
0.0
  0
LINE
  8
0
 62
     0
 10
0.323839
 20
1.94855
 30
0.0
 11
0.241157
 21
2.16903
 31
0.0
  0
LINE
  8
0
 62
     0
 10
0.241157
 20
2.16903
 30
0.0
 11
0.177767
 21
2.39641
 31
0.0
  0
LINE
  8
0
 62
     0
 10
0.177767
 20
2.39641
 30
0.0
 11
0.130914
 21
2.62792
 31
0.0
  0
LINE
  8
0
 62
     0
 10
0.130914
 20
2.62792
 30
0.0
 11
0.104731
 21
2.86081
 31
0.0
  0
LINE
  8
0
 62
     0
 10
0.104731
 20
2.86081
 30
0.0
 11
0.0950846
 21
3.09783
 31
0.0
  0
LINE
  8
0
 62
     0
 10
0.0950846
 20
3.09783
 30
0.0
 11
0.0950846
 21
92.5079
 31
0.0
  0
LINE
  8
0
 62
     0
 10
0.0950846
 20
92.5079
 30
0.0
 11
0.104731
 21
92.7435
 31
0.0
  0
LINE
  8
0
 62
     0
 10
0.104731
 20
92.7435
 30
0.0
 11
0.130914
 21
92.9778
 31
0.0
  0
LINE
  8
0
 62
     0
 10
0.130914
 20
92.9778
 30
0.0
 11
0.177767
 21
93.2078
 31
0.0
  0
LINE
  8
0
 62
     0
 10
0.177767
 20
93.2078
 30
0.0
 11
0.241157
 21
93.435
 31
0.0
  0
LINE
  8
0
 62
     0
 10
0.241157
 20
93.435
 30
0.0
 11
0.323839
 21
93.6554
 31
0.0
  0
LINE
  8
0
 62
     0
 10
0.323839
 20
93.6554
 30
0.0
 11
0.421679
 21
93.8692
 31
0.0
  0
LINE
  8
0
 62
     0
 10
0.421679
 20
93.8692
 30
0.0
 11
0.537436
 21
94.076
 31
0.0
  0
LINE
  8
0
 62
     0
 10
0.537436
 20
94.076
 30
0.0
 11
0.666972
 21
94.2717
 31
0.0
  0
LINE
  8
0
 62
     0
 10
0.666972
 20
94.2717
 30
0.0
 11
0.813043
 21
94.4563
 31
0.0
  0
LINE
  8
0
 62
     0
 10
0.813043
 20
94.4563
 30
0.0
 11
0.972894
 21
94.6298
 31
0.0
  0
LINE
  8
0
 62
     0
 10
0.972894
 20
94.6298
 30
0.0
 11
1.14653
 21
94.7896
 31
0.0
  0
LINE
  8
0
 62
     0
 10
1.14653
 20
94.7896
 30
0.0
 11
1.33119
 21
94.9357
 31
0.0
  0
LINE
  8
0
 62
     0
 10
1.33119
 20
94.9357
 30
0.0
 11
1.52687
 21
95.0655
 31
0.0
  0
LINE
  8
0
 62
     0
 10
1.52687
 20
95.0655
 30
0.0
 11
1.73357
 21
95.1812
 31
0.0
  0
LINE
  8
0
 62
     0
 10
1.73357
 20
95.1812
 30
0.0
 11
1.94717
 21
95.2789
 31
0.0
  0
LINE
  8
0
 62
     0
 10
1.94717
 20
95.2789
 30
0.0
 11
2.16765
 21
95.3615
 31
0.0
  0
LINE
  8
0
 62
     0
 10
2.16765
 20
95.3615
 30
0.0
 11
2.39503
 21
95.425
 31
0.0
  0
LINE
  8
0
 62
     0
 10
2.39503
 20
95.425
 30
0.0
 11
2.62516
 21
95.4719
 31
0.0
  0
LINE
  8
0
 62
     0
 10
2.62516
 20
95.4719
 30
0.0
 11
2.85943
 21
95.498
 31
0.0
  0
LINE
  8
0
 62
     0
 10
2.85943
 20
95.498
 30
0.0
 11
3.09507
 21
95.5075
 31
0.0
  0
LINE
  8
0
 62
     0
 10
3.09507
 20
95.5075
 30
0.0
 11
177.551
 21
95.5075
 31
0.0
  0
LINE
  8
0
 62
     0
 10
4.41798
 20
6.53052
 30
0.0
 11
3.95083
 21
6.29211
 31
0.0
  0
LINE
  8
0
 62
     0
 10
3.95083
 20
6.29211
 30
0.0
 11
3.58013
 21
5.92145
 31
0.0
  0
LINE
  8
0
 62
     0
 10
3.58013
 20
5.92145
 30
0.0
 11
3.34174
 21
5.45426
 31
0.0
  0
LINE
  8
0
 62
     0
 10
3.34174
 20
5.45426
 30
0.0
 11
3.25906
 21
4.93751
 31
0.0
  0
LINE
  8
0
 62
     0
 10
3.25906
 20
4.93751
 30
0.0
 11
3.34174
 21
4.41935
 31
0.0
  0
LINE
  8
0
 62
     0
 10
3.34174
 20
4.41935
 30
0.0
 11
3.58013
 21
3.9522
 31
0.0
  0
LINE
  8
0
 62
     0
 10
3.58013
 20
3.9522
 30
0.0
 11
3.95083
 21
3.58151
 31
0.0
  0
LINE
  8
0
 62
     0
 10
3.95083
 20
3.58151
 30
0.0
 11
4.41798
 21
3.34312
 31
0.0
  0
LINE
  8
0
 62
     0
 10
4.41798
 20
3.34312
 30
0.0
 11
4.93614
 21
3.26182
 31
0.0
  0
LINE
  8
0
 62
     0
 10
4.93614
 20
3.26182
 30
0.0
 11
5.45289
 21
3.34312
 31
0.0
  0
LINE
  8
0
 62
     0
 10
5.45289
 20
3.34312
 30
0.0
 11
5.92007
 21
3.58151
 31
0.0
  0
LINE
  8
0
 62
     0
 10
5.92007
 20
3.58151
 30
0.0
 11
6.29073
 21
3.9522
 31
0.0
  0
LINE
  8
0
 62
     0
 10
6.29073
 20
3.9522
 30
0.0
 11
6.52914
 21
4.41935
 31
0.0
  0
LINE
  8
0
 62
     0
 10
6.52914
 20
4.41935
 30
0.0
 11
6.61046
 21
4.93751
 31
0.0
  0
LINE
  8
0
 62
     0
 10
6.61046
 20
4.93751
 30
0.0
 11
6.52914
 21
5.45426
 31
0.0
  0
LINE
  8
0
 62
     0
 10
6.52914
 20
5.45426
 30
0.0
 11
6.29073
 21
5.92145
 31
0.0
  0
LINE
  8
0
 62
     0
 10
6.29073
 20
5.92145
 30
0.0
 11
5.92007
 21
6.29211
 31
0.0
  0
LINE
  8
0
 62
     0
 10
5.92007
 20
6.29211
 30
0.0
 11
5.45289
 21
6.53052
 31
0.0
  0
LINE
  8
0
 62
     0
 10
5.45289
 20
6.53052
 30
0.0
 11
4.93614
 21
6.61183
 31
0.0
  0
LINE
  8
0
 62
     0
 10
4.93614
 20
6.61183
 30
0.0
 11
4.41798
 21
6.53052
 31
0.0
  0
LINE
  8
0
 62
     0
 10
77.4442
 20
6.53052
 30
0.0
 11
76.9772
 21
6.29211
 31
0.0
  0
LINE
  8
0
 62
     0
 10
76.9772
 20
6.29211
 30
0.0
 11
76.6064
 21
5.92145
 31
0.0
  0
LINE
  8
0
 62
     0
 10
76.6064
 20
5.92145
 30
0.0
 11
76.3683
 21
5.45426
 31
0.0
  0
LINE
  8
0
 62
     0
 10
76.3683
 20
5.45426
 30
0.0
 11
76.2868
 21
4.93751
 31
0.0
  0
LINE
  8
0
 62
     0
 10
76.2868
 20
4.93751
 30
0.0
 11
76.3683
 21
4.41935
 31
0.0
  0
LINE
  8
0
 62
     0
 10
76.3683
 20
4.41935
 30
0.0
 11
76.6064
 21
3.9522
 31
0.0
  0
LINE
  8
0
 62
     0
 10
76.6064
 20
3.9522
 30
0.0
 11
76.9772
 21
3.58151
 31
0.0
  0
LINE
  8
0
 62
     0
 10
76.9772
 20
3.58151
 30
0.0
 11
77.4442
 21
3.34312
 31
0.0
  0
LINE
  8
0
 62
     0
 10
77.4442
 20
3.34312
 30
0.0
 11
77.9625
 21
3.26182
 31
0.0
  0
LINE
  8
0
 62
     0
 10
77.9625
 20
3.26182
 30
0.0
 11
78.4793
 21
3.34312
 31
0.0
  0
LINE
  8
0
 62
     0
 10
78.4793
 20
3.34312
 30
0.0
 11
78.9464
 21
3.58151
 31
0.0
  0
LINE
  8
0
 62
     0
 10
78.9464
 20
3.58151
 30
0.0
 11
79.3171
 21
3.9522
 31
0.0
  0
LINE
  8
0
 62
     0
 10
79.3171
 20
3.9522
 30
0.0
 11
79.5556
 21
4.41935
 31
0.0
  0
LINE
  8
0
 62
     0
 10
79.5556
 20
4.41935
 30
0.0
 11
79.6368
 21
4.93751
 31
0.0
  0
LINE
  8
0
 62
     0
 10
79.6368
 20
4.93751
 30
0.0
 11
79.5556
 21
5.45426
 31
0.0
  0
LINE
  8
0
 62
     0
 10
79.5556
 20
5.45426
 30
0.0
 11
79.3171
 21
5.92145
 31
0.0
  0
LINE
  8
0
 62
     0
 10
79.3171
 20
5.92145
 30
0.0
 11
78.9464
 21
6.29211
 31
0.0
  0
LINE
  8
0
 62
     0
 10
78.9464
 20
6.29211
 30
0.0
 11
78.4793
 21
6.53052
 31
0.0
  0
LINE
  8
0
 62
     0
 10
78.4793
 20
6.53052
 30
0.0
 11
77.9625
 21
6.61183
 31
0.0
  0
LINE
  8
0
 62
     0
 10
77.9625
 20
6.61183
 30
0.0
 11
77.4442
 21
6.53052
 31
0.0
  0
LINE
  8
0
 62
     0
 10
150.472
 20
6.53052
 30
0.0
 11
150.005
 21
6.29211
 31
0.0
  0
LINE
  8
0
 62
     0
 10
150.005
 20
6.29211
 30
0.0
 11
149.633
 21
5.92145
 31
0.0
  0
LINE
  8
0
 62
     0
 10
149.633
 20
5.92145
 30
0.0
 11
149.396
 21
5.45426
 31
0.0
  0
LINE
  8
0
 62
     0
 10
149.396
 20
5.45426
 30
0.0
 11
149.315
 21
4.93751
 31
0.0
  0
LINE
  8
0
 62
     0
 10
149.315
 20
4.93751
 30
0.0
 11
149.396
 21
4.41935
 31
0.0
  0
LINE
  8
0
 62
     0
 10
149.396
 20
4.41935
 30
0.0
 11
149.633
 21
3.9522
 31
0.0
  0
LINE
  8
0
 62
     0
 10
149.633
 20
3.9522
 30
0.0
 11
150.005
 21
3.58151
 31
0.0
  0
LINE
  8
0
 62
     0
 10
150.005
 20
3.58151
 30
0.0
 11
150.472
 21
3.34312
 31
0.0
  0
LINE
  8
0
 62
     0
 10
150.472
 20
3.34312
 30
0.0
 11
150.989
 21
3.26182
 31
0.0
  0
LINE
  8
0
 62
     0
 10
150.989
 20
3.26182
 30
0.0
 11
151.507
 21
3.34312
 31
0.0
  0
LINE
  8
0
 62
     0
 10
151.507
 20
3.34312
 30
0.0
 11
151.973
 21
3.58151
 31
0.0
  0
LINE
  8
0
 62
     0
 10
151.973
 20
3.58151
 30
0.0
 11
152.345
 21
3.9522
 31
0.0
  0
LINE
  8
0
 62
     0
 10
152.345
 20
3.9522
 30
0.0
 11
152.582
 21
4.41935
 31
0.0
  0
LINE
  8
0
 62
     0
 10
152.582
 20
4.41935
 30
0.0
 11
152.665
 21
4.93751
 31
0.0
  0
LINE
  8
0
 62
     0
 10
152.665
 20
4.93751
 30
0.0
 11
152.582
 21
5.45426
 31
0.0
  0
LINE
  8
0
 62
     0
 10
152.582
 20
5.45426
 30
0.0
 11
152.345
 21
5.92145
 31
0.0
  0
LINE
  8
0
 62
     0
 10
152.345
 20
5.92145
 30
0.0
 11
151.973
 21
6.29211
 31
0.0
  0
LINE
  8
0
 62
     0
 10
151.973
 20
6.29211
 30
0.0
 11
151.507
 21
6.53052
 31
0.0
  0
LINE
  8
0
 62
     0
 10
151.507
 20
6.53052
 30
0.0
 11
150.989
 21
6.61183
 31
0.0
  0
LINE
  8
0
 62
     0
 10
150.989
 20
6.61183
 30
0.0
 11
150.472
 21
6.53052
 31
0.0
  0
LINE
  8
0
 62
     0
 10
223.498
 20
6.53052
 30
0.0
 11
223.031
 21
6.29211
 31
0.0
  0
LINE
  8
0
 62
     0
 10
223.031
 20
6.29211
 30
0.0
 11
222.661
 21
5.92145
 31
0.0
  0
LINE
  8
0
 62
     0
 10
222.661
 20
5.92145
 30
0.0
 11
222.422
 21
5.45426
 31
0.0
  0
LINE
  8
0
 62
     0
 10
222.422
 20
5.45426
 30
0.0
 11
222.341
 21
4.93751
 31
0.0
  0
LINE
  8
0
 62
     0
 10
222.341
 20
4.93751
 30
0.0
 11
222.422
 21
4.41935
 31
0.0
  0
LINE
  8
0
 62
     0
 10
222.422
 20
4.41935
 30
0.0
 11
222.661
 21
3.9522
 31
0.0
  0
LINE
  8
0
 62
     0
 10
222.661
 20
3.9522
 30
0.0
 11
223.031
 21
3.58151
 31
0.0
  0
LINE
  8
0
 62
     0
 10
223.031
 20
3.58151
 30
0.0
 11
223.498
 21
3.34312
 31
0.0
  0
LINE
  8
0
 62
     0
 10
223.498
 20
3.34312
 30
0.0
 11
224.017
 21
3.26182
 31
0.0
  0
LINE
  8
0
 62
     0
 10
224.017
 20
3.26182
 30
0.0
 11
224.534
 21
3.34312
 31
0.0
  0
LINE
  8
0
 62
     0
 10
224.534
 20
3.34312
 30
0.0
 11
225.001
 21
3.58151
 31
0.0
  0
LINE
  8
0
 62
     0
 10
225.001
 20
3.58151
 30
0.0
 11
225.371
 21
3.9522
 31
0.0
  0
LINE
  8
0
 62
     0
 10
225.371
 20
3.9522
 30
0.0
 11
225.61
 21
4.41935
 31
0.0
  0
LINE
  8
0
 62
     0
 10
225.61
 20
4.41935
 30
0.0
 11
225.691
 21
4.93751
 31
0.0
  0
LINE
  8
0
 62
     0
 10
225.691
 20
4.93751
 30
0.0
 11
225.61
 21
5.45426
 31
0.0
  0
LINE
  8
0
 62
     0
 10
225.61
 20
5.45426
 30
0.0
 11
225.371
 21
5.92145
 31
0.0
  0
LINE
  8
0
 62
     0
 10
225.371
 20
5.92145
 30
0.0
 11
225.001
 21
6.29211
 31
0.0
  0
LINE
  8
0
 62
     0
 10
225.001
 20
6.29211
 30
0.0
 11
224.534
 21
6.53052
 31
0.0
  0
LINE
  8
0
 62
     0
 10
224.534
 20
6.53052
 30
0.0
 11
224.017
 21
6.61183
 31
0.0
  0
LINE
  8
0
 62
     0
 10
224.017
 20
6.61183
 30
0.0
 11
223.498
 21
6.53052
 31
0.0
  0
LINE
  8
0
 62
     0
 10
4.41798
 20
92.2609
 30
0.0
 11
3.95083
 21
92.0228
 31
0.0
  0
LINE
  8
0
 62
     0
 10
3.95083
 20
92.0228
 30
0.0
 11
3.58013
 21
91.652
 31
0.0
  0
LINE
  8
0
 62
     0
 10
3.58013
 20
91.652
 30
0.0
 11
3.34174
 21
91.1849
 31
0.0
  0
LINE
  8
0
 62
     0
 10
3.34174
 20
91.1849
 30
0.0
 11
3.25906
 21
90.6667
 31
0.0
  0
LINE
  8
0
 62
     0
 10
3.25906
 20
90.6667
 30
0.0
 11
3.34174
 21
90.1499
 31
0.0
  0
LINE
  8
0
 62
     0
 10
3.34174
 20
90.1499
 30
0.0
 11
3.58013
 21
89.6828
 31
0.0
  0
LINE
  8
0
 62
     0
 10
3.58013
 20
89.6828
 30
0.0
 11
3.95083
 21
89.312
 31
0.0
  0
LINE
  8
0
 62
     0
 10
3.95083
 20
89.312
 30
0.0
 11
4.41798
 21
89.0736
 31
0.0
  0
LINE
  8
0
 62
     0
 10
4.41798
 20
89.0736
 30
0.0
 11
4.93614
 21
88.9924
 31
0.0
  0
LINE
  8
0
 62
     0
 10
4.93614
 20
88.9924
 30
0.0
 11
5.45289
 21
89.0736
 31
0.0
  0
LINE
  8
0
 62
     0
 10
5.45289
 20
89.0736
 30
0.0
 11
5.92007
 21
89.312
 31
0.0
  0
LINE
  8
0
 62
     0
 10
5.92007
 20
89.312
 30
0.0
 11
6.29073
 21
89.6828
 31
0.0
  0
LINE
  8
0
 62
     0
 10
6.29073
 20
89.6828
 30
0.0
 11
6.52914
 21
90.1499
 31
0.0
  0
LINE
  8
0
 62
     0
 10
6.52914
 20
90.1499
 30
0.0
 11
6.61046
 21
90.6667
 31
0.0
  0
LINE
  8
0
 62
     0
 10
6.61046
 20
90.6667
 30
0.0
 11
6.52914
 21
91.1849
 31
0.0
  0
LINE
  8
0
 62
     0
 10
6.52914
 20
91.1849
 30
0.0
 11
6.29073
 21
91.652
 31
0.0
  0
LINE
  8
0
 62
     0
 10
6.29073
 20
91.652
 30
0.0
 11
5.92007
 21
92.0228
 31
0.0
  0
LINE
  8
0
 62
     0
 10
5.92007
 20
92.0228
 30
0.0
 11
5.45289
 21
92.2609
 31
0.0
  0
LINE
  8
0
 62
     0
 10
5.45289
 20
92.2609
 30
0.0
 11
4.93614
 21
92.3438
 31
0.0
  0
LINE
  8
0
 62
     0
 10
4.93614
 20
92.3438
 30
0.0
 11
4.41798
 21
92.2609
 31
0.0
  0
LINE
  8
0
 62
     0
 10
223.498
 20
92.2609
 30
0.0
 11
223.031
 21
92.0228
 31
0.0
  0
LINE
  8
0
 62
     0
 10
223.031
 20
92.0228
 30
0.0
 11
222.661
 21
91.652
 31
0.0
  0
LINE
  8
0
 62
     0
 10
222.661
 20
91.652
 30
0.0
 11
222.422
 21
91.1849
 31
0.0
  0
LINE
  8
0
 62
     0
 10
222.422
 20
91.1849
 30
0.0
 11
222.341
 21
90.6667
 31
0.0
  0
LINE
  8
0
 62
     0
 10
222.341
 20
90.6667
 30
0.0
 11
222.422
 21
90.1499
 31
0.0
  0
LINE
  8
0
 62
     0
 10
222.422
 20
90.1499
 30
0.0
 11
222.661
 21
89.6828
 31
0.0
  0
LINE
  8
0
 62
     0
 10
222.661
 20
89.6828
 30
0.0
 11
223.031
 21
89.312
 31
0.0
  0
LINE
  8
0
 62
     0
 10
223.031
 20
89.312
 30
0.0
 11
223.498
 21
89.0736
 31
0.0
  0
LINE
  8
0
 62
     0
 10
223.498
 20
89.0736
 30
0.0
 11
224.017
 21
88.9924
 31
0.0
  0
LINE
  8
0
 62
     0
 10
224.017
 20
88.9924
 30
0.0
 11
224.534
 21
89.0736
 31
0.0
  0
LINE
  8
0
 62
     0
 10
224.534
 20
89.0736
 30
0.0
 11
225.001
 21
89.312
 31
0.0
  0
LINE
  8
0
 62
     0
 10
225.001
 20
89.312
 30
0.0
 11
225.371
 21
89.6828
 31
0.0
  0
LINE
  8
0
 62
     0
 10
225.371
 20
89.6828
 30
0.0
 11
225.61
 21
90.1499
 31
0.0
  0
LINE
  8
0
 62
     0
 10
225.61
 20
90.1499
 30
0.0
 11
225.691
 21
90.6667
 31
0.0
  0
LINE
  8
0
 62
     0
 10
225.691
 20
90.6667
 30
0.0
 11
225.61
 21
91.1849
 31
0.0
  0
LINE
  8
0
 62
     0
 10
225.61
 20
91.1849
 30
0.0
 11
225.371
 21
91.652
 31
0.0
  0
LINE
  8
0
 62
     0
 10
225.371
 20
91.652
 30
0.0
 11
225.001
 21
92.0228
 31
0.0
  0
LINE
  8
0
 62
     0
 10
225.001
 20
92.0228
 30
0.0
 11
224.534
 21
92.2609
 31
0.0
  0
LINE
  8
0
 62
     0
 10
224.534
 20
92.2609
 30
0.0
 11
224.017
 21
92.3438
 31
0.0
  0
LINE
  8
0
 62
     0
 10
224.017
 20
92.3438
 30
0.0
 11
223.498
 21
92.2609
 31
0.0
  0
LINE
  8
0
 62
     0
 10
150.472
 20
92.2609
 30
0.0
 11
150.005
 21
92.0228
 31
0.0
  0
LINE
  8
0
 62
     0
 10
150.005
 20
92.0228
 30
0.0
 11
149.633
 21
91.652
 31
0.0
  0
LINE
  8
0
 62
     0
 10
149.633
 20
91.652
 30
0.0
 11
149.396
 21
91.1849
 31
0.0
  0
LINE
  8
0
 62
     0
 10
149.396
 20
91.1849
 30
0.0
 11
149.315
 21
90.6667
 31
0.0
  0
LINE
  8
0
 62
     0
 10
149.315
 20
90.6667
 30
0.0
 11
149.396
 21
90.1499
 31
0.0
  0
LINE
  8
0
 62
     0
 10
149.396
 20
90.1499
 30
0.0
 11
149.633
 21
89.6828
 31
0.0
  0
LINE
  8
0
 62
     0
 10
149.633
 20
89.6828
 30
0.0
 11
150.005
 21
89.312
 31
0.0
  0
LINE
  8
0
 62
     0
 10
150.005
 20
89.312
 30
0.0
 11
150.472
 21
89.0736
 31
0.0
  0
LINE
  8
0
 62
     0
 10
150.472
 20
89.0736
 30
0.0
 11
150.989
 21
88.9924
 31
0.0
  0
LINE
  8
0
 62
     0
 10
150.989
 20
88.9924
 30
0.0
 11
151.507
 21
89.0736
 31
0.0
  0
LINE
  8
0
 62
     0
 10
151.507
 20
89.0736
 30
0.0
 11
151.973
 21
89.312
 31
0.0
  0
LINE
  8
0
 62
     0
 10
151.973
 20
89.312
 30
0.0
 11
152.345
 21
89.6828
 31
0.0
  0
LINE
  8
0
 62
     0
 10
152.345
 20
89.6828
 30
0.0
 11
152.582
 21
90.1499
 31
0.0
  0
LINE
  8
0
 62
     0
 10
152.582
 20
90.1499
 30
0.0
 11
152.665
 21
90.6667
 31
0.0
  0
LINE
  8
0
 62
     0
 10
152.665
 20
90.6667
 30
0.0
 11
152.582
 21
91.1849
 31
0.0
  0
LINE
  8
0
 62
     0
 10
152.582
 20
91.1849
 30
0.0
 11
152.345
 21
91.652
 31
0.0
  0
LINE
  8
0
 62
     0
 10
152.345
 20
91.652
 30
0.0
 11
151.973
 21
92.0228
 31
0.0
  0
LINE
  8
0
 62
     0
 10
151.973
 20
92.0228
 30
0.0
 11
151.507
 21
92.2609
 31
0.0
  0
LINE
  8
0
 62
     0
 10
151.507
 20
92.2609
 30
0.0
 11
150.989
 21
92.3438
 31
0.0
  0
LINE
  8
0
 62
     0
 10
150.989
 20
92.3438
 30
0.0
 11
150.472
 21
92.2609
 31
0.0
  0
LINE
  8
0
 62
     0
 10
77.4442
 20
92.2609
 30
0.0
 11
76.9772
 21
92.0228
 31
0.0
  0
LINE
  8
0
 62
     0
 10
76.9772
 20
92.0228
 30
0.0
 11
76.6064
 21
91.652
 31
0.0
  0
LINE
  8
0
 62
     0
 10
76.6064
 20
91.652
 30
0.0
 11
76.3683
 21
91.1849
 31
0.0
  0
LINE
  8
0
 62
     0
 10
76.3683
 20
91.1849
 30
0.0
 11
76.2868
 21
90.6667
 31
0.0
  0
LINE
  8
0
 62
     0
 10
76.2868
 20
90.6667
 30
0.0
 11
76.3683
 21
90.1499
 31
0.0
  0
LINE
  8
0
 62
     0
 10
76.3683
 20
90.1499
 30
0.0
 11
76.6064
 21
89.6828
 31
0.0
  0
LINE
  8
0
 62
     0
 10
76.6064
 20
89.6828
 30
0.0
 11
76.9772
 21
89.312
 31
0.0
  0
LINE
  8
0
 62
     0
 10
76.9772
 20
89.312
 30
0.0
 11
77.4442
 21
89.0736
 31
0.0
  0
LINE
  8
0
 62
     0
 10
77.4442
 20
89.0736
 30
0.0
 11
77.9625
 21
88.9924
 31
0.0
  0
LINE
  8
0
 62
     0
 10
77.9625
 20
88.9924
 30
0.0
 11
78.4793
 21
89.0736
 31
0.0
  0
LINE
  8
0
 62
     0
 10
78.4793
 20
89.0736
 30
0.0
 11
78.9464
 21
89.312
 31
0.0
  0
LINE
  8
0
 62
     0
 10
78.9464
 20
89.312
 30
0.0
 11
79.3171
 21
89.6828
 31
0.0
  0
LINE
  8
0
 62
     0
 10
79.3171
 20
89.6828
 30
0.0
 11
79.5556
 21
90.1499
 31
0.0
  0
LINE
  8
0
 62
     0
 10
79.5556
 20
90.1499
 30
0.0
 11
79.6368
 21
90.6667
 31
0.0
  0
LINE
  8
0
 62
     0
 10
79.6368
 20
90.6667
 30
0.0
 11
79.5556
 21
91.1849
 31
0.0
  0
LINE
  8
0
 62
     0
 10
79.5556
 20
91.1849
 30
0.0
 11
79.3171
 21
91.652
 31
0.0
  0
LINE
  8
0
 62
     0
 10
79.3171
 20
91.652
 30
0.0
 11
78.9464
 21
92.0228
 31
0.0
  0
LINE
  8
0
 62
     0
 10
78.9464
 20
92.0228
 30
0.0
 11
78.4793
 21
92.2609
 31
0.0
  0
LINE
  8
0
 62
     0
 10
78.4793
 20
92.2609
 30
0.0
 11
77.9625
 21
92.3438
 31
0.0
  0
LINE
  8
0
 62
     0
 10
77.9625
 20
92.3438
 30
0.0
 11
77.4442
 21
92.2609
 31
0.0
  0
ENDSEC
  0
EOF
