  0
SECTION
  2
HEADER
  9
$ACADVER
  1
AC1014
  9
$HANDSEED
  5
FFFF
  9
$MEASUREMENT
 70
     1
  0
ENDSEC
  0
SECTION
  2
TABLES
  0
TABLE
  2
VPORT
  5
8
330
0
100
AcDbSymbolTable
 70
     4
  0
VPORT
  5
2E
330
8
100
AcDbSymbolTableRecord
100
AcDbViewportTableRecord
  2
*ACTIVE
 70
     0
 10
0.0
 20
0.0
 11
1.0
 21
1.0
 12
210.0
 22
148.5
 13
0.0
 23
0.0
 14
10.0
 24
10.0
 15
10.0
 25
10.0
 16
0.0
 26
0.0
 36
1.0
 17
0.0
 27
0.0
 37
0.0
 40
341.0
 41
1.24
 42
50.0
 43
0.0
 44
0.0
 50
0.0
 51
0.0
 71
     0
 72
   100
 73
     1
 74
     3
 75
     0
 76
     0
 77
     0
 78
     0
  0
ENDTAB
  0
TABLE
  2
LTYPE
  5
5
330
0
100
AcDbSymbolTable
 70
     1
  0
LTYPE
  5
14
330
5
100
AcDbSymbolTableRecord
100
AcDbLinetypeTableRecord
  2
BYBLOCK
 70
     0
  3

 72
    65
 73
     0
 40
0.0
  0
LTYPE
  5
15
330
5
100
AcDbSymbolTableRecord
100
AcDbLinetypeTableRecord
  2
BYLAYER
 70
     0
  3

 72
    65
 73
     0
 40
0.0
  0
LTYPE
  5
16
330
5
100
AcDbSymbolTableRecord
100
AcDbLinetypeTableRecord
  2
CONTINUOUS
 70
     0
  3
Solid line
 72
    65
 73
     0
 40
0.0
  0
ENDTAB
  0
TABLE
  2
LAYER
  5
2
100
AcDbSymbolTable
 70
1
  0
LAYER
  5
50
100
AcDbSymbolTableRecord
100
AcDbLayerTableRecord
  2
0
 70
0
  6
CONTINUOUS
  0
ENDTAB
  0
TABLE
  2
STYLE
  5
3
330
0
100
AcDbSymbolTable
 70
     1
  0
STYLE
  5
11
330
3
100
AcDbSymbolTableRecord
100
AcDbTextStyleTableRecord
  2
STANDARD
 70
     0
 40
0.0
 41
1.0
 50
0.0
 71
     0
 42
2.5
  3
txt
  4

  0
ENDTAB
  0
TABLE
  2
VIEW
  5
6
330
0
100
AcDbSymbolTable
 70
     0
  0
ENDTAB
  0
TABLE
  2
UCS
  5
7
330
0
100
AcDbSymbolTable
 70
     0
  0
ENDTAB
  0
TABLE
  2
APPID
  5
9
330
0
100
AcDbSymbolTable
 70
     2
  0
APPID
  5
12
330
9
100
AcDbSymbolTableRecord
100
AcDbRegAppTableRecord
  2
ACAD
 70
     0
  0
ENDTAB
  0
TABLE
  2
DIMSTYLE
  5
A
330
0
100
AcDbSymbolTable
 70
     1
  0
DIMSTYLE
105
27
330
A
100
AcDbSymbolTableRecord
100
AcDbDimStyleTableRecord
  2
ISO-25
 70
     0
  3

  4

  5

  6

  7

 40
1.0
 41
2.5
 42
0.625
 43
3.75
 44
1.25
 45
0.0
 46
0.0
 47
0.0
 48
0.0
140
2.5
141
2.5
142
0.0
143
0.03937007874016
144
1.0
145
0.0
146
1.0
147
0.625
 71
     0
 72
     0
 73
     0
 74
     0
 75
     0
 76
     0
 77
     1
 78
     8
170
     0
171
     3
172
     1
173
     0
174
     0
175
     0
176
     0
177
     0
178
     0
270
     2
271
     2
272
     2
273
     2
274
     3
340
11
275
     0
280
     0
281
     0
282
     0
283
     0
284
     8
285
     0
286
     0
287
     3
288
     0
  0
ENDTAB
  0
TABLE
  2
BLOCK_RECORD
  5
1
330
0
100
AcDbSymbolTable
 70
     1
  0
BLOCK_RECORD
  5
1F
330
1
100
AcDbSymbolTableRecord
100
AcDbBlockTableRecord
  2
*MODEL_SPACE
  0
BLOCK_RECORD
  5
1B
330
1
100
AcDbSymbolTableRecord
100
AcDbBlockTableRecord
  2
*PAPER_SPACE
  0
ENDTAB
  0
ENDSEC
  0
SECTION
  2
BLOCKS
  0
BLOCK
  5
20
330
1F
100
AcDbEntity
  8
0
100
AcDbBlockBegin
  2
*MODEL_SPACE
 70
     0
 10
0.0
 20
0.0
 30
0.0
  3
*MODEL_SPACE
  1

  0
ENDBLK
  5
21
330
1F
100
AcDbEntity
  8
0
100
AcDbBlockEnd
  0
BLOCK
  5
1C
330
1B
100
AcDbEntity
 67
     1
  8
0
100
AcDbBlockBegin
  2
*PAPER_SPACE
  1

  0
ENDBLK
  5
1D
330
1B
100
AcDbEntity
 67
     1
  8
0
100
AcDbBlockEnd
  0
ENDSEC
  0
SECTION
  2
ENTITIES
  0
SPLINE
  5
100
100
AcDbEntity
  8
0
 62
7
100
AcDbSpline
 70
8
 71
3
 72
8
 73
4
 74
0
 40
0
 40
0
 40
0
 40
0
 40
1
 40
1
 40
1
 40
1
 10
627.752880
 20
-21.033072
 30
0.0
 10
627.752876
 20
-20.137905
 30
0.0
 10
627.397246
 20
-19.279408
 30
0.0
 10
626.764234
 20
-18.646464
 30
0.0
  0
SPLINE
  5
101
100
AcDbEntity
  8
0
 62
7
100
AcDbSpline
 70
8
 71
3
 72
8
 73
4
 74
0
 40
0
 40
0
 40
0
 40
0
 40
1
 40
1
 40
1
 40
1
 10
626.764234
 20
-18.646464
 30
0.0
 10
626.131222
 20
-18.013519
 30
0.0
 10
625.272687
 20
-17.657980
 30
0.0
 10
624.377520
 20
-17.658072
 30
0.0
  0
SPLINE
  5
102
100
AcDbEntity
  8
0
 62
7
100
AcDbSpline
 70
8
 71
3
 72
8
 73
4
 74
0
 40
0
 40
0
 40
0
 40
0
 40
1
 40
1
 40
1
 40
1
 10
604.127520
 20
-27.783144
 30
0.0
 10
605.022687
 20
-27.783236
 30
0.0
 10
605.881222
 20
-27.427697
 30
0.0
 10
606.514234
 20
-26.794752
 30
0.0
  0
SPLINE
  5
103
100
AcDbEntity
  8
0
 62
7
100
AcDbSpline
 70
8
 71
3
 72
8
 73
4
 74
0
 40
0
 40
0
 40
0
 40
0
 40
1
 40
1
 40
1
 40
1
 10
606.514234
 20
-26.794752
 30
0.0
 10
607.147246
 20
-26.161808
 30
0.0
 10
607.502876
 20
-25.303311
 30
0.0
 10
607.502880
 20
-24.408144
 30
0.0
  0
LWPOLYLINE
  5
104
100
AcDbEntity
  8
0
 62
7
100
AcDbPolyline
 90
3
 70
0
 10
627.746400
 20
-21.031200
 30
0.0
 10
627.746400
 20
-27.777600
 30
0.0
 10
631.123200
 20
-31.154400
 30
0.0
  0
LWPOLYLINE
  5
105
100
AcDbEntity
  8
0
 62
7
100
AcDbPolyline
 90
2
 70
0
 10
607.500000
 20
-21.031200
 30
0.0
 10
607.500000
 20
-24.408000
 30
0.0
  0
LWPOLYLINE
  5
106
100
AcDbEntity
  8
0
 62
7
100
AcDbPolyline
 90
2
 70
0
 10
624.376800
 20
-17.654400
 30
0.0
 10
610.876800
 20
-17.654400
 30
0.0
  0
SPLINE
  5
107
100
AcDbEntity
  8
0
 62
7
100
AcDbSpline
 70
8
 71
3
 72
8
 73
4
 74
0
 40
0
 40
0
 40
0
 40
0
 40
1
 40
1
 40
1
 40
1
 10
641.252880
 20
-34.533144
 30
0.0
 10
641.252876
 20
-33.637977
 30
0.0
 10
640.897246
 20
-32.779480
 30
0.0
 10
640.264234
 20
-32.146536
 30
0.0
  0
SPLINE
  5
108
100
AcDbEntity
  8
0
 62
7
100
AcDbSpline
 70
8
 71
3
 72
8
 73
4
 74
0
 40
0
 40
0
 40
0
 40
0
 40
1
 40
1
 40
1
 40
1
 10
640.264234
 20
-32.146536
 30
0.0
 10
639.631222
 20
-31.513591
 30
0.0
 10
638.772687
 20
-31.158052
 30
0.0
 10
637.877520
 20
-31.158144
 30
0.0
  0
LWPOLYLINE
  5
109
100
AcDbEntity
  8
0
 62
7
100
AcDbPolyline
 90
2
 70
0
 10
631.123200
 20
-31.154400
 30
0.0
 10
637.876800
 20
-31.154400
 30
0.0
  0
SPLINE
  5
10a
100
AcDbEntity
  8
0
 62
7
100
AcDbSpline
 70
8
 71
3
 72
8
 73
4
 74
0
 40
0
 40
0
 40
0
 40
0
 40
1
 40
1
 40
1
 40
1
 10
634.502880
 20
-51.408216
 30
0.0
 10
633.607713
 20
-51.408124
 30
0.0
 10
632.749178
 20
-51.763663
 30
0.0
 10
632.116166
 20
-52.396608
 30
0.0
  0
SPLINE
  5
10b
100
AcDbEntity
  8
0
 62
7
100
AcDbSpline
 70
8
 71
3
 72
8
 73
4
 74
0
 40
0
 40
0
 40
0
 40
0
 40
1
 40
1
 40
1
 40
1
 10
632.116166
 20
-52.396608
 30
0.0
 10
631.483154
 20
-53.029552
 30
0.0
 10
631.127524
 20
-53.888049
 30
0.0
 10
631.127520
 20
-54.783216
 30
0.0
  0
LWPOLYLINE
  5
10c
100
AcDbEntity
  8
0
 62
7
100
AcDbPolyline
 90
2
 70
0
 10
641.246400
 20
-34.531200
 30
0.0
 10
641.246400
 20
-48.031200
 30
0.0
  0
SPLINE
  5
10d
100
AcDbEntity
  8
0
 62
7
100
AcDbSpline
 70
8
 71
3
 72
8
 73
4
 74
0
 40
0
 40
0
 40
0
 40
0
 40
1
 40
1
 40
1
 40
1
 10
637.877520
 20
-51.408216
 30
0.0
 10
638.772687
 20
-51.408308
 30
0.0
 10
639.631222
 20
-51.052769
 30
0.0
 10
640.264234
 20
-50.419824
 30
0.0
  0
SPLINE
  5
10e
100
AcDbEntity
  8
0
 62
7
100
AcDbSpline
 70
8
 71
3
 72
8
 73
4
 74
0
 40
0
 40
0
 40
0
 40
0
 40
1
 40
1
 40
1
 40
1
 10
640.264234
 20
-50.419824
 30
0.0
 10
640.897246
 20
-49.786880
 30
0.0
 10
641.252876
 20
-48.928383
 30
0.0
 10
641.252880
 20
-48.033216
 30
0.0
  0
SPLINE
  5
10f
100
AcDbEntity
  8
0
 62
7
100
AcDbSpline
 70
8
 71
3
 72
8
 73
4
 74
0
 40
0
 40
0
 40
0
 40
0
 40
1
 40
1
 40
1
 40
1
 10
610.877520
 20
-17.658072
 30
0.0
 10
609.013703
 20
-17.658279
 30
0.0
 10
607.502888
 20
-19.169255
 30
0.0
 10
607.502880
 20
-21.033072
 30
0.0
  0
SPLINE
  5
110
100
AcDbEntity
  8
0
 62
7
100
AcDbSpline
 70
8
 71
3
 72
8
 73
4
 74
0
 40
0
 40
0
 40
0
 40
0
 40
1
 40
1
 40
1
 40
1
 10
641.252880
 20
-223.534080
 30
0.0
 10
641.252972
 20
-222.638851
 30
0.0
 10
640.897384
 20
-221.780261
 30
0.0
 10
640.264361
 20
-221.147239
 30
0.0
  0
SPLINE
  5
111
100
AcDbEntity
  8
0
 62
7
100
AcDbSpline
 70
8
 71
3
 72
8
 73
4
 74
0
 40
0
 40
0
 40
0
 40
0
 40
1
 40
1
 40
1
 40
1
 10
640.264361
 20
-221.147239
 30
0.0
 10
639.631339
 20
-220.514216
 30
0.0
 10
638.772749
 20
-220.158628
 30
0.0
 10
637.877520
 20
-220.158720
 30
0.0
  0
LWPOLYLINE
  5
112
100
AcDbEntity
  8
0
 62
7
100
AcDbPolyline
 90
2
 70
0
 10
637.876800
 20
-51.408000
 30
0.0
 10
634.500000
 20
-51.408000
 30
0.0
  0
SPLINE
  5
113
100
AcDbEntity
  8
0
 62
7
100
AcDbSpline
 70
8
 71
3
 72
8
 73
4
 74
0
 40
0
 40
0
 40
0
 40
0
 40
1
 40
1
 40
1
 40
1
 10
637.877520
 20
-240.408720
 30
0.0
 10
639.741478
 20
-240.408911
 30
0.0
 10
641.252673
 20
-238.898038
 30
0.0
 10
641.252880
 20
-237.034080
 30
0.0
  0
LWPOLYLINE
  5
114
100
AcDbEntity
  8
0
 62
7
100
AcDbPolyline
 90
2
 70
0
 10
631.123200
 20
-240.408000
 30
0.0
 10
637.876800
 20
-240.408000
 30
0.0
  0
LWPOLYLINE
  5
115
100
AcDbEntity
  8
0
 62
7
100
AcDbPolyline
 90
2
 70
0
 10
641.246400
 20
-237.031200
 30
0.0
 10
641.246400
 20
-223.531200
 30
0.0
  0
LWPOLYLINE
  5
116
100
AcDbEntity
  8
0
 62
7
100
AcDbPolyline
 90
2
 70
0
 10
637.876800
 20
-220.154400
 30
0.0
 10
634.500000
 20
-220.154400
 30
0.0
  0
SPLINE
  5
117
100
AcDbEntity
  8
0
 62
7
100
AcDbSpline
 70
8
 71
3
 72
8
 73
4
 74
0
 40
0
 40
0
 40
0
 40
0
 40
1
 40
1
 40
1
 40
1
 10
607.502880
 20
-250.534080
 30
0.0
 10
607.502689
 20
-252.398038
 30
0.0
 10
609.013562
 20
-253.909233
 30
0.0
 10
610.877520
 20
-253.909440
 30
0.0
  0
SPLINE
  5
118
100
AcDbEntity
  8
0
 62
7
100
AcDbSpline
 70
8
 71
3
 72
8
 73
4
 74
0
 40
0
 40
0
 40
0
 40
0
 40
1
 40
1
 40
1
 40
1
 10
624.377520
 20
-253.909440
 30
0.0
 10
625.272749
 20
-253.909532
 30
0.0
 10
626.131339
 20
-253.553944
 30
0.0
 10
626.764361
 20
-252.920921
 30
0.0
  0
SPLINE
  5
119
100
AcDbEntity
  8
0
 62
7
100
AcDbSpline
 70
8
 71
3
 72
8
 73
4
 74
0
 40
0
 40
0
 40
0
 40
0
 40
1
 40
1
 40
1
 40
1
 10
626.764361
 20
-252.920921
 30
0.0
 10
627.397384
 20
-252.287899
 30
0.0
 10
627.752972
 20
-251.429309
 30
0.0
 10
627.752880
 20
-250.534080
 30
0.0
  0
LWPOLYLINE
  5
11a
100
AcDbEntity
  8
0
 62
7
100
AcDbPolyline
 90
2
 70
0
 10
607.500000
 20
-250.531200
 30
0.0
 10
607.500000
 20
-247.154400
 30
0.0
  0
LWPOLYLINE
  5
11b
100
AcDbEntity
  8
0
 62
7
100
AcDbPolyline
 90
2
 70
0
 10
624.376800
 20
-253.908000
 30
0.0
 10
610.876800
 20
-253.908000
 30
0.0
  0
SPLINE
  5
11c
100
AcDbEntity
  8
0
 62
7
100
AcDbSpline
 70
8
 71
3
 72
8
 73
4
 74
0
 40
0
 40
0
 40
0
 40
0
 40
1
 40
1
 40
1
 40
1
 10
607.502880
 20
-247.158720
 30
0.0
 10
607.502673
 20
-245.294762
 30
0.0
 10
605.991478
 20
-243.783889
 30
0.0
 10
604.127520
 20
-243.784080
 30
0.0
  0
LWPOLYLINE
  5
11d
100
AcDbEntity
  8
0
 62
7
100
AcDbPolyline
 90
2
 70
0
 10
627.746400
 20
-243.777600
 30
0.0
 10
627.746400
 20
-250.531200
 30
0.0
  0
SPLINE
  5
11e
100
AcDbEntity
  8
0
 62
7
100
AcDbSpline
 70
8
 71
3
 72
8
 73
4
 74
0
 40
0
 40
0
 40
0
 40
0
 40
1
 40
1
 40
1
 40
1
 10
631.127520
 20
-216.784080
 30
0.0
 10
631.127727
 20
-218.648038
 30
0.0
 10
632.638922
 20
-220.158911
 30
0.0
 10
634.502880
 20
-220.158720
 30
0.0
  0
LWPOLYLINE
  5
11f
100
AcDbEntity
  8
0
 62
7
100
AcDbPolyline
 90
2
 70
0
 10
631.123200
 20
-240.408000
 30
0.0
 10
627.746400
 20
-243.777600
 30
0.0
  0
LWPOLYLINE
  5
120
100
AcDbEntity
  8
0
 62
7
100
AcDbPolyline
 90
2
 70
0
 10
30.369600
 20
-51.408000
 30
0.0
 10
33.746400
 20
-51.408000
 30
0.0
  0
SPLINE
  5
121
100
AcDbEntity
  8
0
 62
7
100
AcDbSpline
 70
8
 71
3
 72
8
 73
4
 74
0
 40
0
 40
0
 40
0
 40
0
 40
1
 40
1
 40
1
 40
1
 10
30.375144
 20
-31.158144
 30
0.0
 10
28.511186
 20
-31.158152
 30
0.0
 10
27.000152
 20
-32.669186
 30
0.0
 10
27.000144
 20
-34.533144
 30
0.0
  0
SPLINE
  5
122
100
AcDbEntity
  8
0
 62
7
100
AcDbSpline
 70
8
 71
3
 72
8
 73
4
 74
0
 40
0
 40
0
 40
0
 40
0
 40
1
 40
1
 40
1
 40
1
 10
27.000144
 20
-48.033216
 30
0.0
 10
27.000152
 20
-49.897174
 30
0.0
 10
28.511186
 20
-51.408208
 30
0.0
 10
30.375144
 20
-51.408216
 30
0.0
  0
LWPOLYLINE
  5
123
100
AcDbEntity
  8
0
 62
7
100
AcDbPolyline
 90
2
 70
0
 10
27.000000
 20
-34.531200
 30
0.0
 10
27.000000
 20
-48.031200
 30
0.0
  0
LWPOLYLINE
  5
124
100
AcDbEntity
  8
0
 62
7
100
AcDbPolyline
 90
2
 70
0
 10
40.500000
 20
-27.777600
 30
0.0
 10
37.123200
 20
-31.154400
 30
0.0
  0
LWPOLYLINE
  5
125
100
AcDbEntity
  8
0
 62
7
100
AcDbPolyline
 90
2
 70
0
 10
60.746400
 20
-21.031200
 30
0.0
 10
60.746400
 20
-24.408000
 30
0.0
  0
SPLINE
  5
126
100
AcDbEntity
  8
0
 62
7
100
AcDbSpline
 70
8
 71
3
 72
8
 73
4
 74
0
 40
0
 40
0
 40
0
 40
0
 40
1
 40
1
 40
1
 40
1
 10
43.875216
 20
-17.658072
 30
0.0
 10
42.980099
 20
-17.658057
 30
0.0
 10
42.121638
 20
-18.013629
 30
0.0
 10
41.488688
 20
-18.646565
 30
0.0
  0
SPLINE
  5
127
100
AcDbEntity
  8
0
 62
7
100
AcDbSpline
 70
8
 71
3
 72
8
 73
4
 74
0
 40
0
 40
0
 40
0
 40
0
 40
1
 40
1
 40
1
 40
1
 10
41.488688
 20
-18.646565
 30
0.0
 10
40.855738
 20
-19.279502
 30
0.0
 10
40.500148
 20
-20.137955
 30
0.0
 10
40.500144
 20
-21.033072
 30
0.0
  0
SPLINE
  5
128
100
AcDbEntity
  8
0
 62
7
100
AcDbSpline
 70
8
 71
3
 72
8
 73
4
 74
0
 40
0
 40
0
 40
0
 40
0
 40
1
 40
1
 40
1
 40
1
 10
60.750288
 20
-21.033072
 30
0.0
 10
60.750284
 20
-20.137955
 30
0.0
 10
60.394694
 20
-19.279502
 30
0.0
 10
59.761744
 20
-18.646565
 30
0.0
  0
SPLINE
  5
129
100
AcDbEntity
  8
0
 62
7
100
AcDbSpline
 70
8
 71
3
 72
8
 73
4
 74
0
 40
0
 40
0
 40
0
 40
0
 40
1
 40
1
 40
1
 40
1
 10
59.761744
 20
-18.646565
 30
0.0
 10
59.128794
 20
-18.013629
 30
0.0
 10
58.270333
 20
-17.658057
 30
0.0
 10
57.375216
 20
-17.658072
 30
0.0
  0
SPLINE
  5
12a
100
AcDbEntity
  8
0
 62
7
100
AcDbSpline
 70
8
 71
3
 72
8
 73
4
 74
0
 40
0
 40
0
 40
0
 40
0
 40
1
 40
1
 40
1
 40
1
 10
60.750288
 20
-24.408144
 30
0.0
 10
60.750296
 20
-26.272102
 30
0.0
 10
62.261330
 20
-27.783136
 30
0.0
 10
64.125288
 20
-27.783144
 30
0.0
  0
LWPOLYLINE
  5
12b
100
AcDbEntity
  8
0
 62
7
100
AcDbPolyline
 90
2
 70
0
 10
43.869600
 20
-17.654400
 30
0.0
 10
57.369600
 20
-17.654400
 30
0.0
  0
LWPOLYLINE
  5
12c
100
AcDbEntity
  8
0
 62
7
100
AcDbPolyline
 90
2
 70
0
 10
40.500000
 20
-27.777600
 30
0.0
 10
40.500000
 20
-21.031200
 30
0.0
  0
SPLINE
  5
12d
100
AcDbEntity
  8
0
 62
7
100
AcDbSpline
 70
8
 71
3
 72
8
 73
4
 74
0
 40
0
 40
0
 40
0
 40
0
 40
1
 40
1
 40
1
 40
1
 10
37.125144
 20
-54.783216
 30
0.0
 10
37.125136
 20
-52.919258
 30
0.0
 10
35.614102
 20
-51.408224
 30
0.0
 10
33.750144
 20
-51.408216
 30
0.0
  0
LWPOLYLINE
  5
12e
100
AcDbEntity
  8
0
 62
7
100
AcDbPolyline
 90
2
 70
0
 10
37.123200
 20
-31.154400
 30
0.0
 10
30.369600
 20
-31.154400
 30
0.0
  0
LWPOLYLINE
  5
12f
100
AcDbEntity
  8
0
 62
7
100
AcDbPolyline
 90
2
 70
0
 10
30.369600
 20
-220.154400
 30
0.0
 10
33.746400
 20
-220.154400
 30
0.0
  0
SPLINE
  5
130
100
AcDbEntity
  8
0
 62
7
100
AcDbSpline
 70
8
 71
3
 72
8
 73
4
 74
0
 40
0
 40
0
 40
0
 40
0
 40
1
 40
1
 40
1
 40
1
 10
30.375144
 20
-220.158720
 30
0.0
 10
29.479977
 20
-220.158724
 30
0.0
 10
28.621480
 20
-220.514354
 30
0.0
 10
27.988536
 20
-221.147366
 30
0.0
  0
SPLINE
  5
131
100
AcDbEntity
  8
0
 62
7
100
AcDbSpline
 70
8
 71
3
 72
8
 73
4
 74
0
 40
0
 40
0
 40
0
 40
0
 40
1
 40
1
 40
1
 40
1
 10
27.988536
 20
-221.147366
 30
0.0
 10
27.355591
 20
-221.780378
 30
0.0
 10
27.000052
 20
-222.638913
 30
0.0
 10
27.000144
 20
-223.534080
 30
0.0
  0
SPLINE
  5
132
100
AcDbEntity
  8
0
 62
7
100
AcDbSpline
 70
8
 71
3
 72
8
 73
4
 74
0
 40
0
 40
0
 40
0
 40
0
 40
1
 40
1
 40
1
 40
1
 10
27.000144
 20
-237.034080
 30
0.0
 10
27.000351
 20
-238.897897
 30
0.0
 10
28.511327
 20
-240.408712
 30
0.0
 10
30.375144
 20
-240.408720
 30
0.0
  0
LWPOLYLINE
  5
133
100
AcDbEntity
  8
0
 62
7
100
AcDbPolyline
 90
2
 70
0
 10
27.000000
 20
-237.031200
 30
0.0
 10
27.000000
 20
-223.531200
 30
0.0
  0
SPLINE
  5
134
100
AcDbEntity
  8
0
 62
7
100
AcDbSpline
 70
8
 71
3
 72
8
 73
4
 74
0
 40
0
 40
0
 40
0
 40
0
 40
1
 40
1
 40
1
 40
1
 10
33.750144
 20
-220.158720
 30
0.0
 10
35.613961
 20
-220.158712
 30
0.0
 10
37.124937
 20
-218.647897
 30
0.0
 10
37.125144
 20
-216.784080
 30
0.0
  0
LWPOLYLINE
  5
135
100
AcDbEntity
  8
0
 62
7
100
AcDbPolyline
 90
2
 70
0
 10
37.123200
 20
-240.408000
 30
0.0
 10
30.369600
 20
-240.408000
 30
0.0
  0
LWPOLYLINE
  5
136
100
AcDbEntity
  8
0
 62
7
100
AcDbPolyline
 90
2
 70
0
 10
37.123200
 20
-240.408000
 30
0.0
 10
40.500000
 20
-243.777600
 30
0.0
  0
LWPOLYLINE
  5
137
100
AcDbEntity
  8
0
 62
7
100
AcDbPolyline
 90
2
 70
0
 10
60.746400
 20
-250.531200
 30
0.0
 10
60.746400
 20
-247.154400
 30
0.0
  0
SPLINE
  5
138
100
AcDbEntity
  8
0
 62
7
100
AcDbSpline
 70
8
 71
3
 72
8
 73
4
 74
0
 40
0
 40
0
 40
0
 40
0
 40
1
 40
1
 40
1
 40
1
 10
40.500144
 20
-250.534080
 30
0.0
 10
40.500052
 20
-251.429259
 30
0.0
 10
40.855601
 20
-252.287805
 30
0.0
 10
41.488561
 20
-252.920819
 30
0.0
  0
SPLINE
  5
139
100
AcDbEntity
  8
0
 62
7
100
AcDbSpline
 70
8
 71
3
 72
8
 73
4
 74
0
 40
0
 40
0
 40
0
 40
0
 40
1
 40
1
 40
1
 40
1
 10
41.488561
 20
-252.920819
 30
0.0
 10
42.121521
 20
-253.553834
 30
0.0
 10
42.980037
 20
-253.909455
 30
0.0
 10
43.875216
 20
-253.909440
 30
0.0
  0
SPLINE
  5
13a
100
AcDbEntity
  8
0
 62
7
100
AcDbSpline
 70
8
 71
3
 72
8
 73
4
 74
0
 40
0
 40
0
 40
0
 40
0
 40
1
 40
1
 40
1
 40
1
 10
57.375216
 20
-253.909440
 30
0.0
 10
58.270395
 20
-253.909455
 30
0.0
 10
59.128911
 20
-253.553834
 30
0.0
 10
59.761871
 20
-252.920819
 30
0.0
  0
SPLINE
  5
13b
100
AcDbEntity
  8
0
 62
7
100
AcDbSpline
 70
8
 71
3
 72
8
 73
4
 74
0
 40
0
 40
0
 40
0
 40
0
 40
1
 40
1
 40
1
 40
1
 10
59.761871
 20
-252.920819
 30
0.0
 10
60.394831
 20
-252.287805
 30
0.0
 10
60.750380
 20
-251.429259
 30
0.0
 10
60.750288
 20
-250.534080
 30
0.0
  0
SPLINE
  5
13c
100
AcDbEntity
  8
0
 62
7
100
AcDbSpline
 70
8
 71
3
 72
8
 73
4
 74
0
 40
0
 40
0
 40
0
 40
0
 40
1
 40
1
 40
1
 40
1
 10
64.125288
 20
-243.784080
 30
0.0
 10
62.261471
 20
-243.784088
 30
0.0
 10
60.750495
 20
-245.294903
 30
0.0
 10
60.750288
 20
-247.158720
 30
0.0
  0
LWPOLYLINE
  5
13d
100
AcDbEntity
  8
0
 62
7
100
AcDbPolyline
 90
2
 70
0
 10
43.869600
 20
-253.908000
 30
0.0
 10
57.369600
 20
-253.908000
 30
0.0
  0
LWPOLYLINE
  5
13e
100
AcDbEntity
  8
0
 62
7
100
AcDbPolyline
 90
2
 70
0
 10
40.500000
 20
-243.777600
 30
0.0
 10
40.500000
 20
-250.531200
 30
0.0
  0
LWPOLYLINE
  5
13f
100
AcDbEntity
  8
0
 62
7
100
AcDbPolyline
 90
2
 70
0
 10
631.123200
 20
-54.777600
 30
0.0
 10
631.123200
 20
-216.777600
 30
0.0
  0
LWPOLYLINE
  5
140
100
AcDbEntity
  8
0
 62
7
100
AcDbPolyline
 90
2
 70
0
 10
37.123200
 20
-216.777600
 30
0.0
 10
37.123200
 20
-54.777600
 30
0.0
  0
SPLINE
  5
141
100
AcDbEntity
  8
0
 62
7
100
AcDbSpline
 70
8
 71
3
 72
8
 73
4
 74
0
 40
0
 40
0
 40
0
 40
0
 40
1
 40
1
 40
1
 40
1
 10
361.126800
 20
-24.408144
 30
0.0
 10
361.126808
 20
-26.271961
 30
0.0
 10
362.637623
 20
-27.782937
 30
0.0
 10
364.501440
 20
-27.783144
 30
0.0
  0
SPLINE
  5
142
100
AcDbEntity
  8
0
 62
7
100
AcDbSpline
 70
8
 71
3
 72
8
 73
4
 74
0
 40
0
 40
0
 40
0
 40
0
 40
1
 40
1
 40
1
 40
1
 10
361.126800
 20
-21.033072
 30
0.0
 10
361.126796
 20
-20.137905
 30
0.0
 10
360.771166
 20
-19.279408
 30
0.0
 10
360.138154
 20
-18.646464
 30
0.0
  0
SPLINE
  5
143
100
AcDbEntity
  8
0
 62
7
100
AcDbSpline
 70
8
 71
3
 72
8
 73
4
 74
0
 40
0
 40
0
 40
0
 40
0
 40
1
 40
1
 40
1
 40
1
 10
360.138154
 20
-18.646464
 30
0.0
 10
359.505142
 20
-18.013519
 30
0.0
 10
358.646607
 20
-17.657980
 30
0.0
 10
357.751440
 20
-17.658072
 30
0.0
  0
SPLINE
  5
144
100
AcDbEntity
  8
0
 62
7
100
AcDbSpline
 70
8
 71
3
 72
8
 73
4
 74
0
 40
0
 40
0
 40
0
 40
0
 40
1
 40
1
 40
1
 40
1
 10
310.501440
 20
-17.658072
 30
0.0
 10
309.606273
 20
-17.657980
 30
0.0
 10
308.747738
 20
-18.013519
 30
0.0
 10
308.114726
 20
-18.646464
 30
0.0
  0
SPLINE
  5
145
100
AcDbEntity
  8
0
 62
7
100
AcDbSpline
 70
8
 71
3
 72
8
 73
4
 74
0
 40
0
 40
0
 40
0
 40
0
 40
1
 40
1
 40
1
 40
1
 10
308.114726
 20
-18.646464
 30
0.0
 10
307.481714
 20
-19.279408
 30
0.0
 10
307.126084
 20
-20.137905
 30
0.0
 10
307.126080
 20
-21.033072
 30
0.0
  0
SPLINE
  5
146
100
AcDbEntity
  8
0
 62
7
100
AcDbSpline
 70
8
 71
3
 72
8
 73
4
 74
0
 40
0
 40
0
 40
0
 40
0
 40
1
 40
1
 40
1
 40
1
 10
303.751440
 20
-27.783144
 30
0.0
 10
305.615257
 20
-27.782937
 30
0.0
 10
307.126072
 20
-26.271961
 30
0.0
 10
307.126080
 20
-24.408144
 30
0.0
  0
SPLINE
  5
147
100
AcDbEntity
  8
0
 62
7
100
AcDbSpline
 70
8
 71
3
 72
8
 73
4
 74
0
 40
0
 40
0
 40
0
 40
0
 40
1
 40
1
 40
1
 40
1
 10
364.501440
 20
-243.784080
 30
0.0
 10
362.637763
 20
-243.784287
 30
0.0
 10
361.127007
 20
-245.295043
 30
0.0
 10
361.126800
 20
-247.158720
 30
0.0
  0
SPLINE
  5
148
100
AcDbEntity
  8
0
 62
7
100
AcDbSpline
 70
8
 71
3
 72
8
 73
4
 74
0
 40
0
 40
0
 40
0
 40
0
 40
1
 40
1
 40
1
 40
1
 10
357.751440
 20
-253.909440
 30
0.0
 10
358.646669
 20
-253.909532
 30
0.0
 10
359.505259
 20
-253.553944
 30
0.0
 10
360.138281
 20
-252.920921
 30
0.0
  0
SPLINE
  5
149
100
AcDbEntity
  8
0
 62
7
100
AcDbSpline
 70
8
 71
3
 72
8
 73
4
 74
0
 40
0
 40
0
 40
0
 40
0
 40
1
 40
1
 40
1
 40
1
 10
360.138281
 20
-252.920921
 30
0.0
 10
360.771304
 20
-252.287899
 30
0.0
 10
361.126892
 20
-251.429309
 30
0.0
 10
361.126800
 20
-250.534080
 30
0.0
  0
SPLINE
  5
14a
100
AcDbEntity
  8
0
 62
7
100
AcDbSpline
 70
8
 71
3
 72
8
 73
4
 74
0
 40
0
 40
0
 40
0
 40
0
 40
1
 40
1
 40
1
 40
1
 10
307.126080
 20
-250.534080
 30
0.0
 10
307.125988
 20
-251.429309
 30
0.0
 10
307.481576
 20
-252.287899
 30
0.0
 10
308.114599
 20
-252.920921
 30
0.0
  0
SPLINE
  5
14b
100
AcDbEntity
  8
0
 62
7
100
AcDbSpline
 70
8
 71
3
 72
8
 73
4
 74
0
 40
0
 40
0
 40
0
 40
0
 40
1
 40
1
 40
1
 40
1
 10
308.114599
 20
-252.920921
 30
0.0
 10
308.747621
 20
-253.553944
 30
0.0
 10
309.606211
 20
-253.909532
 30
0.0
 10
310.501440
 20
-253.909440
 30
0.0
  0
SPLINE
  5
14c
100
AcDbEntity
  8
0
 62
7
100
AcDbSpline
 70
8
 71
3
 72
8
 73
4
 74
0
 40
0
 40
0
 40
0
 40
0
 40
1
 40
1
 40
1
 40
1
 10
307.126080
 20
-247.158720
 30
0.0
 10
307.125873
 20
-245.295043
 30
0.0
 10
305.615117
 20
-243.784287
 30
0.0
 10
303.751440
 20
-243.784080
 30
0.0
  0
LWPOLYLINE
  5
14d
100
AcDbEntity
  8
0
 62
7
100
AcDbPolyline
 90
2
 70
0
 10
364.500000
 20
-243.777600
 30
0.0
 10
604.123200
 20
-243.777600
 30
0.0
  0
LWPOLYLINE
  5
14e
100
AcDbEntity
  8
0
 62
7
100
AcDbPolyline
 90
2
 70
0
 10
303.746400
 20
-243.777600
 30
0.0
 10
64.123200
 20
-243.777600
 30
0.0
  0
LWPOLYLINE
  5
14f
100
AcDbEntity
  8
0
 62
7
100
AcDbPolyline
 90
2
 70
0
 10
361.123200
 20
-250.531200
 30
0.0
 10
361.123200
 20
-247.154400
 30
0.0
  0
LWPOLYLINE
  5
150
100
AcDbEntity
  8
0
 62
7
100
AcDbPolyline
 90
2
 70
0
 10
310.500000
 20
-253.908000
 30
0.0
 10
357.746400
 20
-253.908000
 30
0.0
  0
LWPOLYLINE
  5
151
100
AcDbEntity
  8
0
 62
7
100
AcDbPolyline
 90
2
 70
0
 10
307.123200
 20
-247.154400
 30
0.0
 10
307.123200
 20
-250.531200
 30
0.0
  0
LWPOLYLINE
  5
152
100
AcDbEntity
  8
0
 62
7
100
AcDbPolyline
 90
2
 70
0
 10
303.746400
 20
-27.777600
 30
0.0
 10
64.123200
 20
-27.777600
 30
0.0
  0
LWPOLYLINE
  5
153
100
AcDbEntity
  8
0
 62
7
100
AcDbPolyline
 90
2
 70
0
 10
364.500000
 20
-27.777600
 30
0.0
 10
604.123200
 20
-27.777600
 30
0.0
  0
LWPOLYLINE
  5
154
100
AcDbEntity
  8
0
 62
7
100
AcDbPolyline
 90
2
 70
0
 10
361.123200
 20
-21.031200
 30
0.0
 10
361.123200
 20
-24.408000
 30
0.0
  0
LWPOLYLINE
  5
155
100
AcDbEntity
  8
0
 62
7
100
AcDbPolyline
 90
2
 70
0
 10
310.500000
 20
-17.654400
 30
0.0
 10
357.746400
 20
-17.654400
 30
0.0
  0
LWPOLYLINE
  5
156
100
AcDbEntity
  8
0
 62
7
100
AcDbPolyline
 90
2
 70
0
 10
307.123200
 20
-24.408000
 30
0.0
 10
307.123200
 20
-21.031200
 30
0.0
  0
LWPOLYLINE
  5
157
100
AcDbEntity
  8
0
 62
7
100
AcDbPolyline
 90
1
 70
1
 10
607.500000
 20
-21.031200
 30
0.0
  0
LWPOLYLINE
  5
158
100
AcDbEntity
  8
0
 62
7
100
AcDbPolyline
 90
1
 70
1
 10
627.746400
 20
-21.031200
 30
0.0
  0
ENDSEC
  0
SECTION
  2
OBJECTS
  0
DICTIONARY
  5
C
330
0
100
AcDbDictionary
  3
ACAD_GROUP
350
D
  3
ACAD_MLINESTYLE
350
17
  0
DICTIONARY
  5
D
330
C
100
AcDbDictionary
  0
DICTIONARY
  5
1A
330
C
100
AcDbDictionary
  0
DICTIONARY
  5
17
330
C
100
AcDbDictionary
  3
STANDARD
350
18
  0
DICTIONARY
  5
19
330
C
100
AcDbDictionary
  0
ENDSEC
  0
EOF
