G04 #@! TF.GenerationSoftware,KiCad,Pcbnew,(5.1.4)-1*
G04 #@! TF.CreationDate,2021-02-22T16:30:36-08:00*
G04 #@! TF.ProjectId,Rosies Board,526f7369-6573-4204-926f-6172642e6b69,rev?*
G04 #@! TF.SameCoordinates,Original*
G04 #@! TF.FileFunction,Paste,Bot*
G04 #@! TF.FilePolarity,Positive*
%FSLAX46Y46*%
G04 Gerber Fmt 4.6, Leading zero omitted, Abs format (unit mm)*
G04 Created by KiCad (PCBNEW (5.1.4)-1) date 2021-02-22 16:30:36*
%MOMM*%
%LPD*%
G04 APERTURE LIST*
%ADD10R,1.100000X1.800000*%
%ADD11R,1.200000X1.600000*%
G04 APERTURE END LIST*
D10*
X215331920Y-52523460D03*
X211631920Y-58723460D03*
X211631920Y-52523460D03*
X215331920Y-58723460D03*
D11*
X221457180Y-26403230D03*
X221457180Y-23603230D03*
X215504030Y-83553470D03*
X215504030Y-80753470D03*
X213122770Y-83553470D03*
X213122770Y-80753470D03*
X191691430Y-83553470D03*
X191691430Y-80753470D03*
X171450720Y-83553470D03*
X171450720Y-80753470D03*
X92869140Y-83553470D03*
X92869140Y-80753470D03*
X72628430Y-83553470D03*
X72628430Y-80753470D03*
X53578350Y-83553470D03*
X53578350Y-80753470D03*
X51197090Y-83553470D03*
X51197090Y-80753470D03*
X234554110Y-64503390D03*
X234554110Y-61703390D03*
X195263320Y-64503390D03*
X195263320Y-61703390D03*
X176213240Y-64503390D03*
X176213240Y-61703390D03*
X157163160Y-64503390D03*
X157163160Y-61703390D03*
X138113080Y-64503390D03*
X138113080Y-61703390D03*
X119063000Y-64503390D03*
X119063000Y-61703390D03*
X100012920Y-64503390D03*
X100012920Y-61703390D03*
X80962840Y-64503390D03*
X80962840Y-61703390D03*
X63103390Y-64503390D03*
X63103390Y-61703390D03*
X60722130Y-64503390D03*
X60722130Y-61703390D03*
X229791590Y-45453310D03*
X229791590Y-42653310D03*
X185738280Y-45453310D03*
X185738280Y-42653310D03*
X166688200Y-45453310D03*
X166688200Y-42653310D03*
X147638120Y-45453310D03*
X147638120Y-42653310D03*
X128588040Y-45453310D03*
X128588040Y-42653310D03*
X109537960Y-45453310D03*
X109537960Y-42653310D03*
X90487880Y-45453310D03*
X90487880Y-42653310D03*
X71437800Y-45453310D03*
X71437800Y-42653310D03*
X53578350Y-45453310D03*
X53578350Y-42653310D03*
X51197090Y-45453310D03*
X51197090Y-42653310D03*
X219075920Y-26403230D03*
X219075920Y-23603230D03*
X180975760Y-26403230D03*
X180975760Y-23603230D03*
X161925680Y-26403230D03*
X161925680Y-23603230D03*
X142875600Y-26403230D03*
X142875600Y-23603230D03*
X123825520Y-26403230D03*
X123825520Y-23603230D03*
X104775440Y-26403230D03*
X104775440Y-23603230D03*
X85725360Y-26403230D03*
X85725360Y-23603230D03*
X66675280Y-26403230D03*
X66675280Y-23603230D03*
X48815830Y-26403230D03*
X48815830Y-23603230D03*
X46434570Y-26403230D03*
X46434570Y-23603230D03*
M02*
