<?xml version="1.0" standalone="no"?>
 <!DOCTYPE svg PUBLIC "-//W3C//DTD SVG 1.1//EN" 
 "http://www.w3.org/Graphics/SVG/1.1/DTD/svg11.dtd"> 
<svg xmlns="http://www.w3.org/2000/svg" version="1.1" 
    width="23.5737cm" height="9.525cm" viewBox="0 0 92810 37500 ">
<title>SVG Picture created as Rosies Board-brd.svg date 2021/02/24 11:56:18 </title>
  <desc>Picture generated by PCBNEW </desc>
<g style="fill:#000000; fill-opacity:1;stroke:#000000; stroke-opacity:1;
stroke-linecap:round; stroke-linejoin:round; "
 transform="translate(0 0) scale(1 1)">
</g>
<g style="fill:#000000; fill-opacity:0.0; 
stroke:#000000; stroke-width:-0.000393701; stroke-opacity:1; 
stroke-linecap:round; stroke-linejoin:round;">
</g>
<g style="fill:#000000; fill-opacity:0.0; 
stroke:#000000; stroke-width:19.685; stroke-opacity:1; 
stroke-linecap:round; stroke-linejoin:round;">
<path d="M87187 3281
L87187 4218
" />
<path d="M87187.9 3281.26 A468.752 468.752 0.0 0 0 86719.1 2812.51 " />
<path d="M87187 4218
L87656 4687
" />
<path d="M83906.6 4218.77 A468.752 468.752 0.0 0 0 84375.4 3750.02 " />
<path d="M84375 3281
L84375 3750
" />
<path d="M86719 2812
L84844 2812
" />
<path d="M87656 4687
L88594 4687
" />
<path d="M89062.9 5156.27 A468.752 468.752 0.0 0 0 88594.1 4687.52 " />
<path d="M89062 5156
L89062 7031
" />
<path d="M88125.4 7500.03 A468.752 468.752 0.0 0 0 87656.6 7968.78 " />
<path d="M88594 7500
L88125 7500
" />
<path d="M88594.1 7500.03 A468.752 468.752 0.0 0 0 89062.9 7031.28 " />
<path d="M84844.1 2812.51 A468.752 468.752 0.0 0 0 84375.4 3281.26 " />
<path d="M89062.9 31406.4 A468.752 468.752 0.0 0 0 88594.1 30937.6 " />
<path d="M87656 33750
L88594 33750
" />
<path d="M88594.1 33750.1 A468.752 468.752 0.0 0 0 89062.9 33281.4 " />
<path d="M89062 33281
L89062 31406
" />
<path d="M88594 30937
L88125 30937
" />
<path d="M84375 35156
L84375 34687
" />
<path d="M84375.4 35156.4 A468.752 468.752 0.0 0 0 84844.1 35625.2 " />
<path d="M86719.1 35625.2 A468.752 468.752 0.0 0 0 87187.9 35156.4 " />
<path d="M86719 35625
L84844 35625
" />
<path d="M87187 34218
L87187 35156
" />
<path d="M84375.4 34687.6 A468.752 468.752 0.0 0 0 83906.6 34218.9 " />
<path d="M87656 33750
L87187 34218
" />
<path d="M87656.6 30468.9 A468.752 468.752 0.0 0 0 88125.4 30937.6 " />
<path d="M4218 7500
L4687 7500
" />
<path d="M3750 5156
L3750 7031
" />
<path d="M4218.77 4687.52 A468.752 468.752 0.0 0 0 3750.02 5156.27 " />
<path d="M3750.02 7031.28 A468.752 468.752 0.0 0 0 4218.77 7500.03 " />
<path d="M5625 4218
L5156 4687
" />
<path d="M8437 3281
L8437 3750
" />
<path d="M6093 2812
L7968 2812
" />
<path d="M6093.78 2812.51 A468.752 468.752 0.0 0 0 5625.02 3281.26 " />
<path d="M8437.54 3281.26 A468.752 468.752 0.0 0 0 7968.78 2812.51 " />
<path d="M8437.54 3750.02 A468.752 468.752 0.0 0 0 8906.29 4218.77 " />
<path d="M5625 4218
L5625 3281
" />
<path d="M5156 4687
L4218 4687
" />
<path d="M5156.27 7968.78 A468.752 468.752 0.0 0 0 4687.52 7500.03 " />
<path d="M4218 30937
L4687 30937
" />
<path d="M3750 33281
L3750 31406
" />
<path d="M4218.77 30937.6 A468.752 468.752 0.0 0 0 3750.02 31406.4 " />
<path d="M3750.02 33281.4 A468.752 468.752 0.0 0 0 4218.77 33750.1 " />
<path d="M5156 33750
L4218 33750
" />
<path d="M4687.52 30937.6 A468.752 468.752 0.0 0 0 5156.27 30468.9 " />
<path d="M5156 33750
L5625 34218
" />
<path d="M8437 35156
L8437 34687
" />
<path d="M6093 35625
L7968 35625
" />
<path d="M5625.02 35156.4 A468.752 468.752 0.0 0 0 6093.78 35625.2 " />
<path d="M7968.78 35625.2 A468.752 468.752 0.0 0 0 8437.54 35156.4 " />
<path d="M8906.29 34218.9 A468.752 468.752 0.0 0 0 8437.54 34687.6 " />
<path d="M5625 34218
L5625 35156
" />
<path d="M87656 7968
L87656 30468
" />
<path d="M5156 30468
L5156 7968
" />
<path d="M50625 34218
L83906 34218
" />
<path d="M50156.5 3750.02 A468.752 468.752 0.0 0 0 50625.2 4218.77 " />
<path d="M50156.5 3281.26 A468.752 468.752 0.0 0 0 49687.7 2812.51 " />
<path d="M43125.2 2812.51 A468.752 468.752 0.0 0 0 42656.4 3281.26 " />
<path d="M42187.7 4218.77 A468.752 468.752 0.0 0 0 42656.4 3750.02 " />
<path d="M50625.2 34218.9 A468.752 468.752 0.0 0 0 50156.5 34687.6 " />
<path d="M49687.7 35625.2 A468.752 468.752 0.0 0 0 50156.5 35156.4 " />
<path d="M42656.4 35156.4 A468.752 468.752 0.0 0 0 43125.2 35625.2 " />
<path d="M42656.4 34687.6 A468.752 468.752 0.0 0 0 42187.7 34218.9 " />
<path d="M42187 34218
L8906 34218
" />
<path d="M50156 35156
L50156 34687
" />
<path d="M43125 35625
L49687 35625
" />
<path d="M42656 34687
L42656 35156
" />
<path d="M42187 4218
L8906 4218
" />
<path d="M50625 4218
L83906 4218
" />
<path d="M50156 3281
L50156 3750
" />
<path d="M43125 2812
L49687 2812
" />
<path d="M42656 3750
L42656 3281
" />
<path d="M84375 3281
L84375 3281
" />
<path d="M87187 3281
L87187 3281
" />
<g >
</g>
<g >
</g>
<g >
</g>
<g >
</g>
<g >
</g>
<g >
</g>
<g >
</g>
<g >
</g>
<g >
</g>
<g >
</g>
<g >
</g>
<g >
</g>
<g >
</g>
<g >
</g>
<g >
</g>
<g >
</g>
<g >
</g>
<g >
</g>
<g >
</g>
<g >
</g>
<g >
</g>
<g >
</g>
<g >
</g>
<g >
</g>
<g >
</g>
<g >
</g>
<g >
</g>
<g >
</g>
<g >
</g>
<g >
</g>
<g >
</g>
<g >
</g>
<g >
</g>
<g >
</g>
<g >
</g>
<g >
</g>
<g >
</g>
<g >
</g>
<g >
</g>
<g >
</g>
<g >
</g>
<g >
</g>
<g >
</g>
<g >
</g>
<g >
</g>
<g >
</g>
<g >
</g>
<g >
</g>
<g >
</g>
<g >
</g>
<g >
</g>
<g >
</g>
<g >
</g>
<g >
</g>
<g >
</g>
<g >
</g>
<g >
</g>
<g >
</g>
<g >
</g>
<g >
</g>
<g >
</g>
<g >
</g>
<g >
</g>
<g >
</g>
<g >
</g>
<g >
</g>
<g >
</g>
<g >
</g>
<g >
</g>
<g >
</g>
<g >
</g>
<g >
</g>
<g >
</g>
<g >
</g>
<g >
</g>
<g >
</g>
<g >
</g>
<g >
</g>
<g >
</g>
<g >
</g>
<g >
</g>
<g >
</g>
<g >
</g>
<g >
</g>
<g >
</g>
<g >
</g>
<g >
</g>
<g >
</g>
<g >
</g>
<g >
</g>
<g >
</g>
<g >
</g>
</g> 
</svg>
