<?xml version="1.0"?>
<svg xmlns="http://www.w3.org/2000/svg" xmlns:lc="http://www.librecad.org" xmlns:xlink="http://www.w3.org/1999/xlink" width="228.7609154mm" height="95.4110371mm" viewBox="0 0 228.7609154 95.4110371">
    <g lc:layername="0" lc:is_locked="false" lc:is_construction="false" fill="none" stroke="black" stroke-width="1">
        <line x1="225.7609154" y1="0" x2="225.9969154" y2="0.0095"/>
        <line x1="225.9969154" y1="0.0095" x2="226.2299154" y2="0.0356"/>
        <line x1="226.2299154" y1="0.0356" x2="226.4609154" y2="0.0825"/>
        <line x1="226.4609154" y1="0.0825" x2="226.6889154" y2="0.146"/>
        <line x1="226.6889154" y1="0.146" x2="226.9089154" y2="0.2286"/>
        <line x1="226.9089154" y1="0.2286" x2="227.1229154" y2="0.3263"/>
        <line x1="227.1229154" y1="0.3263" x2="227.3279154" y2="0.442"/>
        <line x1="227.3279154" y1="0.442" x2="227.5239154" y2="0.5718"/>
        <line x1="227.5239154" y1="0.5718" x2="227.7099154" y2="0.7179"/>
        <line x1="227.7099154" y1="0.7179" x2="227.8819154" y2="0.8777"/>
        <line x1="227.8819154" y1="0.8777" x2="228.0419154" y2="1.0512"/>
        <line x1="228.0419154" y1="1.0512" x2="228.1879154" y2="1.2358"/>
        <line x1="228.1879154" y1="1.2358" x2="228.3189154" y2="1.4315"/>
        <line x1="228.3189154" y1="1.4315" x2="228.4349154" y2="1.6383"/>
        <line x1="228.4349154" y1="1.6383" x2="228.5329154" y2="1.8521"/>
        <line x1="228.5329154" y1="1.8521" x2="228.6139154" y2="2.0725"/>
        <line x1="228.6139154" y1="2.0725" x2="228.6789154" y2="2.2997"/>
        <line x1="228.6789154" y1="2.2997" x2="228.7239154" y2="2.5297"/>
        <line x1="228.7239154" y1="2.5297" x2="228.7519154" y2="2.764"/>
        <line x1="228.7519154" y1="2.764" x2="228.7609154" y2="2.9996"/>
        <line x1="228.7609154" y1="2.9996" x2="228.7609154" y2="92.41105"/>
        <line x1="228.7609154" y1="92.41105" x2="228.7519154" y2="92.64669"/>
        <line x1="228.7519154" y1="92.64669" x2="228.7239154" y2="92.87958"/>
        <line x1="228.7239154" y1="92.87958" x2="228.6789154" y2="93.11109"/>
        <line x1="228.6789154" y1="93.11109" x2="228.6139154" y2="93.33847"/>
        <line x1="228.6139154" y1="93.33847" x2="228.5329154" y2="93.55895"/>
        <line x1="228.5329154" y1="93.55895" x2="228.4349154" y2="93.77255"/>
        <line x1="228.4349154" y1="93.77255" x2="228.3189154" y2="93.97788"/>
        <line x1="228.3189154" y1="93.97788" x2="228.1879154" y2="94.17356"/>
        <line x1="228.1879154" y1="94.17356" x2="228.0419154" y2="94.35959"/>
        <line x1="228.0419154" y1="94.35959" x2="227.8819154" y2="94.531847"/>
        <line x1="227.8819154" y1="94.531847" x2="227.7099154" y2="94.691701"/>
        <line x1="227.7099154" y1="94.691701" x2="227.5239154" y2="94.837773"/>
        <line x1="227.5239154" y1="94.837773" x2="227.3279154" y2="94.968688"/>
        <line x1="227.3279154" y1="94.968688" x2="227.1229154" y2="95.084442"/>
        <line x1="227.1229154" y1="95.084442" x2="226.9089154" y2="95.182283"/>
        <line x1="226.9089154" y1="95.182283" x2="226.6889154" y2="95.263587"/>
        <line x1="226.6889154" y1="95.263587" x2="226.4609154" y2="95.328355"/>
        <line x1="226.4609154" y1="95.328355" x2="226.2299154" y2="95.37383"/>
        <line x1="226.2299154" y1="95.37383" x2="225.9969154" y2="95.401391"/>
        <line x1="225.9969154" y1="95.401391" x2="225.7609154" y2="95.4110371"/>
        <line x1="225.7609154" y1="95.4110371" x2="2.9999854" y2="95.4110371"/>
        <line x1="2.9999854" y1="95.4110371" x2="2.7643454" y2="95.401391"/>
        <line x1="2.7643454" y1="95.401391" x2="2.5300754" y2="95.37383"/>
        <line x1="2.5300754" y1="95.37383" x2="2.2999454" y2="95.328355"/>
        <line x1="2.2999454" y1="95.328355" x2="2.0725654" y2="95.263587"/>
        <line x1="2.0725654" y1="95.263587" x2="1.8520854" y2="95.182283"/>
        <line x1="1.8520854" y1="95.182283" x2="1.6384854" y2="95.084442"/>
        <line x1="1.6384854" y1="95.084442" x2="1.4317854" y2="94.968688"/>
        <line x1="1.4317854" y1="94.968688" x2="1.2361054" y2="94.837773"/>
        <line x1="1.2361054" y1="94.837773" x2="1.0514454" y2="94.691701"/>
        <line x1="1.0514454" y1="94.691701" x2="0.8778094" y2="94.531847"/>
        <line x1="0.8778094" y1="94.531847" x2="0.7179584" y2="94.35959"/>
        <line x1="0.7179584" y1="94.35959" x2="0.5718874" y2="94.17356"/>
        <line x1="0.5718874" y1="94.17356" x2="0.4423514" y2="93.97788"/>
        <line x1="0.4423514" y1="93.97788" x2="0.3265944" y2="93.77255"/>
        <line x1="0.3265944" y1="93.77255" x2="0.2287544" y2="93.55895"/>
        <line x1="0.2287544" y1="93.55895" x2="0.1460724" y2="93.33847"/>
        <line x1="0.1460724" y1="93.33847" x2="0.0826824" y2="93.11109"/>
        <line x1="0.0826824" y1="93.11109" x2="0.0358294" y2="92.87958"/>
        <line x1="0.0358294" y1="92.87958" x2="0.0096464" y2="92.64669"/>
        <line x1="0.0096464" y1="92.64669" x2="0" y2="92.40967"/>
        <line x1="0" y1="92.40967" x2="0" y2="2.9996"/>
        <line x1="0" y1="2.9996" x2="0.0096464" y2="2.764"/>
        <line x1="0.0096464" y1="2.764" x2="0.0358294" y2="2.5297"/>
        <line x1="0.0358294" y1="2.5297" x2="0.0826824" y2="2.2997"/>
        <line x1="0.0826824" y1="2.2997" x2="0.1460724" y2="2.0725"/>
        <line x1="0.1460724" y1="2.0725" x2="0.2287544" y2="1.8521"/>
        <line x1="0.2287544" y1="1.8521" x2="0.3265944" y2="1.6383"/>
        <line x1="0.3265944" y1="1.6383" x2="0.4423514" y2="1.4315"/>
        <line x1="0.4423514" y1="1.4315" x2="0.5718874" y2="1.2358"/>
        <line x1="0.5718874" y1="1.2358" x2="0.7179584" y2="1.0512"/>
        <line x1="0.7179584" y1="1.0512" x2="0.8778094" y2="0.8777"/>
        <line x1="0.8778094" y1="0.8777" x2="1.0514454" y2="0.7179"/>
        <line x1="1.0514454" y1="0.7179" x2="1.2361054" y2="0.5718"/>
        <line x1="1.2361054" y1="0.5718" x2="1.4317854" y2="0.442"/>
        <line x1="1.4317854" y1="0.442" x2="1.6384854" y2="0.3263"/>
        <line x1="1.6384854" y1="0.3263" x2="1.8520854" y2="0.2286"/>
        <line x1="1.8520854" y1="0.2286" x2="2.0725654" y2="0.146"/>
        <line x1="2.0725654" y1="0.146" x2="2.2999454" y2="0.0825"/>
        <line x1="2.2999454" y1="0.0825" x2="2.5300754" y2="0.0356"/>
        <line x1="2.5300754" y1="0.0356" x2="2.7643454" y2="0.0095"/>
        <line x1="2.7643454" y1="0.0095" x2="2.9999854" y2="0"/>
        <line x1="2.9999854" y1="0" x2="225.7609154" y2="0"/>
        <line x1="4.3228954" y1="88.97698" x2="3.8557454" y2="89.21539"/>
        <line x1="3.8557454" y1="89.21539" x2="3.4850454" y2="89.58605"/>
        <line x1="3.4850454" y1="89.58605" x2="3.2466554" y2="90.05324"/>
        <line x1="3.2466554" y1="90.05324" x2="3.1639754" y2="90.56999"/>
        <line x1="3.1639754" y1="90.56999" x2="3.2466554" y2="91.08815"/>
        <line x1="3.2466554" y1="91.08815" x2="3.4850454" y2="91.5553"/>
        <line x1="3.4850454" y1="91.5553" x2="3.8557454" y2="91.92599"/>
        <line x1="3.8557454" y1="91.92599" x2="4.3228954" y2="92.16438"/>
        <line x1="4.3228954" y1="92.16438" x2="4.8410554" y2="92.24568"/>
        <line x1="4.8410554" y1="92.24568" x2="5.3578054" y2="92.16438"/>
        <line x1="5.3578054" y1="92.16438" x2="5.8249854" y2="91.92599"/>
        <line x1="5.8249854" y1="91.92599" x2="6.1956454" y2="91.5553"/>
        <line x1="6.1956454" y1="91.5553" x2="6.4340554" y2="91.08815"/>
        <line x1="6.4340554" y1="91.08815" x2="6.5153754" y2="90.56999"/>
        <line x1="6.5153754" y1="90.56999" x2="6.4340554" y2="90.05324"/>
        <line x1="6.4340554" y1="90.05324" x2="6.1956454" y2="89.58605"/>
        <line x1="6.1956454" y1="89.58605" x2="5.8249854" y2="89.21539"/>
        <line x1="5.8249854" y1="89.21539" x2="5.3578054" y2="88.97698"/>
        <line x1="5.3578054" y1="88.97698" x2="4.8410554" y2="88.89567"/>
        <line x1="4.8410554" y1="88.89567" x2="4.3228954" y2="88.97698"/>
        <line x1="77.3491154" y1="88.97698" x2="76.8821154" y2="89.21539"/>
        <line x1="76.8821154" y1="89.21539" x2="76.5113154" y2="89.58605"/>
        <line x1="76.5113154" y1="89.58605" x2="76.2732154" y2="90.05324"/>
        <line x1="76.2732154" y1="90.05324" x2="76.1917154" y2="90.56999"/>
        <line x1="76.1917154" y1="90.56999" x2="76.2732154" y2="91.08815"/>
        <line x1="76.2732154" y1="91.08815" x2="76.5113154" y2="91.5553"/>
        <line x1="76.5113154" y1="91.5553" x2="76.8821154" y2="91.92599"/>
        <line x1="76.8821154" y1="91.92599" x2="77.3491154" y2="92.16438"/>
        <line x1="77.3491154" y1="92.16438" x2="77.8674154" y2="92.24568"/>
        <line x1="77.8674154" y1="92.24568" x2="78.3842154" y2="92.16438"/>
        <line x1="78.3842154" y1="92.16438" x2="78.8513154" y2="91.92599"/>
        <line x1="78.8513154" y1="91.92599" x2="79.2220154" y2="91.5553"/>
        <line x1="79.2220154" y1="91.5553" x2="79.4605154" y2="91.08815"/>
        <line x1="79.4605154" y1="91.08815" x2="79.5417154" y2="90.56999"/>
        <line x1="79.5417154" y1="90.56999" x2="79.4605154" y2="90.05324"/>
        <line x1="79.4605154" y1="90.05324" x2="79.2220154" y2="89.58605"/>
        <line x1="79.2220154" y1="89.58605" x2="78.8513154" y2="89.21539"/>
        <line x1="78.8513154" y1="89.21539" x2="78.3842154" y2="88.97698"/>
        <line x1="78.3842154" y1="88.97698" x2="77.8674154" y2="88.89567"/>
        <line x1="77.8674154" y1="88.89567" x2="77.3491154" y2="88.97698"/>
        <line x1="150.3769154" y1="88.97698" x2="149.9099154" y2="89.21539"/>
        <line x1="149.9099154" y1="89.21539" x2="149.5379154" y2="89.58605"/>
        <line x1="149.5379154" y1="89.58605" x2="149.3009154" y2="90.05324"/>
        <line x1="149.3009154" y1="90.05324" x2="149.2199154" y2="90.56999"/>
        <line x1="149.2199154" y1="90.56999" x2="149.3009154" y2="91.08815"/>
        <line x1="149.3009154" y1="91.08815" x2="149.5379154" y2="91.5553"/>
        <line x1="149.5379154" y1="91.5553" x2="149.9099154" y2="91.92599"/>
        <line x1="149.9099154" y1="91.92599" x2="150.3769154" y2="92.16438"/>
        <line x1="150.3769154" y1="92.16438" x2="150.8939154" y2="92.24568"/>
        <line x1="150.8939154" y1="92.24568" x2="151.4119154" y2="92.16438"/>
        <line x1="151.4119154" y1="92.16438" x2="151.8779154" y2="91.92599"/>
        <line x1="151.8779154" y1="91.92599" x2="152.2499154" y2="91.5553"/>
        <line x1="152.2499154" y1="91.5553" x2="152.4869154" y2="91.08815"/>
        <line x1="152.4869154" y1="91.08815" x2="152.5699154" y2="90.56999"/>
        <line x1="152.5699154" y1="90.56999" x2="152.4869154" y2="90.05324"/>
        <line x1="152.4869154" y1="90.05324" x2="152.2499154" y2="89.58605"/>
        <line x1="152.2499154" y1="89.58605" x2="151.8779154" y2="89.21539"/>
        <line x1="151.8779154" y1="89.21539" x2="151.4119154" y2="88.97698"/>
        <line x1="151.4119154" y1="88.97698" x2="150.8939154" y2="88.89567"/>
        <line x1="150.8939154" y1="88.89567" x2="150.3769154" y2="88.97698"/>
        <line x1="223.4029154" y1="88.97698" x2="222.9359154" y2="89.21539"/>
        <line x1="222.9359154" y1="89.21539" x2="222.5659154" y2="89.58605"/>
        <line x1="222.5659154" y1="89.58605" x2="222.3269154" y2="90.05324"/>
        <line x1="222.3269154" y1="90.05324" x2="222.2459154" y2="90.56999"/>
        <line x1="222.2459154" y1="90.56999" x2="222.3269154" y2="91.08815"/>
        <line x1="222.3269154" y1="91.08815" x2="222.5659154" y2="91.5553"/>
        <line x1="222.5659154" y1="91.5553" x2="222.9359154" y2="91.92599"/>
        <line x1="222.9359154" y1="91.92599" x2="223.4029154" y2="92.16438"/>
        <line x1="223.4029154" y1="92.16438" x2="223.9219154" y2="92.24568"/>
        <line x1="223.9219154" y1="92.24568" x2="224.4389154" y2="92.16438"/>
        <line x1="224.4389154" y1="92.16438" x2="224.9059154" y2="91.92599"/>
        <line x1="224.9059154" y1="91.92599" x2="225.2759154" y2="91.5553"/>
        <line x1="225.2759154" y1="91.5553" x2="225.5149154" y2="91.08815"/>
        <line x1="225.5149154" y1="91.08815" x2="225.5959154" y2="90.56999"/>
        <line x1="225.5959154" y1="90.56999" x2="225.5149154" y2="90.05324"/>
        <line x1="225.5149154" y1="90.05324" x2="225.2759154" y2="89.58605"/>
        <line x1="225.2759154" y1="89.58605" x2="224.9059154" y2="89.21539"/>
        <line x1="224.9059154" y1="89.21539" x2="224.4389154" y2="88.97698"/>
        <line x1="224.4389154" y1="88.97698" x2="223.9219154" y2="88.89567"/>
        <line x1="223.9219154" y1="88.89567" x2="223.4029154" y2="88.97698"/>
        <line x1="4.3228954" y1="3.2466" x2="3.8557454" y2="3.4847"/>
        <line x1="3.8557454" y1="3.4847" x2="3.4850454" y2="3.8555"/>
        <line x1="3.4850454" y1="3.8555" x2="3.2466554" y2="4.3226"/>
        <line x1="3.2466554" y1="4.3226" x2="3.1639754" y2="4.8408"/>
        <line x1="3.1639754" y1="4.8408" x2="3.2466554" y2="5.3576"/>
        <line x1="3.2466554" y1="5.3576" x2="3.4850454" y2="5.8247"/>
        <line x1="3.4850454" y1="5.8247" x2="3.8557454" y2="6.1955"/>
        <line x1="3.8557454" y1="6.1955" x2="4.3228954" y2="6.4339"/>
        <line x1="4.3228954" y1="6.4339" x2="4.8410554" y2="6.5151"/>
        <line x1="4.8410554" y1="6.5151" x2="5.3578054" y2="6.4339"/>
        <line x1="5.3578054" y1="6.4339" x2="5.8249854" y2="6.1955"/>
        <line x1="5.8249854" y1="6.1955" x2="6.1956454" y2="5.8247"/>
        <line x1="6.1956454" y1="5.8247" x2="6.4340554" y2="5.3576"/>
        <line x1="6.4340554" y1="5.3576" x2="6.5153754" y2="4.8408"/>
        <line x1="6.5153754" y1="4.8408" x2="6.4340554" y2="4.3226"/>
        <line x1="6.4340554" y1="4.3226" x2="6.1956454" y2="3.8555"/>
        <line x1="6.1956454" y1="3.8555" x2="5.8249854" y2="3.4847"/>
        <line x1="5.8249854" y1="3.4847" x2="5.3578054" y2="3.2466"/>
        <line x1="5.3578054" y1="3.2466" x2="4.8410554" y2="3.1637"/>
        <line x1="4.8410554" y1="3.1637" x2="4.3228954" y2="3.2466"/>
        <line x1="223.4029154" y1="3.2466" x2="222.9359154" y2="3.4847"/>
        <line x1="222.9359154" y1="3.4847" x2="222.5659154" y2="3.8555"/>
        <line x1="222.5659154" y1="3.8555" x2="222.3269154" y2="4.3226"/>
        <line x1="222.3269154" y1="4.3226" x2="222.2459154" y2="4.8408"/>
        <line x1="222.2459154" y1="4.8408" x2="222.3269154" y2="5.3576"/>
        <line x1="222.3269154" y1="5.3576" x2="222.5659154" y2="5.8247"/>
        <line x1="222.5659154" y1="5.8247" x2="222.9359154" y2="6.1955"/>
        <line x1="222.9359154" y1="6.1955" x2="223.4029154" y2="6.4339"/>
        <line x1="223.4029154" y1="6.4339" x2="223.9219154" y2="6.5151"/>
        <line x1="223.9219154" y1="6.5151" x2="224.4389154" y2="6.4339"/>
        <line x1="224.4389154" y1="6.4339" x2="224.9059154" y2="6.1955"/>
        <line x1="224.9059154" y1="6.1955" x2="225.2759154" y2="5.8247"/>
        <line x1="225.2759154" y1="5.8247" x2="225.5149154" y2="5.3576"/>
        <line x1="225.5149154" y1="5.3576" x2="225.5959154" y2="4.8408"/>
        <line x1="225.5959154" y1="4.8408" x2="225.5149154" y2="4.3226"/>
        <line x1="225.5149154" y1="4.3226" x2="225.2759154" y2="3.8555"/>
        <line x1="225.2759154" y1="3.8555" x2="224.9059154" y2="3.4847"/>
        <line x1="224.9059154" y1="3.4847" x2="224.4389154" y2="3.2466"/>
        <line x1="224.4389154" y1="3.2466" x2="223.9219154" y2="3.1637"/>
        <line x1="223.9219154" y1="3.1637" x2="223.4029154" y2="3.2466"/>
        <line x1="150.3769154" y1="3.2466" x2="149.9099154" y2="3.4847"/>
        <line x1="149.9099154" y1="3.4847" x2="149.5379154" y2="3.8555"/>
        <line x1="149.5379154" y1="3.8555" x2="149.3009154" y2="4.3226"/>
        <line x1="149.3009154" y1="4.3226" x2="149.2199154" y2="4.8408"/>
        <line x1="149.2199154" y1="4.8408" x2="149.3009154" y2="5.3576"/>
        <line x1="149.3009154" y1="5.3576" x2="149.5379154" y2="5.8247"/>
        <line x1="149.5379154" y1="5.8247" x2="149.9099154" y2="6.1955"/>
        <line x1="149.9099154" y1="6.1955" x2="150.3769154" y2="6.4339"/>
        <line x1="150.3769154" y1="6.4339" x2="150.8939154" y2="6.5151"/>
        <line x1="150.8939154" y1="6.5151" x2="151.4119154" y2="6.4339"/>
        <line x1="151.4119154" y1="6.4339" x2="151.8779154" y2="6.1955"/>
        <line x1="151.8779154" y1="6.1955" x2="152.2499154" y2="5.8247"/>
        <line x1="152.2499154" y1="5.8247" x2="152.4869154" y2="5.3576"/>
        <line x1="152.4869154" y1="5.3576" x2="152.5699154" y2="4.8408"/>
        <line x1="152.5699154" y1="4.8408" x2="152.4869154" y2="4.3226"/>
        <line x1="152.4869154" y1="4.3226" x2="152.2499154" y2="3.8555"/>
        <line x1="152.2499154" y1="3.8555" x2="151.8779154" y2="3.4847"/>
        <line x1="151.8779154" y1="3.4847" x2="151.4119154" y2="3.2466"/>
        <line x1="151.4119154" y1="3.2466" x2="150.8939154" y2="3.1637"/>
        <line x1="150.8939154" y1="3.1637" x2="150.3769154" y2="3.2466"/>
        <line x1="77.3491154" y1="3.2466" x2="76.8821154" y2="3.4847"/>
        <line x1="76.8821154" y1="3.4847" x2="76.5113154" y2="3.8555"/>
        <line x1="76.5113154" y1="3.8555" x2="76.2732154" y2="4.3226"/>
        <line x1="76.2732154" y1="4.3226" x2="76.1917154" y2="4.8408"/>
        <line x1="76.1917154" y1="4.8408" x2="76.2732154" y2="5.3576"/>
        <line x1="76.2732154" y1="5.3576" x2="76.5113154" y2="5.8247"/>
        <line x1="76.5113154" y1="5.8247" x2="76.8821154" y2="6.1955"/>
        <line x1="76.8821154" y1="6.1955" x2="77.3491154" y2="6.4339"/>
        <line x1="77.3491154" y1="6.4339" x2="77.8674154" y2="6.5151"/>
        <line x1="77.8674154" y1="6.5151" x2="78.3842154" y2="6.4339"/>
        <line x1="78.3842154" y1="6.4339" x2="78.8513154" y2="6.1955"/>
        <line x1="78.8513154" y1="6.1955" x2="79.2220154" y2="5.8247"/>
        <line x1="79.2220154" y1="5.8247" x2="79.4605154" y2="5.3576"/>
        <line x1="79.4605154" y1="5.3576" x2="79.5417154" y2="4.8408"/>
        <line x1="79.5417154" y1="4.8408" x2="79.4605154" y2="4.3226"/>
        <line x1="79.4605154" y1="4.3226" x2="79.2220154" y2="3.8555"/>
        <line x1="79.2220154" y1="3.8555" x2="78.8513154" y2="3.4847"/>
        <line x1="78.8513154" y1="3.4847" x2="78.3842154" y2="3.2466"/>
        <line x1="78.3842154" y1="3.2466" x2="77.8674154" y2="3.1637"/>
        <line x1="77.8674154" y1="3.1637" x2="77.3491154" y2="3.2466"/>
    </g>
</svg>
