<?xml version="1.0" encoding="UTF-8" standalone="no"?>
<svg
   xmlns:lc="http://www.librecad.org"
   xmlns:dc="http://purl.org/dc/elements/1.1/"
   xmlns:cc="http://creativecommons.org/ns#"
   xmlns:rdf="http://www.w3.org/1999/02/22-rdf-syntax-ns#"
   xmlns:svg="http://www.w3.org/2000/svg"
   xmlns="http://www.w3.org/2000/svg"
   xmlns:sodipodi="http://sodipodi.sourceforge.net/DTD/sodipodi-0.dtd"
   xmlns:inkscape="http://www.inkscape.org/namespaces/inkscape"
   width="228.7609154mm"
   height="95.4110371mm"
   viewBox="0 0 228.7609154 95.4110371"
   version="1.1"
   id="svg998"
   sodipodi:docname="Eleven sandwich bottom (with reset hole) 1x.svg"
   inkscape:version="1.0.1 (3bc2e813f5, 2020-09-07)">
  <metadata
     id="metadata1004">
    <rdf:RDF>
      <cc:Work
         rdf:about="">
        <dc:format>image/svg+xml</dc:format>
        <dc:type
           rdf:resource="http://purl.org/dc/dcmitype/StillImage" />
        <dc:title></dc:title>
      </cc:Work>
    </rdf:RDF>
  </metadata>
  <defs
     id="defs1002" />
  <sodipodi:namedview
     pagecolor="#ffffff"
     bordercolor="#666666"
     borderopacity="1"
     objecttolerance="10"
     gridtolerance="10"
     guidetolerance="10"
     inkscape:pageopacity="0"
     inkscape:pageshadow="2"
     inkscape:window-width="1920"
     inkscape:window-height="1017"
     id="namedview1000"
     showgrid="false"
     inkscape:zoom="1.189132"
     inkscape:cx="490.34698"
     inkscape:cy="185.69373"
     inkscape:window-x="-8"
     inkscape:window-y="-8"
     inkscape:window-maximized="1"
     inkscape:current-layer="svg998" />
  <g
     lc:layername="0"
     lc:is_locked="false"
     lc:is_construction="false"
     fill="none"
     stroke="black"
     stroke-width="1"
     id="g996">
    <line
       x1="225.7609154"
       y1="0"
       x2="225.9969154"
       y2="0.0095"
       id="line508" />
    <line
       x1="225.9969154"
       y1="0.0095"
       x2="226.2299154"
       y2="0.0356"
       id="line510" />
    <line
       x1="226.2299154"
       y1="0.0356"
       x2="226.4609154"
       y2="0.0825"
       id="line512" />
    <line
       x1="226.4609154"
       y1="0.0825"
       x2="226.6889154"
       y2="0.146"
       id="line514" />
    <line
       x1="226.6889154"
       y1="0.146"
       x2="226.9089154"
       y2="0.2286"
       id="line516" />
    <line
       x1="226.9089154"
       y1="0.2286"
       x2="227.1229154"
       y2="0.3263"
       id="line518" />
    <line
       x1="227.1229154"
       y1="0.3263"
       x2="227.3279154"
       y2="0.442"
       id="line520" />
    <line
       x1="227.3279154"
       y1="0.442"
       x2="227.5239154"
       y2="0.5718"
       id="line522" />
    <line
       x1="227.5239154"
       y1="0.5718"
       x2="227.7099154"
       y2="0.7179"
       id="line524" />
    <line
       x1="227.7099154"
       y1="0.7179"
       x2="227.8819154"
       y2="0.8777"
       id="line526" />
    <line
       x1="227.8819154"
       y1="0.8777"
       x2="228.0419154"
       y2="1.0512"
       id="line528" />
    <line
       x1="228.0419154"
       y1="1.0512"
       x2="228.1879154"
       y2="1.2358"
       id="line530" />
    <line
       x1="228.1879154"
       y1="1.2358"
       x2="228.3189154"
       y2="1.4315"
       id="line532" />
    <line
       x1="228.3189154"
       y1="1.4315"
       x2="228.4349154"
       y2="1.6383"
       id="line534" />
    <line
       x1="228.4349154"
       y1="1.6383"
       x2="228.5329154"
       y2="1.8521"
       id="line536" />
    <line
       x1="228.5329154"
       y1="1.8521"
       x2="228.6139154"
       y2="2.0725"
       id="line538" />
    <line
       x1="228.6139154"
       y1="2.0725"
       x2="228.6789154"
       y2="2.2997"
       id="line540" />
    <line
       x1="228.6789154"
       y1="2.2997"
       x2="228.7239154"
       y2="2.5297"
       id="line542" />
    <line
       x1="228.7239154"
       y1="2.5297"
       x2="228.7519154"
       y2="2.764"
       id="line544" />
    <line
       x1="228.7519154"
       y1="2.764"
       x2="228.7609154"
       y2="2.9996"
       id="line546" />
    <line
       x1="228.7609154"
       y1="2.9996"
       x2="228.7609154"
       y2="92.41105"
       id="line548" />
    <line
       x1="228.7609154"
       y1="92.41105"
       x2="228.7519154"
       y2="92.64669"
       id="line550" />
    <line
       x1="228.7519154"
       y1="92.64669"
       x2="228.7239154"
       y2="92.87958"
       id="line552" />
    <line
       x1="228.7239154"
       y1="92.87958"
       x2="228.6789154"
       y2="93.11109"
       id="line554" />
    <line
       x1="228.6789154"
       y1="93.11109"
       x2="228.6139154"
       y2="93.33847"
       id="line556" />
    <line
       x1="228.6139154"
       y1="93.33847"
       x2="228.5329154"
       y2="93.55895"
       id="line558" />
    <line
       x1="228.5329154"
       y1="93.55895"
       x2="228.4349154"
       y2="93.77255"
       id="line560" />
    <line
       x1="228.4349154"
       y1="93.77255"
       x2="228.3189154"
       y2="93.97788"
       id="line562" />
    <line
       x1="228.3189154"
       y1="93.97788"
       x2="228.1879154"
       y2="94.17356"
       id="line564" />
    <line
       x1="228.1879154"
       y1="94.17356"
       x2="228.0419154"
       y2="94.35959"
       id="line566" />
    <line
       x1="228.0419154"
       y1="94.35959"
       x2="227.8819154"
       y2="94.531847"
       id="line568" />
    <line
       x1="227.8819154"
       y1="94.531847"
       x2="227.7099154"
       y2="94.691701"
       id="line570" />
    <line
       x1="227.7099154"
       y1="94.691701"
       x2="227.5239154"
       y2="94.837773"
       id="line572" />
    <line
       x1="227.5239154"
       y1="94.837773"
       x2="227.3279154"
       y2="94.968688"
       id="line574" />
    <line
       x1="227.3279154"
       y1="94.968688"
       x2="227.1229154"
       y2="95.084442"
       id="line576" />
    <line
       x1="227.1229154"
       y1="95.084442"
       x2="226.9089154"
       y2="95.182283"
       id="line578" />
    <line
       x1="226.9089154"
       y1="95.182283"
       x2="226.6889154"
       y2="95.263587"
       id="line580" />
    <line
       x1="226.6889154"
       y1="95.263587"
       x2="226.4609154"
       y2="95.328355"
       id="line582" />
    <line
       x1="226.4609154"
       y1="95.328355"
       x2="226.2299154"
       y2="95.37383"
       id="line584" />
    <line
       x1="226.2299154"
       y1="95.37383"
       x2="225.9969154"
       y2="95.401391"
       id="line586" />
    <line
       x1="225.9969154"
       y1="95.401391"
       x2="225.7609154"
       y2="95.4110371"
       id="line588" />
    <line
       x1="225.7609154"
       y1="95.4110371"
       x2="2.9999854"
       y2="95.4110371"
       id="line590" />
    <line
       x1="2.9999854"
       y1="95.4110371"
       x2="2.7643454"
       y2="95.401391"
       id="line592" />
    <line
       x1="2.7643454"
       y1="95.401391"
       x2="2.5300754"
       y2="95.37383"
       id="line594" />
    <line
       x1="2.5300754"
       y1="95.37383"
       x2="2.2999454"
       y2="95.328355"
       id="line596" />
    <line
       x1="2.2999454"
       y1="95.328355"
       x2="2.0725654"
       y2="95.263587"
       id="line598" />
    <line
       x1="2.0725654"
       y1="95.263587"
       x2="1.8520854"
       y2="95.182283"
       id="line600" />
    <line
       x1="1.8520854"
       y1="95.182283"
       x2="1.6384854"
       y2="95.084442"
       id="line602" />
    <line
       x1="1.6384854"
       y1="95.084442"
       x2="1.4317854"
       y2="94.968688"
       id="line604" />
    <line
       x1="1.4317854"
       y1="94.968688"
       x2="1.2361054"
       y2="94.837773"
       id="line606" />
    <line
       x1="1.2361054"
       y1="94.837773"
       x2="1.0514454"
       y2="94.691701"
       id="line608" />
    <line
       x1="1.0514454"
       y1="94.691701"
       x2="0.8778094"
       y2="94.531847"
       id="line610" />
    <line
       x1="0.8778094"
       y1="94.531847"
       x2="0.7179584"
       y2="94.35959"
       id="line612" />
    <line
       x1="0.7179584"
       y1="94.35959"
       x2="0.5718874"
       y2="94.17356"
       id="line614" />
    <line
       x1="0.5718874"
       y1="94.17356"
       x2="0.4423514"
       y2="93.97788"
       id="line616" />
    <line
       x1="0.4423514"
       y1="93.97788"
       x2="0.3265944"
       y2="93.77255"
       id="line618" />
    <line
       x1="0.3265944"
       y1="93.77255"
       x2="0.2287544"
       y2="93.55895"
       id="line620" />
    <line
       x1="0.2287544"
       y1="93.55895"
       x2="0.1460724"
       y2="93.33847"
       id="line622" />
    <line
       x1="0.1460724"
       y1="93.33847"
       x2="0.0826824"
       y2="93.11109"
       id="line624" />
    <line
       x1="0.0826824"
       y1="93.11109"
       x2="0.0358294"
       y2="92.87958"
       id="line626" />
    <line
       x1="0.0358294"
       y1="92.87958"
       x2="0.0096464"
       y2="92.64669"
       id="line628" />
    <line
       x1="0.0096464"
       y1="92.64669"
       x2="0"
       y2="92.40967"
       id="line630" />
    <line
       x1="0"
       y1="92.40967"
       x2="0"
       y2="2.9996"
       id="line632" />
    <line
       x1="0"
       y1="2.9996"
       x2="0.0096464"
       y2="2.764"
       id="line634" />
    <line
       x1="0.0096464"
       y1="2.764"
       x2="0.0358294"
       y2="2.5297"
       id="line636" />
    <line
       x1="0.0358294"
       y1="2.5297"
       x2="0.0826824"
       y2="2.2997"
       id="line638" />
    <line
       x1="0.0826824"
       y1="2.2997"
       x2="0.1460724"
       y2="2.0725"
       id="line640" />
    <line
       x1="0.1460724"
       y1="2.0725"
       x2="0.2287544"
       y2="1.8521"
       id="line642" />
    <line
       x1="0.2287544"
       y1="1.8521"
       x2="0.3265944"
       y2="1.6383"
       id="line644" />
    <line
       x1="0.3265944"
       y1="1.6383"
       x2="0.4423514"
       y2="1.4315"
       id="line646" />
    <line
       x1="0.4423514"
       y1="1.4315"
       x2="0.5718874"
       y2="1.2358"
       id="line648" />
    <line
       x1="0.5718874"
       y1="1.2358"
       x2="0.7179584"
       y2="1.0512"
       id="line650" />
    <line
       x1="0.7179584"
       y1="1.0512"
       x2="0.8778094"
       y2="0.8777"
       id="line652" />
    <line
       x1="0.8778094"
       y1="0.8777"
       x2="1.0514454"
       y2="0.7179"
       id="line654" />
    <line
       x1="1.0514454"
       y1="0.7179"
       x2="1.2361054"
       y2="0.5718"
       id="line656" />
    <line
       x1="1.2361054"
       y1="0.5718"
       x2="1.4317854"
       y2="0.442"
       id="line658" />
    <line
       x1="1.4317854"
       y1="0.442"
       x2="1.6384854"
       y2="0.3263"
       id="line660" />
    <line
       x1="1.6384854"
       y1="0.3263"
       x2="1.8520854"
       y2="0.2286"
       id="line662" />
    <line
       x1="1.8520854"
       y1="0.2286"
       x2="2.0725654"
       y2="0.146"
       id="line664" />
    <line
       x1="2.0725654"
       y1="0.146"
       x2="2.2999454"
       y2="0.0825"
       id="line666" />
    <line
       x1="2.2999454"
       y1="0.0825"
       x2="2.5300754"
       y2="0.0356"
       id="line668" />
    <line
       x1="2.5300754"
       y1="0.0356"
       x2="2.7643454"
       y2="0.0095"
       id="line670" />
    <line
       x1="2.7643454"
       y1="0.0095"
       x2="2.9999854"
       y2="0"
       id="line672" />
    <line
       x1="2.9999854"
       y1="0"
       x2="225.7609154"
       y2="0"
       id="line674" />
    <line
       x1="4.3228954"
       y1="88.97698"
       x2="3.8557454"
       y2="89.21539"
       id="line676" />
    <line
       x1="3.8557454"
       y1="89.21539"
       x2="3.4850454"
       y2="89.58605"
       id="line678" />
    <line
       x1="3.4850454"
       y1="89.58605"
       x2="3.2466554"
       y2="90.05324"
       id="line680" />
    <line
       x1="3.2466554"
       y1="90.05324"
       x2="3.1639754"
       y2="90.56999"
       id="line682" />
    <line
       x1="3.1639754"
       y1="90.56999"
       x2="3.2466554"
       y2="91.08815"
       id="line684" />
    <line
       x1="3.2466554"
       y1="91.08815"
       x2="3.4850454"
       y2="91.5553"
       id="line686" />
    <line
       x1="3.4850454"
       y1="91.5553"
       x2="3.8557454"
       y2="91.92599"
       id="line688" />
    <line
       x1="3.8557454"
       y1="91.92599"
       x2="4.3228954"
       y2="92.16438"
       id="line690" />
    <line
       x1="4.3228954"
       y1="92.16438"
       x2="4.8410554"
       y2="92.24568"
       id="line692" />
    <line
       x1="4.8410554"
       y1="92.24568"
       x2="5.3578054"
       y2="92.16438"
       id="line694" />
    <line
       x1="5.3578054"
       y1="92.16438"
       x2="5.8249854"
       y2="91.92599"
       id="line696" />
    <line
       x1="5.8249854"
       y1="91.92599"
       x2="6.1956454"
       y2="91.5553"
       id="line698" />
    <line
       x1="6.1956454"
       y1="91.5553"
       x2="6.4340554"
       y2="91.08815"
       id="line700" />
    <line
       x1="6.4340554"
       y1="91.08815"
       x2="6.5153754"
       y2="90.56999"
       id="line702" />
    <line
       x1="6.5153754"
       y1="90.56999"
       x2="6.4340554"
       y2="90.05324"
       id="line704" />
    <line
       x1="6.4340554"
       y1="90.05324"
       x2="6.1956454"
       y2="89.58605"
       id="line706" />
    <line
       x1="6.1956454"
       y1="89.58605"
       x2="5.8249854"
       y2="89.21539"
       id="line708" />
    <line
       x1="5.8249854"
       y1="89.21539"
       x2="5.3578054"
       y2="88.97698"
       id="line710" />
    <line
       x1="5.3578054"
       y1="88.97698"
       x2="4.8410554"
       y2="88.89567"
       id="line712" />
    <line
       x1="4.8410554"
       y1="88.89567"
       x2="4.3228954"
       y2="88.97698"
       id="line714" />
    <line
       x1="77.3491154"
       y1="88.97698"
       x2="76.8821154"
       y2="89.21539"
       id="line716" />
    <line
       x1="76.8821154"
       y1="89.21539"
       x2="76.5113154"
       y2="89.58605"
       id="line718" />
    <line
       x1="76.5113154"
       y1="89.58605"
       x2="76.2732154"
       y2="90.05324"
       id="line720" />
    <line
       x1="76.2732154"
       y1="90.05324"
       x2="76.1917154"
       y2="90.56999"
       id="line722" />
    <line
       x1="76.1917154"
       y1="90.56999"
       x2="76.2732154"
       y2="91.08815"
       id="line724" />
    <line
       x1="76.2732154"
       y1="91.08815"
       x2="76.5113154"
       y2="91.5553"
       id="line726" />
    <line
       x1="76.5113154"
       y1="91.5553"
       x2="76.8821154"
       y2="91.92599"
       id="line728" />
    <line
       x1="76.8821154"
       y1="91.92599"
       x2="77.3491154"
       y2="92.16438"
       id="line730" />
    <line
       x1="77.3491154"
       y1="92.16438"
       x2="77.8674154"
       y2="92.24568"
       id="line732" />
    <line
       x1="77.8674154"
       y1="92.24568"
       x2="78.3842154"
       y2="92.16438"
       id="line734" />
    <line
       x1="78.3842154"
       y1="92.16438"
       x2="78.8513154"
       y2="91.92599"
       id="line736" />
    <line
       x1="78.8513154"
       y1="91.92599"
       x2="79.2220154"
       y2="91.5553"
       id="line738" />
    <line
       x1="79.2220154"
       y1="91.5553"
       x2="79.4605154"
       y2="91.08815"
       id="line740" />
    <line
       x1="79.4605154"
       y1="91.08815"
       x2="79.5417154"
       y2="90.56999"
       id="line742" />
    <line
       x1="79.5417154"
       y1="90.56999"
       x2="79.4605154"
       y2="90.05324"
       id="line744" />
    <line
       x1="79.4605154"
       y1="90.05324"
       x2="79.2220154"
       y2="89.58605"
       id="line746" />
    <line
       x1="79.2220154"
       y1="89.58605"
       x2="78.8513154"
       y2="89.21539"
       id="line748" />
    <line
       x1="78.8513154"
       y1="89.21539"
       x2="78.3842154"
       y2="88.97698"
       id="line750" />
    <line
       x1="78.3842154"
       y1="88.97698"
       x2="77.8674154"
       y2="88.89567"
       id="line752" />
    <line
       x1="77.8674154"
       y1="88.89567"
       x2="77.3491154"
       y2="88.97698"
       id="line754" />
    <line
       x1="150.3769154"
       y1="88.97698"
       x2="149.9099154"
       y2="89.21539"
       id="line756" />
    <line
       x1="149.9099154"
       y1="89.21539"
       x2="149.5379154"
       y2="89.58605"
       id="line758" />
    <line
       x1="149.5379154"
       y1="89.58605"
       x2="149.3009154"
       y2="90.05324"
       id="line760" />
    <line
       x1="149.3009154"
       y1="90.05324"
       x2="149.2199154"
       y2="90.56999"
       id="line762" />
    <line
       x1="149.2199154"
       y1="90.56999"
       x2="149.3009154"
       y2="91.08815"
       id="line764" />
    <line
       x1="149.3009154"
       y1="91.08815"
       x2="149.5379154"
       y2="91.5553"
       id="line766" />
    <line
       x1="149.5379154"
       y1="91.5553"
       x2="149.9099154"
       y2="91.92599"
       id="line768" />
    <line
       x1="149.9099154"
       y1="91.92599"
       x2="150.3769154"
       y2="92.16438"
       id="line770" />
    <line
       x1="150.3769154"
       y1="92.16438"
       x2="150.8939154"
       y2="92.24568"
       id="line772" />
    <line
       x1="150.8939154"
       y1="92.24568"
       x2="151.4119154"
       y2="92.16438"
       id="line774" />
    <line
       x1="151.4119154"
       y1="92.16438"
       x2="151.8779154"
       y2="91.92599"
       id="line776" />
    <line
       x1="151.8779154"
       y1="91.92599"
       x2="152.2499154"
       y2="91.5553"
       id="line778" />
    <line
       x1="152.2499154"
       y1="91.5553"
       x2="152.4869154"
       y2="91.08815"
       id="line780" />
    <line
       x1="152.4869154"
       y1="91.08815"
       x2="152.5699154"
       y2="90.56999"
       id="line782" />
    <line
       x1="152.5699154"
       y1="90.56999"
       x2="152.4869154"
       y2="90.05324"
       id="line784" />
    <line
       x1="152.4869154"
       y1="90.05324"
       x2="152.2499154"
       y2="89.58605"
       id="line786" />
    <line
       x1="152.2499154"
       y1="89.58605"
       x2="151.8779154"
       y2="89.21539"
       id="line788" />
    <line
       x1="151.8779154"
       y1="89.21539"
       x2="151.4119154"
       y2="88.97698"
       id="line790" />
    <line
       x1="151.4119154"
       y1="88.97698"
       x2="150.8939154"
       y2="88.89567"
       id="line792" />
    <line
       x1="150.8939154"
       y1="88.89567"
       x2="150.3769154"
       y2="88.97698"
       id="line794" />
    <line
       x1="223.4029154"
       y1="88.97698"
       x2="222.9359154"
       y2="89.21539"
       id="line796" />
    <line
       x1="222.9359154"
       y1="89.21539"
       x2="222.5659154"
       y2="89.58605"
       id="line798" />
    <line
       x1="222.5659154"
       y1="89.58605"
       x2="222.3269154"
       y2="90.05324"
       id="line800" />
    <line
       x1="222.3269154"
       y1="90.05324"
       x2="222.2459154"
       y2="90.56999"
       id="line802" />
    <line
       x1="222.2459154"
       y1="90.56999"
       x2="222.3269154"
       y2="91.08815"
       id="line804" />
    <line
       x1="222.3269154"
       y1="91.08815"
       x2="222.5659154"
       y2="91.5553"
       id="line806" />
    <line
       x1="222.5659154"
       y1="91.5553"
       x2="222.9359154"
       y2="91.92599"
       id="line808" />
    <line
       x1="222.9359154"
       y1="91.92599"
       x2="223.4029154"
       y2="92.16438"
       id="line810" />
    <line
       x1="223.4029154"
       y1="92.16438"
       x2="223.9219154"
       y2="92.24568"
       id="line812" />
    <line
       x1="223.9219154"
       y1="92.24568"
       x2="224.4389154"
       y2="92.16438"
       id="line814" />
    <line
       x1="224.4389154"
       y1="92.16438"
       x2="224.9059154"
       y2="91.92599"
       id="line816" />
    <line
       x1="224.9059154"
       y1="91.92599"
       x2="225.2759154"
       y2="91.5553"
       id="line818" />
    <line
       x1="225.2759154"
       y1="91.5553"
       x2="225.5149154"
       y2="91.08815"
       id="line820" />
    <line
       x1="225.5149154"
       y1="91.08815"
       x2="225.5959154"
       y2="90.56999"
       id="line822" />
    <line
       x1="225.5959154"
       y1="90.56999"
       x2="225.5149154"
       y2="90.05324"
       id="line824" />
    <line
       x1="225.5149154"
       y1="90.05324"
       x2="225.2759154"
       y2="89.58605"
       id="line826" />
    <line
       x1="225.2759154"
       y1="89.58605"
       x2="224.9059154"
       y2="89.21539"
       id="line828" />
    <line
       x1="224.9059154"
       y1="89.21539"
       x2="224.4389154"
       y2="88.97698"
       id="line830" />
    <line
       x1="224.4389154"
       y1="88.97698"
       x2="223.9219154"
       y2="88.89567"
       id="line832" />
    <line
       x1="223.9219154"
       y1="88.89567"
       x2="223.4029154"
       y2="88.97698"
       id="line834" />
    <line
       x1="4.3228954"
       y1="3.2466"
       x2="3.8557454"
       y2="3.4847"
       id="line836" />
    <line
       x1="3.8557454"
       y1="3.4847"
       x2="3.4850454"
       y2="3.8555"
       id="line838" />
    <line
       x1="3.4850454"
       y1="3.8555"
       x2="3.2466554"
       y2="4.3226"
       id="line840" />
    <line
       x1="3.2466554"
       y1="4.3226"
       x2="3.1639754"
       y2="4.8408"
       id="line842" />
    <line
       x1="3.1639754"
       y1="4.8408"
       x2="3.2466554"
       y2="5.3576"
       id="line844" />
    <line
       x1="3.2466554"
       y1="5.3576"
       x2="3.4850454"
       y2="5.8247"
       id="line846" />
    <line
       x1="3.4850454"
       y1="5.8247"
       x2="3.8557454"
       y2="6.1955"
       id="line848" />
    <line
       x1="3.8557454"
       y1="6.1955"
       x2="4.3228954"
       y2="6.4339"
       id="line850" />
    <line
       x1="4.3228954"
       y1="6.4339"
       x2="4.8410554"
       y2="6.5151"
       id="line852" />
    <line
       x1="4.8410554"
       y1="6.5151"
       x2="5.3578054"
       y2="6.4339"
       id="line854" />
    <line
       x1="5.3578054"
       y1="6.4339"
       x2="5.8249854"
       y2="6.1955"
       id="line856" />
    <line
       x1="5.8249854"
       y1="6.1955"
       x2="6.1956454"
       y2="5.8247"
       id="line858" />
    <line
       x1="6.1956454"
       y1="5.8247"
       x2="6.4340554"
       y2="5.3576"
       id="line860" />
    <line
       x1="6.4340554"
       y1="5.3576"
       x2="6.5153754"
       y2="4.8408"
       id="line862" />
    <line
       x1="6.5153754"
       y1="4.8408"
       x2="6.4340554"
       y2="4.3226"
       id="line864" />
    <line
       x1="6.4340554"
       y1="4.3226"
       x2="6.1956454"
       y2="3.8555"
       id="line866" />
    <line
       x1="6.1956454"
       y1="3.8555"
       x2="5.8249854"
       y2="3.4847"
       id="line868" />
    <line
       x1="5.8249854"
       y1="3.4847"
       x2="5.3578054"
       y2="3.2466"
       id="line870" />
    <line
       x1="5.3578054"
       y1="3.2466"
       x2="4.8410554"
       y2="3.1637"
       id="line872" />
    <line
       x1="4.8410554"
       y1="3.1637"
       x2="4.3228954"
       y2="3.2466"
       id="line874" />
    <line
       x1="223.4029154"
       y1="3.2466"
       x2="222.9359154"
       y2="3.4847"
       id="line876" />
    <line
       x1="222.9359154"
       y1="3.4847"
       x2="222.5659154"
       y2="3.8555"
       id="line878" />
    <line
       x1="222.5659154"
       y1="3.8555"
       x2="222.3269154"
       y2="4.3226"
       id="line880" />
    <line
       x1="222.3269154"
       y1="4.3226"
       x2="222.2459154"
       y2="4.8408"
       id="line882" />
    <line
       x1="222.2459154"
       y1="4.8408"
       x2="222.3269154"
       y2="5.3576"
       id="line884" />
    <line
       x1="222.3269154"
       y1="5.3576"
       x2="222.5659154"
       y2="5.8247"
       id="line886" />
    <line
       x1="222.5659154"
       y1="5.8247"
       x2="222.9359154"
       y2="6.1955"
       id="line888" />
    <line
       x1="222.9359154"
       y1="6.1955"
       x2="223.4029154"
       y2="6.4339"
       id="line890" />
    <line
       x1="223.4029154"
       y1="6.4339"
       x2="223.9219154"
       y2="6.5151"
       id="line892" />
    <line
       x1="223.9219154"
       y1="6.5151"
       x2="224.4389154"
       y2="6.4339"
       id="line894" />
    <line
       x1="224.4389154"
       y1="6.4339"
       x2="224.9059154"
       y2="6.1955"
       id="line896" />
    <line
       x1="224.9059154"
       y1="6.1955"
       x2="225.2759154"
       y2="5.8247"
       id="line898" />
    <line
       x1="225.2759154"
       y1="5.8247"
       x2="225.5149154"
       y2="5.3576"
       id="line900" />
    <line
       x1="225.5149154"
       y1="5.3576"
       x2="225.5959154"
       y2="4.8408"
       id="line902" />
    <line
       x1="225.5959154"
       y1="4.8408"
       x2="225.5149154"
       y2="4.3226"
       id="line904" />
    <line
       x1="225.5149154"
       y1="4.3226"
       x2="225.2759154"
       y2="3.8555"
       id="line906" />
    <line
       x1="225.2759154"
       y1="3.8555"
       x2="224.9059154"
       y2="3.4847"
       id="line908" />
    <line
       x1="224.9059154"
       y1="3.4847"
       x2="224.4389154"
       y2="3.2466"
       id="line910" />
    <line
       x1="224.4389154"
       y1="3.2466"
       x2="223.9219154"
       y2="3.1637"
       id="line912" />
    <line
       x1="223.9219154"
       y1="3.1637"
       x2="223.4029154"
       y2="3.2466"
       id="line914" />
    <line
       x1="150.3769154"
       y1="3.2466"
       x2="149.9099154"
       y2="3.4847"
       id="line916" />
    <line
       x1="149.9099154"
       y1="3.4847"
       x2="149.5379154"
       y2="3.8555"
       id="line918" />
    <line
       x1="149.5379154"
       y1="3.8555"
       x2="149.3009154"
       y2="4.3226"
       id="line920" />
    <line
       x1="149.3009154"
       y1="4.3226"
       x2="149.2199154"
       y2="4.8408"
       id="line922" />
    <line
       x1="149.2199154"
       y1="4.8408"
       x2="149.3009154"
       y2="5.3576"
       id="line924" />
    <line
       x1="149.3009154"
       y1="5.3576"
       x2="149.5379154"
       y2="5.8247"
       id="line926" />
    <line
       x1="149.5379154"
       y1="5.8247"
       x2="149.9099154"
       y2="6.1955"
       id="line928" />
    <line
       x1="149.9099154"
       y1="6.1955"
       x2="150.3769154"
       y2="6.4339"
       id="line930" />
    <line
       x1="150.3769154"
       y1="6.4339"
       x2="150.8939154"
       y2="6.5151"
       id="line932" />
    <line
       x1="150.8939154"
       y1="6.5151"
       x2="151.4119154"
       y2="6.4339"
       id="line934" />
    <line
       x1="151.4119154"
       y1="6.4339"
       x2="151.8779154"
       y2="6.1955"
       id="line936" />
    <line
       x1="151.8779154"
       y1="6.1955"
       x2="152.2499154"
       y2="5.8247"
       id="line938" />
    <line
       x1="152.2499154"
       y1="5.8247"
       x2="152.4869154"
       y2="5.3576"
       id="line940" />
    <line
       x1="152.4869154"
       y1="5.3576"
       x2="152.5699154"
       y2="4.8408"
       id="line942" />
    <line
       x1="152.5699154"
       y1="4.8408"
       x2="152.4869154"
       y2="4.3226"
       id="line944" />
    <line
       x1="152.4869154"
       y1="4.3226"
       x2="152.2499154"
       y2="3.8555"
       id="line946" />
    <line
       x1="152.2499154"
       y1="3.8555"
       x2="151.8779154"
       y2="3.4847"
       id="line948" />
    <line
       x1="151.8779154"
       y1="3.4847"
       x2="151.4119154"
       y2="3.2466"
       id="line950" />
    <line
       x1="151.4119154"
       y1="3.2466"
       x2="150.8939154"
       y2="3.1637"
       id="line952" />
    <line
       x1="150.8939154"
       y1="3.1637"
       x2="150.3769154"
       y2="3.2466"
       id="line954" />
    <line
       x1="77.3491154"
       y1="3.2466"
       x2="76.8821154"
       y2="3.4847"
       id="line956" />
    <line
       x1="76.8821154"
       y1="3.4847"
       x2="76.5113154"
       y2="3.8555"
       id="line958" />
    <line
       x1="76.5113154"
       y1="3.8555"
       x2="76.2732154"
       y2="4.3226"
       id="line960" />
    <line
       x1="76.2732154"
       y1="4.3226"
       x2="76.1917154"
       y2="4.8408"
       id="line962" />
    <line
       x1="76.1917154"
       y1="4.8408"
       x2="76.2732154"
       y2="5.3576"
       id="line964" />
    <line
       x1="76.2732154"
       y1="5.3576"
       x2="76.5113154"
       y2="5.8247"
       id="line966" />
    <line
       x1="76.5113154"
       y1="5.8247"
       x2="76.8821154"
       y2="6.1955"
       id="line968" />
    <line
       x1="76.8821154"
       y1="6.1955"
       x2="77.3491154"
       y2="6.4339"
       id="line970" />
    <line
       x1="77.3491154"
       y1="6.4339"
       x2="77.8674154"
       y2="6.5151"
       id="line972" />
    <line
       x1="77.8674154"
       y1="6.5151"
       x2="78.3842154"
       y2="6.4339"
       id="line974" />
    <line
       x1="78.3842154"
       y1="6.4339"
       x2="78.8513154"
       y2="6.1955"
       id="line976" />
    <line
       x1="78.8513154"
       y1="6.1955"
       x2="79.2220154"
       y2="5.8247"
       id="line978" />
    <line
       x1="79.2220154"
       y1="5.8247"
       x2="79.4605154"
       y2="5.3576"
       id="line980" />
    <line
       x1="79.4605154"
       y1="5.3576"
       x2="79.5417154"
       y2="4.8408"
       id="line982" />
    <line
       x1="79.5417154"
       y1="4.8408"
       x2="79.4605154"
       y2="4.3226"
       id="line984" />
    <line
       x1="79.4605154"
       y1="4.3226"
       x2="79.2220154"
       y2="3.8555"
       id="line986" />
    <line
       x1="79.2220154"
       y1="3.8555"
       x2="78.8513154"
       y2="3.4847"
       id="line988" />
    <line
       x1="78.8513154"
       y1="3.4847"
       x2="78.3842154"
       y2="3.2466"
       id="line990" />
    <line
       x1="78.3842154"
       y1="3.2466"
       x2="77.8674154"
       y2="3.1637"
       id="line992" />
    <line
       x1="77.8674154"
       y1="3.1637"
       x2="77.3491154"
       y2="3.2466"
       id="line994" />
    <line
       x1="193.86584"
       y1="46.708038"
       x2="193.39885"
       y2="46.94614"
       id="line876-2"
       style="stroke-width:1" />
    <line
       x1="193.39885"
       y1="46.94614"
       x2="193.02885"
       y2="47.31694"
       id="line878-3"
       style="stroke-width:1" />
    <line
       x1="193.02885"
       y1="47.31694"
       x2="192.78986"
       y2="47.784039"
       id="line880-5"
       style="stroke-width:1" />
    <line
       x1="192.78986"
       y1="47.784039"
       x2="192.70885"
       y2="48.302238"
       id="line882-7"
       style="stroke-width:1" />
    <line
       x1="192.70885"
       y1="48.302238"
       x2="192.78986"
       y2="48.819038"
       id="line884-8"
       style="stroke-width:1" />
    <line
       x1="192.78986"
       y1="48.819038"
       x2="193.02885"
       y2="49.286137"
       id="line886-9"
       style="stroke-width:1" />
    <line
       x1="193.02885"
       y1="49.286137"
       x2="193.39885"
       y2="49.656937"
       id="line888-7"
       style="stroke-width:1" />
    <line
       x1="193.39885"
       y1="49.656937"
       x2="193.86584"
       y2="49.89534"
       id="line890-5"
       style="stroke-width:1" />
    <line
       x1="193.86584"
       y1="49.89534"
       x2="194.38486"
       y2="49.97654"
       id="line892-0"
       style="stroke-width:1" />
    <line
       x1="194.38486"
       y1="49.97654"
       x2="194.90186"
       y2="49.89534"
       id="line894-9"
       style="stroke-width:1" />
    <line
       x1="194.90186"
       y1="49.89534"
       x2="195.36885"
       y2="49.656937"
       id="line896-4"
       style="stroke-width:1" />
    <line
       x1="195.36885"
       y1="49.656937"
       x2="195.73885"
       y2="49.286137"
       id="line898-8"
       style="stroke-width:1" />
    <line
       x1="195.73885"
       y1="49.286137"
       x2="195.97784"
       y2="48.819038"
       id="line900-6"
       style="stroke-width:1" />
    <line
       x1="195.97784"
       y1="48.819038"
       x2="196.05885"
       y2="48.302238"
       id="line902-3"
       style="stroke-width:1" />
    <line
       x1="196.05885"
       y1="48.302238"
       x2="195.97784"
       y2="47.784039"
       id="line904-5"
       style="stroke-width:1" />
    <line
       x1="195.97784"
       y1="47.784039"
       x2="195.73885"
       y2="47.31694"
       id="line906-9"
       style="stroke-width:1" />
    <line
       x1="195.73885"
       y1="47.31694"
       x2="195.36885"
       y2="46.94614"
       id="line908-6"
       style="stroke-width:1" />
    <line
       x1="195.36885"
       y1="46.94614"
       x2="194.90186"
       y2="46.708038"
       id="line910-0"
       style="stroke-width:1" />
    <line
       x1="194.90186"
       y1="46.708038"
       x2="194.38486"
       y2="46.625137"
       id="line912-3"
       style="stroke-width:1" />
    <line
       x1="194.38486"
       y1="46.625137"
       x2="193.86584"
       y2="46.708038"
       id="line914-5"
       style="stroke-width:1" />
  </g>
  <g
     id="g2480"
     transform="matrix(0.00254,0,0,0.00254,-3.5622067,-1.3318882)">
    <g
       style="fill:#000000;fill-opacity:1;stroke:#000000;stroke-linecap:round;stroke-linejoin:round;stroke-opacity:1"
       id="g1602" />
    <g
       style="fill:#000000;fill-opacity:0;stroke:#000000;stroke-width:-0.000393701;stroke-linecap:round;stroke-linejoin:round;stroke-opacity:1"
       id="g1604" />
    <g
       style="fill:#000000;fill-opacity:0;stroke:#000000;stroke-width:59.0551;stroke-linecap:round;stroke-linejoin:round;stroke-opacity:1"
       id="g1822">
      <g
         id="g1640" />
      <g
         id="g1642" />
      <g
         id="g1644" />
      <g
         id="g1646" />
      <g
         id="g1648" />
      <g
         id="g1650" />
      <g
         id="g1652" />
      <g
         id="g1654" />
      <g
         id="g1656" />
      <g
         id="g1658" />
      <g
         id="g1660" />
      <g
         id="g1662" />
      <g
         id="g1664" />
      <g
         id="g1666" />
      <g
         id="g1668" />
      <g
         id="g1670" />
      <g
         id="g1672" />
      <g
         id="g1674" />
      <g
         id="g1676" />
      <g
         id="g1678" />
      <g
         id="g1680" />
      <g
         id="g1682" />
      <g
         id="g1684" />
      <g
         id="g1686" />
      <g
         id="g1688" />
      <g
         id="g1690" />
      <g
         id="g1692" />
      <g
         id="g1694" />
      <g
         id="g1696" />
      <g
         id="g1698" />
      <g
         id="g1700" />
      <g
         id="g1702" />
      <g
         id="g1704" />
      <g
         id="g1706" />
      <g
         id="g1708" />
      <g
         id="g1710" />
      <g
         id="g1712" />
      <g
         id="g1714" />
      <g
         id="g1716" />
      <g
         id="g1718" />
      <g
         id="g1720" />
      <g
         id="g1722" />
      <g
         id="g1724" />
      <g
         id="g1726" />
      <g
         id="g1728" />
      <g
         id="g1730" />
      <g
         id="g1732" />
      <g
         id="g1734" />
      <g
         id="g1736" />
      <g
         id="g1738" />
      <g
         id="g1740" />
      <g
         id="g1742" />
      <g
         id="g1744" />
      <g
         id="g1746" />
      <g
         id="g1748" />
      <g
         id="g1750" />
      <g
         id="g1752" />
      <g
         id="g1754" />
      <g
         id="g1756" />
      <g
         id="g1758" />
      <g
         id="g1760" />
      <g
         id="g1762" />
      <g
         id="g1764" />
      <g
         id="g1766" />
      <g
         id="g1768" />
      <g
         id="g1770" />
      <g
         id="g1772" />
      <g
         id="g1774" />
      <g
         id="g1776" />
      <g
         id="g1778" />
      <g
         id="g1780" />
      <g
         id="g1782" />
      <g
         id="g1784" />
      <g
         id="g1786" />
      <g
         id="g1788" />
      <g
         id="g1790" />
      <g
         id="g1792" />
      <g
         id="g1794" />
      <g
         id="g1796" />
      <g
         id="g1798" />
      <g
         id="g1800" />
      <g
         id="g1802" />
      <g
         id="g1804" />
      <g
         id="g1806" />
      <g
         id="g1808" />
      <g
         id="g1810" />
      <g
         id="g1812" />
      <g
         id="g1814" />
      <g
         id="g1816" />
      <g
         id="g1818" />
      <g
         id="g1820" />
    </g>
    <g
       style="fill:#000000;fill-opacity:0;stroke:#000000;stroke-width:59.0551;stroke-linecap:round;stroke-linejoin:round;stroke-opacity:1"
       id="g1844">
      <g
         id="g1842" />
    </g>
    <g
       style="fill:#000000;fill-opacity:0;stroke:#000000;stroke-width:59.0551;stroke-linecap:round;stroke-linejoin:round;stroke-opacity:1"
       id="g1846" />
    <g
       style="fill:#000000;fill-opacity:0;stroke:#000000;stroke-width:19.685;stroke-linecap:round;stroke-linejoin:round;stroke-opacity:1"
       id="g2180">
      <path
         d="m 84375,3281 v 0"
         id="path1992" />
      <path
         d="m 87187,3281 v 0"
         id="path1994" />
      <g
         id="g1996" />
      <g
         id="g1998" />
      <g
         id="g2000" />
      <g
         id="g2002" />
      <g
         id="g2004" />
      <g
         id="g2006" />
      <g
         id="g2008" />
      <g
         id="g2010" />
      <g
         id="g2012" />
      <g
         id="g2014" />
      <g
         id="g2016" />
      <g
         id="g2018" />
      <g
         id="g2020" />
      <g
         id="g2022" />
      <g
         id="g2024" />
      <g
         id="g2026" />
      <g
         id="g2028" />
      <g
         id="g2030" />
      <g
         id="g2032" />
      <g
         id="g2034" />
      <g
         id="g2036" />
      <g
         id="g2038" />
      <g
         id="g2040" />
      <g
         id="g2042" />
      <g
         id="g2044" />
      <g
         id="g2046" />
      <g
         id="g2048" />
      <g
         id="g2050" />
      <g
         id="g2052" />
      <g
         id="g2054" />
      <g
         id="g2056" />
      <g
         id="g2058" />
      <g
         id="g2060" />
      <g
         id="g2062" />
      <g
         id="g2064" />
      <g
         id="g2066" />
      <g
         id="g2068" />
      <g
         id="g2070" />
      <g
         id="g2072" />
      <g
         id="g2074" />
      <g
         id="g2076" />
      <g
         id="g2078" />
      <g
         id="g2080" />
      <g
         id="g2082" />
      <g
         id="g2084" />
      <g
         id="g2086" />
      <g
         id="g2088" />
      <g
         id="g2090" />
      <g
         id="g2092" />
      <g
         id="g2094" />
      <g
         id="g2096" />
      <g
         id="g2098" />
      <g
         id="g2100" />
      <g
         id="g2102" />
      <g
         id="g2104" />
      <g
         id="g2106" />
      <g
         id="g2108" />
      <g
         id="g2110" />
      <g
         id="g2112" />
      <g
         id="g2114" />
      <g
         id="g2116" />
      <g
         id="g2118" />
      <g
         id="g2120" />
      <g
         id="g2122" />
      <g
         id="g2124" />
      <g
         id="g2126" />
      <g
         id="g2128" />
      <g
         id="g2130" />
      <g
         id="g2132" />
      <g
         id="g2134" />
      <g
         id="g2136" />
      <g
         id="g2138" />
      <g
         id="g2140" />
      <g
         id="g2142" />
      <g
         id="g2144" />
      <g
         id="g2146" />
      <g
         id="g2148" />
      <g
         id="g2150" />
      <g
         id="g2152" />
      <g
         id="g2154" />
      <g
         id="g2156" />
      <g
         id="g2158" />
      <g
         id="g2160" />
      <g
         id="g2162" />
      <g
         id="g2164" />
      <g
         id="g2166" />
      <g
         id="g2168" />
      <g
         id="g2170" />
      <g
         id="g2172" />
      <g
         id="g2174" />
      <g
         id="g2176" />
      <g
         id="g2178" />
    </g>
  </g>
</svg>
