M48
; DRILL file {KiCad (5.1.4)-1} date 3/27/2021 10:35:18 AM
; FORMAT={-:-/ absolute / inch / decimal}
; #@! TF.CreationDate,2021-03-27T10:35:18-07:00
; #@! TF.GenerationSoftware,Kicad,Pcbnew,(5.1.4)-1
; #@! TF.FileFunction,NonPlated,1,2,NPTH
FMAT,2
INCH
T1C0.0689
T2C0.1200
T3C0.1570
%
G90
G05
T1
X8.05Y-1.0313
X2.6125Y-2.5313
X3.0125Y-2.5313
X1.3938Y-3.2813
X1.7938Y-3.2813
X4.3Y-1.0313
X4.7Y-1.0313
X8.7063Y-2.5313
X9.1063Y-2.5313
X7.4875Y-1.7813
X7.0188Y-3.2813
X7.4188Y-3.2813
X7.7688Y-3.2813
X8.1688Y-3.2813
X3.3625Y-2.5313
X3.7625Y-2.5313
X4.1125Y-3.2813
X4.5125Y-3.2813
X1.5813Y-2.5313
X1.9813Y-2.5313
X1.3938Y-1.7813
X1.7938Y-1.7813
X4.4875Y-1.7813
X4.8875Y-1.7813
X3.925Y-3.2813
X4.325Y-3.2813
X5.8Y-1.0313
X6.2Y-1.0313
X8.7063Y-3.2813
X9.1063Y-3.2813
X2.2375Y-3.2813
X2.6375Y-3.2813
X5.9875Y-1.7813
X6.3875Y-1.7813
X4.9563Y-3.2813
X5.3563Y-3.2813
X7.1125Y-2.5313
X7.5125Y-2.5313
X3.55Y-1.0313
X3.95Y-1.0313
X5.6125Y-2.5313
X6.0125Y-2.5313
X6.175Y-3.2813
X6.575Y-3.2813
X4.1125Y-2.5313
X4.5125Y-2.5313
X1.3Y-1.0313
X1.7Y-1.0313
X7.8625Y-2.5313
X8.2625Y-2.5313
X3.7375Y-1.7813
X4.1375Y-1.7813
X8.9188Y-1.7813
X2.2375Y-1.7813
X2.6375Y-1.7813
X7.3Y-1.0313
X7.7Y-1.0313
X2.8Y-1.0313
X3.2Y-1.0313
X5.05Y-3.2813
X5.45Y-3.2813
X6.55Y-1.0313
X6.95Y-1.0313
X2.3313Y-3.2813
X2.7313Y-3.2813
X7.8625Y-3.2813
X8.2625Y-3.2813
X5.05Y-1.0313
X5.45Y-1.0313
X5.8Y-3.2813
X6.2Y-3.2813
X6.3625Y-2.5313
X6.7625Y-2.5313
X8.8Y-1.0313
X9.2Y-1.0313
X4.2063Y-3.2813
X4.6063Y-3.2813
X4.8625Y-2.5313
X5.2625Y-2.5313
X5.7063Y-3.2813
X6.1063Y-3.2813
X2.05Y-1.0313
X2.45Y-1.0313
X2.9875Y-1.7813
X3.3875Y-1.7813
X2.9875Y-3.2813
X3.3875Y-3.2813
X5.2375Y-1.7813
X5.6375Y-1.7813
X6.7375Y-1.7813
X7.1375Y-1.7813
T2
X3.375Y-3.5563
X4.875Y-3.5563
X3.1878Y-3.5563
X7.1248Y-3.5563
X5.625Y-3.5563
X7.125Y-3.5563
X3.375Y-3.5563
X7.125Y-3.5563
X5.5313Y-3.5563
X6.4688Y-3.5563
X3.9375Y-3.5563
X4.875Y-3.5563
X5.4375Y-3.5563
X6.375Y-3.5563
X3.8438Y-3.5563
X4.7813Y-3.5563
T3
X1.5938Y-3.2813
X4.5Y-1.0313
X8.9063Y-2.5313
X7.6875Y-1.7813
X7.2188Y-3.2813
X7.9688Y-3.2813
X3.5625Y-2.5313
X3.8438Y-2.9563
X4.3125Y-3.2813
X4.7813Y-2.9563
X1.7813Y-2.5313
X1.5938Y-1.7813
X4.6875Y-1.7813
X3.375Y-2.9563
X4.125Y-3.2813
X4.875Y-2.9563
X6.0Y-1.0313
X8.9063Y-3.2813
X2.4375Y-3.2813
X6.1875Y-1.7813
X3.1878Y-2.9563
X5.1563Y-3.2813
X7.1248Y-2.9563
X7.3125Y-2.5313
X3.75Y-1.0313
X5.8125Y-2.5313
X5.625Y-2.9563
X6.375Y-3.2813
X7.125Y-2.9563
X4.3125Y-2.5313
X1.5Y-1.0313
X8.0625Y-2.5313
X3.9375Y-1.7813
X8.7188Y-1.7813
X2.4375Y-1.7813
X7.5Y-1.0313
X3.0Y-1.0313
X3.375Y-2.9563
X5.25Y-3.2813
X7.125Y-2.9563
X6.75Y-1.0313
X2.5313Y-3.2813
X8.0625Y-3.2813
X5.25Y-1.0313
X5.5313Y-2.9563
X6.0Y-3.2813
X6.4688Y-2.9563
X6.5625Y-2.5313
X9.0Y-1.0313
X3.9375Y-2.9563
X4.4063Y-3.2813
X4.875Y-2.9563
X5.0625Y-2.5313
X5.4375Y-2.9563
X5.9063Y-3.2813
X6.375Y-2.9563
X2.25Y-1.0313
X3.1875Y-1.7813
X3.1875Y-3.2813
X5.4375Y-1.7813
X6.9375Y-1.7813
X8.25Y-1.0313
X2.8125Y-2.5313
T0
M30
