M48
; DRILL file {KiCad (5.1.4)-1} date 2/20/2021 10:46:51 PM
; FORMAT={-:-/ absolute / inch / decimal}
; #@! TF.CreationDate,2021-02-20T22:46:51-08:00
; #@! TF.GenerationSoftware,Kicad,Pcbnew,(5.1.4)-1
; #@! TF.FileFunction,Plated,1,2,PTH
FMAT,2
INCH
T1C0.0157
T2C0.0394
T3C0.0430
T4C0.0579
T5C0.1024
%
G90
G05
T1
X6.0375Y-2.0563
X6.7875Y-2.0563
X7.3919Y-2.01
X8.3304Y-1.6759
X8.5512Y-2.6379
X9.2813Y-2.0054
T2
X8.7188Y-0.8308
X8.7188Y-1.1379
X4.125Y-0.8308
X4.125Y-1.1379
X3.375Y-0.8308
X3.375Y-1.1379
X3.5625Y-1.5808
X3.5625Y-1.8879
X2.625Y-0.8308
X2.625Y-1.1379
X3.1875Y-2.3308
X3.1875Y-2.6379
X5.0625Y-1.5808
X5.0625Y-1.8879
X9.2344Y-2.3308
X9.2344Y-2.6379
X2.3906Y-2.3308
X2.3906Y-2.6379
X3.6563Y-3.0808
X3.6563Y-3.3879
X6.1875Y-2.3308
X6.1875Y-2.6379
X6.5625Y-1.5808
X6.5625Y-1.8879
X7.5469Y-3.0808
X7.5469Y-3.3879
X9.0469Y-1.5808
X9.0469Y-1.8879
X4.875Y-0.8308
X4.875Y-1.1379
X6.375Y-0.8308
X6.375Y-1.1379
X1.8281Y-0.8308
X1.8281Y-1.1379
X4.3125Y-1.5808
X4.3125Y-1.8879
X7.125Y-0.8308
X7.125Y-1.1379
X3.9375Y-2.3308
X3.9375Y-2.6379
X5.8125Y-1.5808
X5.8125Y-1.8879
X2.0156Y-3.0808
X2.0156Y-3.3879
X8.3907Y-3.0808
X8.3907Y-3.3879
X2.8594Y-3.0808
X2.8594Y-3.3879
X1.9219Y-0.8308
X1.9219Y-1.1379
X7.6875Y-2.3308
X7.6875Y-2.6379
X7.3125Y-1.5808
X7.3125Y-1.8879
X2.4844Y-2.3308
X2.4844Y-2.6379
X6.9375Y-2.3308
X6.9375Y-2.6379
X2.1094Y-1.5808
X2.1094Y-1.8879
X1.4005Y-0.753
X1.4005Y-1.3239
X1.4989Y-1.3239
X1.5974Y-0.753
X1.5974Y-1.3239
X5.625Y-0.8308
X5.625Y-1.1379
X6.75Y-3.0808
X6.75Y-3.3879
X2.8125Y-1.5808
X2.8125Y-1.8879
X2.0156Y-1.5808
X2.0156Y-1.8879
X5.4375Y-2.3308
X5.4375Y-2.6379
X2.1094Y-3.0808
X2.1094Y-3.3879
X4.6875Y-2.3308
X4.6875Y-2.6379
X8.4844Y-3.0808
X8.4844Y-3.3879
X8.625Y-0.8308
X8.625Y-1.1379
T3
X7.8777Y-0.8286
X7.8777Y-0.9286
X7.8777Y-1.0286
X7.8777Y-1.1286
X7.8777Y-1.2286
X7.8777Y-1.3286
X7.8777Y-1.4286
X7.8777Y-1.5286
X7.8777Y-1.6286
X7.8777Y-1.7286
X7.8777Y-1.8286
X7.8777Y-1.9286
X8.4777Y-0.8286
X8.4777Y-0.9286
X8.4777Y-1.0286
X8.4777Y-1.1286
X8.4777Y-1.2286
X8.4777Y-1.3286
X8.4777Y-1.4286
X8.4777Y-1.5286
X8.4777Y-1.6286
X8.4777Y-1.7286
X8.4777Y-1.8286
X8.4777Y-1.9286
T4
X7.0688Y-3.1813
X7.3188Y-3.0813
X7.8188Y-3.1813
X8.0688Y-3.0813
X6.4125Y-2.4313
X6.6625Y-2.3313
X7.5375Y-1.6813
X7.7875Y-1.5813
X5.7563Y-3.1813
X6.0063Y-3.0813
X7.9125Y-2.4313
X8.1625Y-2.3313
X5.6625Y-2.4313
X5.9125Y-2.3313
X8.5688Y-1.6813
X8.8188Y-1.5813
X2.1Y-0.9313
X2.35Y-0.8313
X2.2875Y-3.1813
X2.5375Y-3.0813
X5.1Y-0.9313
X5.35Y-0.8313
X3.0375Y-1.6813
X3.2875Y-1.5813
X5.85Y-0.9313
X6.1Y-0.8313
X1.4438Y-3.1813
X1.6938Y-3.0813
X7.35Y-0.9313
X7.6Y-0.8313
X6.0375Y-1.6813
X6.2875Y-1.5813
X2.2875Y-1.6813
X2.5375Y-1.5813
X7.9125Y-3.1813
X8.1625Y-3.0813
X5.85Y-3.1813
X6.1Y-3.0813
X6.7875Y-1.6813
X7.0375Y-1.5813
X3.0375Y-3.1813
X3.2875Y-3.0813
X8.85Y-0.9313
X9.1Y-0.8313
X3.6Y-0.9313
X3.85Y-0.8313
X3.7875Y-1.6813
X4.0375Y-1.5813
X3.975Y-3.1813
X4.225Y-3.0813
X2.3813Y-3.1813
X2.6313Y-3.0813
X1.35Y-0.9313
X1.6Y-0.8313
X6.6Y-0.9313
X6.85Y-0.8313
X1.6313Y-2.4313
X1.8813Y-2.3313
X6.225Y-3.1813
X6.475Y-3.0813
X4.1625Y-3.1813
X4.4125Y-3.0813
X8.1Y-0.9313
X8.35Y-0.8313
X8.7563Y-3.1813
X9.0063Y-3.0813
X8.7563Y-2.4313
X9.0063Y-2.3313
X5.1Y-3.1813
X5.35Y-3.0813
X4.5375Y-1.6813
X4.7875Y-1.5813
X7.1625Y-2.4313
X7.4125Y-2.3313
X2.6625Y-2.4313
X2.9125Y-2.3313
X5.2875Y-1.6813
X5.5375Y-1.5813
X4.9125Y-2.4313
X5.1625Y-2.3313
X4.35Y-0.9313
X4.6Y-0.8313
X3.4125Y-2.4313
X3.6625Y-2.3313
X2.85Y-0.9313
X3.1Y-0.8313
X5.0063Y-3.1813
X5.2563Y-3.0813
X4.1625Y-2.4313
X4.4125Y-2.3313
X1.4438Y-1.6813
X1.6938Y-1.5813
X4.2563Y-3.1813
X4.5063Y-3.0813
T5
X1.2785Y-1.0286
X1.7194Y-1.0286
T0
M30
