<?xml version="1.0" encoding="UTF-8" standalone="no"?>
<svg
   xmlns:lc="http://www.librecad.org"
   xmlns:dc="http://purl.org/dc/elements/1.1/"
   xmlns:cc="http://creativecommons.org/ns#"
   xmlns:rdf="http://www.w3.org/1999/02/22-rdf-syntax-ns#"
   xmlns:svg="http://www.w3.org/2000/svg"
   xmlns="http://www.w3.org/2000/svg"
   xmlns:sodipodi="http://sodipodi.sourceforge.net/DTD/sodipodi-0.dtd"
   xmlns:inkscape="http://www.inkscape.org/namespaces/inkscape"
   width="648.45639mm"
   height="270.456588mm"
   viewBox="0 0 648.45639 270.456588"
   version="1.1"
   id="svg2062"
   sodipodi:docname="Eleven SAS PM Cover1.svg"
   inkscape:version="1.0.2-2 (e86c870879, 2021-01-15)">
  <metadata
     id="metadata2068">
    <rdf:RDF>
      <cc:Work
         rdf:about="">
        <dc:format>image/svg+xml</dc:format>
        <dc:type
           rdf:resource="http://purl.org/dc/dcmitype/StillImage" />
        <dc:title></dc:title>
      </cc:Work>
    </rdf:RDF>
  </metadata>
  <defs
     id="defs2066" />
  <sodipodi:namedview
     pagecolor="#ffffff"
     bordercolor="#666666"
     borderopacity="1"
     objecttolerance="10"
     gridtolerance="10"
     guidetolerance="10"
     inkscape:pageopacity="0"
     inkscape:pageshadow="2"
     inkscape:window-width="1920"
     inkscape:window-height="1017"
     id="namedview2064"
     showgrid="false"
     inkscape:zoom="0.43576564"
     inkscape:cx="3993.2318"
     inkscape:cy="216.4077"
     inkscape:window-x="-8"
     inkscape:window-y="-8"
     inkscape:window-maximized="1"
     inkscape:current-layer="svg2062" />
  <g
     lc:layername="0"
     lc:is_locked="false"
     lc:is_construction="false"
     fill="none"
     stroke="#000000"
     stroke-width="1"
     id="g2060"
     transform="translate(675.77055,-8.5866652)">
    <path
       d="M 12.253881,9.202964 10.929676,9.877893 Z"
       id="path1364" />
    <path
       d="M 10.929676,9.877893 9.878873,10.92898 Z"
       id="path1366" />
    <path
       d="M 9.878873,10.92898 9.203121,12.253044 Z"
       id="path1368" />
    <path
       d="M 9.203121,12.253044 8.968753,13.721958 Z"
       id="path1370" />
    <path
       d="m 8.968753,13.721958 0.234368,1.464945 z"
       id="path1372" />
    <path
       d="m 9.203121,15.186903 0.675752,1.324064 z"
       id="path1374" />
    <path
       d="m 9.878873,16.510967 1.050803,1.051087 z"
       id="path1376" />
    <path
       d="m 10.929676,17.562054 1.324205,0.67578 z"
       id="path1378" />
    <path
       d="m 12.253881,18.237834 1.468801,0.230173 z"
       id="path1380" />
    <path
       d="m 13.722682,18.468007 1.464804,-0.230173 z"
       id="path1382" />
    <path
       d="m 15.187486,18.237834 1.32429,-0.67578 z"
       id="path1384" />
    <path
       d="m 16.511776,17.562054 1.05069,-1.051087 z"
       id="path1386" />
    <path
       d="m 17.562466,16.510967 0.675808,-1.324064 z"
       id="path1388" />
    <path
       d="m 18.238274,15.186903 0.230514,-1.464945 z"
       id="path1390" />
    <path
       d="M 18.468788,13.721958 18.238274,12.253044 Z"
       id="path1392" />
    <path
       d="M 18.238274,12.253044 17.562466,10.92898 Z"
       id="path1394" />
    <path
       d="M 17.562466,10.92898 16.511776,9.877893 Z"
       id="path1396" />
    <path
       d="M 16.511776,9.877893 15.187486,9.202964 Z"
       id="path1398" />
    <path
       d="M 15.187486,9.202964 13.722682,8.967972 Z"
       id="path1400" />
    <path
       d="M 13.722682,8.967972 12.253881,9.202964 Z"
       id="path1402" />
    <path
       d="m 633.26835,9.202964 -1.32378,0.674929 z"
       id="path1404" />
    <path
       d="m 631.94457,9.877893 -1.04882,1.051087 z"
       id="path1406" />
    <path
       d="m 630.89575,10.92898 -0.67748,1.324064 z"
       id="path1408" />
    <path
       d="m 630.21827,12.253044 -0.2296,1.468914 z"
       id="path1410" />
    <path
       d="m 629.98867,13.721958 0.2296,1.464945 z"
       id="path1412" />
    <path
       d="m 630.21827,15.186903 0.67748,1.324064 z"
       id="path1414" />
    <path
       d="m 630.89575,16.510967 1.04882,1.051087 z"
       id="path1416" />
    <path
       d="m 631.94457,17.562054 1.32378,0.67578 z"
       id="path1418" />
    <path
       d="m 633.26835,18.237834 1.47119,0.230173 z"
       id="path1420" />
    <path
       d="m 634.73954,18.468007 1.46551,-0.230173 z"
       id="path1422" />
    <path
       d="m 636.20505,18.237834 1.32378,-0.67578 z"
       id="path1424" />
    <path
       d="m 637.52883,17.562054 1.04882,-1.051087 z"
       id="path1426" />
    <path
       d="m 638.57765,16.510967 0.67748,-1.324064 z"
       id="path1428" />
    <path
       d="m 639.25513,15.186903 0.2296,-1.464945 z"
       id="path1430" />
    <path
       d="m 639.48473,13.721958 -0.2296,-1.468914 z"
       id="path1432" />
    <path
       d="M 639.25513,12.253044 638.57765,10.92898 Z"
       id="path1434" />
    <path
       d="M 638.57765,10.92898 637.52883,9.877893 Z"
       id="path1436" />
    <path
       d="M 637.52883,9.877893 636.20505,9.202964 Z"
       id="path1438" />
    <path
       d="M 636.20505,9.202964 634.73954,8.967972 Z"
       id="path1440" />
    <path
       d="m 634.73954,8.967972 -1.47119,0.234992 z"
       id="path1442" />
    <path
       d="m 426.26544,9.202964 -1.32378,0.674929 z"
       id="path1444" />
    <path
       d="m 424.94166,9.877893 -1.05449,1.051087 z"
       id="path1446" />
    <path
       d="m 423.88717,10.92898 -0.67181,1.324064 z"
       id="path1448" />
    <path
       d="m 423.21536,12.253044 -0.22961,1.468914 z"
       id="path1450" />
    <path
       d="m 422.98575,13.721958 0.22961,1.464945 z"
       id="path1452" />
    <path
       d="m 423.21536,15.186903 0.67181,1.324064 z"
       id="path1454" />
    <path
       d="m 423.88717,16.510967 1.05449,1.051087 z"
       id="path1456" />
    <path
       d="m 424.94166,17.562054 1.32378,0.67578 z"
       id="path1458" />
    <path
       d="m 426.26544,18.237834 1.46551,0.230173 z"
       id="path1460" />
    <path
       d="m 427.73095,18.468007 1.46835,-0.230173 z"
       id="path1462" />
    <path
       d="m 429.1993,18.237834 1.32094,-0.67578 z"
       id="path1464" />
    <path
       d="m 430.52024,17.562054 1.05449,-1.051087 z"
       id="path1466" />
    <path
       d="m 431.57473,16.510967 0.67181,-1.324064 z"
       id="path1468" />
    <path
       d="m 432.24654,15.186903 0.23528,-1.464945 z"
       id="path1470" />
    <path
       d="m 432.48182,13.721958 -0.23528,-1.468914 z"
       id="path1472" />
    <path
       d="M 432.24654,12.253044 431.57473,10.92898 Z"
       id="path1474" />
    <path
       d="M 431.57473,10.92898 430.52024,9.877893 Z"
       id="path1476" />
    <path
       d="M 430.52024,9.877893 429.1993,9.202964 Z"
       id="path1478" />
    <path
       d="M 429.1993,9.202964 427.73095,8.967972 Z"
       id="path1480" />
    <path
       d="m 427.73095,8.967972 -1.46551,0.234992 z"
       id="path1482" />
    <path
       d="m 219.25742,9.202964 -1.32378,0.674929 z"
       id="path1484" />
    <path
       d="m 217.93364,9.877893 -1.05109,1.051087 z"
       id="path1486" />
    <path
       d="m 216.88255,10.92898 -0.67493,1.324064 z"
       id="path1488" />
    <path
       d="m 216.20762,12.253044 -0.23102,1.468914 z"
       id="path1490" />
    <path
       d="m 215.9766,13.721958 0.23102,1.464945 z"
       id="path1492" />
    <path
       d="m 216.20762,15.186903 0.67493,1.324064 z"
       id="path1494" />
    <path
       d="m 216.88255,16.510967 1.05109,1.051087 z"
       id="path1496" />
    <path
       d="m 217.93364,17.562054 1.32378,0.67578 z"
       id="path1498" />
    <path
       d="m 219.25742,18.237834 1.4692,0.230173 z"
       id="path1500" />
    <path
       d="m 220.72662,18.468007 1.46494,-0.230173 z"
       id="path1502" />
    <path
       d="m 222.19156,18.237834 1.32407,-0.67578 z"
       id="path1504" />
    <path
       d="m 223.51563,17.562054 1.0508,-1.051087 z"
       id="path1506" />
    <path
       d="m 224.56643,16.510967 0.67606,-1.324064 z"
       id="path1508" />
    <path
       d="m 225.24249,15.186903 0.23018,-1.464945 z"
       id="path1510" />
    <path
       d="m 225.47267,13.721958 -0.23018,-1.468914 z"
       id="path1512" />
    <path
       d="M 225.24249,12.253044 224.56643,10.92898 Z"
       id="path1514" />
    <path
       d="m 224.56643,10.92898 -1.0508,-1.051087 z"
       id="path1516" />
    <path
       d="M 223.51563,9.877893 222.19156,9.202964 Z"
       id="path1518" />
    <path
       d="M 222.19156,9.202964 220.72662,8.967972 Z"
       id="path1520" />
    <path
       d="m 220.72662,8.967972 -1.4692,0.234992 z"
       id="path1522" />
    <path
       d="M 12.253882,9.202964 10.929676,9.877893 Z"
       id="path1892" />
    <path
       d="M 10.929676,9.877893 9.878873,10.92898 Z"
       id="path1894" />
    <path
       d="M 9.878873,10.92898 9.203122,12.253044 Z"
       id="path1896" />
    <path
       d="M 9.203122,12.253044 8.968753,13.721957 Z"
       id="path1898" />
    <path
       d="m 8.968753,13.721957 0.234369,1.464947 z"
       id="path1900" />
    <path
       d="m 9.203122,15.186904 0.675751,1.324062 z"
       id="path1902" />
    <path
       d="m 9.878873,16.510966 1.050803,1.051088 z"
       id="path1904" />
    <path
       d="m 10.929676,17.562054 1.324206,0.675779 z"
       id="path1906" />
    <path
       d="m 12.253882,18.237833 1.4688,0.230174 z"
       id="path1908" />
    <path
       d="m 13.722682,18.468007 1.464803,-0.230174 z"
       id="path1910" />
    <path
       d="m 15.187485,18.237833 1.324291,-0.675779 z"
       id="path1912" />
    <path
       d="m 16.511776,17.562054 1.05069,-1.051088 z"
       id="path1914" />
    <path
       d="m 17.562466,16.510966 0.675808,-1.324062 z"
       id="path1916" />
    <path
       d="m 18.238274,15.186904 0.230514,-1.464947 z"
       id="path1918" />
    <path
       d="M 18.468788,13.721957 18.238274,12.253044 Z"
       id="path1920" />
    <path
       d="M 18.238274,12.253044 17.562466,10.92898 Z"
       id="path1922" />
    <path
       d="M 17.562466,10.92898 16.511776,9.877893 Z"
       id="path1924" />
    <path
       d="M 16.511776,9.877893 15.187485,9.202964 Z"
       id="path1926" />
    <path
       d="M 15.187485,9.202964 13.722682,8.967972 Z"
       id="path1928" />
    <path
       d="m 13.722682,8.967972 -1.4688,0.234992 z"
       id="path1930" />
    <path
       d="m 633.26834,9.202964 -1.32378,0.674929 z"
       id="path1932" />
    <path
       d="m 631.94456,9.877893 -1.04879,1.051087 z"
       id="path1934" />
    <path
       d="m 630.89577,10.92898 -0.67748,1.324064 z"
       id="path1936" />
    <path
       d="m 630.21829,12.253044 -0.22964,1.468913 z"
       id="path1938" />
    <path
       d="m 629.98865,13.721957 0.22964,1.464947 z"
       id="path1940" />
    <path
       d="m 630.21829,15.186904 0.67748,1.324062 z"
       id="path1942" />
    <path
       d="m 630.89577,16.510966 1.04879,1.051088 z"
       id="path1944" />
    <path
       d="m 631.94456,17.562054 1.32378,0.675779 z"
       id="path1946" />
    <path
       d="m 633.26834,18.237833 1.47121,0.230174 z"
       id="path1948" />
    <path
       d="m 634.73955,18.468007 1.46551,-0.230174 z"
       id="path1950" />
    <path
       d="m 636.20506,18.237833 1.32375,-0.675779 z"
       id="path1952" />
    <path
       d="m 637.52881,17.562054 1.04882,-1.051088 z"
       id="path1954" />
    <path
       d="m 638.57763,16.510966 0.67748,-1.324062 z"
       id="path1956" />
    <path
       d="m 639.25511,15.186904 0.22964,-1.464947 z"
       id="path1958" />
    <path
       d="m 639.48475,13.721957 -0.22964,-1.468913 z"
       id="path1960" />
    <path
       d="M 639.25511,12.253044 638.57763,10.92898 Z"
       id="path1962" />
    <path
       d="M 638.57763,10.92898 637.52881,9.877893 Z"
       id="path1964" />
    <path
       d="M 637.52881,9.877893 636.20506,9.202964 Z"
       id="path1966" />
    <path
       d="M 636.20506,9.202964 634.73955,8.967972 Z"
       id="path1968" />
    <path
       d="m 634.73955,8.967972 -1.47121,0.234992 z"
       id="path1970" />
    <path
       d="m 426.26545,9.202964 -1.32381,0.674929 z"
       id="path1972" />
    <path
       d="m 424.94164,9.877893 -1.05446,1.051087 z"
       id="path1974" />
    <path
       d="m 423.88718,10.92898 -0.67181,1.324064 z"
       id="path1976" />
    <path
       d="m 423.21537,12.253044 -0.22963,1.468913 z"
       id="path1978" />
    <path
       d="m 422.98574,13.721957 0.22963,1.464947 z"
       id="path1980" />
    <path
       d="m 423.21537,15.186904 0.67181,1.324062 z"
       id="path1982" />
    <path
       d="m 423.88718,16.510966 1.05446,1.051088 z"
       id="path1984" />
    <path
       d="m 424.94164,17.562054 1.32381,0.675779 z"
       id="path1986" />
    <path
       d="m 426.26545,18.237833 1.46551,0.230174 z"
       id="path1988" />
    <path
       d="m 427.73096,18.468007 1.46832,-0.230174 z"
       id="path1990" />
    <path
       d="m 429.19928,18.237833 1.32095,-0.675779 z"
       id="path1992" />
    <path
       d="m 430.52023,17.562054 1.05449,-1.051088 z"
       id="path1994" />
    <path
       d="m 431.57472,16.510966 0.67181,-1.324062 z"
       id="path1996" />
    <path
       d="m 432.24653,15.186904 0.2353,-1.464947 z"
       id="path1998" />
    <path
       d="m 432.48183,13.721957 -0.2353,-1.468913 z"
       id="path2000" />
    <path
       d="M 432.24653,12.253044 431.57472,10.92898 Z"
       id="path2002" />
    <path
       d="M 431.57472,10.92898 430.52023,9.877893 Z"
       id="path2004" />
    <path
       d="M 430.52023,9.877893 429.19928,9.202964 Z"
       id="path2006" />
    <path
       d="M 429.19928,9.202964 427.73096,8.967972 Z"
       id="path2008" />
    <path
       d="m 427.73096,8.967972 -1.46551,0.234992 z"
       id="path2010" />
    <path
       d="m 219.25741,9.202964 -1.32376,0.674929 z"
       id="path2012" />
    <path
       d="m 217.93365,9.877893 -1.0511,1.051087 z"
       id="path2014" />
    <path
       d="m 216.88255,10.92898 -0.67493,1.324064 z"
       id="path2016" />
    <path
       d="m 216.20762,12.253044 -0.23101,1.468913 z"
       id="path2018" />
    <path
       d="m 215.97661,13.721957 0.23101,1.464947 z"
       id="path2020" />
    <path
       d="m 216.20762,15.186904 0.67493,1.324062 z"
       id="path2022" />
    <path
       d="m 216.88255,16.510966 1.0511,1.051088 z"
       id="path2024" />
    <path
       d="m 217.93365,17.562054 1.32376,0.675779 z"
       id="path2026" />
    <path
       d="m 219.25741,18.237833 1.46921,0.230174 z"
       id="path2028" />
    <path
       d="m 220.72662,18.468007 1.46494,-0.230174 z"
       id="path2030" />
    <path
       d="m 222.19156,18.237833 1.32407,-0.675779 z"
       id="path2032" />
    <path
       d="m 223.51563,17.562054 1.0508,-1.051088 z"
       id="path2034" />
    <path
       d="m 224.56643,16.510966 0.67607,-1.324062 z"
       id="path2036" />
    <path
       d="m 225.2425,15.186904 0.23017,-1.464947 z"
       id="path2038" />
    <path
       d="M 225.47267,13.721957 225.2425,12.253044 Z"
       id="path2040" />
    <path
       d="M 225.2425,12.253044 224.56643,10.92898 Z"
       id="path2042" />
    <path
       d="m 224.56643,10.92898 -1.0508,-1.051087 z"
       id="path2044" />
    <path
       d="M 223.51563,9.877893 222.19156,9.202964 Z"
       id="path2046" />
    <path
       d="M 222.19156,9.202964 220.72662,8.967972 Z"
       id="path2048" />
    <path
       d="m 220.72662,8.967972 -1.46921,0.234992 z"
       id="path2050" />
  </g>
  <path
     style="fill:none;stroke:#000000;stroke-width:0.264583px;stroke-linecap:butt;stroke-linejoin:miter;stroke-opacity:1"
     d="M 675.77055,16.686741 H 1177.4059 V 118.9188 h 65.3086 V 16.762637 h 81.5219"
     id="path2070" />
  <path
     style="fill:none;stroke:#000000;stroke-width:0.264583px;stroke-linecap:butt;stroke-linejoin:miter;stroke-opacity:1"
     d="M 1324.2364,16.762637 V -0.61757315 m 0,0 c -0.6798,-4.91694935 -3.3417,-7.58385385 -7.9928,-7.99280435 m 0,0 H 683.59917 m 0,0 c -3.78714,0.7260229 -6.83533,2.6478165 -7.8539,7.85389655 m 0,0 0.0253,17.44322195"
     id="path2072"
     sodipodi:nodetypes="cccccccccc" />
</svg>
