<?xml version="1.0" standalone="no"?>
 <!DOCTYPE svg PUBLIC "-//W3C//DTD SVG 1.1//EN" 
 "http://www.w3.org/Graphics/SVG/1.1/DTD/svg11.dtd"> 
<svg xmlns="http://www.w3.org/2000/svg" version="1.1" 
    width="22.8956cm" height="9.56056cm" viewBox="0 0 90140 37640 ">
<title>SVG Picture created as Rosies Board - plate stuff-brd.svg date 2021/02/24 12:21:11 </title>
  <desc>Picture generated by PCBNEW </desc>
<g style="fill:#000000; fill-opacity:1;stroke:#000000; stroke-opacity:1;
stroke-linecap:round; stroke-linejoin:round; "
 transform="translate(0 0) scale(1 1)">
</g>
<g style="fill:#000000; fill-opacity:0.0; 
stroke:#000000; stroke-width:-0.000393701; stroke-opacity:1; 
stroke-linecap:round; stroke-linejoin:round;">
</g>
<g style="fill:#000000; fill-opacity:0.0; 
stroke:#000000; stroke-width:19.685; stroke-opacity:1; 
stroke-linecap:round; stroke-linejoin:round;">
<path d="M49285 3822
L69905 3822
" />
<path d="M82566 3822
L78503 3822
" />
</g>
<g style="fill:#000000; fill-opacity:0.0; 
stroke:#000000; stroke-width:78.7402; stroke-opacity:1; 
stroke-linecap:round; stroke-linejoin:round;">
<path d="M31229 1557
L31083 1411
" />
<path d="M31355 1945
L31323 1741
" />
<path d="M30491 2572
L30695 2604
" />
<path d="M30695 2604
L30899 2572
" />
<path d="M31083 2478
L31229 2332
" />
<path d="M30695 1284
L30491 1317
" />
<path d="M30899 1317
L30695 1284
" />
<path d="M30899 2572
L31083 2478
" />
<path d="M31229 2332
L31323 2148
" />
<path d="M30161 2332
L30307 2478
" />
<path d="M31323 2148
L31355 1945
" />
<path d="M31323 1741
L31229 1557
" />
<path d="M31083 1411
L30899 1317
" />
<path d="M30036 1945
L30068 2148
" />
<path d="M30307 2478
L30491 2572
" />
<path d="M30068 2148
L30161 2332
" />
<path d="M59833 1411
L59650 1317
" />
<path d="M87663 1557
L87569 1741
" />
<path d="M59059 2478
L59242 2572
" />
<path d="M88401 2572
L88585 2478
" />
<path d="M59059 1411
L58912 1557
" />
<path d="M88197 1284
L87993 1317
" />
<path d="M87993 2572
L88197 2604
" />
<path d="M88401 1317
L88197 1284
" />
<path d="M60073 1741
L59980 1557
" />
<path d="M60106 1945
L60073 1741
" />
<path d="M60073 2148
L60106 1945
" />
<path d="M58787 1945
L58819 2148
" />
<path d="M58912 1557
L58819 1741
" />
<path d="M59980 2332
L60073 2148
" />
<path d="M88585 2478
L88730 2332
" />
<path d="M59650 2572
L59833 2478
" />
<path d="M58819 1741
L58787 1945
" />
<path d="M87993 1317
L87809 1411
" />
<path d="M87569 2148
L87663 2332
" />
<path d="M1945 1284
L1741 1317
" />
<path d="M30068 1741
L30036 1945
" />
<path d="M87809 2478
L87993 2572
" />
<path d="M88585 1411
L88401 1317
" />
<path d="M88824 1741
L88730 1557
" />
<path d="M87569 1741
L87537 1945
" />
<path d="M87537 1945
L87569 2148
" />
<path d="M30161 1557
L30068 1741
" />
<path d="M30307 1411
L30161 1557
" />
<path d="M88824 2148
L88856 1945
" />
<path d="M30491 1317
L30307 1411
" />
<path d="M59242 2572
L59446 2604
" />
<path d="M88730 2332
L88824 2148
" />
<path d="M58819 2148
L58912 2332
" />
<path d="M58912 2332
L59059 2478
" />
<path d="M59242 1317
L59059 1411
" />
<path d="M88197 2604
L88401 2572
" />
<path d="M87809 1411
L87663 1557
" />
<path d="M59980 1557
L59833 1411
" />
<path d="M59446 2604
L59650 2572
" />
<path d="M2148 1317
L1945 1284
" />
<path d="M88730 1557
L88585 1411
" />
<path d="M87663 2332
L87809 2478
" />
<path d="M88856 1945
L88824 1741
" />
<path d="M59833 2478
L59980 2332
" />
<path d="M59446 1284
L59242 1317
" />
<path d="M59650 1317
L59446 1284
" />
<path d="M87537 35696
L87569 35900
" />
<path d="M87663 35309
L87569 35493
" />
<path d="M59980 35309
L59833 35163
" />
<path d="M87569 35493
L87537 35696
" />
<path d="M88197 35037
L87993 35069
" />
<path d="M59446 35037
L59242 35069
" />
<path d="M1317 2148
L1411 2332
" />
<path d="M1557 2478
L1741 2572
" />
<path d="M88730 35309
L88585 35163
" />
<path d="M1557 1411
L1411 1557
" />
<path d="M88585 35163
L88401 35069
" />
<path d="M2148 2572
L2332 2478
" />
<path d="M88401 35069
L88197 35037
" />
<path d="M88824 35493
L88730 35309
" />
<path d="M88585 36230
L88730 36084
" />
<path d="M87809 36230
L87993 36324
" />
<path d="M60073 35900
L60106 35696
" />
<path d="M60106 35696
L60073 35493
" />
<path d="M87993 35069
L87809 35163
" />
<path d="M60073 35493
L59980 35309
" />
<path d="M87663 36084
L87809 36230
" />
<path d="M2332 1411
L2148 1317
" />
<path d="M2478 1557
L2332 1411
" />
<path d="M1945 2604
L2148 2572
" />
<path d="M1411 1557
L1317 1741
" />
<path d="M59980 36084
L60073 35900
" />
<path d="M2572 1741
L2478 1557
" />
<path d="M88401 36324
L88585 36230
" />
<path d="M2604 1945
L2572 1741
" />
<path d="M2572 2148
L2604 1945
" />
<path d="M1741 1317
L1557 1411
" />
<path d="M87993 36324
L88197 36356
" />
<path d="M1741 2572
L1945 2604
" />
<path d="M2478 2332
L2572 2148
" />
<path d="M87809 35163
L87663 35309
" />
<path d="M2332 2478
L2478 2332
" />
<path d="M1411 2332
L1557 2478
" />
<path d="M1285 1945
L1317 2148
" />
<path d="M59833 35163
L59650 35069
" />
<path d="M1317 1741
L1285 1945
" />
<path d="M88730 36084
L88824 35900
" />
<path d="M88197 36356
L88401 36324
" />
<path d="M59650 35069
L59446 35037
" />
<path d="M88856 35696
L88824 35493
" />
<path d="M88824 35900
L88856 35696
" />
<path d="M87569 35900
L87663 36084
" />
<path d="M59242 36324
L59446 36356
" />
<path d="M58819 35493
L58787 35696
" />
<path d="M30899 35069
L30695 35037
" />
<path d="M58912 36084
L59059 36230
" />
<path d="M30307 35163
L30161 35309
" />
<path d="M2148 35069
L1945 35037
" />
<path d="M2148 36324
L2332 36230
" />
<path d="M59833 36230
L59980 36084
" />
<path d="M59059 36230
L59242 36324
" />
<path d="M1945 35037
L1741 35069
" />
<path d="M58819 35900
L58912 36084
" />
<path d="M58787 35696
L58819 35900
" />
<path d="M2478 36084
L2572 35900
" />
<path d="M58912 35309
L58819 35493
" />
<path d="M2332 36230
L2478 36084
" />
<path d="M31083 35163
L30899 35069
" />
<path d="M1557 36230
L1741 36324
" />
<path d="M31229 35309
L31083 35163
" />
<path d="M2572 35900
L2604 35696
" />
<path d="M31083 36230
L31229 36084
" />
<path d="M30695 36356
L30899 36324
" />
<path d="M2478 35309
L2332 35163
" />
<path d="M30307 36230
L30491 36324
" />
<path d="M30036 35696
L30068 35900
" />
<path d="M30161 35309
L30068 35493
" />
<path d="M30491 35069
L30307 35163
" />
<path d="M30161 36084
L30307 36230
" />
<path d="M31323 35900
L31355 35696
" />
<path d="M31229 36084
L31323 35900
" />
<path d="M2332 35163
L2148 35069
" />
<path d="M59242 35069
L59059 35163
" />
<path d="M1741 36324
L1945 36356
" />
<path d="M30068 35493
L30036 35696
" />
<path d="M30068 35900
L30161 36084
" />
<path d="M2572 35493
L2478 35309
" />
<path d="M59059 35163
L58912 35309
" />
<path d="M1411 36084
L1557 36230
" />
<path d="M31355 35696
L31323 35493
" />
<path d="M59650 36324
L59833 36230
" />
<path d="M59446 36356
L59650 36324
" />
<path d="M30695 35037
L30491 35069
" />
<path d="M2604 35696
L2572 35493
" />
<path d="M30491 36324
L30695 36356
" />
<path d="M30899 36324
L31083 36230
" />
<path d="M31323 35493
L31229 35309
" />
<path d="M1945 36356
L2148 36324
" />
<path d="M1220 39
L69903 39
" />
<path d="M96 855
L129 768
" />
<path d="M384 384
L453 322
" />
<path d="M129 768
L167 684
" />
<path d="M1411 35309
L1317 35493
" />
<path d="M1557 35163
L1411 35309
" />
<path d="M526 264
L603 213
" />
<path d="M1741 35069
L1557 35163
" />
<path d="M264 525
L322 453
" />
<path d="M768 129
L855 96
" />
<path d="M1035 53
L1127 43
" />
<path d="M213 602
L264 525
" />
<path d="M453 322
L526 264
" />
<path d="M855 96
L944 71
" />
<path d="M1317 35900
L1411 36084
" />
<path d="M1285 35696
L1317 35900
" />
<path d="M1127 43
L1220 39
" />
<path d="M684 167
L768 129
" />
<path d="M944 71
L1035 53
" />
<path d="M322 453
L384 384
" />
<path d="M167 684
L213 602
" />
<path d="M1317 35493
L1285 35696
" />
<path d="M603 213
L684 167
" />
<path d="M43 36514
L39 36421
" />
<path d="M71 36697
L53 36606
" />
<path d="M855 37544
L768 37512
" />
<path d="M96 36786
L71 36697
" />
<path d="M129 36873
L96 36786
" />
<path d="M167 36957
L129 36873
" />
<path d="M264 37115
L213 37038
" />
<path d="M322 37188
L264 37115
" />
<path d="M526 37377
L453 37319
" />
<path d="M213 37038
L167 36957
" />
<path d="M944 37570
L855 37544
" />
<path d="M684 37474
L603 37428
" />
<path d="M453 37319
L384 37256
" />
<path d="M39 1220
L43 1127
" />
<path d="M1035 37588
L944 37570
" />
<path d="M71 944
L96 855
" />
<path d="M768 37512
L684 37474
" />
<path d="M53 1035
L71 944
" />
<path d="M53 36606
L43 36514
" />
<path d="M384 37256
L322 37188
" />
<path d="M603 37428
L526 37377
" />
<path d="M43 1127
L53 1035
" />
<path d="M39 36421
L39 1220
" />
<path d="M89286 37544
L89197 37570
" />
<path d="M89373 37512
L89286 37544
" />
<path d="M89928 37038
L89877 37115
" />
<path d="M90088 36606
L90070 36697
" />
<path d="M90099 36514
L90088 36606
" />
<path d="M89756 37256
L89688 37319
" />
<path d="M89538 37428
L89457 37474
" />
<path d="M89688 37319
L89615 37377
" />
<path d="M89457 37474
L89373 37512
" />
<path d="M89615 37377
L89538 37428
" />
<path d="M89877 37115
L89819 37188
" />
<path d="M89819 37188
L89756 37256
" />
<path d="M89974 36957
L89928 37038
" />
<path d="M90044 36786
L90012 36873
" />
<path d="M1127 37598
L1035 37588
" />
<path d="M90070 36697
L90044 36786
" />
<path d="M1220 37602
L1127 37598
" />
<path d="M89106 37588
L89014 37598
" />
<path d="M90012 36873
L89974 36957
" />
<path d="M88921 37602
L1220 37602
" />
<path d="M89014 37598
L88921 37602
" />
<path d="M90102 36421
L90099 36514
" />
<path d="M89197 37570
L89106 37588
" />
<path d="M88921 39
L89014 43
" />
<path d="M78506 3826
L78506 39
" />
<path d="M89615 264
L89688 322
" />
<path d="M90102 1220
L90102 36421
" />
<path d="M89819 453
L89877 525
" />
<path d="M90099 1127
L90102 1220
" />
<path d="M89928 602
L89974 684
" />
<path d="M90088 1035
L90099 1127
" />
<path d="M89688 322
L89756 384
" />
<path d="M89373 129
L89457 167
" />
<path d="M89197 71
L89286 96
" />
<path d="M89756 384
L89819 453
" />
<path d="M90070 944
L90088 1035
" />
<path d="M90044 855
L90070 944
" />
<path d="M89974 684
L90012 768
" />
<path d="M90012 768
L90044 855
" />
<path d="M89106 53
L89197 71
" />
<path d="M89877 525
L89928 602
" />
<path d="M89538 213
L89615 264
" />
<path d="M78506 39
L88921 39
" />
<path d="M89457 167
L89538 213
" />
<path d="M89286 96
L89373 129
" />
<path d="M89014 43
L89106 53
" />
<path d="M69903 39
L69905 3823
" />
</g>
<g style="fill:#000000; fill-opacity:0.0; 
stroke:#000000; stroke-width:19.685; stroke-opacity:1; 
stroke-linecap:round; stroke-linejoin:round;">
<path d="M85848 2885
L85848 3822
" />
<path d="M85848.1 2885.06 A468.752 468.752 0.0 0 0 85379.3 2416.31 " />
<path d="M85848 3822
L86316 4291
" />
<path d="M82566.8 3822.57 A468.752 468.752 0.0 0 0 83035.6 3353.82 " />
<path d="M83035 2885
L83035 3353
" />
<path d="M85379 2416
L83504 2416
" />
<path d="M86316 4291
L87254 4291
" />
<path d="M87723.1 4760.07 A468.752 468.752 0.0 0 0 87254.4 4291.32 " />
<path d="M87723 4760
L87723 6635
" />
<path d="M86785.6 7103.83 A468.752 468.752 0.0 0 0 86316.8 7572.58 " />
<path d="M87254 7103
L86785 7103
" />
<path d="M87254.4 7103.83 A468.752 468.752 0.0 0 0 87723.1 6635.08 " />
<path d="M83504.3 2416.31 A468.752 468.752 0.0 0 0 83035.6 2885.06 " />
<path d="M87723.1 31010.2 A468.752 468.752 0.0 0 0 87254.4 30541.4 " />
<path d="M86316 33353
L87254 33353
" />
<path d="M87254.4 33353.9 A468.752 468.752 0.0 0 0 87723.1 32885.2 " />
<path d="M87723 32885
L87723 31010
" />
<path d="M87254 30541
L86785 30541
" />
<path d="M83035 34760
L83035 34291
" />
<path d="M83035.6 34760.2 A468.752 468.752 0.0 0 0 83504.3 35228.9 " />
<path d="M85379.3 35228.9 A468.752 468.752 0.0 0 0 85848.1 34760.2 " />
<path d="M85379 35228
L83504 35228
" />
<path d="M85848 33822
L85848 34760
" />
<path d="M83035.6 34291.4 A468.752 468.752 0.0 0 0 82566.8 33822.7 " />
<path d="M86316 33353
L85848 33822
" />
<path d="M86316.8 30072.7 A468.752 468.752 0.0 0 0 86785.6 30541.4 " />
<path d="M2878 7103
L3347 7103
" />
<path d="M2410 4760
L2410 6635
" />
<path d="M2879 4291.32 A468.752 468.752 0.0 0 0 2410.25 4760.07 " />
<path d="M2410.25 6635.08 A468.752 468.752 0.0 0 0 2879 7103.83 " />
<path d="M4285 3822
L3816 4291
" />
<path d="M7097 2885
L7097 3353
" />
<path d="M4754 2416
L6629 2416
" />
<path d="M4754.01 2416.31 A468.752 468.752 0.0 0 0 4285.25 2885.06 " />
<path d="M7097.77 2885.06 A468.752 468.752 0.0 0 0 6629.01 2416.31 " />
<path d="M7097.77 3353.82 A468.752 468.752 0.0 0 0 7566.52 3822.57 " />
<path d="M4285 3822
L4285 2885
" />
<path d="M3816 4291
L2878 4291
" />
<path d="M3816.5 7572.58 A468.752 468.752 0.0 0 0 3347.75 7103.83 " />
<path d="M2878 30541
L3347 30541
" />
<path d="M2410 32885
L2410 31010
" />
<path d="M2879 30541.4 A468.752 468.752 0.0 0 0 2410.25 31010.2 " />
<path d="M2410.25 32885.2 A468.752 468.752 0.0 0 0 2879 33353.9 " />
<path d="M3816 33353
L2878 33353
" />
<path d="M3347.75 30541.4 A468.752 468.752 0.0 0 0 3816.5 30072.7 " />
<path d="M3816 33353
L4285 33822
" />
<path d="M7097 34760
L7097 34291
" />
<path d="M4754 35228
L6629 35228
" />
<path d="M4285.25 34760.2 A468.752 468.752 0.0 0 0 4754.01 35228.9 " />
<path d="M6629.01 35228.9 A468.752 468.752 0.0 0 0 7097.77 34760.2 " />
<path d="M7566.52 33822.7 A468.752 468.752 0.0 0 0 7097.77 34291.4 " />
<path d="M4285 33822
L4285 34760
" />
<path d="M86316 7572
L86316 30072
" />
<path d="M3816 30072
L3816 7572
" />
<path d="M49285 33822
L82566 33822
" />
<path d="M48816.7 3353.82 A468.752 468.752 0.0 0 0 49285.4 3822.57 " />
<path d="M48816.7 2885.06 A468.752 468.752 0.0 0 0 48347.9 2416.31 " />
<path d="M41785.4 2416.31 A468.752 468.752 0.0 0 0 41316.7 2885.06 " />
<path d="M40847.9 3822.57 A468.752 468.752 0.0 0 0 41316.7 3353.82 " />
<path d="M49285.4 33822.7 A468.752 468.752 0.0 0 0 48816.7 34291.4 " />
<path d="M48347.9 35228.9 A468.752 468.752 0.0 0 0 48816.7 34760.2 " />
<path d="M41316.7 34760.2 A468.752 468.752 0.0 0 0 41785.4 35228.9 " />
<path d="M41316.7 34291.4 A468.752 468.752 0.0 0 0 40847.9 33822.7 " />
<path d="M40847 33822
L7566 33822
" />
<path d="M48816 34760
L48816 34291
" />
<path d="M41785 35228
L48347 35228
" />
<path d="M41316 34291
L41316 34760
" />
<path d="M40847 3822
L7566 3822
" />
<path d="M48816 2885
L48816 3353
" />
<path d="M41785 2416
L48347 2416
" />
<path d="M41316 3353
L41316 2885
" />
<path d="M83035 2885
L83035 2885
" />
<path d="M85848 2885
L85848 2885
" />
<g >
</g>
<g >
</g>
<g >
</g>
<g >
</g>
<g >
</g>
<g >
</g>
<g >
</g>
<g >
</g>
<g >
</g>
<g >
</g>
<g >
</g>
<g >
</g>
<g >
</g>
<g >
</g>
<g >
</g>
<g >
</g>
<g >
</g>
<g >
</g>
<g >
</g>
<g >
</g>
<g >
</g>
<g >
</g>
<g >
</g>
<g >
</g>
<g >
</g>
<g >
</g>
<g >
</g>
<g >
</g>
<g >
</g>
<g >
</g>
<g >
</g>
<g >
</g>
<g >
</g>
<g >
</g>
<g >
</g>
<g >
</g>
<g >
</g>
<g >
</g>
<g >
</g>
<g >
</g>
<g >
</g>
<g >
</g>
<g >
</g>
<g >
</g>
<g >
</g>
<g >
</g>
<g >
</g>
<g >
</g>
<g >
</g>
<g >
</g>
<g >
</g>
<g >
</g>
<g >
</g>
<g >
</g>
<g >
</g>
<g >
</g>
<g >
</g>
<g >
</g>
<g >
</g>
<g >
</g>
<g >
</g>
<g >
</g>
<g >
</g>
<g >
</g>
<g >
</g>
<g >
</g>
<g >
</g>
<g >
</g>
<g >
</g>
<g >
</g>
<g >
</g>
<g >
</g>
<g >
</g>
<g >
</g>
<g >
</g>
<g >
</g>
<g >
</g>
<g >
</g>
<g >
</g>
<g >
</g>
<g >
</g>
<g >
</g>
<g >
</g>
<g >
</g>
<g >
</g>
<g >
</g>
<g >
</g>
<g >
</g>
<g >
</g>
<g >
</g>
<g >
</g>
<g >
</g>
</g> 
</svg>
