  0
SECTION
  2
HEADER
  9
$ACADVER
  1
AC1009
  9
$EXTMIN
 10
0.0
 20
0.0
 30
0.0
  9
$EXTMAX
 10
1000.0
 20
1000.0
 30
0.0
  9
$FILLMODE
 70
 0
  9
$SPLFRAME
 70
 1
  0
ENDSEC
  0
SECTION
  2
TABLES
  0
TABLE
  2
LAYER
 70
1
  0
LAYER
  2
0
 70
     0
 62
     7
  6
CONTINUOUS
  0
ENDTAB
  0
ENDSEC
  0
SECTION
  2
ENTITIES
  0
LINE
  8
0
 62
     0
 10
227.094
 20
97.2714
 30
0.0
 11
227.329
 21
97.2619
 31
0.0
  0
LINE
  8
0
 62
     0
 10
227.329
 20
97.2619
 30
0.0
 11
227.564
 21
97.2358
 31
0.0
  0
LINE
  8
0
 62
     0
 10
227.564
 20
97.2358
 30
0.0
 11
227.794
 21
97.1889
 31
0.0
  0
LINE
  8
0
 62
     0
 10
227.794
 20
97.1889
 30
0.0
 11
228.021
 21
97.1254
 31
0.0
  0
LINE
  8
0
 62
     0
 10
228.021
 20
97.1254
 30
0.0
 11
228.243
 21
97.0428
 31
0.0
  0
LINE
  8
0
 62
     0
 10
228.243
 20
97.0428
 30
0.0
 11
228.455
 21
96.9451
 31
0.0
  0
LINE
  8
0
 62
     0
 10
228.455
 20
96.9451
 30
0.0
 11
228.662
 21
96.8294
 31
0.0
  0
LINE
  8
0
 62
     0
 10
228.662
 20
96.8294
 30
0.0
 11
228.858
 21
96.6996
 31
0.0
  0
LINE
  8
0
 62
     0
 10
228.858
 20
96.6996
 30
0.0
 11
229.042
 21
96.5535
 31
0.0
  0
LINE
  8
0
 62
     0
 10
229.042
 20
96.5535
 30
0.0
 11
229.216
 21
96.3937
 31
0.0
  0
LINE
  8
0
 62
     0
 10
229.216
 20
96.3937
 30
0.0
 11
229.376
 21
96.2201
 31
0.0
  0
LINE
  8
0
 62
     0
 10
229.376
 20
96.2201
 30
0.0
 11
229.522
 21
96.0356
 31
0.0
  0
LINE
  8
0
 62
     0
 10
229.522
 20
96.0356
 30
0.0
 11
229.651
 21
95.8398
 31
0.0
  0
LINE
  8
0
 62
     0
 10
229.651
 20
95.8398
 30
0.0
 11
229.767
 21
95.6331
 31
0.0
  0
LINE
  8
0
 62
     0
 10
229.767
 20
95.6331
 30
0.0
 11
229.865
 21
95.4193
 31
0.0
  0
LINE
  8
0
 62
     0
 10
229.865
 20
95.4193
 30
0.0
 11
229.948
 21
95.1989
 31
0.0
  0
LINE
  8
0
 62
     0
 10
229.948
 20
95.1989
 30
0.0
 11
230.011
 21
94.9717
 31
0.0
  0
LINE
  8
0
 62
     0
 10
230.011
 20
94.9717
 30
0.0
 11
230.058
 21
94.7416
 31
0.0
  0
LINE
  8
0
 62
     0
 10
230.058
 20
94.7416
 30
0.0
 11
230.084
 21
94.5074
 31
0.0
  0
LINE
  8
0
 62
     0
 10
230.084
 20
94.5074
 30
0.0
 11
230.095
 21
94.2717
 31
0.0
  0
LINE
  8
0
 62
     0
 10
230.095
 20
94.2717
 30
0.0
 11
230.095
 21
3.27284
 31
0.0
  0
LINE
  8
0
 62
     0
 10
230.095
 20
3.27284
 30
0.0
 11
230.084
 21
3.0372
 31
0.0
  0
LINE
  8
0
 62
     0
 10
230.084
 20
3.0372
 30
0.0
 11
230.058
 21
2.80293
 31
0.0
  0
LINE
  8
0
 62
     0
 10
230.058
 20
2.80293
 30
0.0
 11
230.011
 21
2.5728
 31
0.0
  0
LINE
  8
0
 62
     0
 10
230.011
 20
2.5728
 30
0.0
 11
229.948
 21
2.34542
 31
0.0
  0
LINE
  8
0
 62
     0
 10
229.948
 20
2.34542
 30
0.0
 11
229.865
 21
2.12356
 31
0.0
  0
LINE
  8
0
 62
     0
 10
229.865
 20
2.12356
 30
0.0
 11
229.767
 21
1.91134
 31
0.0
  0
LINE
  8
0
 62
     0
 10
229.767
 20
1.91134
 30
0.0
 11
229.651
 21
1.70463
 31
0.0
  0
LINE
  8
0
 62
     0
 10
229.651
 20
1.70463
 30
0.0
 11
229.522
 21
1.50895
 31
0.0
  0
LINE
  8
0
 62
     0
 10
229.522
 20
1.50895
 30
0.0
 11
229.376
 21
1.3243
 31
0.0
  0
LINE
  8
0
 62
     0
 10
229.376
 20
1.3243
 30
0.0
 11
229.216
 21
1.15066
 31
0.0
  0
LINE
  8
0
 62
     0
 10
229.216
 20
1.15066
 30
0.0
 11
229.042
 21
0.990808
 31
0.0
  0
LINE
  8
0
 62
     0
 10
229.042
 20
0.990808
 30
0.0
 11
228.858
 21
0.844737
 31
0.0
  0
LINE
  8
0
 62
     0
 10
228.858
 20
0.844737
 30
0.0
 11
228.662
 21
0.7152
 31
0.0
  0
LINE
  8
0
 62
     0
 10
228.662
 20
0.7152
 30
0.0
 11
228.455
 21
0.599447
 31
0.0
  0
LINE
  8
0
 62
     0
 10
228.455
 20
0.599447
 30
0.0
 11
228.243
 21
0.501608
 31
0.0
  0
LINE
  8
0
 62
     0
 10
228.243
 20
0.501608
 30
0.0
 11
228.021
 21
0.418924
 31
0.0
  0
LINE
  8
0
 62
     0
 10
228.021
 20
0.418924
 30
0.0
 11
227.794
 21
0.355533
 31
0.0
  0
LINE
  8
0
 62
     0
 10
227.794
 20
0.355533
 30
0.0
 11
227.564
 21
0.308681
 31
0.0
  0
LINE
  8
0
 62
     0
 10
227.564
 20
0.308681
 30
0.0
 11
227.329
 21
0.282498
 31
0.0
  0
LINE
  8
0
 62
     0
 10
227.329
 20
0.282498
 30
0.0
 11
227.094
 21
0.272852
 31
0.0
  0
LINE
  8
0
 62
     0
 10
227.094
 20
0.272852
 30
0.0
 11
3.09507
 21
0.272852
 31
0.0
  0
LINE
  8
0
 62
     0
 10
3.09507
 20
0.272852
 30
0.0
 11
2.85943
 21
0.282498
 31
0.0
  0
LINE
  8
0
 62
     0
 10
2.85943
 20
0.282498
 30
0.0
 11
2.62516
 21
0.308681
 31
0.0
  0
LINE
  8
0
 62
     0
 10
2.62516
 20
0.308681
 30
0.0
 11
2.39503
 21
0.355533
 31
0.0
  0
LINE
  8
0
 62
     0
 10
2.39503
 20
0.355533
 30
0.0
 11
2.16765
 21
0.418924
 31
0.0
  0
LINE
  8
0
 62
     0
 10
2.16765
 20
0.418924
 30
0.0
 11
1.94717
 21
0.501608
 31
0.0
  0
LINE
  8
0
 62
     0
 10
1.94717
 20
0.501608
 30
0.0
 11
1.73357
 21
0.599447
 31
0.0
  0
LINE
  8
0
 62
     0
 10
1.73357
 20
0.599447
 30
0.0
 11
1.52687
 21
0.7152
 31
0.0
  0
LINE
  8
0
 62
     0
 10
1.52687
 20
0.7152
 30
0.0
 11
1.33119
 21
0.844737
 31
0.0
  0
LINE
  8
0
 62
     0
 10
1.33119
 20
0.844737
 30
0.0
 11
1.14653
 21
0.990808
 31
0.0
  0
LINE
  8
0
 62
     0
 10
1.14653
 20
0.990808
 30
0.0
 11
0.972894
 21
1.15066
 31
0.0
  0
LINE
  8
0
 62
     0
 10
0.972894
 20
1.15066
 30
0.0
 11
0.813043
 21
1.3243
 31
0.0
  0
LINE
  8
0
 62
     0
 10
0.813043
 20
1.3243
 30
0.0
 11
0.666972
 21
1.50895
 31
0.0
  0
LINE
  8
0
 62
     0
 10
0.666972
 20
1.50895
 30
0.0
 11
0.537436
 21
1.70463
 31
0.0
  0
LINE
  8
0
 62
     0
 10
0.537436
 20
1.70463
 30
0.0
 11
0.421679
 21
1.91134
 31
0.0
  0
LINE
  8
0
 62
     0
 10
0.421679
 20
1.91134
 30
0.0
 11
0.323839
 21
2.12356
 31
0.0
  0
LINE
  8
0
 62
     0
 10
0.323839
 20
2.12356
 30
0.0
 11
0.241157
 21
2.34542
 31
0.0
  0
LINE
  8
0
 62
     0
 10
0.241157
 20
2.34542
 30
0.0
 11
0.177767
 21
2.5728
 31
0.0
  0
LINE
  8
0
 62
     0
 10
0.177767
 20
2.5728
 30
0.0
 11
0.130914
 21
2.80293
 31
0.0
  0
LINE
  8
0
 62
     0
 10
0.130914
 20
2.80293
 30
0.0
 11
0.104731
 21
3.0372
 31
0.0
  0
LINE
  8
0
 62
     0
 10
0.104731
 20
3.0372
 30
0.0
 11
0.0950846
 21
3.27284
 31
0.0
  0
LINE
  8
0
 62
     0
 10
0.0950846
 20
3.27284
 30
0.0
 11
0.0950846
 21
94.2717
 31
0.0
  0
LINE
  8
0
 62
     0
 10
0.0950846
 20
94.2717
 30
0.0
 11
0.104731
 21
94.5074
 31
0.0
  0
LINE
  8
0
 62
     0
 10
0.104731
 20
94.5074
 30
0.0
 11
0.130914
 21
94.7416
 31
0.0
  0
LINE
  8
0
 62
     0
 10
0.130914
 20
94.7416
 30
0.0
 11
0.177767
 21
94.9717
 31
0.0
  0
LINE
  8
0
 62
     0
 10
0.177767
 20
94.9717
 30
0.0
 11
0.241157
 21
95.1989
 31
0.0
  0
LINE
  8
0
 62
     0
 10
0.241157
 20
95.1989
 30
0.0
 11
0.323839
 21
95.4193
 31
0.0
  0
LINE
  8
0
 62
     0
 10
0.323839
 20
95.4193
 30
0.0
 11
0.421679
 21
95.6331
 31
0.0
  0
LINE
  8
0
 62
     0
 10
0.421679
 20
95.6331
 30
0.0
 11
0.537436
 21
95.8398
 31
0.0
  0
LINE
  8
0
 62
     0
 10
0.537436
 20
95.8398
 30
0.0
 11
0.666972
 21
96.0356
 31
0.0
  0
LINE
  8
0
 62
     0
 10
0.666972
 20
96.0356
 30
0.0
 11
0.813043
 21
96.2201
 31
0.0
  0
LINE
  8
0
 62
     0
 10
0.813043
 20
96.2201
 30
0.0
 11
0.972894
 21
96.3937
 31
0.0
  0
LINE
  8
0
 62
     0
 10
0.972894
 20
96.3937
 30
0.0
 11
1.14653
 21
96.5535
 31
0.0
  0
LINE
  8
0
 62
     0
 10
1.14653
 20
96.5535
 30
0.0
 11
1.33119
 21
96.6996
 31
0.0
  0
LINE
  8
0
 62
     0
 10
1.33119
 20
96.6996
 30
0.0
 11
1.52687
 21
96.8294
 31
0.0
  0
LINE
  8
0
 62
     0
 10
1.52687
 20
96.8294
 30
0.0
 11
1.73357
 21
96.9451
 31
0.0
  0
LINE
  8
0
 62
     0
 10
1.73357
 20
96.9451
 30
0.0
 11
1.94717
 21
97.0428
 31
0.0
  0
LINE
  8
0
 62
     0
 10
1.94717
 20
97.0428
 30
0.0
 11
2.16765
 21
97.1254
 31
0.0
  0
LINE
  8
0
 62
     0
 10
2.16765
 20
97.1254
 30
0.0
 11
2.39503
 21
97.1889
 31
0.0
  0
LINE
  8
0
 62
     0
 10
2.39503
 20
97.1889
 30
0.0
 11
2.62516
 21
97.2358
 31
0.0
  0
LINE
  8
0
 62
     0
 10
2.62516
 20
97.2358
 30
0.0
 11
2.85943
 21
97.2619
 31
0.0
  0
LINE
  8
0
 62
     0
 10
2.85943
 20
97.2619
 30
0.0
 11
3.09507
 21
97.2714
 31
0.0
  0
LINE
  8
0
 62
     0
 10
3.09507
 20
97.2714
 30
0.0
 11
227.094
 21
97.2714
 31
0.0
  0
LINE
  8
0
 62
     0
 10
4.72666
 20
7.01559
 30
0.0
 11
4.25951
 21
6.77718
 31
0.0
  0
LINE
  8
0
 62
     0
 10
4.25951
 20
6.77718
 30
0.0
 11
3.88881
 21
6.40652
 31
0.0
  0
LINE
  8
0
 62
     0
 10
3.88881
 20
6.40652
 30
0.0
 11
3.65181
 21
5.94071
 31
0.0
  0
LINE
  8
0
 62
     0
 10
3.65181
 20
5.94071
 30
0.0
 11
3.56912
 21
5.42258
 31
0.0
  0
LINE
  8
0
 62
     0
 10
3.56912
 20
5.42258
 30
0.0
 11
3.65181
 21
4.90442
 31
0.0
  0
LINE
  8
0
 62
     0
 10
3.65181
 20
4.90442
 30
0.0
 11
3.88881
 21
4.43727
 31
0.0
  0
LINE
  8
0
 62
     0
 10
3.88881
 20
4.43727
 30
0.0
 11
4.25951
 21
4.06658
 31
0.0
  0
LINE
  8
0
 62
     0
 10
4.25951
 20
4.06658
 30
0.0
 11
4.72666
 21
3.82958
 31
0.0
  0
LINE
  8
0
 62
     0
 10
4.72666
 20
3.82958
 30
0.0
 11
5.24482
 21
3.74689
 31
0.0
  0
LINE
  8
0
 62
     0
 10
5.24482
 20
3.74689
 30
0.0
 11
5.76294
 21
3.82958
 31
0.0
  0
LINE
  8
0
 62
     0
 10
5.76294
 20
3.82958
 30
0.0
 11
6.23013
 21
4.06658
 31
0.0
  0
LINE
  8
0
 62
     0
 10
6.23013
 20
4.06658
 30
0.0
 11
6.59941
 21
4.43727
 31
0.0
  0
LINE
  8
0
 62
     0
 10
6.59941
 20
4.43727
 30
0.0
 11
6.83782
 21
4.90442
 31
0.0
  0
LINE
  8
0
 62
     0
 10
6.83782
 20
4.90442
 30
0.0
 11
6.91914
 21
5.42258
 31
0.0
  0
LINE
  8
0
 62
     0
 10
6.91914
 20
5.42258
 30
0.0
 11
6.83782
 21
5.94071
 31
0.0
  0
LINE
  8
0
 62
     0
 10
6.83782
 20
5.94071
 30
0.0
 11
6.59941
 21
6.40652
 31
0.0
  0
LINE
  8
0
 62
     0
 10
6.59941
 20
6.40652
 30
0.0
 11
6.23013
 21
6.77718
 31
0.0
  0
LINE
  8
0
 62
     0
 10
6.23013
 20
6.77718
 30
0.0
 11
5.76294
 21
7.01559
 31
0.0
  0
LINE
  8
0
 62
     0
 10
5.76294
 20
7.01559
 30
0.0
 11
5.24482
 21
7.0969
 31
0.0
  0
LINE
  8
0
 62
     0
 10
5.24482
 20
7.0969
 30
0.0
 11
4.72666
 21
7.01559
 31
0.0
  0
LINE
  8
0
 62
     0
 10
77.9611
 20
7.01559
 30
0.0
 11
77.494
 21
6.77718
 31
0.0
  0
LINE
  8
0
 62
     0
 10
77.494
 20
6.77718
 30
0.0
 11
77.1218
 21
6.40652
 31
0.0
  0
LINE
  8
0
 62
     0
 10
77.1218
 20
6.40652
 30
0.0
 11
76.8847
 21
5.94071
 31
0.0
  0
LINE
  8
0
 62
     0
 10
76.8847
 20
5.94071
 30
0.0
 11
76.8022
 21
5.42258
 31
0.0
  0
LINE
  8
0
 62
     0
 10
76.8022
 20
5.42258
 30
0.0
 11
76.8847
 21
4.90442
 31
0.0
  0
LINE
  8
0
 62
     0
 10
76.8847
 20
4.90442
 30
0.0
 11
77.1218
 21
4.43727
 31
0.0
  0
LINE
  8
0
 62
     0
 10
77.1218
 20
4.43727
 30
0.0
 11
77.494
 21
4.06658
 31
0.0
  0
LINE
  8
0
 62
     0
 10
77.494
 20
4.06658
 30
0.0
 11
77.9611
 21
3.82958
 31
0.0
  0
LINE
  8
0
 62
     0
 10
77.9611
 20
3.82958
 30
0.0
 11
78.4779
 21
3.74689
 31
0.0
  0
LINE
  8
0
 62
     0
 10
78.4779
 20
3.74689
 30
0.0
 11
78.9961
 21
3.82958
 31
0.0
  0
LINE
  8
0
 62
     0
 10
78.9961
 20
3.82958
 30
0.0
 11
79.4618
 21
4.06658
 31
0.0
  0
LINE
  8
0
 62
     0
 10
79.4618
 20
4.06658
 30
0.0
 11
79.8326
 21
4.43727
 31
0.0
  0
LINE
  8
0
 62
     0
 10
79.8326
 20
4.43727
 30
0.0
 11
80.071
 21
4.90442
 31
0.0
  0
LINE
  8
0
 62
     0
 10
80.071
 20
4.90442
 30
0.0
 11
80.1522
 21
5.42258
 31
0.0
  0
LINE
  8
0
 62
     0
 10
80.1522
 20
5.42258
 30
0.0
 11
80.071
 21
5.94071
 31
0.0
  0
LINE
  8
0
 62
     0
 10
80.071
 20
5.94071
 30
0.0
 11
79.8326
 21
6.40652
 31
0.0
  0
LINE
  8
0
 62
     0
 10
79.8326
 20
6.40652
 30
0.0
 11
79.4618
 21
6.77718
 31
0.0
  0
LINE
  8
0
 62
     0
 10
79.4618
 20
6.77718
 30
0.0
 11
78.9961
 21
7.01559
 31
0.0
  0
LINE
  8
0
 62
     0
 10
78.9961
 20
7.01559
 30
0.0
 11
78.4779
 21
7.0969
 31
0.0
  0
LINE
  8
0
 62
     0
 10
78.4779
 20
7.0969
 30
0.0
 11
77.9611
 21
7.01559
 31
0.0
  0
LINE
  8
0
 62
     0
 10
151.193
 20
7.01559
 30
0.0
 11
150.727
 21
6.77718
 31
0.0
  0
LINE
  8
0
 62
     0
 10
150.727
 20
6.77718
 30
0.0
 11
150.356
 21
6.40652
 31
0.0
  0
LINE
  8
0
 62
     0
 10
150.356
 20
6.40652
 30
0.0
 11
150.118
 21
5.94071
 31
0.0
  0
LINE
  8
0
 62
     0
 10
150.118
 20
5.94071
 30
0.0
 11
150.037
 21
5.42258
 31
0.0
  0
LINE
  8
0
 62
     0
 10
150.037
 20
5.42258
 30
0.0
 11
150.118
 21
4.90442
 31
0.0
  0
LINE
  8
0
 62
     0
 10
150.118
 20
4.90442
 30
0.0
 11
150.356
 21
4.43727
 31
0.0
  0
LINE
  8
0
 62
     0
 10
150.356
 20
4.43727
 30
0.0
 11
150.727
 21
4.06658
 31
0.0
  0
LINE
  8
0
 62
     0
 10
150.727
 20
4.06658
 30
0.0
 11
151.193
 21
3.82958
 31
0.0
  0
LINE
  8
0
 62
     0
 10
151.193
 20
3.82958
 30
0.0
 11
151.711
 21
3.74689
 31
0.0
  0
LINE
  8
0
 62
     0
 10
151.711
 20
3.74689
 30
0.0
 11
152.229
 21
3.82958
 31
0.0
  0
LINE
  8
0
 62
     0
 10
152.229
 20
3.82958
 30
0.0
 11
152.695
 21
4.06658
 31
0.0
  0
LINE
  8
0
 62
     0
 10
152.695
 20
4.06658
 30
0.0
 11
153.067
 21
4.43727
 31
0.0
  0
LINE
  8
0
 62
     0
 10
153.067
 20
4.43727
 30
0.0
 11
153.304
 21
4.90442
 31
0.0
  0
LINE
  8
0
 62
     0
 10
153.304
 20
4.90442
 30
0.0
 11
153.387
 21
5.42258
 31
0.0
  0
LINE
  8
0
 62
     0
 10
153.387
 20
5.42258
 30
0.0
 11
153.304
 21
5.94071
 31
0.0
  0
LINE
  8
0
 62
     0
 10
153.304
 20
5.94071
 30
0.0
 11
153.067
 21
6.40652
 31
0.0
  0
LINE
  8
0
 62
     0
 10
153.067
 20
6.40652
 30
0.0
 11
152.695
 21
6.77718
 31
0.0
  0
LINE
  8
0
 62
     0
 10
152.695
 20
6.77718
 30
0.0
 11
152.229
 21
7.01559
 31
0.0
  0
LINE
  8
0
 62
     0
 10
152.229
 20
7.01559
 30
0.0
 11
151.711
 21
7.0969
 31
0.0
  0
LINE
  8
0
 62
     0
 10
151.711
 20
7.0969
 30
0.0
 11
151.193
 21
7.01559
 31
0.0
  0
LINE
  8
0
 62
     0
 10
224.426
 20
7.01559
 30
0.0
 11
223.96
 21
6.77718
 31
0.0
  0
LINE
  8
0
 62
     0
 10
223.96
 20
6.77718
 30
0.0
 11
223.589
 21
6.40652
 31
0.0
  0
LINE
  8
0
 62
     0
 10
223.589
 20
6.40652
 30
0.0
 11
223.351
 21
5.94071
 31
0.0
  0
LINE
  8
0
 62
     0
 10
223.351
 20
5.94071
 30
0.0
 11
223.27
 21
5.42258
 31
0.0
  0
LINE
  8
0
 62
     0
 10
223.27
 20
5.42258
 30
0.0
 11
223.351
 21
4.90442
 31
0.0
  0
LINE
  8
0
 62
     0
 10
223.351
 20
4.90442
 30
0.0
 11
223.589
 21
4.43727
 31
0.0
  0
LINE
  8
0
 62
     0
 10
223.589
 20
4.43727
 30
0.0
 11
223.96
 21
4.06658
 31
0.0
  0
LINE
  8
0
 62
     0
 10
223.96
 20
4.06658
 30
0.0
 11
224.426
 21
3.82958
 31
0.0
  0
LINE
  8
0
 62
     0
 10
224.426
 20
3.82958
 30
0.0
 11
224.944
 21
3.74689
 31
0.0
  0
LINE
  8
0
 62
     0
 10
224.944
 20
3.74689
 30
0.0
 11
225.462
 21
3.82958
 31
0.0
  0
LINE
  8
0
 62
     0
 10
225.462
 20
3.82958
 30
0.0
 11
225.929
 21
4.06658
 31
0.0
  0
LINE
  8
0
 62
     0
 10
225.929
 20
4.06658
 30
0.0
 11
226.3
 21
4.43727
 31
0.0
  0
LINE
  8
0
 62
     0
 10
226.3
 20
4.43727
 30
0.0
 11
226.537
 21
4.90442
 31
0.0
  0
LINE
  8
0
 62
     0
 10
226.537
 20
4.90442
 30
0.0
 11
226.62
 21
5.42258
 31
0.0
  0
LINE
  8
0
 62
     0
 10
226.62
 20
5.42258
 30
0.0
 11
226.537
 21
5.94071
 31
0.0
  0
LINE
  8
0
 62
     0
 10
226.537
 20
5.94071
 30
0.0
 11
226.3
 21
6.40652
 31
0.0
  0
LINE
  8
0
 62
     0
 10
226.3
 20
6.40652
 30
0.0
 11
225.929
 21
6.77718
 31
0.0
  0
LINE
  8
0
 62
     0
 10
225.929
 20
6.77718
 30
0.0
 11
225.462
 21
7.01559
 31
0.0
  0
LINE
  8
0
 62
     0
 10
225.462
 20
7.01559
 30
0.0
 11
224.944
 21
7.0969
 31
0.0
  0
LINE
  8
0
 62
     0
 10
224.944
 20
7.0969
 30
0.0
 11
224.426
 21
7.01559
 31
0.0
  0
LINE
  8
0
 62
     0
 10
4.72666
 20
93.7147
 30
0.0
 11
4.25951
 21
93.478
 31
0.0
  0
LINE
  8
0
 62
     0
 10
4.25951
 20
93.478
 30
0.0
 11
3.88881
 21
93.1072
 31
0.0
  0
LINE
  8
0
 62
     0
 10
3.88881
 20
93.1072
 30
0.0
 11
3.65181
 21
92.6401
 31
0.0
  0
LINE
  8
0
 62
     0
 10
3.65181
 20
92.6401
 30
0.0
 11
3.56912
 21
92.1219
 31
0.0
  0
LINE
  8
0
 62
     0
 10
3.56912
 20
92.1219
 30
0.0
 11
3.65181
 21
91.6037
 31
0.0
  0
LINE
  8
0
 62
     0
 10
3.65181
 20
91.6037
 30
0.0
 11
3.88881
 21
91.1366
 31
0.0
  0
LINE
  8
0
 62
     0
 10
3.88881
 20
91.1366
 30
0.0
 11
4.25951
 21
90.7673
 31
0.0
  0
LINE
  8
0
 62
     0
 10
4.25951
 20
90.7673
 30
0.0
 11
4.72666
 21
90.5288
 31
0.0
  0
LINE
  8
0
 62
     0
 10
4.72666
 20
90.5288
 30
0.0
 11
5.24482
 21
90.4476
 31
0.0
  0
LINE
  8
0
 62
     0
 10
5.24482
 20
90.4476
 30
0.0
 11
5.76294
 21
90.5288
 31
0.0
  0
LINE
  8
0
 62
     0
 10
5.76294
 20
90.5288
 30
0.0
 11
6.23013
 21
90.7673
 31
0.0
  0
LINE
  8
0
 62
     0
 10
6.23013
 20
90.7673
 30
0.0
 11
6.59941
 21
91.1366
 31
0.0
  0
LINE
  8
0
 62
     0
 10
6.59941
 20
91.1366
 30
0.0
 11
6.83782
 21
91.6037
 31
0.0
  0
LINE
  8
0
 62
     0
 10
6.83782
 20
91.6037
 30
0.0
 11
6.91914
 21
92.1219
 31
0.0
  0
LINE
  8
0
 62
     0
 10
6.91914
 20
92.1219
 30
0.0
 11
6.83782
 21
92.6401
 31
0.0
  0
LINE
  8
0
 62
     0
 10
6.83782
 20
92.6401
 30
0.0
 11
6.59941
 21
93.1072
 31
0.0
  0
LINE
  8
0
 62
     0
 10
6.59941
 20
93.1072
 30
0.0
 11
6.23013
 21
93.478
 31
0.0
  0
LINE
  8
0
 62
     0
 10
6.23013
 20
93.478
 30
0.0
 11
5.76294
 21
93.7147
 31
0.0
  0
LINE
  8
0
 62
     0
 10
5.76294
 20
93.7147
 30
0.0
 11
5.24482
 21
93.7976
 31
0.0
  0
LINE
  8
0
 62
     0
 10
5.24482
 20
93.7976
 30
0.0
 11
4.72666
 21
93.7147
 31
0.0
  0
LINE
  8
0
 62
     0
 10
224.426
 20
93.7147
 30
0.0
 11
223.96
 21
93.478
 31
0.0
  0
LINE
  8
0
 62
     0
 10
223.96
 20
93.478
 30
0.0
 11
223.589
 21
93.1072
 31
0.0
  0
LINE
  8
0
 62
     0
 10
223.589
 20
93.1072
 30
0.0
 11
223.351
 21
92.6401
 31
0.0
  0
LINE
  8
0
 62
     0
 10
223.351
 20
92.6401
 30
0.0
 11
223.27
 21
92.1219
 31
0.0
  0
LINE
  8
0
 62
     0
 10
223.27
 20
92.1219
 30
0.0
 11
223.351
 21
91.6037
 31
0.0
  0
LINE
  8
0
 62
     0
 10
223.351
 20
91.6037
 30
0.0
 11
223.589
 21
91.1366
 31
0.0
  0
LINE
  8
0
 62
     0
 10
223.589
 20
91.1366
 30
0.0
 11
223.96
 21
90.7673
 31
0.0
  0
LINE
  8
0
 62
     0
 10
223.96
 20
90.7673
 30
0.0
 11
224.426
 21
90.5288
 31
0.0
  0
LINE
  8
0
 62
     0
 10
224.426
 20
90.5288
 30
0.0
 11
224.944
 21
90.4476
 31
0.0
  0
LINE
  8
0
 62
     0
 10
224.944
 20
90.4476
 30
0.0
 11
225.462
 21
90.5288
 31
0.0
  0
LINE
  8
0
 62
     0
 10
225.462
 20
90.5288
 30
0.0
 11
225.929
 21
90.7673
 31
0.0
  0
LINE
  8
0
 62
     0
 10
225.929
 20
90.7673
 30
0.0
 11
226.3
 21
91.1366
 31
0.0
  0
LINE
  8
0
 62
     0
 10
226.3
 20
91.1366
 30
0.0
 11
226.537
 21
91.6037
 31
0.0
  0
LINE
  8
0
 62
     0
 10
226.537
 20
91.6037
 30
0.0
 11
226.62
 21
92.1219
 31
0.0
  0
LINE
  8
0
 62
     0
 10
226.62
 20
92.1219
 30
0.0
 11
226.537
 21
92.6401
 31
0.0
  0
LINE
  8
0
 62
     0
 10
226.537
 20
92.6401
 30
0.0
 11
226.3
 21
93.1072
 31
0.0
  0
LINE
  8
0
 62
     0
 10
226.3
 20
93.1072
 30
0.0
 11
225.929
 21
93.478
 31
0.0
  0
LINE
  8
0
 62
     0
 10
225.929
 20
93.478
 30
0.0
 11
225.462
 21
93.7147
 31
0.0
  0
LINE
  8
0
 62
     0
 10
225.462
 20
93.7147
 30
0.0
 11
224.944
 21
93.7976
 31
0.0
  0
LINE
  8
0
 62
     0
 10
224.944
 20
93.7976
 30
0.0
 11
224.426
 21
93.7147
 31
0.0
  0
LINE
  8
0
 62
     0
 10
151.193
 20
93.7147
 30
0.0
 11
150.727
 21
93.478
 31
0.0
  0
LINE
  8
0
 62
     0
 10
150.727
 20
93.478
 30
0.0
 11
150.356
 21
93.1072
 31
0.0
  0
LINE
  8
0
 62
     0
 10
150.356
 20
93.1072
 30
0.0
 11
150.118
 21
92.6401
 31
0.0
  0
LINE
  8
0
 62
     0
 10
150.118
 20
92.6401
 30
0.0
 11
150.037
 21
92.1219
 31
0.0
  0
LINE
  8
0
 62
     0
 10
150.037
 20
92.1219
 30
0.0
 11
150.118
 21
91.6037
 31
0.0
  0
LINE
  8
0
 62
     0
 10
150.118
 20
91.6037
 30
0.0
 11
150.356
 21
91.1366
 31
0.0
  0
LINE
  8
0
 62
     0
 10
150.356
 20
91.1366
 30
0.0
 11
150.727
 21
90.7673
 31
0.0
  0
LINE
  8
0
 62
     0
 10
150.727
 20
90.7673
 30
0.0
 11
151.193
 21
90.5288
 31
0.0
  0
LINE
  8
0
 62
     0
 10
151.193
 20
90.5288
 30
0.0
 11
151.711
 21
90.4476
 31
0.0
  0
LINE
  8
0
 62
     0
 10
151.711
 20
90.4476
 30
0.0
 11
152.229
 21
90.5288
 31
0.0
  0
LINE
  8
0
 62
     0
 10
152.229
 20
90.5288
 30
0.0
 11
152.695
 21
90.7673
 31
0.0
  0
LINE
  8
0
 62
     0
 10
152.695
 20
90.7673
 30
0.0
 11
153.067
 21
91.1366
 31
0.0
  0
LINE
  8
0
 62
     0
 10
153.067
 20
91.1366
 30
0.0
 11
153.304
 21
91.6037
 31
0.0
  0
LINE
  8
0
 62
     0
 10
153.304
 20
91.6037
 30
0.0
 11
153.387
 21
92.1219
 31
0.0
  0
LINE
  8
0
 62
     0
 10
153.387
 20
92.1219
 30
0.0
 11
153.304
 21
92.6401
 31
0.0
  0
LINE
  8
0
 62
     0
 10
153.304
 20
92.6401
 30
0.0
 11
153.067
 21
93.1072
 31
0.0
  0
LINE
  8
0
 62
     0
 10
153.067
 20
93.1072
 30
0.0
 11
152.695
 21
93.478
 31
0.0
  0
LINE
  8
0
 62
     0
 10
152.695
 20
93.478
 30
0.0
 11
152.229
 21
93.7147
 31
0.0
  0
LINE
  8
0
 62
     0
 10
152.229
 20
93.7147
 30
0.0
 11
151.711
 21
93.7976
 31
0.0
  0
LINE
  8
0
 62
     0
 10
151.711
 20
93.7976
 30
0.0
 11
151.193
 21
93.7147
 31
0.0
  0
LINE
  8
0
 62
     0
 10
77.9611
 20
93.7147
 30
0.0
 11
77.494
 21
93.478
 31
0.0
  0
LINE
  8
0
 62
     0
 10
77.494
 20
93.478
 30
0.0
 11
77.1218
 21
93.1072
 31
0.0
  0
LINE
  8
0
 62
     0
 10
77.1218
 20
93.1072
 30
0.0
 11
76.8847
 21
92.6401
 31
0.0
  0
LINE
  8
0
 62
     0
 10
76.8847
 20
92.6401
 30
0.0
 11
76.8022
 21
92.1219
 31
0.0
  0
LINE
  8
0
 62
     0
 10
76.8022
 20
92.1219
 30
0.0
 11
76.8847
 21
91.6037
 31
0.0
  0
LINE
  8
0
 62
     0
 10
76.8847
 20
91.6037
 30
0.0
 11
77.1218
 21
91.1366
 31
0.0
  0
LINE
  8
0
 62
     0
 10
77.1218
 20
91.1366
 30
0.0
 11
77.494
 21
90.7673
 31
0.0
  0
LINE
  8
0
 62
     0
 10
77.494
 20
90.7673
 30
0.0
 11
77.9611
 21
90.5288
 31
0.0
  0
LINE
  8
0
 62
     0
 10
77.9611
 20
90.5288
 30
0.0
 11
78.4779
 21
90.4476
 31
0.0
  0
LINE
  8
0
 62
     0
 10
78.4779
 20
90.4476
 30
0.0
 11
78.9961
 21
90.5288
 31
0.0
  0
LINE
  8
0
 62
     0
 10
78.9961
 20
90.5288
 30
0.0
 11
79.4618
 21
90.7673
 31
0.0
  0
LINE
  8
0
 62
     0
 10
79.4618
 20
90.7673
 30
0.0
 11
79.8326
 21
91.1366
 31
0.0
  0
LINE
  8
0
 62
     0
 10
79.8326
 20
91.1366
 30
0.0
 11
80.071
 21
91.6037
 31
0.0
  0
LINE
  8
0
 62
     0
 10
80.071
 20
91.6037
 30
0.0
 11
80.1522
 21
92.1219
 31
0.0
  0
LINE
  8
0
 62
     0
 10
80.1522
 20
92.1219
 30
0.0
 11
80.071
 21
92.6401
 31
0.0
  0
LINE
  8
0
 62
     0
 10
80.071
 20
92.6401
 30
0.0
 11
79.8326
 21
93.1072
 31
0.0
  0
LINE
  8
0
 62
     0
 10
79.8326
 20
93.1072
 30
0.0
 11
79.4618
 21
93.478
 31
0.0
  0
LINE
  8
0
 62
     0
 10
79.4618
 20
93.478
 30
0.0
 11
78.9961
 21
93.7147
 31
0.0
  0
LINE
  8
0
 62
     0
 10
78.9961
 20
93.7147
 30
0.0
 11
78.4779
 21
93.7976
 31
0.0
  0
LINE
  8
0
 62
     0
 10
78.4779
 20
93.7976
 30
0.0
 11
77.9611
 21
93.7147
 31
0.0
  0
ENDSEC
  0
EOF
