  0
SECTION
  2
HEADER
  9
$ACADVER
  1
AC1014
  9
$HANDSEED
  5
FFFF
  9
$MEASUREMENT
 70
     1
  0
ENDSEC
  0
SECTION
  2
TABLES
  0
TABLE
  2
VPORT
  5
8
330
0
100
AcDbSymbolTable
 70
     4
  0
VPORT
  5
2E
330
8
100
AcDbSymbolTableRecord
100
AcDbViewportTableRecord
  2
*ACTIVE
 70
     0
 10
0.0
 20
0.0
 11
1.0
 21
1.0
 12
210.0
 22
148.5
 13
0.0
 23
0.0
 14
10.0
 24
10.0
 15
10.0
 25
10.0
 16
0.0
 26
0.0
 36
1.0
 17
0.0
 27
0.0
 37
0.0
 40
341.0
 41
1.24
 42
50.0
 43
0.0
 44
0.0
 50
0.0
 51
0.0
 71
     0
 72
   100
 73
     1
 74
     3
 75
     0
 76
     0
 77
     0
 78
     0
  0
ENDTAB
  0
TABLE
  2
LTYPE
  5
5
330
0
100
AcDbSymbolTable
 70
     1
  0
LTYPE
  5
14
330
5
100
AcDbSymbolTableRecord
100
AcDbLinetypeTableRecord
  2
BYBLOCK
 70
     0
  3

 72
    65
 73
     0
 40
0.0
  0
LTYPE
  5
15
330
5
100
AcDbSymbolTableRecord
100
AcDbLinetypeTableRecord
  2
BYLAYER
 70
     0
  3

 72
    65
 73
     0
 40
0.0
  0
LTYPE
  5
16
330
5
100
AcDbSymbolTableRecord
100
AcDbLinetypeTableRecord
  2
CONTINUOUS
 70
     0
  3
Solid line
 72
    65
 73
     0
 40
0.0
  0
ENDTAB
  0
TABLE
  2
LAYER
  5
2
100
AcDbSymbolTable
 70
1
  0
LAYER
  5
50
100
AcDbSymbolTableRecord
100
AcDbLayerTableRecord
  2
0
 70
0
  6
CONTINUOUS
  0
ENDTAB
  0
TABLE
  2
STYLE
  5
3
330
0
100
AcDbSymbolTable
 70
     1
  0
STYLE
  5
11
330
3
100
AcDbSymbolTableRecord
100
AcDbTextStyleTableRecord
  2
STANDARD
 70
     0
 40
0.0
 41
1.0
 50
0.0
 71
     0
 42
2.5
  3
txt
  4

  0
ENDTAB
  0
TABLE
  2
VIEW
  5
6
330
0
100
AcDbSymbolTable
 70
     0
  0
ENDTAB
  0
TABLE
  2
UCS
  5
7
330
0
100
AcDbSymbolTable
 70
     0
  0
ENDTAB
  0
TABLE
  2
APPID
  5
9
330
0
100
AcDbSymbolTable
 70
     2
  0
APPID
  5
12
330
9
100
AcDbSymbolTableRecord
100
AcDbRegAppTableRecord
  2
ACAD
 70
     0
  0
ENDTAB
  0
TABLE
  2
DIMSTYLE
  5
A
330
0
100
AcDbSymbolTable
 70
     1
  0
DIMSTYLE
105
27
330
A
100
AcDbSymbolTableRecord
100
AcDbDimStyleTableRecord
  2
ISO-25
 70
     0
  3

  4

  5

  6

  7

 40
1.0
 41
2.5
 42
0.625
 43
3.75
 44
1.25
 45
0.0
 46
0.0
 47
0.0
 48
0.0
140
2.5
141
2.5
142
0.0
143
0.03937007874016
144
1.0
145
0.0
146
1.0
147
0.625
 71
     0
 72
     0
 73
     0
 74
     0
 75
     0
 76
     0
 77
     1
 78
     8
170
     0
171
     3
172
     1
173
     0
174
     0
175
     0
176
     0
177
     0
178
     0
270
     2
271
     2
272
     2
273
     2
274
     3
340
11
275
     0
280
     0
281
     0
282
     0
283
     0
284
     8
285
     0
286
     0
287
     3
288
     0
  0
ENDTAB
  0
TABLE
  2
BLOCK_RECORD
  5
1
330
0
100
AcDbSymbolTable
 70
     1
  0
BLOCK_RECORD
  5
1F
330
1
100
AcDbSymbolTableRecord
100
AcDbBlockTableRecord
  2
*MODEL_SPACE
  0
BLOCK_RECORD
  5
1B
330
1
100
AcDbSymbolTableRecord
100
AcDbBlockTableRecord
  2
*PAPER_SPACE
  0
ENDTAB
  0
ENDSEC
  0
SECTION
  2
BLOCKS
  0
BLOCK
  5
20
330
1F
100
AcDbEntity
  8
0
100
AcDbBlockBegin
  2
*MODEL_SPACE
 70
     0
 10
0.0
 20
0.0
 30
0.0
  3
*MODEL_SPACE
  1

  0
ENDBLK
  5
21
330
1F
100
AcDbEntity
  8
0
100
AcDbBlockEnd
  0
BLOCK
  5
1C
330
1B
100
AcDbEntity
 67
     1
  8
0
100
AcDbBlockBegin
  2
*PAPER_SPACE
  1

  0
ENDBLK
  5
1D
330
1B
100
AcDbEntity
 67
     1
  8
0
100
AcDbBlockEnd
  0
ENDSEC
  0
SECTION
  2
ENTITIES
  0
LWPOLYLINE
  5
100
100
AcDbEntity
  8
0
 62
7
100
AcDbPolyline
 90
3
 70
1
 10
640.620451
 20
270.429247
 30
0.0
 10
641.280922
 20
270.355263
 30
0.0
 10
640.620451
 20
270.429247
 30
0.0
  0
LWPOLYLINE
  5
101
100
AcDbEntity
  8
0
 62
7
100
AcDbPolyline
 90
3
 70
1
 10
641.280922
 20
270.355263
 30
0.0
 10
641.935725
 20
270.222318
 30
0.0
 10
641.280922
 20
270.355263
 30
0.0
  0
LWPOLYLINE
  5
102
100
AcDbEntity
  8
0
 62
7
100
AcDbPolyline
 90
3
 70
1
 10
641.935725
 20
270.222318
 30
0.0
 10
642.582023
 20
270.042319
 30
0.0
 10
641.935725
 20
270.222318
 30
0.0
  0
LWPOLYLINE
  5
103
100
AcDbEntity
  8
0
 62
7
100
AcDbPolyline
 90
3
 70
1
 10
642.582023
 20
270.042319
 30
0.0
 10
643.205644
 20
269.808177
 30
0.0
 10
642.582023
 20
270.042319
 30
0.0
  0
LWPOLYLINE
  5
104
100
AcDbEntity
  8
0
 62
7
100
AcDbPolyline
 90
3
 70
1
 10
643.205644
 20
269.808177
 30
0.0
 10
643.812258
 20
269.531232
 30
0.0
 10
643.205644
 20
269.808177
 30
0.0
  0
LWPOLYLINE
  5
105
100
AcDbEntity
  8
0
 62
7
100
AcDbPolyline
 90
3
 70
1
 10
643.812258
 20
269.531232
 30
0.0
 10
644.393359
 20
269.203264
 30
0.0
 10
643.812258
 20
269.531232
 30
0.0
  0
LWPOLYLINE
  5
106
100
AcDbEntity
  8
0
 62
7
100
AcDbPolyline
 90
3
 70
1
 10
644.393359
 20
269.203264
 30
0.0
 10
644.948950
 20
268.835327
 30
0.0
 10
644.393359
 20
269.203264
 30
0.0
  0
LWPOLYLINE
  5
107
100
AcDbEntity
  8
0
 62
7
100
AcDbPolyline
 90
3
 70
1
 10
644.948950
 20
268.835327
 30
0.0
 10
645.476194
 20
268.421186
 30
0.0
 10
644.948950
 20
268.835327
 30
0.0
  0
LWPOLYLINE
  5
108
100
AcDbEntity
  8
0
 62
7
100
AcDbPolyline
 90
3
 70
1
 10
645.476194
 20
268.421186
 30
0.0
 10
645.963752
 20
267.968211
 30
0.0
 10
645.476194
 20
268.421186
 30
0.0
  0
LWPOLYLINE
  5
109
100
AcDbEntity
  8
0
 62
7
100
AcDbPolyline
 90
3
 70
1
 10
645.963752
 20
267.968211
 30
0.0
 10
646.417294
 20
267.476401
 30
0.0
 10
645.963752
 20
267.968211
 30
0.0
  0
LWPOLYLINE
  5
10a
100
AcDbEntity
  8
0
 62
7
100
AcDbPolyline
 90
3
 70
1
 10
646.417294
 20
267.476401
 30
0.0
 10
646.831153
 20
266.953125
 30
0.0
 10
646.417294
 20
267.476401
 30
0.0
  0
LWPOLYLINE
  5
10b
100
AcDbEntity
  8
0
 62
7
100
AcDbPolyline
 90
3
 70
1
 10
646.831153
 20
266.953125
 30
0.0
 10
647.202490
 20
266.398385
 30
0.0
 10
646.831153
 20
266.953125
 30
0.0
  0
LWPOLYLINE
  5
10c
100
AcDbEntity
  8
0
 62
7
100
AcDbPolyline
 90
3
 70
1
 10
647.202490
 20
266.398385
 30
0.0
 10
647.531309
 20
265.812181
 30
0.0
 10
647.202490
 20
266.398385
 30
0.0
  0
LWPOLYLINE
  5
10d
100
AcDbEntity
  8
0
 62
7
100
AcDbPolyline
 90
3
 70
1
 10
647.531309
 20
265.812181
 30
0.0
 10
647.809104
 20
265.206135
 30
0.0
 10
647.531309
 20
265.812181
 30
0.0
  0
LWPOLYLINE
  5
10e
100
AcDbEntity
  8
0
 62
7
100
AcDbPolyline
 90
3
 70
1
 10
647.809104
 20
265.206135
 30
0.0
 10
648.038710
 20
264.581380
 30
0.0
 10
647.809104
 20
265.206135
 30
0.0
  0
LWPOLYLINE
  5
10f
100
AcDbEntity
  8
0
 62
7
100
AcDbPolyline
 90
3
 70
1
 10
648.038710
 20
264.581380
 30
0.0
 10
648.222962
 20
263.937349
 30
0.0
 10
648.038710
 20
264.581380
 30
0.0
  0
LWPOLYLINE
  5
110
100
AcDbEntity
  8
0
 62
7
100
AcDbPolyline
 90
3
 70
1
 10
648.222962
 20
263.937349
 30
0.0
 10
648.350520
 20
263.285381
 30
0.0
 10
648.222962
 20
263.937349
 30
0.0
  0
LWPOLYLINE
  5
111
100
AcDbEntity
  8
0
 62
7
100
AcDbPolyline
 90
3
 70
1
 10
648.350520
 20
263.285381
 30
0.0
 10
648.429890
 20
262.621225
 30
0.0
 10
648.350520
 20
263.285381
 30
0.0
  0
LWPOLYLINE
  5
112
100
AcDbEntity
  8
0
 62
7
100
AcDbPolyline
 90
3
 70
1
 10
648.429890
 20
262.621225
 30
0.0
 10
648.455402
 20
261.953383
 30
0.0
 10
648.429890
 20
262.621225
 30
0.0
  0
LWPOLYLINE
  5
113
100
AcDbEntity
  8
0
 62
7
100
AcDbPolyline
 90
3
 70
1
 10
648.455402
 20
261.953383
 30
0.0
 10
648.455402
 20
8.503891
 30
0.0
 10
648.455402
 20
261.953383
 30
0.0
  0
LWPOLYLINE
  5
114
100
AcDbEntity
  8
0
 62
7
100
AcDbPolyline
 90
3
 70
1
 10
648.455402
 20
8.503891
 30
0.0
 10
648.429890
 20
7.835936
 30
0.0
 10
648.455402
 20
8.503891
 30
0.0
  0
LWPOLYLINE
  5
115
100
AcDbEntity
  8
0
 62
7
100
AcDbPolyline
 90
3
 70
1
 10
648.429890
 20
7.835936
 30
0.0
 10
648.350520
 20
7.175776
 30
0.0
 10
648.429890
 20
7.835936
 30
0.0
  0
LWPOLYLINE
  5
116
100
AcDbEntity
  8
0
 62
7
100
AcDbPolyline
 90
3
 70
1
 10
648.350520
 20
7.175776
 30
0.0
 10
648.222962
 20
6.519528
 30
0.0
 10
648.350520
 20
7.175776
 30
0.0
  0
LWPOLYLINE
  5
117
100
AcDbEntity
  8
0
 62
7
100
AcDbPolyline
 90
3
 70
1
 10
648.222962
 20
6.519528
 30
0.0
 10
648.038710
 20
5.874987
 30
0.0
 10
648.222962
 20
6.519528
 30
0.0
  0
LWPOLYLINE
  5
118
100
AcDbEntity
  8
0
 62
7
100
AcDbPolyline
 90
3
 70
1
 10
648.038710
 20
5.874987
 30
0.0
 10
647.809104
 20
5.250005
 30
0.0
 10
648.038710
 20
5.874987
 30
0.0
  0
LWPOLYLINE
  5
119
100
AcDbEntity
  8
0
 62
7
100
AcDbPolyline
 90
3
 70
1
 10
647.809104
 20
5.250005
 30
0.0
 10
647.531309
 20
4.644525
 30
0.0
 10
647.809104
 20
5.250005
 30
0.0
  0
LWPOLYLINE
  5
11a
100
AcDbEntity
  8
0
 62
7
100
AcDbPolyline
 90
3
 70
1
 10
647.531309
 20
4.644525
 30
0.0
 10
647.202490
 20
4.062488
 30
0.0
 10
647.531309
 20
4.644525
 30
0.0
  0
LWPOLYLINE
  5
11b
100
AcDbEntity
  8
0
 62
7
100
AcDbPolyline
 90
3
 70
1
 10
647.202490
 20
4.062488
 30
0.0
 10
646.831153
 20
3.507805
 30
0.0
 10
647.202490
 20
4.062488
 30
0.0
  0
LWPOLYLINE
  5
11c
100
AcDbEntity
  8
0
 62
7
100
AcDbPolyline
 90
3
 70
1
 10
646.831153
 20
3.507805
 30
0.0
 10
646.417294
 20
2.980476
 30
0.0
 10
646.831153
 20
3.507805
 30
0.0
  0
LWPOLYLINE
  5
11d
100
AcDbEntity
  8
0
 62
7
100
AcDbPolyline
 90
3
 70
1
 10
646.417294
 20
2.980476
 30
0.0
 10
645.963752
 20
2.492189
 30
0.0
 10
646.417294
 20
2.980476
 30
0.0
  0
LWPOLYLINE
  5
11e
100
AcDbEntity
  8
0
 62
7
100
AcDbPolyline
 90
3
 70
1
 10
645.963752
 20
2.492189
 30
0.0
 10
645.476194
 20
2.039061
 30
0.0
 10
645.963752
 20
2.492189
 30
0.0
  0
LWPOLYLINE
  5
11f
100
AcDbEntity
  8
0
 62
7
100
AcDbPolyline
 90
3
 70
1
 10
645.476194
 20
2.039061
 30
0.0
 10
644.948950
 20
1.624999
 30
0.0
 10
645.476194
 20
2.039061
 30
0.0
  0
LWPOLYLINE
  5
120
100
AcDbEntity
  8
0
 62
7
100
AcDbPolyline
 90
3
 70
1
 10
644.948950
 20
1.624999
 30
0.0
 10
644.393359
 20
1.253901
 30
0.0
 10
644.948950
 20
1.624999
 30
0.0
  0
LWPOLYLINE
  5
121
100
AcDbEntity
  8
0
 62
7
100
AcDbPolyline
 90
3
 70
1
 10
644.393359
 20
1.253901
 30
0.0
 10
643.812258
 20
0.925781
 30
0.0
 10
644.393359
 20
1.253901
 30
0.0
  0
LWPOLYLINE
  5
122
100
AcDbEntity
  8
0
 62
7
100
AcDbPolyline
 90
3
 70
1
 10
643.812258
 20
0.925781
 30
0.0
 10
643.205644
 20
0.648436
 30
0.0
 10
643.812258
 20
0.925781
 30
0.0
  0
LWPOLYLINE
  5
123
100
AcDbEntity
  8
0
 62
7
100
AcDbPolyline
 90
3
 70
1
 10
643.205644
 20
0.648436
 30
0.0
 10
642.582023
 20
0.417968
 30
0.0
 10
643.205644
 20
0.648436
 30
0.0
  0
LWPOLYLINE
  5
124
100
AcDbEntity
  8
0
 62
7
100
AcDbPolyline
 90
3
 70
1
 10
642.582023
 20
0.417968
 30
0.0
 10
641.935725
 20
0.234375
 30
0.0
 10
642.582023
 20
0.417968
 30
0.0
  0
LWPOLYLINE
  5
125
100
AcDbEntity
  8
0
 62
7
100
AcDbPolyline
 90
3
 70
1
 10
641.935725
 20
0.234375
 30
0.0
 10
641.280922
 20
0.105469
 30
0.0
 10
641.935725
 20
0.234375
 30
0.0
  0
LWPOLYLINE
  5
126
100
AcDbEntity
  8
0
 62
7
100
AcDbPolyline
 90
3
 70
1
 10
641.280922
 20
0.105469
 30
0.0
 10
640.620451
 20
0.027343
 30
0.0
 10
641.280922
 20
0.105469
 30
0.0
  0
LWPOLYLINE
  5
127
100
AcDbEntity
  8
0
 62
7
100
AcDbPolyline
 90
3
 70
1
 10
640.620451
 20
0.027343
 30
0.0
 10
639.951475
 20
0.000000
 30
0.0
 10
640.620451
 20
0.027343
 30
0.0
  0
LWPOLYLINE
  5
128
100
AcDbEntity
  8
0
 62
7
100
AcDbPolyline
 90
3
 70
1
 10
639.951475
 20
0.000000
 30
0.0
 10
8.503886
 20
0.000000
 30
0.0
 10
639.951475
 20
0.000000
 30
0.0
  0
LWPOLYLINE
  5
129
100
AcDbEntity
  8
0
 62
7
100
AcDbPolyline
 90
3
 70
1
 10
8.503886
 20
0.000000
 30
0.0
 10
7.835931
 20
0.027343
 30
0.0
 10
8.503886
 20
0.000000
 30
0.0
  0
LWPOLYLINE
  5
12a
100
AcDbEntity
  8
0
 62
7
100
AcDbPolyline
 90
3
 70
1
 10
7.835931
 20
0.027343
 30
0.0
 10
7.171859
 20
0.105469
 30
0.0
 10
7.835931
 20
0.027343
 30
0.0
  0
LWPOLYLINE
  5
12b
100
AcDbEntity
  8
0
 62
7
100
AcDbPolyline
 90
3
 70
1
 10
7.171859
 20
0.105469
 30
0.0
 10
6.519523
 20
0.234375
 30
0.0
 10
7.171859
 20
0.105469
 30
0.0
  0
LWPOLYLINE
  5
12c
100
AcDbEntity
  8
0
 62
7
100
AcDbPolyline
 90
3
 70
1
 10
6.519523
 20
0.234375
 30
0.0
 10
5.874982
 20
0.417968
 30
0.0
 10
6.519523
 20
0.234375
 30
0.0
  0
LWPOLYLINE
  5
12d
100
AcDbEntity
  8
0
 62
7
100
AcDbPolyline
 90
3
 70
1
 10
5.874982
 20
0.417968
 30
0.0
 10
5.250000
 20
0.648436
 30
0.0
 10
5.874982
 20
0.417968
 30
0.0
  0
LWPOLYLINE
  5
12e
100
AcDbEntity
  8
0
 62
7
100
AcDbPolyline
 90
3
 70
1
 10
5.250000
 20
0.648436
 30
0.0
 10
4.644520
 20
0.925781
 30
0.0
 10
5.250000
 20
0.648436
 30
0.0
  0
LWPOLYLINE
  5
12f
100
AcDbEntity
  8
0
 62
7
100
AcDbPolyline
 90
3
 70
1
 10
4.644520
 20
0.925781
 30
0.0
 10
4.058600
 20
1.253901
 30
0.0
 10
4.644520
 20
0.925781
 30
0.0
  0
LWPOLYLINE
  5
130
100
AcDbEntity
  8
0
 62
7
100
AcDbPolyline
 90
3
 70
1
 10
4.058600
 20
1.253901
 30
0.0
 10
3.503917
 20
1.624999
 30
0.0
 10
4.058600
 20
1.253901
 30
0.0
  0
LWPOLYLINE
  5
131
100
AcDbEntity
  8
0
 62
7
100
AcDbPolyline
 90
3
 70
1
 10
3.503917
 20
1.624999
 30
0.0
 10
2.980471
 20
2.039061
 30
0.0
 10
3.503917
 20
1.624999
 30
0.0
  0
LWPOLYLINE
  5
132
100
AcDbEntity
  8
0
 62
7
100
AcDbPolyline
 90
3
 70
1
 10
2.980471
 20
2.039061
 30
0.0
 10
2.488276
 20
2.492189
 30
0.0
 10
2.980471
 20
2.039061
 30
0.0
  0
LWPOLYLINE
  5
133
100
AcDbEntity
  8
0
 62
7
100
AcDbPolyline
 90
3
 70
1
 10
2.488276
 20
2.492189
 30
0.0
 10
2.035155
 20
2.980476
 30
0.0
 10
2.488276
 20
2.492189
 30
0.0
  0
LWPOLYLINE
  5
134
100
AcDbEntity
  8
0
 62
7
100
AcDbPolyline
 90
3
 70
1
 10
2.035155
 20
2.980476
 30
0.0
 10
1.621097
 20
3.507805
 30
0.0
 10
2.035155
 20
2.980476
 30
0.0
  0
LWPOLYLINE
  5
135
100
AcDbEntity
  8
0
 62
7
100
AcDbPolyline
 90
3
 70
1
 10
1.621097
 20
3.507805
 30
0.0
 10
1.253908
 20
4.062488
 30
0.0
 10
1.621097
 20
3.507805
 30
0.0
  0
LWPOLYLINE
  5
136
100
AcDbEntity
  8
0
 62
7
100
AcDbPolyline
 90
3
 70
1
 10
1.253908
 20
4.062488
 30
0.0
 10
0.925779
 20
4.644525
 30
0.0
 10
1.253908
 20
4.062488
 30
0.0
  0
LWPOLYLINE
  5
137
100
AcDbEntity
  8
0
 62
7
100
AcDbPolyline
 90
3
 70
1
 10
0.925779
 20
4.644525
 30
0.0
 10
0.648437
 20
5.250005
 30
0.0
 10
0.925779
 20
4.644525
 30
0.0
  0
LWPOLYLINE
  5
138
100
AcDbEntity
  8
0
 62
7
100
AcDbPolyline
 90
3
 70
1
 10
0.648437
 20
5.250005
 30
0.0
 10
0.414063
 20
5.874987
 30
0.0
 10
0.648437
 20
5.250005
 30
0.0
  0
LWPOLYLINE
  5
139
100
AcDbEntity
  8
0
 62
7
100
AcDbPolyline
 90
3
 70
1
 10
0.414063
 20
5.874987
 30
0.0
 10
0.234375
 20
6.519528
 30
0.0
 10
0.414063
 20
5.874987
 30
0.0
  0
LWPOLYLINE
  5
13a
100
AcDbEntity
  8
0
 62
7
100
AcDbPolyline
 90
3
 70
1
 10
0.234375
 20
6.519528
 30
0.0
 10
0.101564
 20
7.175776
 30
0.0
 10
0.234375
 20
6.519528
 30
0.0
  0
LWPOLYLINE
  5
13b
100
AcDbEntity
  8
0
 62
7
100
AcDbPolyline
 90
3
 70
1
 10
0.101564
 20
7.175776
 30
0.0
 10
0.027344
 20
7.835936
 30
0.0
 10
0.101564
 20
7.175776
 30
0.0
  0
LWPOLYLINE
  5
13c
100
AcDbEntity
  8
0
 62
7
100
AcDbPolyline
 90
3
 70
1
 10
0.027344
 20
7.835936
 30
0.0
 10
0.000000
 20
8.507803
 30
0.0
 10
0.027344
 20
7.835936
 30
0.0
  0
LWPOLYLINE
  5
13d
100
AcDbEntity
  8
0
 62
7
100
AcDbPolyline
 90
3
 70
1
 10
0.000000
 20
8.507803
 30
0.0
 10
0.000000
 20
261.953383
 30
0.0
 10
0.000000
 20
8.507803
 30
0.0
  0
LWPOLYLINE
  5
13e
100
AcDbEntity
  8
0
 62
7
100
AcDbPolyline
 90
3
 70
1
 10
0.000000
 20
261.953383
 30
0.0
 10
0.027344
 20
262.621225
 30
0.0
 10
0.000000
 20
261.953383
 30
0.0
  0
LWPOLYLINE
  5
13f
100
AcDbEntity
  8
0
 62
7
100
AcDbPolyline
 90
3
 70
1
 10
0.027344
 20
262.621225
 30
0.0
 10
0.101564
 20
263.285381
 30
0.0
 10
0.027344
 20
262.621225
 30
0.0
  0
LWPOLYLINE
  5
140
100
AcDbEntity
  8
0
 62
7
100
AcDbPolyline
 90
3
 70
1
 10
0.101564
 20
263.285381
 30
0.0
 10
0.234375
 20
263.937349
 30
0.0
 10
0.101564
 20
263.285381
 30
0.0
  0
LWPOLYLINE
  5
141
100
AcDbEntity
  8
0
 62
7
100
AcDbPolyline
 90
3
 70
1
 10
0.234375
 20
263.937349
 30
0.0
 10
0.414063
 20
264.581380
 30
0.0
 10
0.234375
 20
263.937349
 30
0.0
  0
LWPOLYLINE
  5
142
100
AcDbEntity
  8
0
 62
7
100
AcDbPolyline
 90
3
 70
1
 10
0.414063
 20
264.581380
 30
0.0
 10
0.648437
 20
265.206135
 30
0.0
 10
0.414063
 20
264.581380
 30
0.0
  0
LWPOLYLINE
  5
143
100
AcDbEntity
  8
0
 62
7
100
AcDbPolyline
 90
3
 70
1
 10
0.648437
 20
265.206135
 30
0.0
 10
0.925779
 20
265.812181
 30
0.0
 10
0.648437
 20
265.206135
 30
0.0
  0
LWPOLYLINE
  5
144
100
AcDbEntity
  8
0
 62
7
100
AcDbPolyline
 90
3
 70
1
 10
0.925779
 20
265.812181
 30
0.0
 10
1.253908
 20
266.398385
 30
0.0
 10
0.925779
 20
265.812181
 30
0.0
  0
LWPOLYLINE
  5
145
100
AcDbEntity
  8
0
 62
7
100
AcDbPolyline
 90
3
 70
1
 10
1.253908
 20
266.398385
 30
0.0
 10
1.621097
 20
266.953125
 30
0.0
 10
1.253908
 20
266.398385
 30
0.0
  0
LWPOLYLINE
  5
146
100
AcDbEntity
  8
0
 62
7
100
AcDbPolyline
 90
3
 70
1
 10
1.621097
 20
266.953125
 30
0.0
 10
2.035155
 20
267.476401
 30
0.0
 10
1.621097
 20
266.953125
 30
0.0
  0
LWPOLYLINE
  5
147
100
AcDbEntity
  8
0
 62
7
100
AcDbPolyline
 90
3
 70
1
 10
2.035155
 20
267.476401
 30
0.0
 10
2.488276
 20
267.968211
 30
0.0
 10
2.035155
 20
267.476401
 30
0.0
  0
LWPOLYLINE
  5
148
100
AcDbEntity
  8
0
 62
7
100
AcDbPolyline
 90
3
 70
1
 10
2.488276
 20
267.968211
 30
0.0
 10
2.980471
 20
268.421186
 30
0.0
 10
2.488276
 20
267.968211
 30
0.0
  0
LWPOLYLINE
  5
149
100
AcDbEntity
  8
0
 62
7
100
AcDbPolyline
 90
3
 70
1
 10
2.980471
 20
268.421186
 30
0.0
 10
3.503917
 20
268.835327
 30
0.0
 10
2.980471
 20
268.421186
 30
0.0
  0
LWPOLYLINE
  5
14a
100
AcDbEntity
  8
0
 62
7
100
AcDbPolyline
 90
3
 70
1
 10
3.503917
 20
268.835327
 30
0.0
 10
4.058600
 20
269.203264
 30
0.0
 10
3.503917
 20
268.835327
 30
0.0
  0
LWPOLYLINE
  5
14b
100
AcDbEntity
  8
0
 62
7
100
AcDbPolyline
 90
3
 70
1
 10
4.058600
 20
269.203264
 30
0.0
 10
4.644520
 20
269.531232
 30
0.0
 10
4.058600
 20
269.203264
 30
0.0
  0
LWPOLYLINE
  5
14c
100
AcDbEntity
  8
0
 62
7
100
AcDbPolyline
 90
3
 70
1
 10
4.644520
 20
269.531232
 30
0.0
 10
5.250000
 20
269.808177
 30
0.0
 10
4.644520
 20
269.531232
 30
0.0
  0
LWPOLYLINE
  5
14d
100
AcDbEntity
  8
0
 62
7
100
AcDbPolyline
 90
3
 70
1
 10
5.250000
 20
269.808177
 30
0.0
 10
5.874982
 20
270.042319
 30
0.0
 10
5.250000
 20
269.808177
 30
0.0
  0
LWPOLYLINE
  5
14e
100
AcDbEntity
  8
0
 62
7
100
AcDbPolyline
 90
3
 70
1
 10
5.874982
 20
270.042319
 30
0.0
 10
6.519523
 20
270.222318
 30
0.0
 10
5.874982
 20
270.042319
 30
0.0
  0
LWPOLYLINE
  5
14f
100
AcDbEntity
  8
0
 62
7
100
AcDbPolyline
 90
3
 70
1
 10
6.519523
 20
270.222318
 30
0.0
 10
7.171859
 20
270.355263
 30
0.0
 10
6.519523
 20
270.222318
 30
0.0
  0
LWPOLYLINE
  5
150
100
AcDbEntity
  8
0
 62
7
100
AcDbPolyline
 90
3
 70
1
 10
7.171859
 20
270.355263
 30
0.0
 10
7.835931
 20
270.429247
 30
0.0
 10
7.171859
 20
270.355263
 30
0.0
  0
LWPOLYLINE
  5
151
100
AcDbEntity
  8
0
 62
7
100
AcDbPolyline
 90
3
 70
1
 10
7.835931
 20
270.429247
 30
0.0
 10
8.503886
 20
270.456176
 30
0.0
 10
7.835931
 20
270.429247
 30
0.0
  0
LWPOLYLINE
  5
152
100
AcDbEntity
  8
0
 62
7
100
AcDbPolyline
 90
3
 70
1
 10
12.253862
 20
18.238251
 30
0.0
 10
10.929659
 20
17.562444
 30
0.0
 10
12.253862
 20
18.238251
 30
0.0
  0
LWPOLYLINE
  5
153
100
AcDbEntity
  8
0
 62
7
100
AcDbPolyline
 90
3
 70
1
 10
10.929659
 20
17.562444
 30
0.0
 10
9.878858
 20
16.511756
 30
0.0
 10
10.929659
 20
17.562444
 30
0.0
  0
LWPOLYLINE
  5
154
100
AcDbEntity
  8
0
 62
7
100
AcDbPolyline
 90
3
 70
1
 10
9.878858
 20
16.511756
 30
0.0
 10
9.203107
 20
15.187439
 30
0.0
 10
9.878858
 20
16.511756
 30
0.0
  0
LWPOLYLINE
  5
155
100
AcDbEntity
  8
0
 62
7
100
AcDbPolyline
 90
3
 70
1
 10
9.203107
 20
15.187439
 30
0.0
 10
8.968739
 20
13.722638
 30
0.0
 10
9.203107
 20
15.187439
 30
0.0
  0
LWPOLYLINE
  5
156
100
AcDbEntity
  8
0
 62
7
100
AcDbPolyline
 90
3
 70
1
 10
8.968739
 20
13.722638
 30
0.0
 10
9.203107
 20
12.253839
 30
0.0
 10
8.968739
 20
13.722638
 30
0.0
  0
LWPOLYLINE
  5
157
100
AcDbEntity
  8
0
 62
7
100
AcDbPolyline
 90
3
 70
1
 10
9.203107
 20
12.253839
 30
0.0
 10
9.878858
 20
10.929636
 30
0.0
 10
9.203107
 20
12.253839
 30
0.0
  0
LWPOLYLINE
  5
158
100
AcDbEntity
  8
0
 62
7
100
AcDbPolyline
 90
3
 70
1
 10
9.878858
 20
10.929636
 30
0.0
 10
10.929659
 20
9.878863
 30
0.0
 10
9.878858
 20
10.929636
 30
0.0
  0
LWPOLYLINE
  5
159
100
AcDbEntity
  8
0
 62
7
100
AcDbPolyline
 90
3
 70
1
 10
10.929659
 20
9.878863
 30
0.0
 10
12.253862
 20
9.203112
 30
0.0
 10
10.929659
 20
9.878863
 30
0.0
  0
LWPOLYLINE
  5
15a
100
AcDbEntity
  8
0
 62
7
100
AcDbPolyline
 90
3
 70
1
 10
12.253862
 20
9.203112
 30
0.0
 10
13.722661
 20
8.972655
 30
0.0
 10
12.253862
 20
9.203112
 30
0.0
  0
LWPOLYLINE
  5
15b
100
AcDbEntity
  8
0
 62
7
100
AcDbPolyline
 90
3
 70
1
 10
13.722661
 20
8.972655
 30
0.0
 10
15.187463
 20
9.203112
 30
0.0
 10
13.722661
 20
8.972655
 30
0.0
  0
LWPOLYLINE
  5
15c
100
AcDbEntity
  8
0
 62
7
100
AcDbPolyline
 90
3
 70
1
 10
15.187463
 20
9.203112
 30
0.0
 10
16.511751
 20
9.878863
 30
0.0
 10
15.187463
 20
9.203112
 30
0.0
  0
LWPOLYLINE
  5
15d
100
AcDbEntity
  8
0
 62
7
100
AcDbPolyline
 90
3
 70
1
 10
16.511751
 20
9.878863
 30
0.0
 10
17.562439
 20
10.929636
 30
0.0
 10
16.511751
 20
9.878863
 30
0.0
  0
LWPOLYLINE
  5
15e
100
AcDbEntity
  8
0
 62
7
100
AcDbPolyline
 90
3
 70
1
 10
17.562439
 20
10.929636
 30
0.0
 10
18.238246
 20
12.253839
 30
0.0
 10
17.562439
 20
10.929636
 30
0.0
  0
LWPOLYLINE
  5
15f
100
AcDbEntity
  8
0
 62
7
100
AcDbPolyline
 90
3
 70
1
 10
18.238246
 20
12.253839
 30
0.0
 10
18.468760
 20
13.722638
 30
0.0
 10
18.238246
 20
12.253839
 30
0.0
  0
LWPOLYLINE
  5
160
100
AcDbEntity
  8
0
 62
7
100
AcDbPolyline
 90
3
 70
1
 10
18.468760
 20
13.722638
 30
0.0
 10
18.238246
 20
15.187439
 30
0.0
 10
18.468760
 20
13.722638
 30
0.0
  0
LWPOLYLINE
  5
161
100
AcDbEntity
  8
0
 62
7
100
AcDbPolyline
 90
3
 70
1
 10
18.238246
 20
15.187439
 30
0.0
 10
17.562439
 20
16.511756
 30
0.0
 10
18.238246
 20
15.187439
 30
0.0
  0
LWPOLYLINE
  5
162
100
AcDbEntity
  8
0
 62
7
100
AcDbPolyline
 90
3
 70
1
 10
17.562439
 20
16.511756
 30
0.0
 10
16.511751
 20
17.562444
 30
0.0
 10
17.562439
 20
16.511756
 30
0.0
  0
LWPOLYLINE
  5
163
100
AcDbEntity
  8
0
 62
7
100
AcDbPolyline
 90
3
 70
1
 10
16.511751
 20
17.562444
 30
0.0
 10
15.187463
 20
18.238251
 30
0.0
 10
16.511751
 20
17.562444
 30
0.0
  0
LWPOLYLINE
  5
164
100
AcDbEntity
  8
0
 62
7
100
AcDbPolyline
 90
3
 70
1
 10
15.187463
 20
18.238251
 30
0.0
 10
13.722661
 20
18.468736
 30
0.0
 10
15.187463
 20
18.238251
 30
0.0
  0
LWPOLYLINE
  5
165
100
AcDbEntity
  8
0
 62
7
100
AcDbPolyline
 90
3
 70
1
 10
13.722661
 20
18.468736
 30
0.0
 10
12.253862
 20
18.238251
 30
0.0
 10
13.722661
 20
18.468736
 30
0.0
  0
LWPOLYLINE
  5
166
100
AcDbEntity
  8
0
 62
7
100
AcDbPolyline
 90
3
 70
1
 10
219.257086
 20
18.238251
 30
0.0
 10
217.933308
 20
17.562444
 30
0.0
 10
219.257086
 20
18.238251
 30
0.0
  0
LWPOLYLINE
  5
167
100
AcDbEntity
  8
0
 62
7
100
AcDbPolyline
 90
3
 70
1
 10
217.933308
 20
17.562444
 30
0.0
 10
216.882223
 20
16.511756
 30
0.0
 10
217.933308
 20
17.562444
 30
0.0
  0
LWPOLYLINE
  5
168
100
AcDbEntity
  8
0
 62
7
100
AcDbPolyline
 90
3
 70
1
 10
216.882223
 20
16.511756
 30
0.0
 10
216.207295
 20
15.187439
 30
0.0
 10
216.882223
 20
16.511756
 30
0.0
  0
LWPOLYLINE
  5
169
100
AcDbEntity
  8
0
 62
7
100
AcDbPolyline
 90
3
 70
1
 10
216.207295
 20
15.187439
 30
0.0
 10
215.976271
 20
13.722638
 30
0.0
 10
216.207295
 20
15.187439
 30
0.0
  0
LWPOLYLINE
  5
16a
100
AcDbEntity
  8
0
 62
7
100
AcDbPolyline
 90
3
 70
1
 10
215.976271
 20
13.722638
 30
0.0
 10
216.207295
 20
12.253839
 30
0.0
 10
215.976271
 20
13.722638
 30
0.0
  0
LWPOLYLINE
  5
16b
100
AcDbEntity
  8
0
 62
7
100
AcDbPolyline
 90
3
 70
1
 10
216.207295
 20
12.253839
 30
0.0
 10
216.882223
 20
10.929636
 30
0.0
 10
216.207295
 20
12.253839
 30
0.0
  0
LWPOLYLINE
  5
16c
100
AcDbEntity
  8
0
 62
7
100
AcDbPolyline
 90
3
 70
1
 10
216.882223
 20
10.929636
 30
0.0
 10
217.933308
 20
9.878863
 30
0.0
 10
216.882223
 20
10.929636
 30
0.0
  0
LWPOLYLINE
  5
16d
100
AcDbEntity
  8
0
 62
7
100
AcDbPolyline
 90
3
 70
1
 10
217.933308
 20
9.878863
 30
0.0
 10
219.257086
 20
9.203112
 30
0.0
 10
217.933308
 20
9.878863
 30
0.0
  0
LWPOLYLINE
  5
16e
100
AcDbEntity
  8
0
 62
7
100
AcDbPolyline
 90
3
 70
1
 10
219.257086
 20
9.203112
 30
0.0
 10
220.726282
 20
8.972655
 30
0.0
 10
219.257086
 20
9.203112
 30
0.0
  0
LWPOLYLINE
  5
16f
100
AcDbEntity
  8
0
 62
7
100
AcDbPolyline
 90
3
 70
1
 10
220.726282
 20
8.972655
 30
0.0
 10
222.191225
 20
9.203112
 30
0.0
 10
220.726282
 20
8.972655
 30
0.0
  0
LWPOLYLINE
  5
170
100
AcDbEntity
  8
0
 62
7
100
AcDbPolyline
 90
3
 70
1
 10
222.191225
 20
9.203112
 30
0.0
 10
223.515287
 20
9.878863
 30
0.0
 10
222.191225
 20
9.203112
 30
0.0
  0
LWPOLYLINE
  5
171
100
AcDbEntity
  8
0
 62
7
100
AcDbPolyline
 90
3
 70
1
 10
223.515287
 20
9.878863
 30
0.0
 10
224.566088
 20
10.929636
 30
0.0
 10
223.515287
 20
9.878863
 30
0.0
  0
LWPOLYLINE
  5
172
100
AcDbEntity
  8
0
 62
7
100
AcDbPolyline
 90
3
 70
1
 10
224.566088
 20
10.929636
 30
0.0
 10
225.242150
 20
12.253839
 30
0.0
 10
224.566088
 20
10.929636
 30
0.0
  0
LWPOLYLINE
  5
173
100
AcDbEntity
  8
0
 62
7
100
AcDbPolyline
 90
3
 70
1
 10
225.242150
 20
12.253839
 30
0.0
 10
225.472324
 20
13.722638
 30
0.0
 10
225.242150
 20
12.253839
 30
0.0
  0
LWPOLYLINE
  5
174
100
AcDbEntity
  8
0
 62
7
100
AcDbPolyline
 90
3
 70
1
 10
225.472324
 20
13.722638
 30
0.0
 10
225.242150
 20
15.187439
 30
0.0
 10
225.472324
 20
13.722638
 30
0.0
  0
LWPOLYLINE
  5
175
100
AcDbEntity
  8
0
 62
7
100
AcDbPolyline
 90
3
 70
1
 10
225.242150
 20
15.187439
 30
0.0
 10
224.566088
 20
16.511756
 30
0.0
 10
225.242150
 20
15.187439
 30
0.0
  0
LWPOLYLINE
  5
176
100
AcDbEntity
  8
0
 62
7
100
AcDbPolyline
 90
3
 70
1
 10
224.566088
 20
16.511756
 30
0.0
 10
223.515287
 20
17.562444
 30
0.0
 10
224.566088
 20
16.511756
 30
0.0
  0
LWPOLYLINE
  5
177
100
AcDbEntity
  8
0
 62
7
100
AcDbPolyline
 90
3
 70
1
 10
223.515287
 20
17.562444
 30
0.0
 10
222.191225
 20
18.238251
 30
0.0
 10
223.515287
 20
17.562444
 30
0.0
  0
LWPOLYLINE
  5
178
100
AcDbEntity
  8
0
 62
7
100
AcDbPolyline
 90
3
 70
1
 10
222.191225
 20
18.238251
 30
0.0
 10
220.726282
 20
18.468736
 30
0.0
 10
222.191225
 20
18.238251
 30
0.0
  0
LWPOLYLINE
  5
179
100
AcDbEntity
  8
0
 62
7
100
AcDbPolyline
 90
3
 70
1
 10
220.726282
 20
18.468736
 30
0.0
 10
219.257086
 20
18.238251
 30
0.0
 10
220.726282
 20
18.468736
 30
0.0
  0
LWPOLYLINE
  5
17a
100
AcDbEntity
  8
0
 62
7
100
AcDbPolyline
 90
3
 70
1
 10
426.264789
 20
18.238251
 30
0.0
 10
424.941011
 20
17.562444
 30
0.0
 10
426.264789
 20
18.238251
 30
0.0
  0
LWPOLYLINE
  5
17b
100
AcDbEntity
  8
0
 62
7
100
AcDbPolyline
 90
3
 70
1
 10
424.941011
 20
17.562444
 30
0.0
 10
423.886523
 20
16.511756
 30
0.0
 10
424.941011
 20
17.562444
 30
0.0
  0
LWPOLYLINE
  5
17c
100
AcDbEntity
  8
0
 62
7
100
AcDbPolyline
 90
3
 70
1
 10
423.886523
 20
16.511756
 30
0.0
 10
423.214713
 20
15.187439
 30
0.0
 10
423.886523
 20
16.511756
 30
0.0
  0
LWPOLYLINE
  5
17d
100
AcDbEntity
  8
0
 62
7
100
AcDbPolyline
 90
3
 70
1
 10
423.214713
 20
15.187439
 30
0.0
 10
422.985107
 20
13.722638
 30
0.0
 10
423.214713
 20
15.187439
 30
0.0
  0
LWPOLYLINE
  5
17e
100
AcDbEntity
  8
0
 62
7
100
AcDbPolyline
 90
3
 70
1
 10
422.985107
 20
13.722638
 30
0.0
 10
423.214713
 20
12.253839
 30
0.0
 10
422.985107
 20
13.722638
 30
0.0
  0
LWPOLYLINE
  5
17f
100
AcDbEntity
  8
0
 62
7
100
AcDbPolyline
 90
3
 70
1
 10
423.214713
 20
12.253839
 30
0.0
 10
423.886523
 20
10.929636
 30
0.0
 10
423.214713
 20
12.253839
 30
0.0
  0
LWPOLYLINE
  5
180
100
AcDbEntity
  8
0
 62
7
100
AcDbPolyline
 90
3
 70
1
 10
423.886523
 20
10.929636
 30
0.0
 10
424.941011
 20
9.878863
 30
0.0
 10
423.886523
 20
10.929636
 30
0.0
  0
LWPOLYLINE
  5
181
100
AcDbEntity
  8
0
 62
7
100
AcDbPolyline
 90
3
 70
1
 10
424.941011
 20
9.878863
 30
0.0
 10
426.264789
 20
9.203112
 30
0.0
 10
424.941011
 20
9.878863
 30
0.0
  0
LWPOLYLINE
  5
182
100
AcDbEntity
  8
0
 62
7
100
AcDbPolyline
 90
3
 70
1
 10
426.264789
 20
9.203112
 30
0.0
 10
427.730298
 20
8.972655
 30
0.0
 10
426.264789
 20
9.203112
 30
0.0
  0
LWPOLYLINE
  5
183
100
AcDbEntity
  8
0
 62
7
100
AcDbPolyline
 90
3
 70
1
 10
427.730298
 20
8.972655
 30
0.0
 10
429.198643
 20
9.203112
 30
0.0
 10
427.730298
 20
8.972655
 30
0.0
  0
LWPOLYLINE
  5
184
100
AcDbEntity
  8
0
 62
7
100
AcDbPolyline
 90
3
 70
1
 10
429.198643
 20
9.203112
 30
0.0
 10
430.519587
 20
9.878863
 30
0.0
 10
429.198643
 20
9.203112
 30
0.0
  0
LWPOLYLINE
  5
185
100
AcDbEntity
  8
0
 62
7
100
AcDbPolyline
 90
3
 70
1
 10
430.519587
 20
9.878863
 30
0.0
 10
431.574074
 20
10.929636
 30
0.0
 10
430.519587
 20
9.878863
 30
0.0
  0
LWPOLYLINE
  5
186
100
AcDbEntity
  8
0
 62
7
100
AcDbPolyline
 90
3
 70
1
 10
431.574074
 20
10.929636
 30
0.0
 10
432.245884
 20
12.253839
 30
0.0
 10
431.574074
 20
10.929636
 30
0.0
  0
LWPOLYLINE
  5
187
100
AcDbEntity
  8
0
 62
7
100
AcDbPolyline
 90
3
 70
1
 10
432.245884
 20
12.253839
 30
0.0
 10
432.481159
 20
13.722638
 30
0.0
 10
432.245884
 20
12.253839
 30
0.0
  0
LWPOLYLINE
  5
188
100
AcDbEntity
  8
0
 62
7
100
AcDbPolyline
 90
3
 70
1
 10
432.481159
 20
13.722638
 30
0.0
 10
432.245884
 20
15.187439
 30
0.0
 10
432.481159
 20
13.722638
 30
0.0
  0
LWPOLYLINE
  5
189
100
AcDbEntity
  8
0
 62
7
100
AcDbPolyline
 90
3
 70
1
 10
432.245884
 20
15.187439
 30
0.0
 10
431.574074
 20
16.511756
 30
0.0
 10
432.245884
 20
15.187439
 30
0.0
  0
LWPOLYLINE
  5
18a
100
AcDbEntity
  8
0
 62
7
100
AcDbPolyline
 90
3
 70
1
 10
431.574074
 20
16.511756
 30
0.0
 10
430.519587
 20
17.562444
 30
0.0
 10
431.574074
 20
16.511756
 30
0.0
  0
LWPOLYLINE
  5
18b
100
AcDbEntity
  8
0
 62
7
100
AcDbPolyline
 90
3
 70
1
 10
430.519587
 20
17.562444
 30
0.0
 10
429.198643
 20
18.238251
 30
0.0
 10
430.519587
 20
17.562444
 30
0.0
  0
LWPOLYLINE
  5
18c
100
AcDbEntity
  8
0
 62
7
100
AcDbPolyline
 90
3
 70
1
 10
429.198643
 20
18.238251
 30
0.0
 10
427.730298
 20
18.468736
 30
0.0
 10
429.198643
 20
18.238251
 30
0.0
  0
LWPOLYLINE
  5
18d
100
AcDbEntity
  8
0
 62
7
100
AcDbPolyline
 90
3
 70
1
 10
427.730298
 20
18.468736
 30
0.0
 10
426.264789
 20
18.238251
 30
0.0
 10
427.730298
 20
18.468736
 30
0.0
  0
LWPOLYLINE
  5
18e
100
AcDbEntity
  8
0
 62
7
100
AcDbPolyline
 90
3
 70
1
 10
633.267388
 20
18.238251
 30
0.0
 10
631.943610
 20
17.562444
 30
0.0
 10
633.267388
 20
18.238251
 30
0.0
  0
LWPOLYLINE
  5
18f
100
AcDbEntity
  8
0
 62
7
100
AcDbPolyline
 90
3
 70
1
 10
631.943610
 20
17.562444
 30
0.0
 10
630.894793
 20
16.511756
 30
0.0
 10
631.943610
 20
17.562444
 30
0.0
  0
LWPOLYLINE
  5
190
100
AcDbEntity
  8
0
 62
7
100
AcDbPolyline
 90
3
 70
1
 10
630.894793
 20
16.511756
 30
0.0
 10
630.217313
 20
15.187439
 30
0.0
 10
630.894793
 20
16.511756
 30
0.0
  0
LWPOLYLINE
  5
191
100
AcDbEntity
  8
0
 62
7
100
AcDbPolyline
 90
3
 70
1
 10
630.217313
 20
15.187439
 30
0.0
 10
629.987707
 20
13.722638
 30
0.0
 10
630.217313
 20
15.187439
 30
0.0
  0
LWPOLYLINE
  5
192
100
AcDbEntity
  8
0
 62
7
100
AcDbPolyline
 90
3
 70
1
 10
629.987707
 20
13.722638
 30
0.0
 10
630.217313
 20
12.253839
 30
0.0
 10
629.987707
 20
13.722638
 30
0.0
  0
LWPOLYLINE
  5
193
100
AcDbEntity
  8
0
 62
7
100
AcDbPolyline
 90
3
 70
1
 10
630.217313
 20
12.253839
 30
0.0
 10
630.894793
 20
10.929636
 30
0.0
 10
630.217313
 20
12.253839
 30
0.0
  0
LWPOLYLINE
  5
194
100
AcDbEntity
  8
0
 62
7
100
AcDbPolyline
 90
3
 70
1
 10
630.894793
 20
10.929636
 30
0.0
 10
631.943610
 20
9.878863
 30
0.0
 10
630.894793
 20
10.929636
 30
0.0
  0
LWPOLYLINE
  5
195
100
AcDbEntity
  8
0
 62
7
100
AcDbPolyline
 90
3
 70
1
 10
631.943610
 20
9.878863
 30
0.0
 10
633.267388
 20
9.203112
 30
0.0
 10
631.943610
 20
9.878863
 30
0.0
  0
LWPOLYLINE
  5
196
100
AcDbEntity
  8
0
 62
7
100
AcDbPolyline
 90
3
 70
1
 10
633.267388
 20
9.203112
 30
0.0
 10
634.738568
 20
8.972655
 30
0.0
 10
633.267388
 20
9.203112
 30
0.0
  0
LWPOLYLINE
  5
197
100
AcDbEntity
  8
0
 62
7
100
AcDbPolyline
 90
3
 70
1
 10
634.738568
 20
8.972655
 30
0.0
 10
636.204078
 20
9.203112
 30
0.0
 10
634.738568
 20
8.972655
 30
0.0
  0
LWPOLYLINE
  5
198
100
AcDbEntity
  8
0
 62
7
100
AcDbPolyline
 90
3
 70
1
 10
636.204078
 20
9.203112
 30
0.0
 10
637.527856
 20
9.878863
 30
0.0
 10
636.204078
 20
9.203112
 30
0.0
  0
LWPOLYLINE
  5
199
100
AcDbEntity
  8
0
 62
7
100
AcDbPolyline
 90
3
 70
1
 10
637.527856
 20
9.878863
 30
0.0
 10
638.576673
 20
10.929636
 30
0.0
 10
637.527856
 20
9.878863
 30
0.0
  0
LWPOLYLINE
  5
19a
100
AcDbEntity
  8
0
 62
7
100
AcDbPolyline
 90
3
 70
1
 10
638.576673
 20
10.929636
 30
0.0
 10
639.254153
 20
12.253839
 30
0.0
 10
638.576673
 20
10.929636
 30
0.0
  0
LWPOLYLINE
  5
19b
100
AcDbEntity
  8
0
 62
7
100
AcDbPolyline
 90
3
 70
1
 10
639.254153
 20
12.253839
 30
0.0
 10
639.483759
 20
13.722638
 30
0.0
 10
639.254153
 20
12.253839
 30
0.0
  0
LWPOLYLINE
  5
19c
100
AcDbEntity
  8
0
 62
7
100
AcDbPolyline
 90
3
 70
1
 10
639.483759
 20
13.722638
 30
0.0
 10
639.254153
 20
15.187439
 30
0.0
 10
639.483759
 20
13.722638
 30
0.0
  0
LWPOLYLINE
  5
19d
100
AcDbEntity
  8
0
 62
7
100
AcDbPolyline
 90
3
 70
1
 10
639.254153
 20
15.187439
 30
0.0
 10
638.576673
 20
16.511756
 30
0.0
 10
639.254153
 20
15.187439
 30
0.0
  0
LWPOLYLINE
  5
19e
100
AcDbEntity
  8
0
 62
7
100
AcDbPolyline
 90
3
 70
1
 10
638.576673
 20
16.511756
 30
0.0
 10
637.527856
 20
17.562444
 30
0.0
 10
638.576673
 20
16.511756
 30
0.0
  0
LWPOLYLINE
  5
19f
100
AcDbEntity
  8
0
 62
7
100
AcDbPolyline
 90
3
 70
1
 10
637.527856
 20
17.562444
 30
0.0
 10
636.204078
 20
18.238251
 30
0.0
 10
637.527856
 20
17.562444
 30
0.0
  0
LWPOLYLINE
  5
1a0
100
AcDbEntity
  8
0
 62
7
100
AcDbPolyline
 90
3
 70
1
 10
636.204078
 20
18.238251
 30
0.0
 10
634.738568
 20
18.468736
 30
0.0
 10
636.204078
 20
18.238251
 30
0.0
  0
LWPOLYLINE
  5
1a1
100
AcDbEntity
  8
0
 62
7
100
AcDbPolyline
 90
3
 70
1
 10
634.738568
 20
18.468736
 30
0.0
 10
633.267388
 20
18.238251
 30
0.0
 10
634.738568
 20
18.468736
 30
0.0
  0
LWPOLYLINE
  5
1a2
100
AcDbEntity
  8
0
 62
7
100
AcDbPolyline
 90
3
 70
1
 10
12.253862
 20
261.253226
 30
0.0
 10
10.929659
 20
260.578298
 30
0.0
 10
12.253862
 20
261.253226
 30
0.0
  0
LWPOLYLINE
  5
1a3
100
AcDbEntity
  8
0
 62
7
100
AcDbPolyline
 90
3
 70
1
 10
10.929659
 20
260.578298
 30
0.0
 10
9.878858
 20
259.527213
 30
0.0
 10
10.929659
 20
260.578298
 30
0.0
  0
LWPOLYLINE
  5
1a4
100
AcDbEntity
  8
0
 62
7
100
AcDbPolyline
 90
3
 70
1
 10
9.878858
 20
259.527213
 30
0.0
 10
9.203107
 20
258.203151
 30
0.0
 10
9.878858
 20
259.527213
 30
0.0
  0
LWPOLYLINE
  5
1a5
100
AcDbEntity
  8
0
 62
7
100
AcDbPolyline
 90
3
 70
1
 10
9.203107
 20
258.203151
 30
0.0
 10
8.968739
 20
256.734239
 30
0.0
 10
9.203107
 20
258.203151
 30
0.0
  0
LWPOLYLINE
  5
1a6
100
AcDbEntity
  8
0
 62
7
100
AcDbPolyline
 90
3
 70
1
 10
8.968739
 20
256.734239
 30
0.0
 10
9.203107
 20
255.269296
 30
0.0
 10
8.968739
 20
256.734239
 30
0.0
  0
LWPOLYLINE
  5
1a7
100
AcDbEntity
  8
0
 62
7
100
AcDbPolyline
 90
3
 70
1
 10
9.203107
 20
255.269296
 30
0.0
 10
9.878858
 20
253.945234
 30
0.0
 10
9.203107
 20
255.269296
 30
0.0
  0
LWPOLYLINE
  5
1a8
100
AcDbEntity
  8
0
 62
7
100
AcDbPolyline
 90
3
 70
1
 10
9.878858
 20
253.945234
 30
0.0
 10
10.929659
 20
252.894149
 30
0.0
 10
9.878858
 20
253.945234
 30
0.0
  0
LWPOLYLINE
  5
1a9
100
AcDbEntity
  8
0
 62
7
100
AcDbPolyline
 90
3
 70
1
 10
10.929659
 20
252.894149
 30
0.0
 10
12.253862
 20
252.218370
 30
0.0
 10
10.929659
 20
252.894149
 30
0.0
  0
LWPOLYLINE
  5
1aa
100
AcDbEntity
  8
0
 62
7
100
AcDbPolyline
 90
3
 70
1
 10
12.253862
 20
252.218370
 30
0.0
 10
13.722661
 20
251.988197
 30
0.0
 10
12.253862
 20
252.218370
 30
0.0
  0
LWPOLYLINE
  5
1ab
100
AcDbEntity
  8
0
 62
7
100
AcDbPolyline
 90
3
 70
1
 10
13.722661
 20
251.988197
 30
0.0
 10
15.187463
 20
252.218370
 30
0.0
 10
13.722661
 20
251.988197
 30
0.0
  0
LWPOLYLINE
  5
1ac
100
AcDbEntity
  8
0
 62
7
100
AcDbPolyline
 90
3
 70
1
 10
15.187463
 20
252.218370
 30
0.0
 10
16.511751
 20
252.894149
 30
0.0
 10
15.187463
 20
252.218370
 30
0.0
  0
LWPOLYLINE
  5
1ad
100
AcDbEntity
  8
0
 62
7
100
AcDbPolyline
 90
3
 70
1
 10
16.511751
 20
252.894149
 30
0.0
 10
17.562439
 20
253.945234
 30
0.0
 10
16.511751
 20
252.894149
 30
0.0
  0
LWPOLYLINE
  5
1ae
100
AcDbEntity
  8
0
 62
7
100
AcDbPolyline
 90
3
 70
1
 10
17.562439
 20
253.945234
 30
0.0
 10
18.238246
 20
255.269296
 30
0.0
 10
17.562439
 20
253.945234
 30
0.0
  0
LWPOLYLINE
  5
1af
100
AcDbEntity
  8
0
 62
7
100
AcDbPolyline
 90
3
 70
1
 10
18.238246
 20
255.269296
 30
0.0
 10
18.468760
 20
256.734239
 30
0.0
 10
18.238246
 20
255.269296
 30
0.0
  0
LWPOLYLINE
  5
1b0
100
AcDbEntity
  8
0
 62
7
100
AcDbPolyline
 90
3
 70
1
 10
18.468760
 20
256.734239
 30
0.0
 10
18.238246
 20
258.203151
 30
0.0
 10
18.468760
 20
256.734239
 30
0.0
  0
LWPOLYLINE
  5
1b1
100
AcDbEntity
  8
0
 62
7
100
AcDbPolyline
 90
3
 70
1
 10
18.238246
 20
258.203151
 30
0.0
 10
17.562439
 20
259.527213
 30
0.0
 10
18.238246
 20
258.203151
 30
0.0
  0
LWPOLYLINE
  5
1b2
100
AcDbEntity
  8
0
 62
7
100
AcDbPolyline
 90
3
 70
1
 10
17.562439
 20
259.527213
 30
0.0
 10
16.511751
 20
260.578298
 30
0.0
 10
17.562439
 20
259.527213
 30
0.0
  0
LWPOLYLINE
  5
1b3
100
AcDbEntity
  8
0
 62
7
100
AcDbPolyline
 90
3
 70
1
 10
16.511751
 20
260.578298
 30
0.0
 10
15.187463
 20
261.253226
 30
0.0
 10
16.511751
 20
260.578298
 30
0.0
  0
LWPOLYLINE
  5
1b4
100
AcDbEntity
  8
0
 62
7
100
AcDbPolyline
 90
3
 70
1
 10
15.187463
 20
261.253226
 30
0.0
 10
13.722661
 20
261.488218
 30
0.0
 10
15.187463
 20
261.253226
 30
0.0
  0
LWPOLYLINE
  5
1b5
100
AcDbEntity
  8
0
 62
7
100
AcDbPolyline
 90
3
 70
1
 10
13.722661
 20
261.488218
 30
0.0
 10
12.253862
 20
261.253226
 30
0.0
 10
13.722661
 20
261.488218
 30
0.0
  0
LWPOLYLINE
  5
1b6
100
AcDbEntity
  8
0
 62
7
100
AcDbPolyline
 90
3
 70
1
 10
633.267388
 20
261.253226
 30
0.0
 10
631.943610
 20
260.578298
 30
0.0
 10
633.267388
 20
261.253226
 30
0.0
  0
LWPOLYLINE
  5
1b7
100
AcDbEntity
  8
0
 62
7
100
AcDbPolyline
 90
3
 70
1
 10
631.943610
 20
260.578298
 30
0.0
 10
630.894793
 20
259.527213
 30
0.0
 10
631.943610
 20
260.578298
 30
0.0
  0
LWPOLYLINE
  5
1b8
100
AcDbEntity
  8
0
 62
7
100
AcDbPolyline
 90
3
 70
1
 10
630.894793
 20
259.527213
 30
0.0
 10
630.217313
 20
258.203151
 30
0.0
 10
630.894793
 20
259.527213
 30
0.0
  0
LWPOLYLINE
  5
1b9
100
AcDbEntity
  8
0
 62
7
100
AcDbPolyline
 90
3
 70
1
 10
630.217313
 20
258.203151
 30
0.0
 10
629.987707
 20
256.734239
 30
0.0
 10
630.217313
 20
258.203151
 30
0.0
  0
LWPOLYLINE
  5
1ba
100
AcDbEntity
  8
0
 62
7
100
AcDbPolyline
 90
3
 70
1
 10
629.987707
 20
256.734239
 30
0.0
 10
630.217313
 20
255.269296
 30
0.0
 10
629.987707
 20
256.734239
 30
0.0
  0
LWPOLYLINE
  5
1bb
100
AcDbEntity
  8
0
 62
7
100
AcDbPolyline
 90
3
 70
1
 10
630.217313
 20
255.269296
 30
0.0
 10
630.894793
 20
253.945234
 30
0.0
 10
630.217313
 20
255.269296
 30
0.0
  0
LWPOLYLINE
  5
1bc
100
AcDbEntity
  8
0
 62
7
100
AcDbPolyline
 90
3
 70
1
 10
630.894793
 20
253.945234
 30
0.0
 10
631.943610
 20
252.894149
 30
0.0
 10
630.894793
 20
253.945234
 30
0.0
  0
LWPOLYLINE
  5
1bd
100
AcDbEntity
  8
0
 62
7
100
AcDbPolyline
 90
3
 70
1
 10
631.943610
 20
252.894149
 30
0.0
 10
633.267388
 20
252.218370
 30
0.0
 10
631.943610
 20
252.894149
 30
0.0
  0
LWPOLYLINE
  5
1be
100
AcDbEntity
  8
0
 62
7
100
AcDbPolyline
 90
3
 70
1
 10
633.267388
 20
252.218370
 30
0.0
 10
634.738568
 20
251.988197
 30
0.0
 10
633.267388
 20
252.218370
 30
0.0
  0
LWPOLYLINE
  5
1bf
100
AcDbEntity
  8
0
 62
7
100
AcDbPolyline
 90
3
 70
1
 10
634.738568
 20
251.988197
 30
0.0
 10
636.204078
 20
252.218370
 30
0.0
 10
634.738568
 20
251.988197
 30
0.0
  0
LWPOLYLINE
  5
1c0
100
AcDbEntity
  8
0
 62
7
100
AcDbPolyline
 90
3
 70
1
 10
636.204078
 20
252.218370
 30
0.0
 10
637.527856
 20
252.894149
 30
0.0
 10
636.204078
 20
252.218370
 30
0.0
  0
LWPOLYLINE
  5
1c1
100
AcDbEntity
  8
0
 62
7
100
AcDbPolyline
 90
3
 70
1
 10
637.527856
 20
252.894149
 30
0.0
 10
638.576673
 20
253.945234
 30
0.0
 10
637.527856
 20
252.894149
 30
0.0
  0
LWPOLYLINE
  5
1c2
100
AcDbEntity
  8
0
 62
7
100
AcDbPolyline
 90
3
 70
1
 10
638.576673
 20
253.945234
 30
0.0
 10
639.254153
 20
255.269296
 30
0.0
 10
638.576673
 20
253.945234
 30
0.0
  0
LWPOLYLINE
  5
1c3
100
AcDbEntity
  8
0
 62
7
100
AcDbPolyline
 90
3
 70
1
 10
639.254153
 20
255.269296
 30
0.0
 10
639.483759
 20
256.734239
 30
0.0
 10
639.254153
 20
255.269296
 30
0.0
  0
LWPOLYLINE
  5
1c4
100
AcDbEntity
  8
0
 62
7
100
AcDbPolyline
 90
3
 70
1
 10
639.483759
 20
256.734239
 30
0.0
 10
639.254153
 20
258.203151
 30
0.0
 10
639.483759
 20
256.734239
 30
0.0
  0
LWPOLYLINE
  5
1c5
100
AcDbEntity
  8
0
 62
7
100
AcDbPolyline
 90
3
 70
1
 10
639.254153
 20
258.203151
 30
0.0
 10
638.576673
 20
259.527213
 30
0.0
 10
639.254153
 20
258.203151
 30
0.0
  0
LWPOLYLINE
  5
1c6
100
AcDbEntity
  8
0
 62
7
100
AcDbPolyline
 90
3
 70
1
 10
638.576673
 20
259.527213
 30
0.0
 10
637.527856
 20
260.578298
 30
0.0
 10
638.576673
 20
259.527213
 30
0.0
  0
LWPOLYLINE
  5
1c7
100
AcDbEntity
  8
0
 62
7
100
AcDbPolyline
 90
3
 70
1
 10
637.527856
 20
260.578298
 30
0.0
 10
636.204078
 20
261.253226
 30
0.0
 10
637.527856
 20
260.578298
 30
0.0
  0
LWPOLYLINE
  5
1c8
100
AcDbEntity
  8
0
 62
7
100
AcDbPolyline
 90
3
 70
1
 10
636.204078
 20
261.253226
 30
0.0
 10
634.738568
 20
261.488218
 30
0.0
 10
636.204078
 20
261.253226
 30
0.0
  0
LWPOLYLINE
  5
1c9
100
AcDbEntity
  8
0
 62
7
100
AcDbPolyline
 90
3
 70
1
 10
634.738568
 20
261.488218
 30
0.0
 10
633.267388
 20
261.253226
 30
0.0
 10
634.738568
 20
261.488218
 30
0.0
  0
LWPOLYLINE
  5
1ca
100
AcDbEntity
  8
0
 62
7
100
AcDbPolyline
 90
3
 70
1
 10
426.264789
 20
261.253226
 30
0.0
 10
424.941011
 20
260.578298
 30
0.0
 10
426.264789
 20
261.253226
 30
0.0
  0
LWPOLYLINE
  5
1cb
100
AcDbEntity
  8
0
 62
7
100
AcDbPolyline
 90
3
 70
1
 10
424.941011
 20
260.578298
 30
0.0
 10
423.886523
 20
259.527213
 30
0.0
 10
424.941011
 20
260.578298
 30
0.0
  0
LWPOLYLINE
  5
1cc
100
AcDbEntity
  8
0
 62
7
100
AcDbPolyline
 90
3
 70
1
 10
423.886523
 20
259.527213
 30
0.0
 10
423.214713
 20
258.203151
 30
0.0
 10
423.886523
 20
259.527213
 30
0.0
  0
LWPOLYLINE
  5
1cd
100
AcDbEntity
  8
0
 62
7
100
AcDbPolyline
 90
3
 70
1
 10
423.214713
 20
258.203151
 30
0.0
 10
422.985107
 20
256.734239
 30
0.0
 10
423.214713
 20
258.203151
 30
0.0
  0
LWPOLYLINE
  5
1ce
100
AcDbEntity
  8
0
 62
7
100
AcDbPolyline
 90
3
 70
1
 10
422.985107
 20
256.734239
 30
0.0
 10
423.214713
 20
255.269296
 30
0.0
 10
422.985107
 20
256.734239
 30
0.0
  0
LWPOLYLINE
  5
1cf
100
AcDbEntity
  8
0
 62
7
100
AcDbPolyline
 90
3
 70
1
 10
423.214713
 20
255.269296
 30
0.0
 10
423.886523
 20
253.945234
 30
0.0
 10
423.214713
 20
255.269296
 30
0.0
  0
LWPOLYLINE
  5
1d0
100
AcDbEntity
  8
0
 62
7
100
AcDbPolyline
 90
3
 70
1
 10
423.886523
 20
253.945234
 30
0.0
 10
424.941011
 20
252.894149
 30
0.0
 10
423.886523
 20
253.945234
 30
0.0
  0
LWPOLYLINE
  5
1d1
100
AcDbEntity
  8
0
 62
7
100
AcDbPolyline
 90
3
 70
1
 10
424.941011
 20
252.894149
 30
0.0
 10
426.264789
 20
252.218370
 30
0.0
 10
424.941011
 20
252.894149
 30
0.0
  0
LWPOLYLINE
  5
1d2
100
AcDbEntity
  8
0
 62
7
100
AcDbPolyline
 90
3
 70
1
 10
426.264789
 20
252.218370
 30
0.0
 10
427.730298
 20
251.988197
 30
0.0
 10
426.264789
 20
252.218370
 30
0.0
  0
LWPOLYLINE
  5
1d3
100
AcDbEntity
  8
0
 62
7
100
AcDbPolyline
 90
3
 70
1
 10
427.730298
 20
251.988197
 30
0.0
 10
429.198643
 20
252.218370
 30
0.0
 10
427.730298
 20
251.988197
 30
0.0
  0
LWPOLYLINE
  5
1d4
100
AcDbEntity
  8
0
 62
7
100
AcDbPolyline
 90
3
 70
1
 10
429.198643
 20
252.218370
 30
0.0
 10
430.519587
 20
252.894149
 30
0.0
 10
429.198643
 20
252.218370
 30
0.0
  0
LWPOLYLINE
  5
1d5
100
AcDbEntity
  8
0
 62
7
100
AcDbPolyline
 90
3
 70
1
 10
430.519587
 20
252.894149
 30
0.0
 10
431.574074
 20
253.945234
 30
0.0
 10
430.519587
 20
252.894149
 30
0.0
  0
LWPOLYLINE
  5
1d6
100
AcDbEntity
  8
0
 62
7
100
AcDbPolyline
 90
3
 70
1
 10
431.574074
 20
253.945234
 30
0.0
 10
432.245884
 20
255.269296
 30
0.0
 10
431.574074
 20
253.945234
 30
0.0
  0
LWPOLYLINE
  5
1d7
100
AcDbEntity
  8
0
 62
7
100
AcDbPolyline
 90
3
 70
1
 10
432.245884
 20
255.269296
 30
0.0
 10
432.481159
 20
256.734239
 30
0.0
 10
432.245884
 20
255.269296
 30
0.0
  0
LWPOLYLINE
  5
1d8
100
AcDbEntity
  8
0
 62
7
100
AcDbPolyline
 90
3
 70
1
 10
432.481159
 20
256.734239
 30
0.0
 10
432.245884
 20
258.203151
 30
0.0
 10
432.481159
 20
256.734239
 30
0.0
  0
LWPOLYLINE
  5
1d9
100
AcDbEntity
  8
0
 62
7
100
AcDbPolyline
 90
3
 70
1
 10
432.245884
 20
258.203151
 30
0.0
 10
431.574074
 20
259.527213
 30
0.0
 10
432.245884
 20
258.203151
 30
0.0
  0
LWPOLYLINE
  5
1da
100
AcDbEntity
  8
0
 62
7
100
AcDbPolyline
 90
3
 70
1
 10
431.574074
 20
259.527213
 30
0.0
 10
430.519587
 20
260.578298
 30
0.0
 10
431.574074
 20
259.527213
 30
0.0
  0
LWPOLYLINE
  5
1db
100
AcDbEntity
  8
0
 62
7
100
AcDbPolyline
 90
3
 70
1
 10
430.519587
 20
260.578298
 30
0.0
 10
429.198643
 20
261.253226
 30
0.0
 10
430.519587
 20
260.578298
 30
0.0
  0
LWPOLYLINE
  5
1dc
100
AcDbEntity
  8
0
 62
7
100
AcDbPolyline
 90
3
 70
1
 10
429.198643
 20
261.253226
 30
0.0
 10
427.730298
 20
261.488218
 30
0.0
 10
429.198643
 20
261.253226
 30
0.0
  0
LWPOLYLINE
  5
1dd
100
AcDbEntity
  8
0
 62
7
100
AcDbPolyline
 90
3
 70
1
 10
427.730298
 20
261.488218
 30
0.0
 10
426.264789
 20
261.253226
 30
0.0
 10
427.730298
 20
261.488218
 30
0.0
  0
LWPOLYLINE
  5
1de
100
AcDbEntity
  8
0
 62
7
100
AcDbPolyline
 90
3
 70
1
 10
219.257086
 20
261.253226
 30
0.0
 10
217.933308
 20
260.578298
 30
0.0
 10
219.257086
 20
261.253226
 30
0.0
  0
LWPOLYLINE
  5
1df
100
AcDbEntity
  8
0
 62
7
100
AcDbPolyline
 90
3
 70
1
 10
217.933308
 20
260.578298
 30
0.0
 10
216.882223
 20
259.527213
 30
0.0
 10
217.933308
 20
260.578298
 30
0.0
  0
LWPOLYLINE
  5
1e0
100
AcDbEntity
  8
0
 62
7
100
AcDbPolyline
 90
3
 70
1
 10
216.882223
 20
259.527213
 30
0.0
 10
216.207295
 20
258.203151
 30
0.0
 10
216.882223
 20
259.527213
 30
0.0
  0
LWPOLYLINE
  5
1e1
100
AcDbEntity
  8
0
 62
7
100
AcDbPolyline
 90
3
 70
1
 10
216.207295
 20
258.203151
 30
0.0
 10
215.976271
 20
256.734239
 30
0.0
 10
216.207295
 20
258.203151
 30
0.0
  0
LWPOLYLINE
  5
1e2
100
AcDbEntity
  8
0
 62
7
100
AcDbPolyline
 90
3
 70
1
 10
215.976271
 20
256.734239
 30
0.0
 10
216.207295
 20
255.269296
 30
0.0
 10
215.976271
 20
256.734239
 30
0.0
  0
LWPOLYLINE
  5
1e3
100
AcDbEntity
  8
0
 62
7
100
AcDbPolyline
 90
3
 70
1
 10
216.207295
 20
255.269296
 30
0.0
 10
216.882223
 20
253.945234
 30
0.0
 10
216.207295
 20
255.269296
 30
0.0
  0
LWPOLYLINE
  5
1e4
100
AcDbEntity
  8
0
 62
7
100
AcDbPolyline
 90
3
 70
1
 10
216.882223
 20
253.945234
 30
0.0
 10
217.933308
 20
252.894149
 30
0.0
 10
216.882223
 20
253.945234
 30
0.0
  0
LWPOLYLINE
  5
1e5
100
AcDbEntity
  8
0
 62
7
100
AcDbPolyline
 90
3
 70
1
 10
217.933308
 20
252.894149
 30
0.0
 10
219.257086
 20
252.218370
 30
0.0
 10
217.933308
 20
252.894149
 30
0.0
  0
LWPOLYLINE
  5
1e6
100
AcDbEntity
  8
0
 62
7
100
AcDbPolyline
 90
3
 70
1
 10
219.257086
 20
252.218370
 30
0.0
 10
220.726282
 20
251.988197
 30
0.0
 10
219.257086
 20
252.218370
 30
0.0
  0
LWPOLYLINE
  5
1e7
100
AcDbEntity
  8
0
 62
7
100
AcDbPolyline
 90
3
 70
1
 10
220.726282
 20
251.988197
 30
0.0
 10
222.191225
 20
252.218370
 30
0.0
 10
220.726282
 20
251.988197
 30
0.0
  0
LWPOLYLINE
  5
1e8
100
AcDbEntity
  8
0
 62
7
100
AcDbPolyline
 90
3
 70
1
 10
222.191225
 20
252.218370
 30
0.0
 10
223.515287
 20
252.894149
 30
0.0
 10
222.191225
 20
252.218370
 30
0.0
  0
LWPOLYLINE
  5
1e9
100
AcDbEntity
  8
0
 62
7
100
AcDbPolyline
 90
3
 70
1
 10
223.515287
 20
252.894149
 30
0.0
 10
224.566088
 20
253.945234
 30
0.0
 10
223.515287
 20
252.894149
 30
0.0
  0
LWPOLYLINE
  5
1ea
100
AcDbEntity
  8
0
 62
7
100
AcDbPolyline
 90
3
 70
1
 10
224.566088
 20
253.945234
 30
0.0
 10
225.242150
 20
255.269296
 30
0.0
 10
224.566088
 20
253.945234
 30
0.0
  0
LWPOLYLINE
  5
1eb
100
AcDbEntity
  8
0
 62
7
100
AcDbPolyline
 90
3
 70
1
 10
225.242150
 20
255.269296
 30
0.0
 10
225.472324
 20
256.734239
 30
0.0
 10
225.242150
 20
255.269296
 30
0.0
  0
LWPOLYLINE
  5
1ec
100
AcDbEntity
  8
0
 62
7
100
AcDbPolyline
 90
3
 70
1
 10
225.472324
 20
256.734239
 30
0.0
 10
225.242150
 20
258.203151
 30
0.0
 10
225.472324
 20
256.734239
 30
0.0
  0
LWPOLYLINE
  5
1ed
100
AcDbEntity
  8
0
 62
7
100
AcDbPolyline
 90
3
 70
1
 10
225.242150
 20
258.203151
 30
0.0
 10
224.566088
 20
259.527213
 30
0.0
 10
225.242150
 20
258.203151
 30
0.0
  0
LWPOLYLINE
  5
1ee
100
AcDbEntity
  8
0
 62
7
100
AcDbPolyline
 90
3
 70
1
 10
224.566088
 20
259.527213
 30
0.0
 10
223.515287
 20
260.578298
 30
0.0
 10
224.566088
 20
259.527213
 30
0.0
  0
LWPOLYLINE
  5
1ef
100
AcDbEntity
  8
0
 62
7
100
AcDbPolyline
 90
3
 70
1
 10
223.515287
 20
260.578298
 30
0.0
 10
222.191225
 20
261.253226
 30
0.0
 10
223.515287
 20
260.578298
 30
0.0
  0
LWPOLYLINE
  5
1f0
100
AcDbEntity
  8
0
 62
7
100
AcDbPolyline
 90
3
 70
1
 10
222.191225
 20
261.253226
 30
0.0
 10
220.726282
 20
261.488218
 30
0.0
 10
222.191225
 20
261.253226
 30
0.0
  0
LWPOLYLINE
  5
1f1
100
AcDbEntity
  8
0
 62
7
100
AcDbPolyline
 90
3
 70
1
 10
220.726282
 20
261.488218
 30
0.0
 10
219.257086
 20
261.253226
 30
0.0
 10
220.726282
 20
261.488218
 30
0.0
  0
LWPOLYLINE
  5
1f2
100
AcDbEntity
  8
0
 62
7
100
AcDbPolyline
 90
3
 70
1
 10
549.540340
 20
138.055589
 30
0.0
 10
548.216591
 20
137.380655
 30
0.0
 10
549.540340
 20
138.055589
 30
0.0
  0
LWPOLYLINE
  5
1f3
100
AcDbEntity
  8
0
 62
7
100
AcDbPolyline
 90
3
 70
1
 10
548.216591
 20
137.380655
 30
0.0
 10
547.167772
 20
136.329569
 30
0.0
 10
548.216591
 20
137.380655
 30
0.0
  0
LWPOLYLINE
  5
1f4
100
AcDbEntity
  8
0
 62
7
100
AcDbPolyline
 90
3
 70
1
 10
547.167772
 20
136.329569
 30
0.0
 10
546.490322
 20
135.005510
 30
0.0
 10
547.167772
 20
136.329569
 30
0.0
  0
LWPOLYLINE
  5
1f5
100
AcDbEntity
  8
0
 62
7
100
AcDbPolyline
 90
3
 70
1
 10
546.490322
 20
135.005510
 30
0.0
 10
546.260687
 20
133.536602
 30
0.0
 10
546.490322
 20
135.005510
 30
0.0
  0
LWPOLYLINE
  5
1f6
100
AcDbEntity
  8
0
 62
7
100
AcDbPolyline
 90
3
 70
1
 10
546.260687
 20
133.536602
 30
0.0
 10
546.490322
 20
132.071659
 30
0.0
 10
546.260687
 20
133.536602
 30
0.0
  0
LWPOLYLINE
  5
1f7
100
AcDbEntity
  8
0
 62
7
100
AcDbPolyline
 90
3
 70
1
 10
546.490322
 20
132.071659
 30
0.0
 10
547.167772
 20
130.747600
 30
0.0
 10
546.490322
 20
132.071659
 30
0.0
  0
LWPOLYLINE
  5
1f8
100
AcDbEntity
  8
0
 62
7
100
AcDbPolyline
 90
3
 70
1
 10
547.167772
 20
130.747600
 30
0.0
 10
548.216591
 20
129.696514
 30
0.0
 10
547.167772
 20
130.747600
 30
0.0
  0
LWPOLYLINE
  5
1f9
100
AcDbEntity
  8
0
 62
7
100
AcDbPolyline
 90
3
 70
1
 10
548.216591
 20
129.696514
 30
0.0
 10
549.540340
 20
129.020727
 30
0.0
 10
548.216591
 20
129.696514
 30
0.0
  0
LWPOLYLINE
  5
1fa
100
AcDbEntity
  8
0
 62
7
100
AcDbPolyline
 90
3
 70
1
 10
549.540340
 20
129.020727
 30
0.0
 10
551.011577
 20
128.790555
 30
0.0
 10
549.540340
 20
129.020727
 30
0.0
  0
LWPOLYLINE
  5
1fb
100
AcDbEntity
  8
0
 62
7
100
AcDbPolyline
 90
3
 70
1
 10
551.011577
 20
128.790555
 30
0.0
 10
552.477086
 20
129.020727
 30
0.0
 10
551.011577
 20
128.790555
 30
0.0
  0
LWPOLYLINE
  5
1fc
100
AcDbEntity
  8
0
 62
7
100
AcDbPolyline
 90
3
 70
1
 10
552.477086
 20
129.020727
 30
0.0
 10
553.800836
 20
129.696514
 30
0.0
 10
552.477086
 20
129.020727
 30
0.0
  0
LWPOLYLINE
  5
1fd
100
AcDbEntity
  8
0
 62
7
100
AcDbPolyline
 90
3
 70
1
 10
553.800836
 20
129.696514
 30
0.0
 10
554.849654
 20
130.747600
 30
0.0
 10
553.800836
 20
129.696514
 30
0.0
  0
LWPOLYLINE
  5
1fe
100
AcDbEntity
  8
0
 62
7
100
AcDbPolyline
 90
3
 70
1
 10
554.849654
 20
130.747600
 30
0.0
 10
555.527105
 20
132.071659
 30
0.0
 10
554.849654
 20
130.747600
 30
0.0
  0
LWPOLYLINE
  5
1ff
100
AcDbEntity
  8
0
 62
7
100
AcDbPolyline
 90
3
 70
1
 10
555.527105
 20
132.071659
 30
0.0
 10
555.756739
 20
133.536602
 30
0.0
 10
555.527105
 20
132.071659
 30
0.0
  0
LWPOLYLINE
  5
200
100
AcDbEntity
  8
0
 62
7
100
AcDbPolyline
 90
3
 70
1
 10
555.756739
 20
133.536602
 30
0.0
 10
555.527105
 20
135.005510
 30
0.0
 10
555.756739
 20
133.536602
 30
0.0
  0
LWPOLYLINE
  5
201
100
AcDbEntity
  8
0
 62
7
100
AcDbPolyline
 90
3
 70
1
 10
555.527105
 20
135.005510
 30
0.0
 10
554.849654
 20
136.329569
 30
0.0
 10
555.527105
 20
135.005510
 30
0.0
  0
LWPOLYLINE
  5
202
100
AcDbEntity
  8
0
 62
7
100
AcDbPolyline
 90
3
 70
1
 10
554.849654
 20
136.329569
 30
0.0
 10
553.800836
 20
137.380655
 30
0.0
 10
554.849654
 20
136.329569
 30
0.0
  0
LWPOLYLINE
  5
203
100
AcDbEntity
  8
0
 62
7
100
AcDbPolyline
 90
3
 70
1
 10
553.800836
 20
137.380655
 30
0.0
 10
552.477086
 20
138.055589
 30
0.0
 10
553.800836
 20
137.380655
 30
0.0
  0
LWPOLYLINE
  5
204
100
AcDbEntity
  8
0
 62
7
100
AcDbPolyline
 90
3
 70
1
 10
552.477086
 20
138.055589
 30
0.0
 10
551.011577
 20
138.290583
 30
0.0
 10
552.477086
 20
138.055589
 30
0.0
  0
LWPOLYLINE
  5
205
100
AcDbEntity
  8
0
 62
7
100
AcDbPolyline
 90
3
 70
1
 10
551.011577
 20
138.290583
 30
0.0
 10
549.540340
 20
138.055589
 30
0.0
 10
551.011577
 20
138.290583
 30
0.0
  0
LWPOLYLINE
  5
206
100
AcDbEntity
  8
0
 62
7
100
AcDbPolyline
 90
3
 70
1
 10
503.024085
 20
270.456176
 30
0.0
 10
503.024085
 20
243.015420
 30
0.0
 10
503.024085
 20
270.456176
 30
0.0
  0
LWPOLYLINE
  5
207
100
AcDbEntity
  8
0
 62
7
100
AcDbPolyline
 90
3
 70
1
 10
564.960993
 20
243.015420
 30
0.0
 10
564.960993
 20
270.456176
 30
0.0
 10
564.960993
 20
243.015420
 30
0.0
  0
LWPOLYLINE
  5
208
100
AcDbEntity
  8
0
 62
7
100
AcDbPolyline
 90
3
 70
1
 10
564.960993
 20
270.456176
 30
0.0
 10
639.951460
 20
270.456176
 30
0.0
 10
564.960993
 20
270.456176
 30
0.0
  0
LWPOLYLINE
  5
209
100
AcDbEntity
  8
0
 62
7
100
AcDbPolyline
 90
3
 70
1
 10
639.951460
 20
270.456176
 30
0.0
 10
640.620464
 20
270.429247
 30
0.0
 10
639.951460
 20
270.456176
 30
0.0
  0
LWPOLYLINE
  5
20a
100
AcDbEntity
  8
0
 62
7
100
AcDbPolyline
 90
3
 70
1
 10
640.620464
 20
270.429247
 30
0.0
 10
641.280935
 20
270.355263
 30
0.0
 10
640.620464
 20
270.429247
 30
0.0
  0
LWPOLYLINE
  5
20b
100
AcDbEntity
  8
0
 62
7
100
AcDbPolyline
 90
3
 70
1
 10
641.280935
 20
270.355263
 30
0.0
 10
641.935738
 20
270.222318
 30
0.0
 10
641.280935
 20
270.355263
 30
0.0
  0
LWPOLYLINE
  5
20c
100
AcDbEntity
  8
0
 62
7
100
AcDbPolyline
 90
3
 70
1
 10
641.935738
 20
270.222318
 30
0.0
 10
642.582036
 20
270.042319
 30
0.0
 10
641.935738
 20
270.222318
 30
0.0
  0
LWPOLYLINE
  5
20d
100
AcDbEntity
  8
0
 62
7
100
AcDbPolyline
 90
3
 70
1
 10
642.582036
 20
270.042319
 30
0.0
 10
643.205658
 20
269.808177
 30
0.0
 10
642.582036
 20
270.042319
 30
0.0
  0
LWPOLYLINE
  5
20e
100
AcDbEntity
  8
0
 62
7
100
AcDbPolyline
 90
3
 70
1
 10
643.205658
 20
269.808177
 30
0.0
 10
643.812243
 20
269.531232
 30
0.0
 10
643.205658
 20
269.808177
 30
0.0
  0
LWPOLYLINE
  5
20f
100
AcDbEntity
  8
0
 62
7
100
AcDbPolyline
 90
3
 70
1
 10
643.812243
 20
269.531232
 30
0.0
 10
644.393344
 20
269.203264
 30
0.0
 10
643.812243
 20
269.531232
 30
0.0
  0
LWPOLYLINE
  5
210
100
AcDbEntity
  8
0
 62
7
100
AcDbPolyline
 90
3
 70
1
 10
644.393344
 20
269.203264
 30
0.0
 10
644.948935
 20
268.835327
 30
0.0
 10
644.393344
 20
269.203264
 30
0.0
  0
LWPOLYLINE
  5
211
100
AcDbEntity
  8
0
 62
7
100
AcDbPolyline
 90
3
 70
1
 10
644.948935
 20
268.835327
 30
0.0
 10
645.476207
 20
268.421186
 30
0.0
 10
644.948935
 20
268.835327
 30
0.0
  0
LWPOLYLINE
  5
212
100
AcDbEntity
  8
0
 62
7
100
AcDbPolyline
 90
3
 70
1
 10
645.476207
 20
268.421186
 30
0.0
 10
645.963736
 20
267.968211
 30
0.0
 10
645.476207
 20
268.421186
 30
0.0
  0
LWPOLYLINE
  5
213
100
AcDbEntity
  8
0
 62
7
100
AcDbPolyline
 90
3
 70
1
 10
645.963736
 20
267.968211
 30
0.0
 10
646.417307
 20
267.476401
 30
0.0
 10
645.963736
 20
267.968211
 30
0.0
  0
LWPOLYLINE
  5
214
100
AcDbEntity
  8
0
 62
7
100
AcDbPolyline
 90
3
 70
1
 10
646.417307
 20
267.476401
 30
0.0
 10
646.831137
 20
266.953125
 30
0.0
 10
646.417307
 20
267.476401
 30
0.0
  0
LWPOLYLINE
  5
215
100
AcDbEntity
  8
0
 62
7
100
AcDbPolyline
 90
3
 70
1
 10
646.831137
 20
266.953125
 30
0.0
 10
647.202475
 20
266.398385
 30
0.0
 10
646.831137
 20
266.953125
 30
0.0
  0
LWPOLYLINE
  5
216
100
AcDbEntity
  8
0
 62
7
100
AcDbPolyline
 90
3
 70
1
 10
647.202475
 20
266.398385
 30
0.0
 10
647.531322
 20
265.812182
 30
0.0
 10
647.202475
 20
266.398385
 30
0.0
  0
LWPOLYLINE
  5
217
100
AcDbEntity
  8
0
 62
7
100
AcDbPolyline
 90
3
 70
1
 10
647.531322
 20
265.812182
 30
0.0
 10
647.809089
 20
265.206135
 30
0.0
 10
647.531322
 20
265.812182
 30
0.0
  0
LWPOLYLINE
  5
218
100
AcDbEntity
  8
0
 62
7
100
AcDbPolyline
 90
3
 70
1
 10
647.809089
 20
265.206135
 30
0.0
 10
648.038723
 20
264.581380
 30
0.0
 10
647.809089
 20
265.206135
 30
0.0
  0
LWPOLYLINE
  5
219
100
AcDbEntity
  8
0
 62
7
100
AcDbPolyline
 90
3
 70
1
 10
648.038723
 20
264.581380
 30
0.0
 10
648.222947
 20
263.937349
 30
0.0
 10
648.038723
 20
264.581380
 30
0.0
  0
LWPOLYLINE
  5
21a
100
AcDbEntity
  8
0
 62
7
100
AcDbPolyline
 90
3
 70
1
 10
648.222947
 20
263.937349
 30
0.0
 10
648.350533
 20
263.285381
 30
0.0
 10
648.222947
 20
263.937349
 30
0.0
  0
LWPOLYLINE
  5
21b
100
AcDbEntity
  8
0
 62
7
100
AcDbPolyline
 90
3
 70
1
 10
648.350533
 20
263.285381
 30
0.0
 10
648.429904
 20
262.621225
 30
0.0
 10
648.350533
 20
263.285381
 30
0.0
  0
LWPOLYLINE
  5
21c
100
AcDbEntity
  8
0
 62
7
100
AcDbPolyline
 90
3
 70
1
 10
648.429904
 20
262.621225
 30
0.0
 10
648.455387
 20
261.953383
 30
0.0
 10
648.429904
 20
262.621225
 30
0.0
  0
LWPOLYLINE
  5
21d
100
AcDbEntity
  8
0
 62
7
100
AcDbPolyline
 90
3
 70
1
 10
648.455387
 20
8.503894
 30
0.0
 10
648.429904
 20
7.835936
 30
0.0
 10
648.455387
 20
8.503894
 30
0.0
  0
LWPOLYLINE
  5
21e
100
AcDbEntity
  8
0
 62
7
100
AcDbPolyline
 90
3
 70
1
 10
648.429904
 20
7.835936
 30
0.0
 10
648.350533
 20
7.175781
 30
0.0
 10
648.429904
 20
7.835936
 30
0.0
  0
LWPOLYLINE
  5
21f
100
AcDbEntity
  8
0
 62
7
100
AcDbPolyline
 90
3
 70
1
 10
648.350533
 20
7.175781
 30
0.0
 10
648.222947
 20
6.519522
 30
0.0
 10
648.350533
 20
7.175781
 30
0.0
  0
LWPOLYLINE
  5
220
100
AcDbEntity
  8
0
 62
7
100
AcDbPolyline
 90
3
 70
1
 10
648.222947
 20
6.519522
 30
0.0
 10
648.038723
 20
5.874987
 30
0.0
 10
648.222947
 20
6.519522
 30
0.0
  0
LWPOLYLINE
  5
221
100
AcDbEntity
  8
0
 62
7
100
AcDbPolyline
 90
3
 70
1
 10
648.038723
 20
5.874987
 30
0.0
 10
647.809089
 20
5.249999
 30
0.0
 10
648.038723
 20
5.874987
 30
0.0
  0
LWPOLYLINE
  5
222
100
AcDbEntity
  8
0
 62
7
100
AcDbPolyline
 90
3
 70
1
 10
647.809089
 20
5.249999
 30
0.0
 10
647.531322
 20
4.644519
 30
0.0
 10
647.809089
 20
5.249999
 30
0.0
  0
LWPOLYLINE
  5
223
100
AcDbEntity
  8
0
 62
7
100
AcDbPolyline
 90
3
 70
1
 10
647.531322
 20
4.644519
 30
0.0
 10
647.202475
 20
4.062482
 30
0.0
 10
647.531322
 20
4.644519
 30
0.0
  0
LWPOLYLINE
  5
224
100
AcDbEntity
  8
0
 62
7
100
AcDbPolyline
 90
3
 70
1
 10
647.202475
 20
4.062482
 30
0.0
 10
646.831137
 20
3.507803
 30
0.0
 10
647.202475
 20
4.062482
 30
0.0
  0
LWPOLYLINE
  5
225
100
AcDbEntity
  8
0
 62
7
100
AcDbPolyline
 90
3
 70
1
 10
646.831137
 20
3.507803
 30
0.0
 10
646.417307
 20
2.980479
 30
0.0
 10
646.831137
 20
3.507803
 30
0.0
  0
LWPOLYLINE
  5
226
100
AcDbEntity
  8
0
 62
7
100
AcDbPolyline
 90
3
 70
1
 10
646.417307
 20
2.980479
 30
0.0
 10
645.963736
 20
2.492195
 30
0.0
 10
646.417307
 20
2.980479
 30
0.0
  0
LWPOLYLINE
  5
227
100
AcDbEntity
  8
0
 62
7
100
AcDbPolyline
 90
3
 70
1
 10
645.963736
 20
2.492195
 30
0.0
 10
645.476207
 20
2.039052
 30
0.0
 10
645.963736
 20
2.492195
 30
0.0
  0
LWPOLYLINE
  5
228
100
AcDbEntity
  8
0
 62
7
100
AcDbPolyline
 90
3
 70
1
 10
645.476207
 20
2.039052
 30
0.0
 10
644.948935
 20
1.624991
 30
0.0
 10
645.476207
 20
2.039052
 30
0.0
  0
LWPOLYLINE
  5
229
100
AcDbEntity
  8
0
 62
7
100
AcDbPolyline
 90
3
 70
1
 10
644.948935
 20
1.624991
 30
0.0
 10
644.393344
 20
1.253899
 30
0.0
 10
644.948935
 20
1.624991
 30
0.0
  0
LWPOLYLINE
  5
22a
100
AcDbEntity
  8
0
 62
7
100
AcDbPolyline
 90
3
 70
1
 10
644.393344
 20
1.253899
 30
0.0
 10
643.812243
 20
0.925781
 30
0.0
 10
644.393344
 20
1.253899
 30
0.0
  0
LWPOLYLINE
  5
22b
100
AcDbEntity
  8
0
 62
7
100
AcDbPolyline
 90
3
 70
1
 10
643.812243
 20
0.925781
 30
0.0
 10
643.205658
 20
0.648442
 30
0.0
 10
643.812243
 20
0.925781
 30
0.0
  0
LWPOLYLINE
  5
22c
100
AcDbEntity
  8
0
 62
7
100
AcDbPolyline
 90
3
 70
1
 10
643.205658
 20
0.648442
 30
0.0
 10
642.582036
 20
0.417965
 30
0.0
 10
643.205658
 20
0.648442
 30
0.0
  0
LWPOLYLINE
  5
22d
100
AcDbEntity
  8
0
 62
7
100
AcDbPolyline
 90
3
 70
1
 10
642.582036
 20
0.417965
 30
0.0
 10
641.935738
 20
0.234377
 30
0.0
 10
642.582036
 20
0.417965
 30
0.0
  0
LWPOLYLINE
  5
22e
100
AcDbEntity
  8
0
 62
7
100
AcDbPolyline
 90
3
 70
1
 10
641.935738
 20
0.234377
 30
0.0
 10
641.280935
 20
0.105460
 30
0.0
 10
641.935738
 20
0.234377
 30
0.0
  0
LWPOLYLINE
  5
22f
100
AcDbEntity
  8
0
 62
7
100
AcDbPolyline
 90
3
 70
1
 10
641.280935
 20
0.105460
 30
0.0
 10
640.620464
 20
0.027346
 30
0.0
 10
641.280935
 20
0.105460
 30
0.0
  0
LWPOLYLINE
  5
230
100
AcDbEntity
  8
0
 62
7
100
AcDbPolyline
 90
3
 70
1
 10
640.620464
 20
0.027346
 30
0.0
 10
639.951460
 20
0.000009
 30
0.0
 10
640.620464
 20
0.027346
 30
0.0
  0
LWPOLYLINE
  5
231
100
AcDbEntity
  8
0
 62
7
100
AcDbPolyline
 90
3
 70
1
 10
8.503886
 20
0.000009
 30
0.0
 10
7.835931
 20
0.027346
 30
0.0
 10
8.503886
 20
0.000009
 30
0.0
  0
LWPOLYLINE
  5
232
100
AcDbEntity
  8
0
 62
7
100
AcDbPolyline
 90
3
 70
1
 10
7.835931
 20
0.027346
 30
0.0
 10
7.171859
 20
0.105460
 30
0.0
 10
7.835931
 20
0.027346
 30
0.0
  0
LWPOLYLINE
  5
233
100
AcDbEntity
  8
0
 62
7
100
AcDbPolyline
 90
3
 70
1
 10
7.171859
 20
0.105460
 30
0.0
 10
6.519523
 20
0.234377
 30
0.0
 10
7.171859
 20
0.105460
 30
0.0
  0
LWPOLYLINE
  5
234
100
AcDbEntity
  8
0
 62
7
100
AcDbPolyline
 90
3
 70
1
 10
6.519523
 20
0.234377
 30
0.0
 10
5.874982
 20
0.417965
 30
0.0
 10
6.519523
 20
0.234377
 30
0.0
  0
LWPOLYLINE
  5
235
100
AcDbEntity
  8
0
 62
7
100
AcDbPolyline
 90
3
 70
1
 10
5.874982
 20
0.417965
 30
0.0
 10
5.250000
 20
0.648442
 30
0.0
 10
5.874982
 20
0.417965
 30
0.0
  0
LWPOLYLINE
  5
236
100
AcDbEntity
  8
0
 62
7
100
AcDbPolyline
 90
3
 70
1
 10
5.250000
 20
0.648442
 30
0.0
 10
4.644520
 20
0.925781
 30
0.0
 10
5.250000
 20
0.648442
 30
0.0
  0
LWPOLYLINE
  5
237
100
AcDbEntity
  8
0
 62
7
100
AcDbPolyline
 90
3
 70
1
 10
4.644520
 20
0.925781
 30
0.0
 10
4.058600
 20
1.253899
 30
0.0
 10
4.644520
 20
0.925781
 30
0.0
  0
LWPOLYLINE
  5
238
100
AcDbEntity
  8
0
 62
7
100
AcDbPolyline
 90
3
 70
1
 10
4.058600
 20
1.253899
 30
0.0
 10
3.503917
 20
1.624991
 30
0.0
 10
4.058600
 20
1.253899
 30
0.0
  0
LWPOLYLINE
  5
239
100
AcDbEntity
  8
0
 62
7
100
AcDbPolyline
 90
3
 70
1
 10
3.503917
 20
1.624991
 30
0.0
 10
2.980471
 20
2.039052
 30
0.0
 10
3.503917
 20
1.624991
 30
0.0
  0
LWPOLYLINE
  5
23a
100
AcDbEntity
  8
0
 62
7
100
AcDbPolyline
 90
3
 70
1
 10
2.980471
 20
2.039052
 30
0.0
 10
2.488276
 20
2.492195
 30
0.0
 10
2.980471
 20
2.039052
 30
0.0
  0
LWPOLYLINE
  5
23b
100
AcDbEntity
  8
0
 62
7
100
AcDbPolyline
 90
3
 70
1
 10
2.488276
 20
2.492195
 30
0.0
 10
2.035155
 20
2.980479
 30
0.0
 10
2.488276
 20
2.492195
 30
0.0
  0
LWPOLYLINE
  5
23c
100
AcDbEntity
  8
0
 62
7
100
AcDbPolyline
 90
3
 70
1
 10
2.035155
 20
2.980479
 30
0.0
 10
1.621097
 20
3.507803
 30
0.0
 10
2.035155
 20
2.980479
 30
0.0
  0
LWPOLYLINE
  5
23d
100
AcDbEntity
  8
0
 62
7
100
AcDbPolyline
 90
3
 70
1
 10
1.621097
 20
3.507803
 30
0.0
 10
1.253908
 20
4.062482
 30
0.0
 10
1.621097
 20
3.507803
 30
0.0
  0
LWPOLYLINE
  5
23e
100
AcDbEntity
  8
0
 62
7
100
AcDbPolyline
 90
3
 70
1
 10
1.253908
 20
4.062482
 30
0.0
 10
0.925779
 20
4.644519
 30
0.0
 10
1.253908
 20
4.062482
 30
0.0
  0
LWPOLYLINE
  5
23f
100
AcDbEntity
  8
0
 62
7
100
AcDbPolyline
 90
3
 70
1
 10
0.925779
 20
4.644519
 30
0.0
 10
0.648437
 20
5.249999
 30
0.0
 10
0.925779
 20
4.644519
 30
0.0
  0
LWPOLYLINE
  5
240
100
AcDbEntity
  8
0
 62
7
100
AcDbPolyline
 90
3
 70
1
 10
0.648437
 20
5.249999
 30
0.0
 10
0.414063
 20
5.874987
 30
0.0
 10
0.648437
 20
5.249999
 30
0.0
  0
LWPOLYLINE
  5
241
100
AcDbEntity
  8
0
 62
7
100
AcDbPolyline
 90
3
 70
1
 10
0.414063
 20
5.874987
 30
0.0
 10
0.234375
 20
6.519522
 30
0.0
 10
0.414063
 20
5.874987
 30
0.0
  0
LWPOLYLINE
  5
242
100
AcDbEntity
  8
0
 62
7
100
AcDbPolyline
 90
3
 70
1
 10
0.234375
 20
6.519522
 30
0.0
 10
0.101564
 20
7.175781
 30
0.0
 10
0.234375
 20
6.519522
 30
0.0
  0
LWPOLYLINE
  5
243
100
AcDbEntity
  8
0
 62
7
100
AcDbPolyline
 90
3
 70
1
 10
0.101564
 20
7.175781
 30
0.0
 10
0.027344
 20
7.835936
 30
0.0
 10
0.101564
 20
7.175781
 30
0.0
  0
LWPOLYLINE
  5
244
100
AcDbEntity
  8
0
 62
7
100
AcDbPolyline
 90
3
 70
1
 10
0.027344
 20
7.835936
 30
0.0
 10
0.000000
 20
8.507808
 30
0.0
 10
0.027344
 20
7.835936
 30
0.0
  0
LWPOLYLINE
  5
245
100
AcDbEntity
  8
0
 62
7
100
AcDbPolyline
 90
3
 70
1
 10
0.000000
 20
261.953383
 30
0.0
 10
0.027344
 20
262.621225
 30
0.0
 10
0.000000
 20
261.953383
 30
0.0
  0
LWPOLYLINE
  5
246
100
AcDbEntity
  8
0
 62
7
100
AcDbPolyline
 90
3
 70
1
 10
0.027344
 20
262.621225
 30
0.0
 10
0.101564
 20
263.285381
 30
0.0
 10
0.027344
 20
262.621225
 30
0.0
  0
LWPOLYLINE
  5
247
100
AcDbEntity
  8
0
 62
7
100
AcDbPolyline
 90
3
 70
1
 10
0.101564
 20
263.285381
 30
0.0
 10
0.234375
 20
263.937349
 30
0.0
 10
0.101564
 20
263.285381
 30
0.0
  0
LWPOLYLINE
  5
248
100
AcDbEntity
  8
0
 62
7
100
AcDbPolyline
 90
3
 70
1
 10
0.234375
 20
263.937349
 30
0.0
 10
0.414063
 20
264.581380
 30
0.0
 10
0.234375
 20
263.937349
 30
0.0
  0
LWPOLYLINE
  5
249
100
AcDbEntity
  8
0
 62
7
100
AcDbPolyline
 90
3
 70
1
 10
0.414063
 20
264.581380
 30
0.0
 10
0.648437
 20
265.206135
 30
0.0
 10
0.414063
 20
264.581380
 30
0.0
  0
LWPOLYLINE
  5
24a
100
AcDbEntity
  8
0
 62
7
100
AcDbPolyline
 90
3
 70
1
 10
0.648437
 20
265.206135
 30
0.0
 10
0.925779
 20
265.812182
 30
0.0
 10
0.648437
 20
265.206135
 30
0.0
  0
LWPOLYLINE
  5
24b
100
AcDbEntity
  8
0
 62
7
100
AcDbPolyline
 90
3
 70
1
 10
0.925779
 20
265.812182
 30
0.0
 10
1.253908
 20
266.398385
 30
0.0
 10
0.925779
 20
265.812182
 30
0.0
  0
LWPOLYLINE
  5
24c
100
AcDbEntity
  8
0
 62
7
100
AcDbPolyline
 90
3
 70
1
 10
1.253908
 20
266.398385
 30
0.0
 10
1.621097
 20
266.953125
 30
0.0
 10
1.253908
 20
266.398385
 30
0.0
  0
LWPOLYLINE
  5
24d
100
AcDbEntity
  8
0
 62
7
100
AcDbPolyline
 90
3
 70
1
 10
1.621097
 20
266.953125
 30
0.0
 10
2.035155
 20
267.476401
 30
0.0
 10
1.621097
 20
266.953125
 30
0.0
  0
LWPOLYLINE
  5
24e
100
AcDbEntity
  8
0
 62
7
100
AcDbPolyline
 90
3
 70
1
 10
2.035155
 20
267.476401
 30
0.0
 10
2.488276
 20
267.968211
 30
0.0
 10
2.035155
 20
267.476401
 30
0.0
  0
LWPOLYLINE
  5
24f
100
AcDbEntity
  8
0
 62
7
100
AcDbPolyline
 90
3
 70
1
 10
2.488276
 20
267.968211
 30
0.0
 10
2.980471
 20
268.421186
 30
0.0
 10
2.488276
 20
267.968211
 30
0.0
  0
LWPOLYLINE
  5
250
100
AcDbEntity
  8
0
 62
7
100
AcDbPolyline
 90
3
 70
1
 10
2.980471
 20
268.421186
 30
0.0
 10
3.503917
 20
268.835327
 30
0.0
 10
2.980471
 20
268.421186
 30
0.0
  0
LWPOLYLINE
  5
251
100
AcDbEntity
  8
0
 62
7
100
AcDbPolyline
 90
3
 70
1
 10
3.503917
 20
268.835327
 30
0.0
 10
4.058600
 20
269.203264
 30
0.0
 10
3.503917
 20
268.835327
 30
0.0
  0
LWPOLYLINE
  5
252
100
AcDbEntity
  8
0
 62
7
100
AcDbPolyline
 90
3
 70
1
 10
4.058600
 20
269.203264
 30
0.0
 10
4.644520
 20
269.531232
 30
0.0
 10
4.058600
 20
269.203264
 30
0.0
  0
LWPOLYLINE
  5
253
100
AcDbEntity
  8
0
 62
7
100
AcDbPolyline
 90
3
 70
1
 10
4.644520
 20
269.531232
 30
0.0
 10
5.250000
 20
269.808177
 30
0.0
 10
4.644520
 20
269.531232
 30
0.0
  0
LWPOLYLINE
  5
254
100
AcDbEntity
  8
0
 62
7
100
AcDbPolyline
 90
3
 70
1
 10
5.250000
 20
269.808177
 30
0.0
 10
5.874982
 20
270.042319
 30
0.0
 10
5.250000
 20
269.808177
 30
0.0
  0
LWPOLYLINE
  5
255
100
AcDbEntity
  8
0
 62
7
100
AcDbPolyline
 90
3
 70
1
 10
5.874982
 20
270.042319
 30
0.0
 10
6.519523
 20
270.222318
 30
0.0
 10
5.874982
 20
270.042319
 30
0.0
  0
LWPOLYLINE
  5
256
100
AcDbEntity
  8
0
 62
7
100
AcDbPolyline
 90
3
 70
1
 10
6.519523
 20
270.222318
 30
0.0
 10
7.171859
 20
270.355263
 30
0.0
 10
6.519523
 20
270.222318
 30
0.0
  0
LWPOLYLINE
  5
257
100
AcDbEntity
  8
0
 62
7
100
AcDbPolyline
 90
3
 70
1
 10
7.171859
 20
270.355263
 30
0.0
 10
7.835931
 20
270.429247
 30
0.0
 10
7.171859
 20
270.355263
 30
0.0
  0
LWPOLYLINE
  5
258
100
AcDbEntity
  8
0
 62
7
100
AcDbPolyline
 90
3
 70
1
 10
7.835931
 20
270.429247
 30
0.0
 10
8.503886
 20
270.456176
 30
0.0
 10
7.835931
 20
270.429247
 30
0.0
  0
LWPOLYLINE
  5
259
100
AcDbEntity
  8
0
 62
7
100
AcDbPolyline
 90
3
 70
1
 10
8.503886
 20
270.456176
 30
0.0
 10
503.024085
 20
270.456176
 30
0.0
 10
8.503886
 20
270.456176
 30
0.0
  0
LWPOLYLINE
  5
25a
100
AcDbEntity
  8
0
 62
7
100
AcDbPolyline
 90
3
 70
1
 10
12.253863
 20
18.238246
 30
0.0
 10
10.929659
 20
17.562436
 30
0.0
 10
12.253863
 20
18.238246
 30
0.0
  0
LWPOLYLINE
  5
25b
100
AcDbEntity
  8
0
 62
7
100
AcDbPolyline
 90
3
 70
1
 10
10.929659
 20
17.562436
 30
0.0
 10
9.878858
 20
16.511750
 30
0.0
 10
10.929659
 20
17.562436
 30
0.0
  0
LWPOLYLINE
  5
25c
100
AcDbEntity
  8
0
 62
7
100
AcDbPolyline
 90
3
 70
1
 10
9.878858
 20
16.511750
 30
0.0
 10
9.203108
 20
15.187445
 30
0.0
 10
9.878858
 20
16.511750
 30
0.0
  0
LWPOLYLINE
  5
25d
100
AcDbEntity
  8
0
 62
7
100
AcDbPolyline
 90
3
 70
1
 10
9.203108
 20
15.187445
 30
0.0
 10
8.968739
 20
13.722632
 30
0.0
 10
9.203108
 20
15.187445
 30
0.0
  0
LWPOLYLINE
  5
25e
100
AcDbEntity
  8
0
 62
7
100
AcDbPolyline
 90
3
 70
1
 10
8.968739
 20
13.722632
 30
0.0
 10
9.203108
 20
12.253839
 30
0.0
 10
8.968739
 20
13.722632
 30
0.0
  0
LWPOLYLINE
  5
25f
100
AcDbEntity
  8
0
 62
7
100
AcDbPolyline
 90
3
 70
1
 10
9.203108
 20
12.253839
 30
0.0
 10
9.878858
 20
10.929641
 30
0.0
 10
9.203108
 20
12.253839
 30
0.0
  0
LWPOLYLINE
  5
260
100
AcDbEntity
  8
0
 62
7
100
AcDbPolyline
 90
3
 70
1
 10
9.878858
 20
10.929641
 30
0.0
 10
10.929659
 20
9.878871
 30
0.0
 10
9.878858
 20
10.929641
 30
0.0
  0
LWPOLYLINE
  5
261
100
AcDbEntity
  8
0
 62
7
100
AcDbPolyline
 90
3
 70
1
 10
10.929659
 20
9.878871
 30
0.0
 10
12.253863
 20
9.203104
 30
0.0
 10
10.929659
 20
9.878871
 30
0.0
  0
LWPOLYLINE
  5
262
100
AcDbEntity
  8
0
 62
7
100
AcDbPolyline
 90
3
 70
1
 10
12.253863
 20
9.203104
 30
0.0
 10
13.722661
 20
8.972650
 30
0.0
 10
12.253863
 20
9.203104
 30
0.0
  0
LWPOLYLINE
  5
263
100
AcDbEntity
  8
0
 62
7
100
AcDbPolyline
 90
3
 70
1
 10
13.722661
 20
8.972650
 30
0.0
 10
15.187462
 20
9.203104
 30
0.0
 10
13.722661
 20
8.972650
 30
0.0
  0
LWPOLYLINE
  5
264
100
AcDbEntity
  8
0
 62
7
100
AcDbPolyline
 90
3
 70
1
 10
15.187462
 20
9.203104
 30
0.0
 10
16.511751
 20
9.878871
 30
0.0
 10
15.187462
 20
9.203104
 30
0.0
  0
LWPOLYLINE
  5
265
100
AcDbEntity
  8
0
 62
7
100
AcDbPolyline
 90
3
 70
1
 10
16.511751
 20
9.878871
 30
0.0
 10
17.562439
 20
10.929641
 30
0.0
 10
16.511751
 20
9.878871
 30
0.0
  0
LWPOLYLINE
  5
266
100
AcDbEntity
  8
0
 62
7
100
AcDbPolyline
 90
3
 70
1
 10
17.562439
 20
10.929641
 30
0.0
 10
18.238246
 20
12.253839
 30
0.0
 10
17.562439
 20
10.929641
 30
0.0
  0
LWPOLYLINE
  5
267
100
AcDbEntity
  8
0
 62
7
100
AcDbPolyline
 90
3
 70
1
 10
18.238246
 20
12.253839
 30
0.0
 10
18.468760
 20
13.722632
 30
0.0
 10
18.238246
 20
12.253839
 30
0.0
  0
LWPOLYLINE
  5
268
100
AcDbEntity
  8
0
 62
7
100
AcDbPolyline
 90
3
 70
1
 10
18.468760
 20
13.722632
 30
0.0
 10
18.238246
 20
15.187445
 30
0.0
 10
18.468760
 20
13.722632
 30
0.0
  0
LWPOLYLINE
  5
269
100
AcDbEntity
  8
0
 62
7
100
AcDbPolyline
 90
3
 70
1
 10
18.238246
 20
15.187445
 30
0.0
 10
17.562439
 20
16.511750
 30
0.0
 10
18.238246
 20
15.187445
 30
0.0
  0
LWPOLYLINE
  5
26a
100
AcDbEntity
  8
0
 62
7
100
AcDbPolyline
 90
3
 70
1
 10
17.562439
 20
16.511750
 30
0.0
 10
16.511751
 20
17.562436
 30
0.0
 10
17.562439
 20
16.511750
 30
0.0
  0
LWPOLYLINE
  5
26b
100
AcDbEntity
  8
0
 62
7
100
AcDbPolyline
 90
3
 70
1
 10
16.511751
 20
17.562436
 30
0.0
 10
15.187462
 20
18.238246
 30
0.0
 10
16.511751
 20
17.562436
 30
0.0
  0
LWPOLYLINE
  5
26c
100
AcDbEntity
  8
0
 62
7
100
AcDbPolyline
 90
3
 70
1
 10
15.187462
 20
18.238246
 30
0.0
 10
13.722661
 20
18.468742
 30
0.0
 10
15.187462
 20
18.238246
 30
0.0
  0
LWPOLYLINE
  5
26d
100
AcDbEntity
  8
0
 62
7
100
AcDbPolyline
 90
3
 70
1
 10
13.722661
 20
18.468742
 30
0.0
 10
12.253863
 20
18.238246
 30
0.0
 10
13.722661
 20
18.468742
 30
0.0
  0
LWPOLYLINE
  5
26e
100
AcDbEntity
  8
0
 62
7
100
AcDbPolyline
 90
3
 70
1
 10
219.257079
 20
18.238246
 30
0.0
 10
217.933316
 20
17.562436
 30
0.0
 10
219.257079
 20
18.238246
 30
0.0
  0
LWPOLYLINE
  5
26f
100
AcDbEntity
  8
0
 62
7
100
AcDbPolyline
 90
3
 70
1
 10
217.933316
 20
17.562436
 30
0.0
 10
216.882219
 20
16.511750
 30
0.0
 10
217.933316
 20
17.562436
 30
0.0
  0
LWPOLYLINE
  5
270
100
AcDbEntity
  8
0
 62
7
100
AcDbPolyline
 90
3
 70
1
 10
216.882219
 20
16.511750
 30
0.0
 10
216.207296
 20
15.187445
 30
0.0
 10
216.882219
 20
16.511750
 30
0.0
  0
LWPOLYLINE
  5
271
100
AcDbEntity
  8
0
 62
7
100
AcDbPolyline
 90
3
 70
1
 10
216.207296
 20
15.187445
 30
0.0
 10
215.976281
 20
13.722632
 30
0.0
 10
216.207296
 20
15.187445
 30
0.0
  0
LWPOLYLINE
  5
272
100
AcDbEntity
  8
0
 62
7
100
AcDbPolyline
 90
3
 70
1
 10
215.976281
 20
13.722632
 30
0.0
 10
216.207296
 20
12.253839
 30
0.0
 10
215.976281
 20
13.722632
 30
0.0
  0
LWPOLYLINE
  5
273
100
AcDbEntity
  8
0
 62
7
100
AcDbPolyline
 90
3
 70
1
 10
216.207296
 20
12.253839
 30
0.0
 10
216.882219
 20
10.929641
 30
0.0
 10
216.207296
 20
12.253839
 30
0.0
  0
LWPOLYLINE
  5
274
100
AcDbEntity
  8
0
 62
7
100
AcDbPolyline
 90
3
 70
1
 10
216.882219
 20
10.929641
 30
0.0
 10
217.933316
 20
9.878871
 30
0.0
 10
216.882219
 20
10.929641
 30
0.0
  0
LWPOLYLINE
  5
275
100
AcDbEntity
  8
0
 62
7
100
AcDbPolyline
 90
3
 70
1
 10
217.933316
 20
9.878871
 30
0.0
 10
219.257079
 20
9.203104
 30
0.0
 10
217.933316
 20
9.878871
 30
0.0
  0
LWPOLYLINE
  5
276
100
AcDbEntity
  8
0
 62
7
100
AcDbPolyline
 90
3
 70
1
 10
219.257079
 20
9.203104
 30
0.0
 10
220.726283
 20
8.972650
 30
0.0
 10
219.257079
 20
9.203104
 30
0.0
  0
LWPOLYLINE
  5
277
100
AcDbEntity
  8
0
 62
7
100
AcDbPolyline
 90
3
 70
1
 10
220.726283
 20
8.972650
 30
0.0
 10
222.191227
 20
9.203104
 30
0.0
 10
220.726283
 20
8.972650
 30
0.0
  0
LWPOLYLINE
  5
278
100
AcDbEntity
  8
0
 62
7
100
AcDbPolyline
 90
3
 70
1
 10
222.191227
 20
9.203104
 30
0.0
 10
223.515294
 20
9.878871
 30
0.0
 10
222.191227
 20
9.203104
 30
0.0
  0
LWPOLYLINE
  5
279
100
AcDbEntity
  8
0
 62
7
100
AcDbPolyline
 90
3
 70
1
 10
223.515294
 20
9.878871
 30
0.0
 10
224.566087
 20
10.929641
 30
0.0
 10
223.515294
 20
9.878871
 30
0.0
  0
LWPOLYLINE
  5
27a
100
AcDbEntity
  8
0
 62
7
100
AcDbPolyline
 90
3
 70
1
 10
224.566087
 20
10.929641
 30
0.0
 10
225.242158
 20
12.253839
 30
0.0
 10
224.566087
 20
10.929641
 30
0.0
  0
LWPOLYLINE
  5
27b
100
AcDbEntity
  8
0
 62
7
100
AcDbPolyline
 90
3
 70
1
 10
225.242158
 20
12.253839
 30
0.0
 10
225.472331
 20
13.722632
 30
0.0
 10
225.242158
 20
12.253839
 30
0.0
  0
LWPOLYLINE
  5
27c
100
AcDbEntity
  8
0
 62
7
100
AcDbPolyline
 90
3
 70
1
 10
225.472331
 20
13.722632
 30
0.0
 10
225.242158
 20
15.187445
 30
0.0
 10
225.472331
 20
13.722632
 30
0.0
  0
LWPOLYLINE
  5
27d
100
AcDbEntity
  8
0
 62
7
100
AcDbPolyline
 90
3
 70
1
 10
225.242158
 20
15.187445
 30
0.0
 10
224.566087
 20
16.511750
 30
0.0
 10
225.242158
 20
15.187445
 30
0.0
  0
LWPOLYLINE
  5
27e
100
AcDbEntity
  8
0
 62
7
100
AcDbPolyline
 90
3
 70
1
 10
224.566087
 20
16.511750
 30
0.0
 10
223.515294
 20
17.562436
 30
0.0
 10
224.566087
 20
16.511750
 30
0.0
  0
LWPOLYLINE
  5
27f
100
AcDbEntity
  8
0
 62
7
100
AcDbPolyline
 90
3
 70
1
 10
223.515294
 20
17.562436
 30
0.0
 10
222.191227
 20
18.238246
 30
0.0
 10
223.515294
 20
17.562436
 30
0.0
  0
LWPOLYLINE
  5
280
100
AcDbEntity
  8
0
 62
7
100
AcDbPolyline
 90
3
 70
1
 10
222.191227
 20
18.238246
 30
0.0
 10
220.726283
 20
18.468742
 30
0.0
 10
222.191227
 20
18.238246
 30
0.0
  0
LWPOLYLINE
  5
281
100
AcDbEntity
  8
0
 62
7
100
AcDbPolyline
 90
3
 70
1
 10
220.726283
 20
18.468742
 30
0.0
 10
219.257079
 20
18.238246
 30
0.0
 10
220.726283
 20
18.468742
 30
0.0
  0
LWPOLYLINE
  5
282
100
AcDbEntity
  8
0
 62
7
100
AcDbPolyline
 90
3
 70
1
 10
426.264802
 20
18.238246
 30
0.0
 10
424.940995
 20
17.562436
 30
0.0
 10
426.264802
 20
18.238246
 30
0.0
  0
LWPOLYLINE
  5
283
100
AcDbEntity
  8
0
 62
7
100
AcDbPolyline
 90
3
 70
1
 10
424.940995
 20
17.562436
 30
0.0
 10
423.886536
 20
16.511750
 30
0.0
 10
424.940995
 20
17.562436
 30
0.0
  0
LWPOLYLINE
  5
284
100
AcDbEntity
  8
0
 62
7
100
AcDbPolyline
 90
3
 70
1
 10
423.886536
 20
16.511750
 30
0.0
 10
423.214726
 20
15.187445
 30
0.0
 10
423.886536
 20
16.511750
 30
0.0
  0
LWPOLYLINE
  5
285
100
AcDbEntity
  8
0
 62
7
100
AcDbPolyline
 90
3
 70
1
 10
423.214726
 20
15.187445
 30
0.0
 10
422.985092
 20
13.722632
 30
0.0
 10
423.214726
 20
15.187445
 30
0.0
  0
LWPOLYLINE
  5
286
100
AcDbEntity
  8
0
 62
7
100
AcDbPolyline
 90
3
 70
1
 10
422.985092
 20
13.722632
 30
0.0
 10
423.214726
 20
12.253839
 30
0.0
 10
422.985092
 20
13.722632
 30
0.0
  0
LWPOLYLINE
  5
287
100
AcDbEntity
  8
0
 62
7
100
AcDbPolyline
 90
3
 70
1
 10
423.214726
 20
12.253839
 30
0.0
 10
423.886536
 20
10.929641
 30
0.0
 10
423.214726
 20
12.253839
 30
0.0
  0
LWPOLYLINE
  5
288
100
AcDbEntity
  8
0
 62
7
100
AcDbPolyline
 90
3
 70
1
 10
423.886536
 20
10.929641
 30
0.0
 10
424.940995
 20
9.878871
 30
0.0
 10
423.886536
 20
10.929641
 30
0.0
  0
LWPOLYLINE
  5
289
100
AcDbEntity
  8
0
 62
7
100
AcDbPolyline
 90
3
 70
1
 10
424.940995
 20
9.878871
 30
0.0
 10
426.264802
 20
9.203104
 30
0.0
 10
424.940995
 20
9.878871
 30
0.0
  0
LWPOLYLINE
  5
28a
100
AcDbEntity
  8
0
 62
7
100
AcDbPolyline
 90
3
 70
1
 10
426.264802
 20
9.203104
 30
0.0
 10
427.730311
 20
8.972650
 30
0.0
 10
426.264802
 20
9.203104
 30
0.0
  0
LWPOLYLINE
  5
28b
100
AcDbEntity
  8
0
 62
7
100
AcDbPolyline
 90
3
 70
1
 10
427.730311
 20
8.972650
 30
0.0
 10
429.198628
 20
9.203104
 30
0.0
 10
427.730311
 20
8.972650
 30
0.0
  0
LWPOLYLINE
  5
28c
100
AcDbEntity
  8
0
 62
7
100
AcDbPolyline
 90
3
 70
1
 10
429.198628
 20
9.203104
 30
0.0
 10
430.519571
 20
9.878871
 30
0.0
 10
429.198628
 20
9.203104
 30
0.0
  0
LWPOLYLINE
  5
28d
100
AcDbEntity
  8
0
 62
7
100
AcDbPolyline
 90
3
 70
1
 10
430.519571
 20
9.878871
 30
0.0
 10
431.574059
 20
10.929641
 30
0.0
 10
430.519571
 20
9.878871
 30
0.0
  0
LWPOLYLINE
  5
28e
100
AcDbEntity
  8
0
 62
7
100
AcDbPolyline
 90
3
 70
1
 10
431.574059
 20
10.929641
 30
0.0
 10
432.245869
 20
12.253839
 30
0.0
 10
431.574059
 20
10.929641
 30
0.0
  0
LWPOLYLINE
  5
28f
100
AcDbEntity
  8
0
 62
7
100
AcDbPolyline
 90
3
 70
1
 10
432.245869
 20
12.253839
 30
0.0
 10
432.481172
 20
13.722632
 30
0.0
 10
432.245869
 20
12.253839
 30
0.0
  0
LWPOLYLINE
  5
290
100
AcDbEntity
  8
0
 62
7
100
AcDbPolyline
 90
3
 70
1
 10
432.481172
 20
13.722632
 30
0.0
 10
432.245869
 20
15.187445
 30
0.0
 10
432.481172
 20
13.722632
 30
0.0
  0
LWPOLYLINE
  5
291
100
AcDbEntity
  8
0
 62
7
100
AcDbPolyline
 90
3
 70
1
 10
432.245869
 20
15.187445
 30
0.0
 10
431.574059
 20
16.511750
 30
0.0
 10
432.245869
 20
15.187445
 30
0.0
  0
LWPOLYLINE
  5
292
100
AcDbEntity
  8
0
 62
7
100
AcDbPolyline
 90
3
 70
1
 10
431.574059
 20
16.511750
 30
0.0
 10
430.519571
 20
17.562436
 30
0.0
 10
431.574059
 20
16.511750
 30
0.0
  0
LWPOLYLINE
  5
293
100
AcDbEntity
  8
0
 62
7
100
AcDbPolyline
 90
3
 70
1
 10
430.519571
 20
17.562436
 30
0.0
 10
429.198628
 20
18.238246
 30
0.0
 10
430.519571
 20
17.562436
 30
0.0
  0
LWPOLYLINE
  5
294
100
AcDbEntity
  8
0
 62
7
100
AcDbPolyline
 90
3
 70
1
 10
429.198628
 20
18.238246
 30
0.0
 10
427.730311
 20
18.468742
 30
0.0
 10
429.198628
 20
18.238246
 30
0.0
  0
LWPOLYLINE
  5
295
100
AcDbEntity
  8
0
 62
7
100
AcDbPolyline
 90
3
 70
1
 10
427.730311
 20
18.468742
 30
0.0
 10
426.264802
 20
18.238246
 30
0.0
 10
427.730311
 20
18.468742
 30
0.0
  0
LWPOLYLINE
  5
296
100
AcDbEntity
  8
0
 62
7
100
AcDbPolyline
 90
3
 70
1
 10
633.267373
 20
18.238246
 30
0.0
 10
631.943595
 20
17.562436
 30
0.0
 10
633.267373
 20
18.238246
 30
0.0
  0
LWPOLYLINE
  5
297
100
AcDbEntity
  8
0
 62
7
100
AcDbPolyline
 90
3
 70
1
 10
631.943595
 20
17.562436
 30
0.0
 10
630.894806
 20
16.511750
 30
0.0
 10
631.943595
 20
17.562436
 30
0.0
  0
LWPOLYLINE
  5
298
100
AcDbEntity
  8
0
 62
7
100
AcDbPolyline
 90
3
 70
1
 10
630.894806
 20
16.511750
 30
0.0
 10
630.217326
 20
15.187445
 30
0.0
 10
630.894806
 20
16.511750
 30
0.0
  0
LWPOLYLINE
  5
299
100
AcDbEntity
  8
0
 62
7
100
AcDbPolyline
 90
3
 70
1
 10
630.217326
 20
15.187445
 30
0.0
 10
629.987691
 20
13.722632
 30
0.0
 10
630.217326
 20
15.187445
 30
0.0
  0
LWPOLYLINE
  5
29a
100
AcDbEntity
  8
0
 62
7
100
AcDbPolyline
 90
3
 70
1
 10
629.987691
 20
13.722632
 30
0.0
 10
630.217326
 20
12.253839
 30
0.0
 10
629.987691
 20
13.722632
 30
0.0
  0
LWPOLYLINE
  5
29b
100
AcDbEntity
  8
0
 62
7
100
AcDbPolyline
 90
3
 70
1
 10
630.217326
 20
12.253839
 30
0.0
 10
630.894806
 20
10.929641
 30
0.0
 10
630.217326
 20
12.253839
 30
0.0
  0
LWPOLYLINE
  5
29c
100
AcDbEntity
  8
0
 62
7
100
AcDbPolyline
 90
3
 70
1
 10
630.894806
 20
10.929641
 30
0.0
 10
631.943595
 20
9.878871
 30
0.0
 10
630.894806
 20
10.929641
 30
0.0
  0
LWPOLYLINE
  5
29d
100
AcDbEntity
  8
0
 62
7
100
AcDbPolyline
 90
3
 70
1
 10
631.943595
 20
9.878871
 30
0.0
 10
633.267373
 20
9.203104
 30
0.0
 10
631.943595
 20
9.878871
 30
0.0
  0
LWPOLYLINE
  5
29e
100
AcDbEntity
  8
0
 62
7
100
AcDbPolyline
 90
3
 70
1
 10
633.267373
 20
9.203104
 30
0.0
 10
634.738581
 20
8.972650
 30
0.0
 10
633.267373
 20
9.203104
 30
0.0
  0
LWPOLYLINE
  5
29f
100
AcDbEntity
  8
0
 62
7
100
AcDbPolyline
 90
3
 70
1
 10
634.738581
 20
8.972650
 30
0.0
 10
636.204091
 20
9.203104
 30
0.0
 10
634.738581
 20
8.972650
 30
0.0
  0
LWPOLYLINE
  5
2a0
100
AcDbEntity
  8
0
 62
7
100
AcDbPolyline
 90
3
 70
1
 10
636.204091
 20
9.203104
 30
0.0
 10
637.527841
 20
9.878871
 30
0.0
 10
636.204091
 20
9.203104
 30
0.0
  0
LWPOLYLINE
  5
2a1
100
AcDbEntity
  8
0
 62
7
100
AcDbPolyline
 90
3
 70
1
 10
637.527841
 20
9.878871
 30
0.0
 10
638.576658
 20
10.929641
 30
0.0
 10
637.527841
 20
9.878871
 30
0.0
  0
LWPOLYLINE
  5
2a2
100
AcDbEntity
  8
0
 62
7
100
AcDbPolyline
 90
3
 70
1
 10
638.576658
 20
10.929641
 30
0.0
 10
639.254138
 20
12.253839
 30
0.0
 10
638.576658
 20
10.929641
 30
0.0
  0
LWPOLYLINE
  5
2a3
100
AcDbEntity
  8
0
 62
7
100
AcDbPolyline
 90
3
 70
1
 10
639.254138
 20
12.253839
 30
0.0
 10
639.483772
 20
13.722632
 30
0.0
 10
639.254138
 20
12.253839
 30
0.0
  0
LWPOLYLINE
  5
2a4
100
AcDbEntity
  8
0
 62
7
100
AcDbPolyline
 90
3
 70
1
 10
639.483772
 20
13.722632
 30
0.0
 10
639.254138
 20
15.187445
 30
0.0
 10
639.483772
 20
13.722632
 30
0.0
  0
LWPOLYLINE
  5
2a5
100
AcDbEntity
  8
0
 62
7
100
AcDbPolyline
 90
3
 70
1
 10
639.254138
 20
15.187445
 30
0.0
 10
638.576658
 20
16.511750
 30
0.0
 10
639.254138
 20
15.187445
 30
0.0
  0
LWPOLYLINE
  5
2a6
100
AcDbEntity
  8
0
 62
7
100
AcDbPolyline
 90
3
 70
1
 10
638.576658
 20
16.511750
 30
0.0
 10
637.527841
 20
17.562436
 30
0.0
 10
638.576658
 20
16.511750
 30
0.0
  0
LWPOLYLINE
  5
2a7
100
AcDbEntity
  8
0
 62
7
100
AcDbPolyline
 90
3
 70
1
 10
637.527841
 20
17.562436
 30
0.0
 10
636.204091
 20
18.238246
 30
0.0
 10
637.527841
 20
17.562436
 30
0.0
  0
LWPOLYLINE
  5
2a8
100
AcDbEntity
  8
0
 62
7
100
AcDbPolyline
 90
3
 70
1
 10
636.204091
 20
18.238246
 30
0.0
 10
634.738581
 20
18.468742
 30
0.0
 10
636.204091
 20
18.238246
 30
0.0
  0
LWPOLYLINE
  5
2a9
100
AcDbEntity
  8
0
 62
7
100
AcDbPolyline
 90
3
 70
1
 10
634.738581
 20
18.468742
 30
0.0
 10
633.267373
 20
18.238246
 30
0.0
 10
634.738581
 20
18.468742
 30
0.0
  0
LWPOLYLINE
  5
2aa
100
AcDbEntity
  8
0
 62
7
100
AcDbPolyline
 90
3
 70
1
 10
12.253863
 20
261.253226
 30
0.0
 10
10.929659
 20
260.578298
 30
0.0
 10
12.253863
 20
261.253226
 30
0.0
  0
LWPOLYLINE
  5
2ab
100
AcDbEntity
  8
0
 62
7
100
AcDbPolyline
 90
3
 70
1
 10
10.929659
 20
260.578298
 30
0.0
 10
9.878858
 20
259.527213
 30
0.0
 10
10.929659
 20
260.578298
 30
0.0
  0
LWPOLYLINE
  5
2ac
100
AcDbEntity
  8
0
 62
7
100
AcDbPolyline
 90
3
 70
1
 10
9.878858
 20
259.527213
 30
0.0
 10
9.203108
 20
258.203151
 30
0.0
 10
9.878858
 20
259.527213
 30
0.0
  0
LWPOLYLINE
  5
2ad
100
AcDbEntity
  8
0
 62
7
100
AcDbPolyline
 90
3
 70
1
 10
9.203108
 20
258.203151
 30
0.0
 10
8.968739
 20
256.734240
 30
0.0
 10
9.203108
 20
258.203151
 30
0.0
  0
LWPOLYLINE
  5
2ae
100
AcDbEntity
  8
0
 62
7
100
AcDbPolyline
 90
3
 70
1
 10
8.968739
 20
256.734240
 30
0.0
 10
9.203108
 20
255.269295
 30
0.0
 10
8.968739
 20
256.734240
 30
0.0
  0
LWPOLYLINE
  5
2af
100
AcDbEntity
  8
0
 62
7
100
AcDbPolyline
 90
3
 70
1
 10
9.203108
 20
255.269295
 30
0.0
 10
9.878858
 20
253.945235
 30
0.0
 10
9.203108
 20
255.269295
 30
0.0
  0
LWPOLYLINE
  5
2b0
100
AcDbEntity
  8
0
 62
7
100
AcDbPolyline
 90
3
 70
1
 10
9.878858
 20
253.945235
 30
0.0
 10
10.929659
 20
252.894149
 30
0.0
 10
9.878858
 20
253.945235
 30
0.0
  0
LWPOLYLINE
  5
2b1
100
AcDbEntity
  8
0
 62
7
100
AcDbPolyline
 90
3
 70
1
 10
10.929659
 20
252.894149
 30
0.0
 10
12.253863
 20
252.218371
 30
0.0
 10
10.929659
 20
252.894149
 30
0.0
  0
LWPOLYLINE
  5
2b2
100
AcDbEntity
  8
0
 62
7
100
AcDbPolyline
 90
3
 70
1
 10
12.253863
 20
252.218371
 30
0.0
 10
13.722661
 20
251.988197
 30
0.0
 10
12.253863
 20
252.218371
 30
0.0
  0
LWPOLYLINE
  5
2b3
100
AcDbEntity
  8
0
 62
7
100
AcDbPolyline
 90
3
 70
1
 10
13.722661
 20
251.988197
 30
0.0
 10
15.187462
 20
252.218371
 30
0.0
 10
13.722661
 20
251.988197
 30
0.0
  0
LWPOLYLINE
  5
2b4
100
AcDbEntity
  8
0
 62
7
100
AcDbPolyline
 90
3
 70
1
 10
15.187462
 20
252.218371
 30
0.0
 10
16.511751
 20
252.894149
 30
0.0
 10
15.187462
 20
252.218371
 30
0.0
  0
LWPOLYLINE
  5
2b5
100
AcDbEntity
  8
0
 62
7
100
AcDbPolyline
 90
3
 70
1
 10
16.511751
 20
252.894149
 30
0.0
 10
17.562439
 20
253.945235
 30
0.0
 10
16.511751
 20
252.894149
 30
0.0
  0
LWPOLYLINE
  5
2b6
100
AcDbEntity
  8
0
 62
7
100
AcDbPolyline
 90
3
 70
1
 10
17.562439
 20
253.945235
 30
0.0
 10
18.238246
 20
255.269295
 30
0.0
 10
17.562439
 20
253.945235
 30
0.0
  0
LWPOLYLINE
  5
2b7
100
AcDbEntity
  8
0
 62
7
100
AcDbPolyline
 90
3
 70
1
 10
18.238246
 20
255.269295
 30
0.0
 10
18.468760
 20
256.734240
 30
0.0
 10
18.238246
 20
255.269295
 30
0.0
  0
LWPOLYLINE
  5
2b8
100
AcDbEntity
  8
0
 62
7
100
AcDbPolyline
 90
3
 70
1
 10
18.468760
 20
256.734240
 30
0.0
 10
18.238246
 20
258.203151
 30
0.0
 10
18.468760
 20
256.734240
 30
0.0
  0
LWPOLYLINE
  5
2b9
100
AcDbEntity
  8
0
 62
7
100
AcDbPolyline
 90
3
 70
1
 10
18.238246
 20
258.203151
 30
0.0
 10
17.562439
 20
259.527213
 30
0.0
 10
18.238246
 20
258.203151
 30
0.0
  0
LWPOLYLINE
  5
2ba
100
AcDbEntity
  8
0
 62
7
100
AcDbPolyline
 90
3
 70
1
 10
17.562439
 20
259.527213
 30
0.0
 10
16.511751
 20
260.578298
 30
0.0
 10
17.562439
 20
259.527213
 30
0.0
  0
LWPOLYLINE
  5
2bb
100
AcDbEntity
  8
0
 62
7
100
AcDbPolyline
 90
3
 70
1
 10
16.511751
 20
260.578298
 30
0.0
 10
15.187462
 20
261.253226
 30
0.0
 10
16.511751
 20
260.578298
 30
0.0
  0
LWPOLYLINE
  5
2bc
100
AcDbEntity
  8
0
 62
7
100
AcDbPolyline
 90
3
 70
1
 10
15.187462
 20
261.253226
 30
0.0
 10
13.722661
 20
261.488218
 30
0.0
 10
15.187462
 20
261.253226
 30
0.0
  0
LWPOLYLINE
  5
2bd
100
AcDbEntity
  8
0
 62
7
100
AcDbPolyline
 90
3
 70
1
 10
13.722661
 20
261.488218
 30
0.0
 10
12.253863
 20
261.253226
 30
0.0
 10
13.722661
 20
261.488218
 30
0.0
  0
LWPOLYLINE
  5
2be
100
AcDbEntity
  8
0
 62
7
100
AcDbPolyline
 90
3
 70
1
 10
633.267373
 20
261.253226
 30
0.0
 10
631.943595
 20
260.578298
 30
0.0
 10
633.267373
 20
261.253226
 30
0.0
  0
LWPOLYLINE
  5
2bf
100
AcDbEntity
  8
0
 62
7
100
AcDbPolyline
 90
3
 70
1
 10
631.943595
 20
260.578298
 30
0.0
 10
630.894806
 20
259.527213
 30
0.0
 10
631.943595
 20
260.578298
 30
0.0
  0
LWPOLYLINE
  5
2c0
100
AcDbEntity
  8
0
 62
7
100
AcDbPolyline
 90
3
 70
1
 10
630.894806
 20
259.527213
 30
0.0
 10
630.217326
 20
258.203151
 30
0.0
 10
630.894806
 20
259.527213
 30
0.0
  0
LWPOLYLINE
  5
2c1
100
AcDbEntity
  8
0
 62
7
100
AcDbPolyline
 90
3
 70
1
 10
630.217326
 20
258.203151
 30
0.0
 10
629.987691
 20
256.734240
 30
0.0
 10
630.217326
 20
258.203151
 30
0.0
  0
LWPOLYLINE
  5
2c2
100
AcDbEntity
  8
0
 62
7
100
AcDbPolyline
 90
3
 70
1
 10
629.987691
 20
256.734240
 30
0.0
 10
630.217326
 20
255.269295
 30
0.0
 10
629.987691
 20
256.734240
 30
0.0
  0
LWPOLYLINE
  5
2c3
100
AcDbEntity
  8
0
 62
7
100
AcDbPolyline
 90
3
 70
1
 10
630.217326
 20
255.269295
 30
0.0
 10
630.894806
 20
253.945235
 30
0.0
 10
630.217326
 20
255.269295
 30
0.0
  0
LWPOLYLINE
  5
2c4
100
AcDbEntity
  8
0
 62
7
100
AcDbPolyline
 90
3
 70
1
 10
630.894806
 20
253.945235
 30
0.0
 10
631.943595
 20
252.894149
 30
0.0
 10
630.894806
 20
253.945235
 30
0.0
  0
LWPOLYLINE
  5
2c5
100
AcDbEntity
  8
0
 62
7
100
AcDbPolyline
 90
3
 70
1
 10
631.943595
 20
252.894149
 30
0.0
 10
633.267373
 20
252.218371
 30
0.0
 10
631.943595
 20
252.894149
 30
0.0
  0
LWPOLYLINE
  5
2c6
100
AcDbEntity
  8
0
 62
7
100
AcDbPolyline
 90
3
 70
1
 10
633.267373
 20
252.218371
 30
0.0
 10
634.738581
 20
251.988197
 30
0.0
 10
633.267373
 20
252.218371
 30
0.0
  0
LWPOLYLINE
  5
2c7
100
AcDbEntity
  8
0
 62
7
100
AcDbPolyline
 90
3
 70
1
 10
634.738581
 20
251.988197
 30
0.0
 10
636.204091
 20
252.218371
 30
0.0
 10
634.738581
 20
251.988197
 30
0.0
  0
LWPOLYLINE
  5
2c8
100
AcDbEntity
  8
0
 62
7
100
AcDbPolyline
 90
3
 70
1
 10
636.204091
 20
252.218371
 30
0.0
 10
637.527841
 20
252.894149
 30
0.0
 10
636.204091
 20
252.218371
 30
0.0
  0
LWPOLYLINE
  5
2c9
100
AcDbEntity
  8
0
 62
7
100
AcDbPolyline
 90
3
 70
1
 10
637.527841
 20
252.894149
 30
0.0
 10
638.576658
 20
253.945235
 30
0.0
 10
637.527841
 20
252.894149
 30
0.0
  0
LWPOLYLINE
  5
2ca
100
AcDbEntity
  8
0
 62
7
100
AcDbPolyline
 90
3
 70
1
 10
638.576658
 20
253.945235
 30
0.0
 10
639.254138
 20
255.269295
 30
0.0
 10
638.576658
 20
253.945235
 30
0.0
  0
LWPOLYLINE
  5
2cb
100
AcDbEntity
  8
0
 62
7
100
AcDbPolyline
 90
3
 70
1
 10
639.254138
 20
255.269295
 30
0.0
 10
639.483772
 20
256.734240
 30
0.0
 10
639.254138
 20
255.269295
 30
0.0
  0
LWPOLYLINE
  5
2cc
100
AcDbEntity
  8
0
 62
7
100
AcDbPolyline
 90
3
 70
1
 10
639.483772
 20
256.734240
 30
0.0
 10
639.254138
 20
258.203151
 30
0.0
 10
639.483772
 20
256.734240
 30
0.0
  0
LWPOLYLINE
  5
2cd
100
AcDbEntity
  8
0
 62
7
100
AcDbPolyline
 90
3
 70
1
 10
639.254138
 20
258.203151
 30
0.0
 10
638.576658
 20
259.527213
 30
0.0
 10
639.254138
 20
258.203151
 30
0.0
  0
LWPOLYLINE
  5
2ce
100
AcDbEntity
  8
0
 62
7
100
AcDbPolyline
 90
3
 70
1
 10
638.576658
 20
259.527213
 30
0.0
 10
637.527841
 20
260.578298
 30
0.0
 10
638.576658
 20
259.527213
 30
0.0
  0
LWPOLYLINE
  5
2cf
100
AcDbEntity
  8
0
 62
7
100
AcDbPolyline
 90
3
 70
1
 10
637.527841
 20
260.578298
 30
0.0
 10
636.204091
 20
261.253226
 30
0.0
 10
637.527841
 20
260.578298
 30
0.0
  0
LWPOLYLINE
  5
2d0
100
AcDbEntity
  8
0
 62
7
100
AcDbPolyline
 90
3
 70
1
 10
636.204091
 20
261.253226
 30
0.0
 10
634.738581
 20
261.488218
 30
0.0
 10
636.204091
 20
261.253226
 30
0.0
  0
LWPOLYLINE
  5
2d1
100
AcDbEntity
  8
0
 62
7
100
AcDbPolyline
 90
3
 70
1
 10
634.738581
 20
261.488218
 30
0.0
 10
633.267373
 20
261.253226
 30
0.0
 10
634.738581
 20
261.488218
 30
0.0
  0
LWPOLYLINE
  5
2d2
100
AcDbEntity
  8
0
 62
7
100
AcDbPolyline
 90
3
 70
1
 10
426.264802
 20
261.253226
 30
0.0
 10
424.940995
 20
260.578298
 30
0.0
 10
426.264802
 20
261.253226
 30
0.0
  0
LWPOLYLINE
  5
2d3
100
AcDbEntity
  8
0
 62
7
100
AcDbPolyline
 90
3
 70
1
 10
424.940995
 20
260.578298
 30
0.0
 10
423.886536
 20
259.527213
 30
0.0
 10
424.940995
 20
260.578298
 30
0.0
  0
LWPOLYLINE
  5
2d4
100
AcDbEntity
  8
0
 62
7
100
AcDbPolyline
 90
3
 70
1
 10
423.886536
 20
259.527213
 30
0.0
 10
423.214726
 20
258.203151
 30
0.0
 10
423.886536
 20
259.527213
 30
0.0
  0
LWPOLYLINE
  5
2d5
100
AcDbEntity
  8
0
 62
7
100
AcDbPolyline
 90
3
 70
1
 10
423.214726
 20
258.203151
 30
0.0
 10
422.985092
 20
256.734240
 30
0.0
 10
423.214726
 20
258.203151
 30
0.0
  0
LWPOLYLINE
  5
2d6
100
AcDbEntity
  8
0
 62
7
100
AcDbPolyline
 90
3
 70
1
 10
422.985092
 20
256.734240
 30
0.0
 10
423.214726
 20
255.269295
 30
0.0
 10
422.985092
 20
256.734240
 30
0.0
  0
LWPOLYLINE
  5
2d7
100
AcDbEntity
  8
0
 62
7
100
AcDbPolyline
 90
3
 70
1
 10
423.214726
 20
255.269295
 30
0.0
 10
423.886536
 20
253.945235
 30
0.0
 10
423.214726
 20
255.269295
 30
0.0
  0
LWPOLYLINE
  5
2d8
100
AcDbEntity
  8
0
 62
7
100
AcDbPolyline
 90
3
 70
1
 10
423.886536
 20
253.945235
 30
0.0
 10
424.940995
 20
252.894149
 30
0.0
 10
423.886536
 20
253.945235
 30
0.0
  0
LWPOLYLINE
  5
2d9
100
AcDbEntity
  8
0
 62
7
100
AcDbPolyline
 90
3
 70
1
 10
424.940995
 20
252.894149
 30
0.0
 10
426.264802
 20
252.218371
 30
0.0
 10
424.940995
 20
252.894149
 30
0.0
  0
LWPOLYLINE
  5
2da
100
AcDbEntity
  8
0
 62
7
100
AcDbPolyline
 90
3
 70
1
 10
426.264802
 20
252.218371
 30
0.0
 10
427.730311
 20
251.988197
 30
0.0
 10
426.264802
 20
252.218371
 30
0.0
  0
LWPOLYLINE
  5
2db
100
AcDbEntity
  8
0
 62
7
100
AcDbPolyline
 90
3
 70
1
 10
427.730311
 20
251.988197
 30
0.0
 10
429.198628
 20
252.218371
 30
0.0
 10
427.730311
 20
251.988197
 30
0.0
  0
LWPOLYLINE
  5
2dc
100
AcDbEntity
  8
0
 62
7
100
AcDbPolyline
 90
3
 70
1
 10
429.198628
 20
252.218371
 30
0.0
 10
430.519571
 20
252.894149
 30
0.0
 10
429.198628
 20
252.218371
 30
0.0
  0
LWPOLYLINE
  5
2dd
100
AcDbEntity
  8
0
 62
7
100
AcDbPolyline
 90
3
 70
1
 10
430.519571
 20
252.894149
 30
0.0
 10
431.574059
 20
253.945235
 30
0.0
 10
430.519571
 20
252.894149
 30
0.0
  0
LWPOLYLINE
  5
2de
100
AcDbEntity
  8
0
 62
7
100
AcDbPolyline
 90
3
 70
1
 10
431.574059
 20
253.945235
 30
0.0
 10
432.245869
 20
255.269295
 30
0.0
 10
431.574059
 20
253.945235
 30
0.0
  0
LWPOLYLINE
  5
2df
100
AcDbEntity
  8
0
 62
7
100
AcDbPolyline
 90
3
 70
1
 10
432.245869
 20
255.269295
 30
0.0
 10
432.481172
 20
256.734240
 30
0.0
 10
432.245869
 20
255.269295
 30
0.0
  0
LWPOLYLINE
  5
2e0
100
AcDbEntity
  8
0
 62
7
100
AcDbPolyline
 90
3
 70
1
 10
432.481172
 20
256.734240
 30
0.0
 10
432.245869
 20
258.203151
 30
0.0
 10
432.481172
 20
256.734240
 30
0.0
  0
LWPOLYLINE
  5
2e1
100
AcDbEntity
  8
0
 62
7
100
AcDbPolyline
 90
3
 70
1
 10
432.245869
 20
258.203151
 30
0.0
 10
431.574059
 20
259.527213
 30
0.0
 10
432.245869
 20
258.203151
 30
0.0
  0
LWPOLYLINE
  5
2e2
100
AcDbEntity
  8
0
 62
7
100
AcDbPolyline
 90
3
 70
1
 10
431.574059
 20
259.527213
 30
0.0
 10
430.519571
 20
260.578298
 30
0.0
 10
431.574059
 20
259.527213
 30
0.0
  0
LWPOLYLINE
  5
2e3
100
AcDbEntity
  8
0
 62
7
100
AcDbPolyline
 90
3
 70
1
 10
430.519571
 20
260.578298
 30
0.0
 10
429.198628
 20
261.253226
 30
0.0
 10
430.519571
 20
260.578298
 30
0.0
  0
LWPOLYLINE
  5
2e4
100
AcDbEntity
  8
0
 62
7
100
AcDbPolyline
 90
3
 70
1
 10
429.198628
 20
261.253226
 30
0.0
 10
427.730311
 20
261.488218
 30
0.0
 10
429.198628
 20
261.253226
 30
0.0
  0
LWPOLYLINE
  5
2e5
100
AcDbEntity
  8
0
 62
7
100
AcDbPolyline
 90
3
 70
1
 10
427.730311
 20
261.488218
 30
0.0
 10
426.264802
 20
261.253226
 30
0.0
 10
427.730311
 20
261.488218
 30
0.0
  0
LWPOLYLINE
  5
2e6
100
AcDbEntity
  8
0
 62
7
100
AcDbPolyline
 90
3
 70
1
 10
219.257079
 20
261.253226
 30
0.0
 10
217.933316
 20
260.578298
 30
0.0
 10
219.257079
 20
261.253226
 30
0.0
  0
LWPOLYLINE
  5
2e7
100
AcDbEntity
  8
0
 62
7
100
AcDbPolyline
 90
3
 70
1
 10
217.933316
 20
260.578298
 30
0.0
 10
216.882219
 20
259.527213
 30
0.0
 10
217.933316
 20
260.578298
 30
0.0
  0
LWPOLYLINE
  5
2e8
100
AcDbEntity
  8
0
 62
7
100
AcDbPolyline
 90
3
 70
1
 10
216.882219
 20
259.527213
 30
0.0
 10
216.207296
 20
258.203151
 30
0.0
 10
216.882219
 20
259.527213
 30
0.0
  0
LWPOLYLINE
  5
2e9
100
AcDbEntity
  8
0
 62
7
100
AcDbPolyline
 90
3
 70
1
 10
216.207296
 20
258.203151
 30
0.0
 10
215.976281
 20
256.734240
 30
0.0
 10
216.207296
 20
258.203151
 30
0.0
  0
LWPOLYLINE
  5
2ea
100
AcDbEntity
  8
0
 62
7
100
AcDbPolyline
 90
3
 70
1
 10
215.976281
 20
256.734240
 30
0.0
 10
216.207296
 20
255.269295
 30
0.0
 10
215.976281
 20
256.734240
 30
0.0
  0
LWPOLYLINE
  5
2eb
100
AcDbEntity
  8
0
 62
7
100
AcDbPolyline
 90
3
 70
1
 10
216.207296
 20
255.269295
 30
0.0
 10
216.882219
 20
253.945235
 30
0.0
 10
216.207296
 20
255.269295
 30
0.0
  0
LWPOLYLINE
  5
2ec
100
AcDbEntity
  8
0
 62
7
100
AcDbPolyline
 90
3
 70
1
 10
216.882219
 20
253.945235
 30
0.0
 10
217.933316
 20
252.894149
 30
0.0
 10
216.882219
 20
253.945235
 30
0.0
  0
LWPOLYLINE
  5
2ed
100
AcDbEntity
  8
0
 62
7
100
AcDbPolyline
 90
3
 70
1
 10
217.933316
 20
252.894149
 30
0.0
 10
219.257079
 20
252.218371
 30
0.0
 10
217.933316
 20
252.894149
 30
0.0
  0
LWPOLYLINE
  5
2ee
100
AcDbEntity
  8
0
 62
7
100
AcDbPolyline
 90
3
 70
1
 10
219.257079
 20
252.218371
 30
0.0
 10
220.726283
 20
251.988197
 30
0.0
 10
219.257079
 20
252.218371
 30
0.0
  0
LWPOLYLINE
  5
2ef
100
AcDbEntity
  8
0
 62
7
100
AcDbPolyline
 90
3
 70
1
 10
220.726283
 20
251.988197
 30
0.0
 10
222.191227
 20
252.218371
 30
0.0
 10
220.726283
 20
251.988197
 30
0.0
  0
LWPOLYLINE
  5
2f0
100
AcDbEntity
  8
0
 62
7
100
AcDbPolyline
 90
3
 70
1
 10
222.191227
 20
252.218371
 30
0.0
 10
223.515294
 20
252.894149
 30
0.0
 10
222.191227
 20
252.218371
 30
0.0
  0
LWPOLYLINE
  5
2f1
100
AcDbEntity
  8
0
 62
7
100
AcDbPolyline
 90
3
 70
1
 10
223.515294
 20
252.894149
 30
0.0
 10
224.566087
 20
253.945235
 30
0.0
 10
223.515294
 20
252.894149
 30
0.0
  0
LWPOLYLINE
  5
2f2
100
AcDbEntity
  8
0
 62
7
100
AcDbPolyline
 90
3
 70
1
 10
224.566087
 20
253.945235
 30
0.0
 10
225.242158
 20
255.269295
 30
0.0
 10
224.566087
 20
253.945235
 30
0.0
  0
LWPOLYLINE
  5
2f3
100
AcDbEntity
  8
0
 62
7
100
AcDbPolyline
 90
3
 70
1
 10
225.242158
 20
255.269295
 30
0.0
 10
225.472331
 20
256.734240
 30
0.0
 10
225.242158
 20
255.269295
 30
0.0
  0
LWPOLYLINE
  5
2f4
100
AcDbEntity
  8
0
 62
7
100
AcDbPolyline
 90
3
 70
1
 10
225.472331
 20
256.734240
 30
0.0
 10
225.242158
 20
258.203151
 30
0.0
 10
225.472331
 20
256.734240
 30
0.0
  0
LWPOLYLINE
  5
2f5
100
AcDbEntity
  8
0
 62
7
100
AcDbPolyline
 90
3
 70
1
 10
225.242158
 20
258.203151
 30
0.0
 10
224.566087
 20
259.527213
 30
0.0
 10
225.242158
 20
258.203151
 30
0.0
  0
LWPOLYLINE
  5
2f6
100
AcDbEntity
  8
0
 62
7
100
AcDbPolyline
 90
3
 70
1
 10
224.566087
 20
259.527213
 30
0.0
 10
223.515294
 20
260.578298
 30
0.0
 10
224.566087
 20
259.527213
 30
0.0
  0
LWPOLYLINE
  5
2f7
100
AcDbEntity
  8
0
 62
7
100
AcDbPolyline
 90
3
 70
1
 10
223.515294
 20
260.578298
 30
0.0
 10
222.191227
 20
261.253226
 30
0.0
 10
223.515294
 20
260.578298
 30
0.0
  0
LWPOLYLINE
  5
2f8
100
AcDbEntity
  8
0
 62
7
100
AcDbPolyline
 90
3
 70
1
 10
222.191227
 20
261.253226
 30
0.0
 10
220.726283
 20
261.488218
 30
0.0
 10
222.191227
 20
261.253226
 30
0.0
  0
LWPOLYLINE
  5
2f9
100
AcDbEntity
  8
0
 62
7
100
AcDbPolyline
 90
3
 70
1
 10
220.726283
 20
261.488218
 30
0.0
 10
219.257079
 20
261.253226
 30
0.0
 10
220.726283
 20
261.488218
 30
0.0
  0
LWPOLYLINE
  5
2fa
100
AcDbEntity
  8
0
 62
7
100
AcDbPolyline
 90
2
 70
1
 10
503.028077
 20
243.011267
 30
0.0
 10
503.028077
 20
144.955731
 30
0.0
  0
LWPOLYLINE
  5
2fb
100
AcDbEntity
  8
0
 62
7
100
AcDbPolyline
 90
2
 70
1
 10
503.028077
 20
144.955731
 30
0.0
 10
565.036808
 20
144.955731
 30
0.0
  0
LWPOLYLINE
  5
2fc
100
AcDbEntity
  8
0
 62
7
100
AcDbPolyline
 90
2
 70
1
 10
565.036808
 20
144.955731
 30
0.0
 10
565.036808
 20
242.939966
 30
0.0
  0
LWPOLYLINE
  5
2fd
100
AcDbEntity
  8
0
 62
7
100
AcDbPolyline
 90
2
 70
1
 10
639.951475
 20
270.456176
 30
0.0
 10
640.620451
 20
270.429247
 30
0.0
  0
ENDSEC
  0
SECTION
  2
OBJECTS
  0
DICTIONARY
  5
C
330
0
100
AcDbDictionary
  3
ACAD_GROUP
350
D
  3
ACAD_MLINESTYLE
350
17
  0
DICTIONARY
  5
D
330
C
100
AcDbDictionary
  0
DICTIONARY
  5
1A
330
C
100
AcDbDictionary
  0
DICTIONARY
  5
17
330
C
100
AcDbDictionary
  3
STANDARD
350
18
  0
DICTIONARY
  5
19
330
C
100
AcDbDictionary
  0
ENDSEC
  0
EOF
