  0
SECTION
  2
HEADER
  9
$ACADVER
  1
AC1014
  9
$HANDSEED
  5
FFFF
  9
$MEASUREMENT
 70
     1
  0
ENDSEC
  0
SECTION
  2
TABLES
  0
TABLE
  2
VPORT
  5
8
330
0
100
AcDbSymbolTable
 70
     4
  0
VPORT
  5
2E
330
8
100
AcDbSymbolTableRecord
100
AcDbViewportTableRecord
  2
*ACTIVE
 70
     0
 10
0.0
 20
0.0
 11
1.0
 21
1.0
 12
210.0
 22
148.5
 13
0.0
 23
0.0
 14
10.0
 24
10.0
 15
10.0
 25
10.0
 16
0.0
 26
0.0
 36
1.0
 17
0.0
 27
0.0
 37
0.0
 40
341.0
 41
1.24
 42
50.0
 43
0.0
 44
0.0
 50
0.0
 51
0.0
 71
     0
 72
   100
 73
     1
 74
     3
 75
     0
 76
     0
 77
     0
 78
     0
  0
ENDTAB
  0
TABLE
  2
LTYPE
  5
5
330
0
100
AcDbSymbolTable
 70
     1
  0
LTYPE
  5
14
330
5
100
AcDbSymbolTableRecord
100
AcDbLinetypeTableRecord
  2
BYBLOCK
 70
     0
  3

 72
    65
 73
     0
 40
0.0
  0
LTYPE
  5
15
330
5
100
AcDbSymbolTableRecord
100
AcDbLinetypeTableRecord
  2
BYLAYER
 70
     0
  3

 72
    65
 73
     0
 40
0.0
  0
LTYPE
  5
16
330
5
100
AcDbSymbolTableRecord
100
AcDbLinetypeTableRecord
  2
CONTINUOUS
 70
     0
  3
Solid line
 72
    65
 73
     0
 40
0.0
  0
ENDTAB
  0
TABLE
  2
LAYER
  5
2
100
AcDbSymbolTable
 70
1
  0
LAYER
  5
50
100
AcDbSymbolTableRecord
100
AcDbLayerTableRecord
  2
0
 70
0
  6
CONTINUOUS
  0
ENDTAB
  0
TABLE
  2
STYLE
  5
3
330
0
100
AcDbSymbolTable
 70
     1
  0
STYLE
  5
11
330
3
100
AcDbSymbolTableRecord
100
AcDbTextStyleTableRecord
  2
STANDARD
 70
     0
 40
0.0
 41
1.0
 50
0.0
 71
     0
 42
2.5
  3
txt
  4

  0
ENDTAB
  0
TABLE
  2
VIEW
  5
6
330
0
100
AcDbSymbolTable
 70
     0
  0
ENDTAB
  0
TABLE
  2
UCS
  5
7
330
0
100
AcDbSymbolTable
 70
     0
  0
ENDTAB
  0
TABLE
  2
APPID
  5
9
330
0
100
AcDbSymbolTable
 70
     2
  0
APPID
  5
12
330
9
100
AcDbSymbolTableRecord
100
AcDbRegAppTableRecord
  2
ACAD
 70
     0
  0
ENDTAB
  0
TABLE
  2
DIMSTYLE
  5
A
330
0
100
AcDbSymbolTable
 70
     1
  0
DIMSTYLE
105
27
330
A
100
AcDbSymbolTableRecord
100
AcDbDimStyleTableRecord
  2
ISO-25
 70
     0
  3

  4

  5

  6

  7

 40
1.0
 41
2.5
 42
0.625
 43
3.75
 44
1.25
 45
0.0
 46
0.0
 47
0.0
 48
0.0
140
2.5
141
2.5
142
0.0
143
0.03937007874016
144
1.0
145
0.0
146
1.0
147
0.625
 71
     0
 72
     0
 73
     0
 74
     0
 75
     0
 76
     0
 77
     1
 78
     8
170
     0
171
     3
172
     1
173
     0
174
     0
175
     0
176
     0
177
     0
178
     0
270
     2
271
     2
272
     2
273
     2
274
     3
340
11
275
     0
280
     0
281
     0
282
     0
283
     0
284
     8
285
     0
286
     0
287
     3
288
     0
  0
ENDTAB
  0
TABLE
  2
BLOCK_RECORD
  5
1
330
0
100
AcDbSymbolTable
 70
     1
  0
BLOCK_RECORD
  5
1F
330
1
100
AcDbSymbolTableRecord
100
AcDbBlockTableRecord
  2
*MODEL_SPACE
  0
BLOCK_RECORD
  5
1B
330
1
100
AcDbSymbolTableRecord
100
AcDbBlockTableRecord
  2
*PAPER_SPACE
  0
ENDTAB
  0
ENDSEC
  0
SECTION
  2
BLOCKS
  0
BLOCK
  5
20
330
1F
100
AcDbEntity
  8
0
100
AcDbBlockBegin
  2
*MODEL_SPACE
 70
     0
 10
0.0
 20
0.0
 30
0.0
  3
*MODEL_SPACE
  1

  0
ENDBLK
  5
21
330
1F
100
AcDbEntity
  8
0
100
AcDbBlockEnd
  0
BLOCK
  5
1C
330
1B
100
AcDbEntity
 67
     1
  8
0
100
AcDbBlockBegin
  2
*PAPER_SPACE
  1

  0
ENDBLK
  5
1D
330
1B
100
AcDbEntity
 67
     1
  8
0
100
AcDbBlockEnd
  0
ENDSEC
  0
SECTION
  2
ENTITIES
  0
LWPOLYLINE
  5
100
100
AcDbEntity
  8
0
 62
7
100
AcDbPolyline
 90
2
 70
0
 10
125.183900
 20
-8.790066
 30
0.0
 10
177.558700
 20
-8.790066
 30
0.0
  0
LWPOLYLINE
  5
101
100
AcDbEntity
  8
0
 62
7
100
AcDbPolyline
 90
2
 70
0
 10
209.717640
 20
-8.790066
 30
0.0
 10
199.397620
 20
-8.790066
 30
0.0
  0
LWPOLYLINE
  5
102
100
AcDbEntity
  8
0
 62
7
100
AcDbPolyline
 90
2
 70
0
 10
79.321660
 20
-3.036966
 30
0.0
 10
78.950820
 20
-2.666126
 30
0.0
  0
LWPOLYLINE
  5
103
100
AcDbEntity
  8
0
 62
7
100
AcDbPolyline
 90
2
 70
0
 10
79.641700
 20
-4.022486
 30
0.0
 10
79.560420
 20
-3.504326
 30
0.0
  0
LWPOLYLINE
  5
104
100
AcDbEntity
  8
0
 62
7
100
AcDbPolyline
 90
3
 70
0
 10
77.447140
 20
-5.615066
 30
0.0
 10
77.965300
 20
-5.696346
 30
0.0
 10
78.483460
 20
-5.615066
 30
0.0
  0
LWPOLYLINE
  5
105
100
AcDbEntity
  8
0
 62
7
100
AcDbPolyline
 90
2
 70
0
 10
78.950820
 20
-5.376306
 30
0.0
 10
79.321660
 20
-5.005466
 30
0.0
  0
LWPOLYLINE
  5
106
100
AcDbEntity
  8
0
 62
7
100
AcDbPolyline
 90
2
 70
0
 10
77.965300
 20
-2.343546
 30
0.0
 10
77.447140
 20
-2.427366
 30
0.0
  0
LWPOLYLINE
  5
107
100
AcDbEntity
  8
0
 62
7
100
AcDbPolyline
 90
2
 70
0
 10
78.483460
 20
-2.427366
 30
0.0
 10
77.965300
 20
-2.343546
 30
0.0
  0
LWPOLYLINE
  5
108
100
AcDbEntity
  8
0
 62
7
100
AcDbPolyline
 90
2
 70
0
 10
78.483460
 20
-5.615066
 30
0.0
 10
78.950820
 20
-5.376306
 30
0.0
  0
LWPOLYLINE
  5
109
100
AcDbEntity
  8
0
 62
7
100
AcDbPolyline
 90
2
 70
0
 10
79.321660
 20
-5.005466
 30
0.0
 10
79.560420
 20
-4.538106
 30
0.0
  0
LWPOLYLINE
  5
10a
100
AcDbEntity
  8
0
 62
7
100
AcDbPolyline
 90
2
 70
0
 10
76.608940
 20
-5.005466
 30
0.0
 10
76.979780
 20
-5.376306
 30
0.0
  0
LWPOLYLINE
  5
10b
100
AcDbEntity
  8
0
 62
7
100
AcDbPolyline
 90
2
 70
0
 10
79.560420
 20
-4.538106
 30
0.0
 10
79.641700
 20
-4.022486
 30
0.0
  0
LWPOLYLINE
  5
10c
100
AcDbEntity
  8
0
 62
7
100
AcDbPolyline
 90
2
 70
0
 10
79.560420
 20
-3.504326
 30
0.0
 10
79.321660
 20
-3.036966
 30
0.0
  0
LWPOLYLINE
  5
10d
100
AcDbEntity
  8
0
 62
7
100
AcDbPolyline
 90
2
 70
0
 10
78.950820
 20
-2.666126
 30
0.0
 10
78.483460
 20
-2.427366
 30
0.0
  0
LWPOLYLINE
  5
10e
100
AcDbEntity
  8
0
 62
7
100
AcDbPolyline
 90
2
 70
0
 10
76.291440
 20
-4.022486
 30
0.0
 10
76.372720
 20
-4.538106
 30
0.0
  0
LWPOLYLINE
  5
10f
100
AcDbEntity
  8
0
 62
7
100
AcDbPolyline
 90
2
 70
0
 10
76.979780
 20
-5.376306
 30
0.0
 10
77.447140
 20
-5.615066
 30
0.0
  0
LWPOLYLINE
  5
110
100
AcDbEntity
  8
0
 62
7
100
AcDbPolyline
 90
2
 70
0
 10
76.372720
 20
-4.538106
 30
0.0
 10
76.608940
 20
-5.005466
 30
0.0
  0
LWPOLYLINE
  5
111
100
AcDbEntity
  8
0
 62
7
100
AcDbPolyline
 90
2
 70
0
 10
151.975820
 20
-2.666126
 30
0.0
 10
151.511000
 20
-2.427366
 30
0.0
  0
LWPOLYLINE
  5
112
100
AcDbEntity
  8
0
 62
7
100
AcDbPolyline
 90
2
 70
0
 10
222.664020
 20
-3.036966
 30
0.0
 10
222.425260
 20
-3.504326
 30
0.0
  0
LWPOLYLINE
  5
113
100
AcDbEntity
  8
0
 62
7
100
AcDbPolyline
 90
2
 70
0
 10
150.009860
 20
-5.376306
 30
0.0
 10
150.474680
 20
-5.615066
 30
0.0
  0
LWPOLYLINE
  5
114
100
AcDbEntity
  8
0
 62
7
100
AcDbPolyline
 90
2
 70
0
 10
224.538540
 20
-5.615066
 30
0.0
 10
225.005900
 20
-5.376306
 30
0.0
  0
LWPOLYLINE
  5
115
100
AcDbEntity
  8
0
 62
7
100
AcDbPolyline
 90
2
 70
0
 10
150.009860
 20
-2.666126
 30
0.0
 10
149.636480
 20
-3.036966
 30
0.0
  0
LWPOLYLINE
  5
116
100
AcDbEntity
  8
0
 62
7
100
AcDbPolyline
 90
2
 70
0
 10
224.020380
 20
-2.343546
 30
0.0
 10
223.502220
 20
-2.427366
 30
0.0
  0
LWPOLYLINE
  5
117
100
AcDbEntity
  8
0
 62
7
100
AcDbPolyline
 90
2
 70
0
 10
223.502220
 20
-5.615066
 30
0.0
 10
224.020380
 20
-5.696346
 30
0.0
  0
LWPOLYLINE
  5
118
100
AcDbEntity
  8
0
 62
7
100
AcDbPolyline
 90
2
 70
0
 10
224.538540
 20
-2.427366
 30
0.0
 10
224.020380
 20
-2.343546
 30
0.0
  0
LWPOLYLINE
  5
119
100
AcDbEntity
  8
0
 62
7
100
AcDbPolyline
 90
2
 70
0
 10
152.585420
 20
-3.504326
 30
0.0
 10
152.349200
 20
-3.036966
 30
0.0
  0
LWPOLYLINE
  5
11a
100
AcDbEntity
  8
0
 62
7
100
AcDbPolyline
 90
2
 70
0
 10
152.669240
 20
-4.022486
 30
0.0
 10
152.585420
 20
-3.504326
 30
0.0
  0
LWPOLYLINE
  5
11b
100
AcDbEntity
  8
0
 62
7
100
AcDbPolyline
 90
2
 70
0
 10
152.585420
 20
-4.538106
 30
0.0
 10
152.669240
 20
-4.022486
 30
0.0
  0
LWPOLYLINE
  5
11c
100
AcDbEntity
  8
0
 62
7
100
AcDbPolyline
 90
2
 70
0
 10
149.318980
 20
-4.022486
 30
0.0
 10
149.400260
 20
-4.538106
 30
0.0
  0
LWPOLYLINE
  5
11d
100
AcDbEntity
  8
0
 62
7
100
AcDbPolyline
 90
2
 70
0
 10
149.636480
 20
-3.036966
 30
0.0
 10
149.400260
 20
-3.504326
 30
0.0
  0
LWPOLYLINE
  5
11e
100
AcDbEntity
  8
0
 62
7
100
AcDbPolyline
 90
2
 70
0
 10
152.349200
 20
-5.005466
 30
0.0
 10
152.585420
 20
-4.538106
 30
0.0
  0
LWPOLYLINE
  5
11f
100
AcDbEntity
  8
0
 62
7
100
AcDbPolyline
 90
2
 70
0
 10
225.005900
 20
-5.376306
 30
0.0
 10
225.374200
 20
-5.005466
 30
0.0
  0
LWPOLYLINE
  5
120
100
AcDbEntity
  8
0
 62
7
100
AcDbPolyline
 90
2
 70
0
 10
151.511000
 20
-5.615066
 30
0.0
 10
151.975820
 20
-5.376306
 30
0.0
  0
LWPOLYLINE
  5
121
100
AcDbEntity
  8
0
 62
7
100
AcDbPolyline
 90
2
 70
0
 10
149.400260
 20
-3.504326
 30
0.0
 10
149.318980
 20
-4.022486
 30
0.0
  0
LWPOLYLINE
  5
122
100
AcDbEntity
  8
0
 62
7
100
AcDbPolyline
 90
2
 70
0
 10
223.502220
 20
-2.427366
 30
0.0
 10
223.034860
 20
-2.666126
 30
0.0
  0
LWPOLYLINE
  5
123
100
AcDbEntity
  8
0
 62
7
100
AcDbPolyline
 90
2
 70
0
 10
222.425260
 20
-4.538106
 30
0.0
 10
222.664020
 20
-5.005466
 30
0.0
  0
LWPOLYLINE
  5
124
100
AcDbEntity
  8
0
 62
7
100
AcDbPolyline
 90
2
 70
0
 10
4.940300
 20
-2.343546
 30
0.0
 10
4.422140
 20
-2.427366
 30
0.0
  0
LWPOLYLINE
  5
125
100
AcDbEntity
  8
0
 62
7
100
AcDbPolyline
 90
2
 70
0
 10
76.372720
 20
-3.504326
 30
0.0
 10
76.291440
 20
-4.022486
 30
0.0
  0
LWPOLYLINE
  5
126
100
AcDbEntity
  8
0
 62
7
100
AcDbPolyline
 90
2
 70
0
 10
223.034860
 20
-5.376306
 30
0.0
 10
223.502220
 20
-5.615066
 30
0.0
  0
LWPOLYLINE
  5
127
100
AcDbEntity
  8
0
 62
7
100
AcDbPolyline
 90
2
 70
0
 10
225.005900
 20
-2.666126
 30
0.0
 10
224.538540
 20
-2.427366
 30
0.0
  0
LWPOLYLINE
  5
128
100
AcDbEntity
  8
0
 62
7
100
AcDbPolyline
 90
2
 70
0
 10
225.612960
 20
-3.504326
 30
0.0
 10
225.374200
 20
-3.036966
 30
0.0
  0
LWPOLYLINE
  5
129
100
AcDbEntity
  8
0
 62
7
100
AcDbPolyline
 90
3
 70
0
 10
222.425260
 20
-3.504326
 30
0.0
 10
222.343980
 20
-4.022486
 30
0.0
 10
222.425260
 20
-4.538106
 30
0.0
  0
LWPOLYLINE
  5
12a
100
AcDbEntity
  8
0
 62
7
100
AcDbPolyline
 90
2
 70
0
 10
76.608940
 20
-3.036966
 30
0.0
 10
76.372720
 20
-3.504326
 30
0.0
  0
LWPOLYLINE
  5
12b
100
AcDbEntity
  8
0
 62
7
100
AcDbPolyline
 90
2
 70
0
 10
76.979780
 20
-2.666126
 30
0.0
 10
76.608940
 20
-3.036966
 30
0.0
  0
LWPOLYLINE
  5
12c
100
AcDbEntity
  8
0
 62
7
100
AcDbPolyline
 90
2
 70
0
 10
225.612960
 20
-4.538106
 30
0.0
 10
225.694240
 20
-4.022486
 30
0.0
  0
LWPOLYLINE
  5
12d
100
AcDbEntity
  8
0
 62
7
100
AcDbPolyline
 90
2
 70
0
 10
77.447140
 20
-2.427366
 30
0.0
 10
76.979780
 20
-2.666126
 30
0.0
  0
LWPOLYLINE
  5
12e
100
AcDbEntity
  8
0
 62
7
100
AcDbPolyline
 90
2
 70
0
 10
150.474680
 20
-5.615066
 30
0.0
 10
150.992840
 20
-5.696346
 30
0.0
  0
LWPOLYLINE
  5
12f
100
AcDbEntity
  8
0
 62
7
100
AcDbPolyline
 90
2
 70
0
 10
225.374200
 20
-5.005466
 30
0.0
 10
225.612960
 20
-4.538106
 30
0.0
  0
LWPOLYLINE
  5
130
100
AcDbEntity
  8
0
 62
7
100
AcDbPolyline
 90
3
 70
0
 10
149.400260
 20
-4.538106
 30
0.0
 10
149.636480
 20
-5.005466
 30
0.0
 10
150.009860
 20
-5.376306
 30
0.0
  0
LWPOLYLINE
  5
131
100
AcDbEntity
  8
0
 62
7
100
AcDbPolyline
 90
2
 70
0
 10
150.474680
 20
-2.427366
 30
0.0
 10
150.009860
 20
-2.666126
 30
0.0
  0
LWPOLYLINE
  5
132
100
AcDbEntity
  8
0
 62
7
100
AcDbPolyline
 90
2
 70
0
 10
224.020380
 20
-5.696346
 30
0.0
 10
224.538540
 20
-5.615066
 30
0.0
  0
LWPOLYLINE
  5
133
100
AcDbEntity
  8
0
 62
7
100
AcDbPolyline
 90
2
 70
0
 10
223.034860
 20
-2.666126
 30
0.0
 10
222.664020
 20
-3.036966
 30
0.0
  0
LWPOLYLINE
  5
134
100
AcDbEntity
  8
0
 62
7
100
AcDbPolyline
 90
2
 70
0
 10
152.349200
 20
-3.036966
 30
0.0
 10
151.975820
 20
-2.666126
 30
0.0
  0
LWPOLYLINE
  5
135
100
AcDbEntity
  8
0
 62
7
100
AcDbPolyline
 90
2
 70
0
 10
150.992840
 20
-5.696346
 30
0.0
 10
151.511000
 20
-5.615066
 30
0.0
  0
LWPOLYLINE
  5
136
100
AcDbEntity
  8
0
 62
7
100
AcDbPolyline
 90
2
 70
0
 10
5.455920
 20
-2.427366
 30
0.0
 10
4.940300
 20
-2.343546
 30
0.0
  0
LWPOLYLINE
  5
137
100
AcDbEntity
  8
0
 62
7
100
AcDbPolyline
 90
2
 70
0
 10
225.374200
 20
-3.036966
 30
0.0
 10
225.005900
 20
-2.666126
 30
0.0
  0
LWPOLYLINE
  5
138
100
AcDbEntity
  8
0
 62
7
100
AcDbPolyline
 90
2
 70
0
 10
222.664020
 20
-5.005466
 30
0.0
 10
223.034860
 20
-5.376306
 30
0.0
  0
LWPOLYLINE
  5
139
100
AcDbEntity
  8
0
 62
7
100
AcDbPolyline
 90
2
 70
0
 10
225.694240
 20
-4.022486
 30
0.0
 10
225.612960
 20
-3.504326
 30
0.0
  0
LWPOLYLINE
  5
13a
100
AcDbEntity
  8
0
 62
7
100
AcDbPolyline
 90
2
 70
0
 10
151.975820
 20
-5.376306
 30
0.0
 10
152.349200
 20
-5.005466
 30
0.0
  0
LWPOLYLINE
  5
13b
100
AcDbEntity
  8
0
 62
7
100
AcDbPolyline
 90
2
 70
0
 10
150.992840
 20
-2.343546
 30
0.0
 10
150.474680
 20
-2.427366
 30
0.0
  0
LWPOLYLINE
  5
13c
100
AcDbEntity
  8
0
 62
7
100
AcDbPolyline
 90
2
 70
0
 10
151.511000
 20
-2.427366
 30
0.0
 10
150.992840
 20
-2.343546
 30
0.0
  0
LWPOLYLINE
  5
13d
100
AcDbEntity
  8
0
 62
7
100
AcDbPolyline
 90
2
 70
0
 10
222.343980
 20
-89.750026
 30
0.0
 10
222.425260
 20
-90.268186
 30
0.0
  0
LWPOLYLINE
  5
13e
100
AcDbEntity
  8
0
 62
7
100
AcDbPolyline
 90
2
 70
0
 10
222.664020
 20
-88.767046
 30
0.0
 10
222.425260
 20
-89.234406
 30
0.0
  0
LWPOLYLINE
  5
13f
100
AcDbEntity
  8
0
 62
7
100
AcDbPolyline
 90
2
 70
0
 10
152.349200
 20
-88.767046
 30
0.0
 10
151.975820
 20
-88.396206
 30
0.0
  0
LWPOLYLINE
  5
140
100
AcDbEntity
  8
0
 62
7
100
AcDbPolyline
 90
2
 70
0
 10
222.425260
 20
-89.234406
 30
0.0
 10
222.343980
 20
-89.750026
 30
0.0
  0
LWPOLYLINE
  5
141
100
AcDbEntity
  8
0
 62
7
100
AcDbPolyline
 90
2
 70
0
 10
224.020380
 20
-88.076166
 30
0.0
 10
223.502220
 20
-88.157446
 30
0.0
  0
LWPOLYLINE
  5
142
100
AcDbEntity
  8
0
 62
7
100
AcDbPolyline
 90
2
 70
0
 10
150.992840
 20
-88.076166
 30
0.0
 10
150.474680
 20
-88.157446
 30
0.0
  0
LWPOLYLINE
  5
143
100
AcDbEntity
  8
0
 62
7
100
AcDbPolyline
 90
2
 70
0
 10
3.345180
 20
-4.538106
 30
0.0
 10
3.583940
 20
-5.005466
 30
0.0
  0
LWPOLYLINE
  5
144
100
AcDbEntity
  8
0
 62
7
100
AcDbPolyline
 90
2
 70
0
 10
3.954780
 20
-5.376306
 30
0.0
 10
4.422140
 20
-5.615066
 30
0.0
  0
LWPOLYLINE
  5
145
100
AcDbEntity
  8
0
 62
7
100
AcDbPolyline
 90
2
 70
0
 10
225.374200
 20
-88.767046
 30
0.0
 10
225.005900
 20
-88.396206
 30
0.0
  0
LWPOLYLINE
  5
146
100
AcDbEntity
  8
0
 62
7
100
AcDbPolyline
 90
2
 70
0
 10
3.954780
 20
-2.666126
 30
0.0
 10
3.583940
 20
-3.036966
 30
0.0
  0
LWPOLYLINE
  5
147
100
AcDbEntity
  8
0
 62
7
100
AcDbPolyline
 90
2
 70
0
 10
225.005900
 20
-88.396206
 30
0.0
 10
224.538540
 20
-88.157446
 30
0.0
  0
LWPOLYLINE
  5
148
100
AcDbEntity
  8
0
 62
7
100
AcDbPolyline
 90
2
 70
0
 10
5.455920
 20
-5.615066
 30
0.0
 10
5.923280
 20
-5.376306
 30
0.0
  0
LWPOLYLINE
  5
149
100
AcDbEntity
  8
0
 62
7
100
AcDbPolyline
 90
2
 70
0
 10
224.538540
 20
-88.157446
 30
0.0
 10
224.020380
 20
-88.076166
 30
0.0
  0
LWPOLYLINE
  5
14a
100
AcDbEntity
  8
0
 62
7
100
AcDbPolyline
 90
2
 70
0
 10
225.612960
 20
-89.234406
 30
0.0
 10
225.374200
 20
-88.767046
 30
0.0
  0
LWPOLYLINE
  5
14b
100
AcDbEntity
  8
0
 62
7
100
AcDbPolyline
 90
2
 70
0
 10
225.005900
 20
-91.106386
 30
0.0
 10
225.374200
 20
-90.735546
 30
0.0
  0
LWPOLYLINE
  5
14c
100
AcDbEntity
  8
0
 62
7
100
AcDbPolyline
 90
2
 70
0
 10
223.034860
 20
-91.106386
 30
0.0
 10
223.502220
 20
-91.345146
 30
0.0
  0
LWPOLYLINE
  5
14d
100
AcDbEntity
  8
0
 62
7
100
AcDbPolyline
 90
3
 70
0
 10
152.585420
 20
-90.268186
 30
0.0
 10
152.669240
 20
-89.750026
 30
0.0
 10
152.585420
 20
-89.234406
 30
0.0
  0
LWPOLYLINE
  5
14e
100
AcDbEntity
  8
0
 62
7
100
AcDbPolyline
 90
2
 70
0
 10
223.502220
 20
-88.157446
 30
0.0
 10
223.034860
 20
-88.396206
 30
0.0
  0
LWPOLYLINE
  5
14f
100
AcDbEntity
  8
0
 62
7
100
AcDbPolyline
 90
2
 70
0
 10
152.585420
 20
-89.234406
 30
0.0
 10
152.349200
 20
-88.767046
 30
0.0
  0
LWPOLYLINE
  5
150
100
AcDbEntity
  8
0
 62
7
100
AcDbPolyline
 90
2
 70
0
 10
222.664020
 20
-90.735546
 30
0.0
 10
223.034860
 20
-91.106386
 30
0.0
  0
LWPOLYLINE
  5
151
100
AcDbEntity
  8
0
 62
7
100
AcDbPolyline
 90
2
 70
0
 10
5.923280
 20
-2.666126
 30
0.0
 10
5.455920
 20
-2.427366
 30
0.0
  0
LWPOLYLINE
  5
152
100
AcDbEntity
  8
0
 62
7
100
AcDbPolyline
 90
2
 70
0
 10
6.294120
 20
-3.036966
 30
0.0
 10
5.923280
 20
-2.666126
 30
0.0
  0
LWPOLYLINE
  5
153
100
AcDbEntity
  8
0
 62
7
100
AcDbPolyline
 90
2
 70
0
 10
4.940300
 20
-5.696346
 30
0.0
 10
5.455920
 20
-5.615066
 30
0.0
  0
LWPOLYLINE
  5
154
100
AcDbEntity
  8
0
 62
7
100
AcDbPolyline
 90
2
 70
0
 10
3.583940
 20
-3.036966
 30
0.0
 10
3.345180
 20
-3.504326
 30
0.0
  0
LWPOLYLINE
  5
155
100
AcDbEntity
  8
0
 62
7
100
AcDbPolyline
 90
2
 70
0
 10
152.349200
 20
-90.735546
 30
0.0
 10
152.585420
 20
-90.268186
 30
0.0
  0
LWPOLYLINE
  5
156
100
AcDbEntity
  8
0
 62
7
100
AcDbPolyline
 90
2
 70
0
 10
6.532880
 20
-3.504326
 30
0.0
 10
6.294120
 20
-3.036966
 30
0.0
  0
LWPOLYLINE
  5
157
100
AcDbEntity
  8
0
 62
7
100
AcDbPolyline
 90
2
 70
0
 10
224.538540
 20
-91.345146
 30
0.0
 10
225.005900
 20
-91.106386
 30
0.0
  0
LWPOLYLINE
  5
158
100
AcDbEntity
  8
0
 62
7
100
AcDbPolyline
 90
2
 70
0
 10
6.614160
 20
-4.022486
 30
0.0
 10
6.532880
 20
-3.504326
 30
0.0
  0
LWPOLYLINE
  5
159
100
AcDbEntity
  8
0
 62
7
100
AcDbPolyline
 90
2
 70
0
 10
6.532880
 20
-4.538106
 30
0.0
 10
6.614160
 20
-4.022486
 30
0.0
  0
LWPOLYLINE
  5
15a
100
AcDbEntity
  8
0
 62
7
100
AcDbPolyline
 90
2
 70
0
 10
4.422140
 20
-2.427366
 30
0.0
 10
3.954780
 20
-2.666126
 30
0.0
  0
LWPOLYLINE
  5
15b
100
AcDbEntity
  8
0
 62
7
100
AcDbPolyline
 90
2
 70
0
 10
223.502220
 20
-91.345146
 30
0.0
 10
224.020380
 20
-91.426426
 30
0.0
  0
LWPOLYLINE
  5
15c
100
AcDbEntity
  8
0
 62
7
100
AcDbPolyline
 90
2
 70
0
 10
4.422140
 20
-5.615066
 30
0.0
 10
4.940300
 20
-5.696346
 30
0.0
  0
LWPOLYLINE
  5
15d
100
AcDbEntity
  8
0
 62
7
100
AcDbPolyline
 90
2
 70
0
 10
6.294120
 20
-5.005466
 30
0.0
 10
6.532880
 20
-4.538106
 30
0.0
  0
LWPOLYLINE
  5
15e
100
AcDbEntity
  8
0
 62
7
100
AcDbPolyline
 90
2
 70
0
 10
223.034860
 20
-88.396206
 30
0.0
 10
222.664020
 20
-88.767046
 30
0.0
  0
LWPOLYLINE
  5
15f
100
AcDbEntity
  8
0
 62
7
100
AcDbPolyline
 90
2
 70
0
 10
5.923280
 20
-5.376306
 30
0.0
 10
6.294120
 20
-5.005466
 30
0.0
  0
LWPOLYLINE
  5
160
100
AcDbEntity
  8
0
 62
7
100
AcDbPolyline
 90
2
 70
0
 10
3.583940
 20
-5.005466
 30
0.0
 10
3.954780
 20
-5.376306
 30
0.0
  0
LWPOLYLINE
  5
161
100
AcDbEntity
  8
0
 62
7
100
AcDbPolyline
 90
2
 70
0
 10
3.263900
 20
-4.022486
 30
0.0
 10
3.345180
 20
-4.538106
 30
0.0
  0
LWPOLYLINE
  5
162
100
AcDbEntity
  8
0
 62
7
100
AcDbPolyline
 90
2
 70
0
 10
151.975820
 20
-88.396206
 30
0.0
 10
151.511000
 20
-88.157446
 30
0.0
  0
LWPOLYLINE
  5
163
100
AcDbEntity
  8
0
 62
7
100
AcDbPolyline
 90
2
 70
0
 10
3.345180
 20
-3.504326
 30
0.0
 10
3.263900
 20
-4.022486
 30
0.0
  0
LWPOLYLINE
  5
164
100
AcDbEntity
  8
0
 62
7
100
AcDbPolyline
 90
2
 70
0
 10
225.374200
 20
-90.735546
 30
0.0
 10
225.612960
 20
-90.268186
 30
0.0
  0
LWPOLYLINE
  5
165
100
AcDbEntity
  8
0
 62
7
100
AcDbPolyline
 90
2
 70
0
 10
224.020380
 20
-91.426426
 30
0.0
 10
224.538540
 20
-91.345146
 30
0.0
  0
LWPOLYLINE
  5
166
100
AcDbEntity
  8
0
 62
7
100
AcDbPolyline
 90
2
 70
0
 10
151.511000
 20
-88.157446
 30
0.0
 10
150.992840
 20
-88.076166
 30
0.0
  0
LWPOLYLINE
  5
167
100
AcDbEntity
  8
0
 62
7
100
AcDbPolyline
 90
2
 70
0
 10
225.694240
 20
-89.750026
 30
0.0
 10
225.612960
 20
-89.234406
 30
0.0
  0
LWPOLYLINE
  5
168
100
AcDbEntity
  8
0
 62
7
100
AcDbPolyline
 90
2
 70
0
 10
225.612960
 20
-90.268186
 30
0.0
 10
225.694240
 20
-89.750026
 30
0.0
  0
LWPOLYLINE
  5
169
100
AcDbEntity
  8
0
 62
7
100
AcDbPolyline
 90
2
 70
0
 10
222.425260
 20
-90.268186
 30
0.0
 10
222.664020
 20
-90.735546
 30
0.0
  0
LWPOLYLINE
  5
16a
100
AcDbEntity
  8
0
 62
7
100
AcDbPolyline
 90
2
 70
0
 10
150.474680
 20
-91.345146
 30
0.0
 10
150.992840
 20
-91.426426
 30
0.0
  0
LWPOLYLINE
  5
16b
100
AcDbEntity
  8
0
 62
7
100
AcDbPolyline
 90
2
 70
0
 10
149.400260
 20
-89.234406
 30
0.0
 10
149.318980
 20
-89.750026
 30
0.0
  0
LWPOLYLINE
  5
16c
100
AcDbEntity
  8
0
 62
7
100
AcDbPolyline
 90
2
 70
0
 10
78.483460
 20
-88.157446
 30
0.0
 10
77.965300
 20
-88.076166
 30
0.0
  0
LWPOLYLINE
  5
16d
100
AcDbEntity
  8
0
 62
7
100
AcDbPolyline
 90
2
 70
0
 10
149.636480
 20
-90.735546
 30
0.0
 10
150.009860
 20
-91.106386
 30
0.0
  0
LWPOLYLINE
  5
16e
100
AcDbEntity
  8
0
 62
7
100
AcDbPolyline
 90
2
 70
0
 10
76.979780
 20
-88.396206
 30
0.0
 10
76.608940
 20
-88.767046
 30
0.0
  0
LWPOLYLINE
  5
16f
100
AcDbEntity
  8
0
 62
7
100
AcDbPolyline
 90
2
 70
0
 10
5.455920
 20
-88.157446
 30
0.0
 10
4.940300
 20
-88.076166
 30
0.0
  0
LWPOLYLINE
  5
170
100
AcDbEntity
  8
0
 62
7
100
AcDbPolyline
 90
2
 70
0
 10
5.455920
 20
-91.345146
 30
0.0
 10
5.923280
 20
-91.106386
 30
0.0
  0
LWPOLYLINE
  5
171
100
AcDbEntity
  8
0
 62
7
100
AcDbPolyline
 90
2
 70
0
 10
151.975820
 20
-91.106386
 30
0.0
 10
152.349200
 20
-90.735546
 30
0.0
  0
LWPOLYLINE
  5
172
100
AcDbEntity
  8
0
 62
7
100
AcDbPolyline
 90
2
 70
0
 10
150.009860
 20
-91.106386
 30
0.0
 10
150.474680
 20
-91.345146
 30
0.0
  0
LWPOLYLINE
  5
173
100
AcDbEntity
  8
0
 62
7
100
AcDbPolyline
 90
2
 70
0
 10
4.940300
 20
-88.076166
 30
0.0
 10
4.422140
 20
-88.157446
 30
0.0
  0
LWPOLYLINE
  5
174
100
AcDbEntity
  8
0
 62
7
100
AcDbPolyline
 90
2
 70
0
 10
149.400260
 20
-90.268186
 30
0.0
 10
149.636480
 20
-90.735546
 30
0.0
  0
LWPOLYLINE
  5
175
100
AcDbEntity
  8
0
 62
7
100
AcDbPolyline
 90
2
 70
0
 10
149.318980
 20
-89.750026
 30
0.0
 10
149.400260
 20
-90.268186
 30
0.0
  0
LWPOLYLINE
  5
176
100
AcDbEntity
  8
0
 62
7
100
AcDbPolyline
 90
2
 70
0
 10
6.294120
 20
-90.735546
 30
0.0
 10
6.532880
 20
-90.268186
 30
0.0
  0
LWPOLYLINE
  5
177
100
AcDbEntity
  8
0
 62
7
100
AcDbPolyline
 90
2
 70
0
 10
149.636480
 20
-88.767046
 30
0.0
 10
149.400260
 20
-89.234406
 30
0.0
  0
LWPOLYLINE
  5
178
100
AcDbEntity
  8
0
 62
7
100
AcDbPolyline
 90
2
 70
0
 10
5.923280
 20
-91.106386
 30
0.0
 10
6.294120
 20
-90.735546
 30
0.0
  0
LWPOLYLINE
  5
179
100
AcDbEntity
  8
0
 62
7
100
AcDbPolyline
 90
2
 70
0
 10
78.950820
 20
-88.396206
 30
0.0
 10
78.483460
 20
-88.157446
 30
0.0
  0
LWPOLYLINE
  5
17a
100
AcDbEntity
  8
0
 62
7
100
AcDbPolyline
 90
2
 70
0
 10
3.954780
 20
-91.106386
 30
0.0
 10
4.422140
 20
-91.345146
 30
0.0
  0
LWPOLYLINE
  5
17b
100
AcDbEntity
  8
0
 62
7
100
AcDbPolyline
 90
2
 70
0
 10
79.321660
 20
-88.767046
 30
0.0
 10
78.950820
 20
-88.396206
 30
0.0
  0
LWPOLYLINE
  5
17c
100
AcDbEntity
  8
0
 62
7
100
AcDbPolyline
 90
2
 70
0
 10
6.532880
 20
-90.268186
 30
0.0
 10
6.614160
 20
-89.750026
 30
0.0
  0
LWPOLYLINE
  5
17d
100
AcDbEntity
  8
0
 62
7
100
AcDbPolyline
 90
2
 70
0
 10
78.950820
 20
-91.106386
 30
0.0
 10
79.321660
 20
-90.735546
 30
0.0
  0
LWPOLYLINE
  5
17e
100
AcDbEntity
  8
0
 62
7
100
AcDbPolyline
 90
2
 70
0
 10
77.965300
 20
-91.426426
 30
0.0
 10
78.483460
 20
-91.345146
 30
0.0
  0
LWPOLYLINE
  5
17f
100
AcDbEntity
  8
0
 62
7
100
AcDbPolyline
 90
2
 70
0
 10
6.294120
 20
-88.767046
 30
0.0
 10
5.923280
 20
-88.396206
 30
0.0
  0
LWPOLYLINE
  5
180
100
AcDbEntity
  8
0
 62
7
100
AcDbPolyline
 90
2
 70
0
 10
76.979780
 20
-91.106386
 30
0.0
 10
77.447140
 20
-91.345146
 30
0.0
  0
LWPOLYLINE
  5
181
100
AcDbEntity
  8
0
 62
7
100
AcDbPolyline
 90
2
 70
0
 10
76.291440
 20
-89.750026
 30
0.0
 10
76.372720
 20
-90.268186
 30
0.0
  0
LWPOLYLINE
  5
182
100
AcDbEntity
  8
0
 62
7
100
AcDbPolyline
 90
2
 70
0
 10
76.608940
 20
-88.767046
 30
0.0
 10
76.372720
 20
-89.234406
 30
0.0
  0
LWPOLYLINE
  5
183
100
AcDbEntity
  8
0
 62
7
100
AcDbPolyline
 90
2
 70
0
 10
77.447140
 20
-88.157446
 30
0.0
 10
76.979780
 20
-88.396206
 30
0.0
  0
LWPOLYLINE
  5
184
100
AcDbEntity
  8
0
 62
7
100
AcDbPolyline
 90
2
 70
0
 10
76.608940
 20
-90.735546
 30
0.0
 10
76.979780
 20
-91.106386
 30
0.0
  0
LWPOLYLINE
  5
185
100
AcDbEntity
  8
0
 62
7
100
AcDbPolyline
 90
2
 70
0
 10
79.560420
 20
-90.268186
 30
0.0
 10
79.641700
 20
-89.750026
 30
0.0
  0
LWPOLYLINE
  5
186
100
AcDbEntity
  8
0
 62
7
100
AcDbPolyline
 90
2
 70
0
 10
79.321660
 20
-90.735546
 30
0.0
 10
79.560420
 20
-90.268186
 30
0.0
  0
LWPOLYLINE
  5
187
100
AcDbEntity
  8
0
 62
7
100
AcDbPolyline
 90
2
 70
0
 10
5.923280
 20
-88.396206
 30
0.0
 10
5.455920
 20
-88.157446
 30
0.0
  0
LWPOLYLINE
  5
188
100
AcDbEntity
  8
0
 62
7
100
AcDbPolyline
 90
2
 70
0
 10
150.474680
 20
-88.157446
 30
0.0
 10
150.009860
 20
-88.396206
 30
0.0
  0
LWPOLYLINE
  5
189
100
AcDbEntity
  8
0
 62
7
100
AcDbPolyline
 90
2
 70
0
 10
4.422140
 20
-91.345146
 30
0.0
 10
4.940300
 20
-91.426426
 30
0.0
  0
LWPOLYLINE
  5
18a
100
AcDbEntity
  8
0
 62
7
100
AcDbPolyline
 90
2
 70
0
 10
76.372720
 20
-89.234406
 30
0.0
 10
76.291440
 20
-89.750026
 30
0.0
  0
LWPOLYLINE
  5
18b
100
AcDbEntity
  8
0
 62
7
100
AcDbPolyline
 90
2
 70
0
 10
76.372720
 20
-90.268186
 30
0.0
 10
76.608940
 20
-90.735546
 30
0.0
  0
LWPOLYLINE
  5
18c
100
AcDbEntity
  8
0
 62
7
100
AcDbPolyline
 90
2
 70
0
 10
6.532880
 20
-89.234406
 30
0.0
 10
6.294120
 20
-88.767046
 30
0.0
  0
LWPOLYLINE
  5
18d
100
AcDbEntity
  8
0
 62
7
100
AcDbPolyline
 90
2
 70
0
 10
150.009860
 20
-88.396206
 30
0.0
 10
149.636480
 20
-88.767046
 30
0.0
  0
LWPOLYLINE
  5
18e
100
AcDbEntity
  8
0
 62
7
100
AcDbPolyline
 90
2
 70
0
 10
3.583940
 20
-90.735546
 30
0.0
 10
3.954780
 20
-91.106386
 30
0.0
  0
LWPOLYLINE
  5
18f
100
AcDbEntity
  8
0
 62
7
100
AcDbPolyline
 90
2
 70
0
 10
79.641700
 20
-89.750026
 30
0.0
 10
79.560420
 20
-89.234406
 30
0.0
  0
LWPOLYLINE
  5
190
100
AcDbEntity
  8
0
 62
7
100
AcDbPolyline
 90
2
 70
0
 10
151.511000
 20
-91.345146
 30
0.0
 10
151.975820
 20
-91.106386
 30
0.0
  0
LWPOLYLINE
  5
191
100
AcDbEntity
  8
0
 62
7
100
AcDbPolyline
 90
2
 70
0
 10
150.992840
 20
-91.426426
 30
0.0
 10
151.511000
 20
-91.345146
 30
0.0
  0
LWPOLYLINE
  5
192
100
AcDbEntity
  8
0
 62
7
100
AcDbPolyline
 90
2
 70
0
 10
77.965300
 20
-88.076166
 30
0.0
 10
77.447140
 20
-88.157446
 30
0.0
  0
LWPOLYLINE
  5
193
100
AcDbEntity
  8
0
 62
7
100
AcDbPolyline
 90
2
 70
0
 10
6.614160
 20
-89.750026
 30
0.0
 10
6.532880
 20
-89.234406
 30
0.0
  0
LWPOLYLINE
  5
194
100
AcDbEntity
  8
0
 62
7
100
AcDbPolyline
 90
2
 70
0
 10
77.447140
 20
-91.345146
 30
0.0
 10
77.965300
 20
-91.426426
 30
0.0
  0
LWPOLYLINE
  5
195
100
AcDbEntity
  8
0
 62
7
100
AcDbPolyline
 90
2
 70
0
 10
78.483460
 20
-91.345146
 30
0.0
 10
78.950820
 20
-91.106386
 30
0.0
  0
LWPOLYLINE
  5
196
100
AcDbEntity
  8
0
 62
7
100
AcDbPolyline
 90
2
 70
0
 10
79.560420
 20
-89.234406
 30
0.0
 10
79.321660
 20
-88.767046
 30
0.0
  0
LWPOLYLINE
  5
197
100
AcDbEntity
  8
0
 62
7
100
AcDbPolyline
 90
2
 70
0
 10
4.940300
 20
-91.426426
 30
0.0
 10
5.455920
 20
-91.345146
 30
0.0
  0
LWPOLYLINE
  5
198
100
AcDbEntity
  8
0
 62
7
100
AcDbPolyline
 90
2
 70
0
 10
3.098800
 20
0.818754
 30
0.0
 10
177.553620
 20
0.818754
 30
0.0
  0
LWPOLYLINE
  5
199
100
AcDbEntity
  8
0
 62
7
100
AcDbPolyline
 90
2
 70
0
 10
0.243840
 20
-1.253886
 30
0.0
 10
0.327660
 20
-1.032906
 30
0.0
  0
LWPOLYLINE
  5
19a
100
AcDbEntity
  8
0
 62
7
100
AcDbPolyline
 90
2
 70
0
 10
0.975360
 20
-0.057546
 30
0.0
 10
1.150620
 20
0.099934
 30
0.0
  0
LWPOLYLINE
  5
19b
100
AcDbEntity
  8
0
 62
7
100
AcDbPolyline
 90
2
 70
0
 10
0.327660
 20
-1.032906
 30
0.0
 10
0.424180
 20
-0.819546
 30
0.0
  0
LWPOLYLINE
  5
19c
100
AcDbEntity
  8
0
 62
7
100
AcDbPolyline
 90
2
 70
0
 10
3.583940
 20
-88.767046
 30
0.0
 10
3.345180
 20
-89.234406
 30
0.0
  0
LWPOLYLINE
  5
19d
100
AcDbEntity
  8
0
 62
7
100
AcDbPolyline
 90
2
 70
0
 10
3.954780
 20
-88.396206
 30
0.0
 10
3.583940
 20
-88.767046
 30
0.0
  0
LWPOLYLINE
  5
19e
100
AcDbEntity
  8
0
 62
7
100
AcDbPolyline
 90
2
 70
0
 10
1.336040
 20
0.247254
 30
0.0
 10
1.531620
 20
0.376794
 30
0.0
  0
LWPOLYLINE
  5
19f
100
AcDbEntity
  8
0
 62
7
100
AcDbPolyline
 90
2
 70
0
 10
4.422140
 20
-88.157446
 30
0.0
 10
3.954780
 20
-88.396206
 30
0.0
  0
LWPOLYLINE
  5
1a0
100
AcDbEntity
  8
0
 62
7
100
AcDbPolyline
 90
2
 70
0
 10
0.670560
 20
-0.415686
 30
0.0
 10
0.817880
 20
-0.232806
 30
0.0
  0
LWPOLYLINE
  5
1a1
100
AcDbEntity
  8
0
 62
7
100
AcDbPolyline
 90
2
 70
0
 10
1.950720
 20
0.590154
 30
0.0
 10
2.171700
 20
0.673974
 30
0.0
  0
LWPOLYLINE
  5
1a2
100
AcDbEntity
  8
0
 62
7
100
AcDbPolyline
 90
2
 70
0
 10
2.628900
 20
0.783194
 30
0.0
 10
2.862580
 20
0.808594
 30
0.0
  0
LWPOLYLINE
  5
1a3
100
AcDbEntity
  8
0
 62
7
100
AcDbPolyline
 90
2
 70
0
 10
0.541020
 20
-0.611266
 30
0.0
 10
0.670560
 20
-0.415686
 30
0.0
  0
LWPOLYLINE
  5
1a4
100
AcDbEntity
  8
0
 62
7
100
AcDbPolyline
 90
2
 70
0
 10
1.150620
 20
0.099934
 30
0.0
 10
1.336040
 20
0.247254
 30
0.0
  0
LWPOLYLINE
  5
1a5
100
AcDbEntity
  8
0
 62
7
100
AcDbPolyline
 90
2
 70
0
 10
2.171700
 20
0.673974
 30
0.0
 10
2.397760
 20
0.737474
 30
0.0
  0
LWPOLYLINE
  5
1a6
100
AcDbEntity
  8
0
 62
7
100
AcDbPolyline
 90
2
 70
0
 10
3.345180
 20
-90.268186
 30
0.0
 10
3.583940
 20
-90.735546
 30
0.0
  0
LWPOLYLINE
  5
1a7
100
AcDbEntity
  8
0
 62
7
100
AcDbPolyline
 90
2
 70
0
 10
3.263900
 20
-89.750026
 30
0.0
 10
3.345180
 20
-90.268186
 30
0.0
  0
LWPOLYLINE
  5
1a8
100
AcDbEntity
  8
0
 62
7
100
AcDbPolyline
 90
2
 70
0
 10
2.862580
 20
0.808594
 30
0.0
 10
3.098800
 20
0.818754
 30
0.0
  0
LWPOLYLINE
  5
1a9
100
AcDbEntity
  8
0
 62
7
100
AcDbPolyline
 90
2
 70
0
 10
1.737360
 20
0.493634
 30
0.0
 10
1.950720
 20
0.590154
 30
0.0
  0
LWPOLYLINE
  5
1aa
100
AcDbEntity
  8
0
 62
7
100
AcDbPolyline
 90
2
 70
0
 10
2.397760
 20
0.737474
 30
0.0
 10
2.628900
 20
0.783194
 30
0.0
  0
LWPOLYLINE
  5
1ab
100
AcDbEntity
  8
0
 62
7
100
AcDbPolyline
 90
2
 70
0
 10
0.817880
 20
-0.232806
 30
0.0
 10
0.975360
 20
-0.057546
 30
0.0
  0
LWPOLYLINE
  5
1ac
100
AcDbEntity
  8
0
 62
7
100
AcDbPolyline
 90
2
 70
0
 10
0.424180
 20
-0.819546
 30
0.0
 10
0.541020
 20
-0.611266
 30
0.0
  0
LWPOLYLINE
  5
1ad
100
AcDbEntity
  8
0
 62
7
100
AcDbPolyline
 90
2
 70
0
 10
3.345180
 20
-89.234406
 30
0.0
 10
3.263900
 20
-89.750026
 30
0.0
  0
LWPOLYLINE
  5
1ae
100
AcDbEntity
  8
0
 62
7
100
AcDbPolyline
 90
2
 70
0
 10
1.531620
 20
0.376794
 30
0.0
 10
1.737360
 20
0.493634
 30
0.0
  0
LWPOLYLINE
  5
1af
100
AcDbEntity
  8
0
 62
7
100
AcDbPolyline
 90
2
 70
0
 10
0.109220
 20
-91.827746
 30
0.0
 10
0.099060
 20
-91.591526
 30
0.0
  0
LWPOLYLINE
  5
1b0
100
AcDbEntity
  8
0
 62
7
100
AcDbPolyline
 90
2
 70
0
 10
0.180340
 20
-92.292566
 30
0.0
 10
0.134620
 20
-92.061426
 30
0.0
  0
LWPOLYLINE
  5
1b1
100
AcDbEntity
  8
0
 62
7
100
AcDbPolyline
 90
2
 70
0
 10
2.171700
 20
-94.443946
 30
0.0
 10
1.950720
 20
-94.362666
 30
0.0
  0
LWPOLYLINE
  5
1b2
100
AcDbEntity
  8
0
 62
7
100
AcDbPolyline
 90
2
 70
0
 10
0.243840
 20
-92.518626
 30
0.0
 10
0.180340
 20
-92.292566
 30
0.0
  0
LWPOLYLINE
  5
1b3
100
AcDbEntity
  8
0
 62
7
100
AcDbPolyline
 90
2
 70
0
 10
0.327660
 20
-92.739606
 30
0.0
 10
0.243840
 20
-92.518626
 30
0.0
  0
LWPOLYLINE
  5
1b4
100
AcDbEntity
  8
0
 62
7
100
AcDbPolyline
 90
2
 70
0
 10
0.424180
 20
-92.952966
 30
0.0
 10
0.327660
 20
-92.739606
 30
0.0
  0
LWPOLYLINE
  5
1b5
100
AcDbEntity
  8
0
 62
7
100
AcDbPolyline
 90
2
 70
0
 10
0.670560
 20
-93.354286
 30
0.0
 10
0.541020
 20
-93.158706
 30
0.0
  0
LWPOLYLINE
  5
1b6
100
AcDbEntity
  8
0
 62
7
100
AcDbPolyline
 90
2
 70
0
 10
0.817880
 20
-93.539706
 30
0.0
 10
0.670560
 20
-93.354286
 30
0.0
  0
LWPOLYLINE
  5
1b7
100
AcDbEntity
  8
0
 62
7
100
AcDbPolyline
 90
2
 70
0
 10
1.336040
 20
-94.019766
 30
0.0
 10
1.150620
 20
-93.872446
 30
0.0
  0
LWPOLYLINE
  5
1b8
100
AcDbEntity
  8
0
 62
7
100
AcDbPolyline
 90
2
 70
0
 10
0.541020
 20
-93.158706
 30
0.0
 10
0.424180
 20
-92.952966
 30
0.0
  0
LWPOLYLINE
  5
1b9
100
AcDbEntity
  8
0
 62
7
100
AcDbPolyline
 90
2
 70
0
 10
2.397760
 20
-94.509986
 30
0.0
 10
2.171700
 20
-94.443946
 30
0.0
  0
LWPOLYLINE
  5
1ba
100
AcDbEntity
  8
0
 62
7
100
AcDbPolyline
 90
2
 70
0
 10
1.737360
 20
-94.266146
 30
0.0
 10
1.531620
 20
-94.149306
 30
0.0
  0
LWPOLYLINE
  5
1bb
100
AcDbEntity
  8
0
 62
7
100
AcDbPolyline
 90
2
 70
0
 10
1.150620
 20
-93.872446
 30
0.0
 10
0.975360
 20
-93.712426
 30
0.0
  0
LWPOLYLINE
  5
1bc
100
AcDbEntity
  8
0
 62
7
100
AcDbPolyline
 90
2
 70
0
 10
0.099060
 20
-2.180986
 30
0.0
 10
0.109220
 20
-1.944766
 30
0.0
  0
LWPOLYLINE
  5
1bd
100
AcDbEntity
  8
0
 62
7
100
AcDbPolyline
 90
2
 70
0
 10
2.628900
 20
-94.555706
 30
0.0
 10
2.397760
 20
-94.509986
 30
0.0
  0
LWPOLYLINE
  5
1be
100
AcDbEntity
  8
0
 62
7
100
AcDbPolyline
 90
2
 70
0
 10
0.180340
 20
-1.479946
 30
0.0
 10
0.243840
 20
-1.253886
 30
0.0
  0
LWPOLYLINE
  5
1bf
100
AcDbEntity
  8
0
 62
7
100
AcDbPolyline
 90
2
 70
0
 10
1.950720
 20
-94.362666
 30
0.0
 10
1.737360
 20
-94.266146
 30
0.0
  0
LWPOLYLINE
  5
1c0
100
AcDbEntity
  8
0
 62
7
100
AcDbPolyline
 90
2
 70
0
 10
0.134620
 20
-1.711086
 30
0.0
 10
0.180340
 20
-1.479946
 30
0.0
  0
LWPOLYLINE
  5
1c1
100
AcDbEntity
  8
0
 62
7
100
AcDbPolyline
 90
2
 70
0
 10
0.134620
 20
-92.061426
 30
0.0
 10
0.109220
 20
-91.827746
 30
0.0
  0
LWPOLYLINE
  5
1c2
100
AcDbEntity
  8
0
 62
7
100
AcDbPolyline
 90
2
 70
0
 10
0.975360
 20
-93.712426
 30
0.0
 10
0.817880
 20
-93.539706
 30
0.0
  0
LWPOLYLINE
  5
1c3
100
AcDbEntity
  8
0
 62
7
100
AcDbPolyline
 90
2
 70
0
 10
1.531620
 20
-94.149306
 30
0.0
 10
1.336040
 20
-94.019766
 30
0.0
  0
LWPOLYLINE
  5
1c4
100
AcDbEntity
  8
0
 62
7
100
AcDbPolyline
 90
2
 70
0
 10
0.109220
 20
-1.944766
 30
0.0
 10
0.134620
 20
-1.711086
 30
0.0
  0
LWPOLYLINE
  5
1c5
100
AcDbEntity
  8
0
 62
7
100
AcDbPolyline
 90
2
 70
0
 10
0.099060
 20
-91.591526
 30
0.0
 10
0.099060
 20
-2.180986
 30
0.0
  0
LWPOLYLINE
  5
1c6
100
AcDbEntity
  8
0
 62
7
100
AcDbPolyline
 90
2
 70
0
 10
226.786440
 20
-94.443946
 30
0.0
 10
226.560380
 20
-94.509986
 30
0.0
  0
LWPOLYLINE
  5
1c7
100
AcDbEntity
  8
0
 62
7
100
AcDbPolyline
 90
2
 70
0
 10
227.007420
 20
-94.362666
 30
0.0
 10
226.786440
 20
-94.443946
 30
0.0
  0
LWPOLYLINE
  5
1c8
100
AcDbEntity
  8
0
 62
7
100
AcDbPolyline
 90
2
 70
0
 10
228.417120
 20
-93.158706
 30
0.0
 10
228.287580
 20
-93.354286
 30
0.0
  0
LWPOLYLINE
  5
1c9
100
AcDbEntity
  8
0
 62
7
100
AcDbPolyline
 90
2
 70
0
 10
228.823520
 20
-92.061426
 30
0.0
 10
228.777800
 20
-92.292566
 30
0.0
  0
LWPOLYLINE
  5
1ca
100
AcDbEntity
  8
0
 62
7
100
AcDbPolyline
 90
2
 70
0
 10
228.851460
 20
-91.827746
 30
0.0
 10
228.823520
 20
-92.061426
 30
0.0
  0
LWPOLYLINE
  5
1cb
100
AcDbEntity
  8
0
 62
7
100
AcDbPolyline
 90
2
 70
0
 10
227.980240
 20
-93.712426
 30
0.0
 10
227.807520
 20
-93.872446
 30
0.0
  0
LWPOLYLINE
  5
1cc
100
AcDbEntity
  8
0
 62
7
100
AcDbPolyline
 90
2
 70
0
 10
227.426520
 20
-94.149306
 30
0.0
 10
227.220780
 20
-94.266146
 30
0.0
  0
LWPOLYLINE
  5
1cd
100
AcDbEntity
  8
0
 62
7
100
AcDbPolyline
 90
2
 70
0
 10
227.807520
 20
-93.872446
 30
0.0
 10
227.622100
 20
-94.019766
 30
0.0
  0
LWPOLYLINE
  5
1ce
100
AcDbEntity
  8
0
 62
7
100
AcDbPolyline
 90
2
 70
0
 10
227.220780
 20
-94.266146
 30
0.0
 10
227.007420
 20
-94.362666
 30
0.0
  0
LWPOLYLINE
  5
1cf
100
AcDbEntity
  8
0
 62
7
100
AcDbPolyline
 90
2
 70
0
 10
227.622100
 20
-94.019766
 30
0.0
 10
227.426520
 20
-94.149306
 30
0.0
  0
LWPOLYLINE
  5
1d0
100
AcDbEntity
  8
0
 62
7
100
AcDbPolyline
 90
3
 70
0
 10
228.287580
 20
-93.354286
 30
0.0
 10
228.140260
 20
-93.539706
 30
0.0
 10
227.980240
 20
-93.712426
 30
0.0
  0
LWPOLYLINE
  5
1d1
100
AcDbEntity
  8
0
 62
7
100
AcDbPolyline
 90
2
 70
0
 10
228.533960
 20
-92.952966
 30
0.0
 10
228.417120
 20
-93.158706
 30
0.0
  0
LWPOLYLINE
  5
1d2
100
AcDbEntity
  8
0
 62
7
100
AcDbPolyline
 90
2
 70
0
 10
228.711760
 20
-92.518626
 30
0.0
 10
228.630480
 20
-92.739606
 30
0.0
  0
LWPOLYLINE
  5
1d3
100
AcDbEntity
  8
0
 62
7
100
AcDbPolyline
 90
2
 70
0
 10
2.862580
 20
-94.581106
 30
0.0
 10
2.628900
 20
-94.555706
 30
0.0
  0
LWPOLYLINE
  5
1d4
100
AcDbEntity
  8
0
 62
7
100
AcDbPolyline
 90
2
 70
0
 10
228.777800
 20
-92.292566
 30
0.0
 10
228.711760
 20
-92.518626
 30
0.0
  0
LWPOLYLINE
  5
1d5
100
AcDbEntity
  8
0
 62
7
100
AcDbPolyline
 90
2
 70
0
 10
3.098800
 20
-94.591266
 30
0.0
 10
2.862580
 20
-94.581106
 30
0.0
  0
LWPOLYLINE
  5
1d6
100
AcDbEntity
  8
0
 62
7
100
AcDbPolyline
 90
2
 70
0
 10
226.329240
 20
-94.555706
 30
0.0
 10
226.095560
 20
-94.581106
 30
0.0
  0
LWPOLYLINE
  5
1d7
100
AcDbEntity
  8
0
 62
7
100
AcDbPolyline
 90
2
 70
0
 10
228.630480
 20
-92.739606
 30
0.0
 10
228.533960
 20
-92.952966
 30
0.0
  0
LWPOLYLINE
  5
1d8
100
AcDbEntity
  8
0
 62
7
100
AcDbPolyline
 90
2
 70
0
 10
225.859340
 20
-94.591266
 30
0.0
 10
3.098800
 20
-94.591266
 30
0.0
  0
LWPOLYLINE
  5
1d9
100
AcDbEntity
  8
0
 62
7
100
AcDbPolyline
 90
2
 70
0
 10
226.095560
 20
-94.581106
 30
0.0
 10
225.859340
 20
-94.591266
 30
0.0
  0
LWPOLYLINE
  5
1da
100
AcDbEntity
  8
0
 62
7
100
AcDbPolyline
 90
2
 70
0
 10
228.859080
 20
-91.591526
 30
0.0
 10
228.851460
 20
-91.827746
 30
0.0
  0
LWPOLYLINE
  5
1db
100
AcDbEntity
  8
0
 62
7
100
AcDbPolyline
 90
2
 70
0
 10
226.560380
 20
-94.509986
 30
0.0
 10
226.329240
 20
-94.555706
 30
0.0
  0
LWPOLYLINE
  5
1dc
100
AcDbEntity
  8
0
 62
7
100
AcDbPolyline
 90
2
 70
0
 10
225.859340
 20
0.818754
 30
0.0
 10
226.095560
 20
0.808594
 30
0.0
  0
LWPOLYLINE
  5
1dd
100
AcDbEntity
  8
0
 62
7
100
AcDbPolyline
 90
2
 70
0
 10
199.405240
 20
-8.800226
 30
0.0
 10
199.405240
 20
0.818754
 30
0.0
  0
LWPOLYLINE
  5
1de
100
AcDbEntity
  8
0
 62
7
100
AcDbPolyline
 90
2
 70
0
 10
227.622100
 20
0.247254
 30
0.0
 10
227.807520
 20
0.099934
 30
0.0
  0
LWPOLYLINE
  5
1df
100
AcDbEntity
  8
0
 62
7
100
AcDbPolyline
 90
2
 70
0
 10
228.859080
 20
-2.180986
 30
0.0
 10
228.859080
 20
-91.591526
 30
0.0
  0
LWPOLYLINE
  5
1e0
100
AcDbEntity
  8
0
 62
7
100
AcDbPolyline
 90
2
 70
0
 10
228.140260
 20
-0.232806
 30
0.0
 10
228.287580
 20
-0.415686
 30
0.0
  0
LWPOLYLINE
  5
1e1
100
AcDbEntity
  8
0
 62
7
100
AcDbPolyline
 90
2
 70
0
 10
228.851460
 20
-1.944766
 30
0.0
 10
228.859080
 20
-2.180986
 30
0.0
  0
LWPOLYLINE
  5
1e2
100
AcDbEntity
  8
0
 62
7
100
AcDbPolyline
 90
2
 70
0
 10
228.417120
 20
-0.611266
 30
0.0
 10
228.533960
 20
-0.819546
 30
0.0
  0
LWPOLYLINE
  5
1e3
100
AcDbEntity
  8
0
 62
7
100
AcDbPolyline
 90
2
 70
0
 10
228.823520
 20
-1.711086
 30
0.0
 10
228.851460
 20
-1.944766
 30
0.0
  0
LWPOLYLINE
  5
1e4
100
AcDbEntity
  8
0
 62
7
100
AcDbPolyline
 90
2
 70
0
 10
227.807520
 20
0.099934
 30
0.0
 10
227.980240
 20
-0.057546
 30
0.0
  0
LWPOLYLINE
  5
1e5
100
AcDbEntity
  8
0
 62
7
100
AcDbPolyline
 90
2
 70
0
 10
227.007420
 20
0.590154
 30
0.0
 10
227.220780
 20
0.493634
 30
0.0
  0
LWPOLYLINE
  5
1e6
100
AcDbEntity
  8
0
 62
7
100
AcDbPolyline
 90
2
 70
0
 10
226.560380
 20
0.737474
 30
0.0
 10
226.786440
 20
0.673974
 30
0.0
  0
LWPOLYLINE
  5
1e7
100
AcDbEntity
  8
0
 62
7
100
AcDbPolyline
 90
2
 70
0
 10
227.980240
 20
-0.057546
 30
0.0
 10
228.140260
 20
-0.232806
 30
0.0
  0
LWPOLYLINE
  5
1e8
100
AcDbEntity
  8
0
 62
7
100
AcDbPolyline
 90
2
 70
0
 10
228.777800
 20
-1.479946
 30
0.0
 10
228.823520
 20
-1.711086
 30
0.0
  0
LWPOLYLINE
  5
1e9
100
AcDbEntity
  8
0
 62
7
100
AcDbPolyline
 90
2
 70
0
 10
228.711760
 20
-1.253886
 30
0.0
 10
228.777800
 20
-1.479946
 30
0.0
  0
LWPOLYLINE
  5
1ea
100
AcDbEntity
  8
0
 62
7
100
AcDbPolyline
 90
3
 70
0
 10
228.533960
 20
-0.819546
 30
0.0
 10
228.630480
 20
-1.032906
 30
0.0
 10
228.711760
 20
-1.253886
 30
0.0
  0
LWPOLYLINE
  5
1eb
100
AcDbEntity
  8
0
 62
7
100
AcDbPolyline
 90
2
 70
0
 10
226.329240
 20
0.783194
 30
0.0
 10
226.560380
 20
0.737474
 30
0.0
  0
LWPOLYLINE
  5
1ec
100
AcDbEntity
  8
0
 62
7
100
AcDbPolyline
 90
2
 70
0
 10
228.287580
 20
-0.415686
 30
0.0
 10
228.417120
 20
-0.611266
 30
0.0
  0
LWPOLYLINE
  5
1ed
100
AcDbEntity
  8
0
 62
7
100
AcDbPolyline
 90
2
 70
0
 10
227.426520
 20
0.376794
 30
0.0
 10
227.622100
 20
0.247254
 30
0.0
  0
LWPOLYLINE
  5
1ee
100
AcDbEntity
  8
0
 62
7
100
AcDbPolyline
 90
2
 70
0
 10
199.405240
 20
0.818754
 30
0.0
 10
225.859340
 20
0.818754
 30
0.0
  0
LWPOLYLINE
  5
1ef
100
AcDbEntity
  8
0
 62
7
100
AcDbPolyline
 90
2
 70
0
 10
227.220780
 20
0.493634
 30
0.0
 10
227.426520
 20
0.376794
 30
0.0
  0
LWPOLYLINE
  5
1f0
100
AcDbEntity
  8
0
 62
7
100
AcDbPolyline
 90
2
 70
0
 10
226.786440
 20
0.673974
 30
0.0
 10
227.007420
 20
0.590154
 30
0.0
  0
LWPOLYLINE
  5
1f1
100
AcDbEntity
  8
0
 62
7
100
AcDbPolyline
 90
2
 70
0
 10
226.095560
 20
0.808594
 30
0.0
 10
226.329240
 20
0.783194
 30
0.0
  0
LWPOLYLINE
  5
1f2
100
AcDbEntity
  8
0
 62
7
100
AcDbPolyline
 90
2
 70
0
 10
177.553620
 20
0.818754
 30
0.0
 10
177.558700
 20
-8.792606
 30
0.0
  0
SPLINE
  5
1f3
100
AcDbEntity
  8
0
 62
7
100
AcDbSpline
 70
8
 71
3
 72
8
 73
4
 74
0
 40
0
 40
0
 40
0
 40
0
 40
1
 40
1
 40
1
 40
1
 10
218.054174
 20
-6.410239
 30
0.0
 10
218.054173
 20
-6.094444
 30
0.0
 10
217.928714
 20
-5.791585
 30
0.0
 10
217.705402
 20
-5.568296
 30
0.0
  0
SPLINE
  5
1f4
100
AcDbEntity
  8
0
 62
7
100
AcDbSpline
 70
8
 71
3
 72
8
 73
4
 74
0
 40
0
 40
0
 40
0
 40
0
 40
1
 40
1
 40
1
 40
1
 10
217.705402
 20
-5.568296
 30
0.0
 10
217.482089
 20
-5.345007
 30
0.0
 10
217.179217
 20
-5.219581
 30
0.0
 10
216.863422
 20
-5.219614
 30
0.0
  0
SPLINE
  5
1f5
100
AcDbEntity
  8
0
 62
7
100
AcDbSpline
 70
8
 71
3
 72
8
 73
4
 74
0
 40
0
 40
0
 40
0
 40
0
 40
1
 40
1
 40
1
 40
1
 10
209.719672
 20
-8.791514
 30
0.0
 10
210.035467
 20
-8.791546
 30
0.0
 10
210.338339
 20
-8.666120
 30
0.0
 10
210.561652
 20
-8.442831
 30
0.0
  0
SPLINE
  5
1f6
100
AcDbEntity
  8
0
 62
7
100
AcDbSpline
 70
8
 71
3
 72
8
 73
4
 74
0
 40
0
 40
0
 40
0
 40
0
 40
1
 40
1
 40
1
 40
1
 10
210.561652
 20
-8.442831
 30
0.0
 10
210.784964
 20
-8.219543
 30
0.0
 10
210.910423
 20
-7.916684
 30
0.0
 10
210.910424
 20
-7.600889
 30
0.0
  0
LWPOLYLINE
  5
1f7
100
AcDbEntity
  8
0
 62
7
100
AcDbPolyline
 90
3
 70
0
 10
218.053920
 20
-6.410086
 30
0.0
 10
218.053920
 20
-8.790066
 30
0.0
 10
219.242640
 20
-9.981326
 30
0.0
  0
LWPOLYLINE
  5
1f8
100
AcDbEntity
  8
0
 62
7
100
AcDbPolyline
 90
2
 70
0
 10
210.908900
 20
-6.410086
 30
0.0
 10
210.908900
 20
-7.598806
 30
0.0
  0
LWPOLYLINE
  5
1f9
100
AcDbEntity
  8
0
 62
7
100
AcDbPolyline
 90
2
 70
0
 10
216.862660
 20
-5.218826
 30
0.0
 10
212.100160
 20
-5.218826
 30
0.0
  0
SPLINE
  5
1fa
100
AcDbEntity
  8
0
 62
7
100
AcDbSpline
 70
8
 71
3
 72
8
 73
4
 74
0
 40
0
 40
0
 40
0
 40
0
 40
1
 40
1
 40
1
 40
1
 10
222.816674
 20
-11.172764
 30
0.0
 10
222.816671
 20
-10.515251
 30
0.0
 10
222.283689
 20
-9.982212
 30
0.0
 10
221.626176
 20
-9.982139
 30
0.0
  0
LWPOLYLINE
  5
1fb
100
AcDbEntity
  8
0
 62
7
100
AcDbPolyline
 90
2
 70
0
 10
219.242640
 20
-9.981326
 30
0.0
 10
221.625160
 20
-9.981326
 30
0.0
  0
SPLINE
  5
1fc
100
AcDbEntity
  8
0
 62
7
100
AcDbSpline
 70
8
 71
3
 72
8
 73
4
 74
0
 40
0
 40
0
 40
0
 40
0
 40
1
 40
1
 40
1
 40
1
 10
220.435424
 20
-17.125914
 30
0.0
 10
220.119629
 20
-17.125882
 30
0.0
 10
219.816757
 20
-17.251308
 30
0.0
 10
219.593444
 20
-17.474597
 30
0.0
  0
SPLINE
  5
1fd
100
AcDbEntity
  8
0
 62
7
100
AcDbSpline
 70
8
 71
3
 72
8
 73
4
 74
0
 40
0
 40
0
 40
0
 40
0
 40
1
 40
1
 40
1
 40
1
 10
219.593444
 20
-17.474597
 30
0.0
 10
219.370132
 20
-17.697886
 30
0.0
 10
219.244673
 20
-18.000744
 30
0.0
 10
219.244672
 20
-18.316539
 30
0.0
  0
LWPOLYLINE
  5
1fe
100
AcDbEntity
  8
0
 62
7
100
AcDbPolyline
 90
2
 70
0
 10
222.816420
 20
-11.172586
 30
0.0
 10
222.816420
 20
-15.935086
 30
0.0
  0
SPLINE
  5
1ff
100
AcDbEntity
  8
0
 62
7
100
AcDbSpline
 70
8
 71
3
 72
8
 73
4
 74
0
 40
0
 40
0
 40
0
 40
0
 40
1
 40
1
 40
1
 40
1
 10
221.626176
 20
-17.125914
 30
0.0
 10
222.283689
 20
-17.125842
 30
0.0
 10
222.816671
 20
-16.592803
 30
0.0
 10
222.816674
 20
-15.935289
 30
0.0
  0
SPLINE
  5
200
100
AcDbEntity
  8
0
 62
7
100
AcDbSpline
 70
8
 71
3
 72
8
 73
4
 74
0
 40
0
 40
0
 40
0
 40
0
 40
1
 40
1
 40
1
 40
1
 10
212.100922
 20
-5.219614
 30
0.0
 10
211.443409
 20
-5.219687
 30
0.0
 10
210.910427
 20
-5.752725
 30
0.0
 10
210.910424
 20
-6.410239
 30
0.0
  0
SPLINE
  5
201
100
AcDbEntity
  8
0
 62
7
100
AcDbSpline
 70
8
 71
3
 72
8
 73
4
 74
0
 40
0
 40
0
 40
0
 40
0
 40
1
 40
1
 40
1
 40
1
 10
222.816674
 20
-77.848094
 30
0.0
 10
222.816741
 20
-77.190531
 30
0.0
 10
222.283739
 20
-76.657415
 30
0.0
 10
221.626176
 20
-76.657342
 30
0.0
  0
LWPOLYLINE
  5
202
100
AcDbEntity
  8
0
 62
7
100
AcDbPolyline
 90
2
 70
0
 10
221.625160
 20
-17.123806
 30
0.0
 10
220.433900
 20
-17.123806
 30
0.0
  0
SPLINE
  5
203
100
AcDbEntity
  8
0
 62
7
100
AcDbSpline
 70
8
 71
3
 72
8
 73
4
 74
0
 40
0
 40
0
 40
0
 40
0
 40
1
 40
1
 40
1
 40
1
 10
221.626176
 20
-83.801092
 30
0.0
 10
222.283640
 20
-83.801019
 30
0.0
 10
222.816601
 20
-83.268058
 30
0.0
 10
222.816674
 20
-82.610594
 30
0.0
  0
LWPOLYLINE
  5
204
100
AcDbEntity
  8
0
 62
7
100
AcDbPolyline
 90
2
 70
0
 10
219.242640
 20
-83.798806
 30
0.0
 10
221.625160
 20
-83.798806
 30
0.0
  0
LWPOLYLINE
  5
205
100
AcDbEntity
  8
0
 62
7
100
AcDbPolyline
 90
2
 70
0
 10
222.816420
 20
-82.610086
 30
0.0
 10
222.816420
 20
-77.847586
 30
0.0
  0
LWPOLYLINE
  5
206
100
AcDbEntity
  8
0
 62
7
100
AcDbPolyline
 90
2
 70
0
 10
221.625160
 20
-76.656326
 30
0.0
 10
220.433900
 20
-76.656326
 30
0.0
  0
SPLINE
  5
207
100
AcDbEntity
  8
0
 62
7
100
AcDbSpline
 70
8
 71
3
 72
8
 73
4
 74
0
 40
0
 40
0
 40
0
 40
0
 40
1
 40
1
 40
1
 40
1
 10
210.910424
 20
-87.373094
 30
0.0
 10
210.910497
 20
-88.030558
 30
0.0
 10
211.443458
 20
-88.563519
 30
0.0
 10
212.100922
 20
-88.563592
 30
0.0
  0
SPLINE
  5
208
100
AcDbEntity
  8
0
 62
7
100
AcDbSpline
 70
8
 71
3
 72
8
 73
4
 74
0
 40
0
 40
0
 40
0
 40
0
 40
1
 40
1
 40
1
 40
1
 10
216.863422
 20
-88.563592
 30
0.0
 10
217.520985
 20
-88.563660
 30
0.0
 10
218.054101
 20
-88.030657
 30
0.0
 10
218.054174
 20
-87.373094
 30
0.0
  0
LWPOLYLINE
  5
209
100
AcDbEntity
  8
0
 62
7
100
AcDbPolyline
 90
2
 70
0
 10
210.908900
 20
-87.372586
 30
0.0
 10
210.908900
 20
-86.181326
 30
0.0
  0
LWPOLYLINE
  5
20a
100
AcDbEntity
  8
0
 62
7
100
AcDbPolyline
 90
2
 70
0
 10
216.862660
 20
-88.561306
 30
0.0
 10
212.100160
 20
-88.561306
 30
0.0
  0
SPLINE
  5
20b
100
AcDbEntity
  8
0
 62
7
100
AcDbSpline
 70
8
 71
3
 72
8
 73
4
 74
0
 40
0
 40
0
 40
0
 40
0
 40
1
 40
1
 40
1
 40
1
 10
210.910424
 20
-86.182342
 30
0.0
 10
210.910351
 20
-85.524779
 30
0.0
 10
210.377235
 20
-84.991777
 30
0.0
 10
209.719672
 20
-84.991844
 30
0.0
  0
LWPOLYLINE
  5
20c
100
AcDbEntity
  8
0
 62
7
100
AcDbPolyline
 90
2
 70
0
 10
218.053920
 20
-84.990066
 30
0.0
 10
218.053920
 20
-87.372586
 30
0.0
  0
SPLINE
  5
20d
100
AcDbEntity
  8
0
 62
7
100
AcDbSpline
 70
8
 71
3
 72
8
 73
4
 74
0
 40
0
 40
0
 40
0
 40
0
 40
1
 40
1
 40
1
 40
1
 10
219.244672
 20
-75.466844
 30
0.0
 10
219.244745
 20
-76.124407
 30
0.0
 10
219.777861
 20
-76.657410
 30
0.0
 10
220.435424
 20
-76.657342
 30
0.0
  0
LWPOLYLINE
  5
20e
100
AcDbEntity
  8
0
 62
7
100
AcDbPolyline
 90
2
 70
0
 10
219.242640
 20
-83.798806
 30
0.0
 10
218.053920
 20
-84.990066
 30
0.0
  0
LWPOLYLINE
  5
20f
100
AcDbEntity
  8
0
 62
7
100
AcDbPolyline
 90
2
 70
0
 10
7.310120
 20
-17.123806
 30
0.0
 10
8.501380
 20
-17.123806
 30
0.0
  0
SPLINE
  5
210
100
AcDbEntity
  8
0
 62
7
100
AcDbSpline
 70
8
 71
3
 72
8
 73
4
 74
0
 40
0
 40
0
 40
0
 40
0
 40
1
 40
1
 40
1
 40
1
 10
7.312660
 20
-9.982139
 30
0.0
 10
6.655097
 20
-9.982142
 30
0.0
 10
6.122038
 20
-10.515201
 30
0.0
 10
6.122035
 20
-11.172764
 30
0.0
  0
SPLINE
  5
211
100
AcDbEntity
  8
0
 62
7
100
AcDbSpline
 70
8
 71
3
 72
8
 73
4
 74
0
 40
0
 40
0
 40
0
 40
0
 40
1
 40
1
 40
1
 40
1
 10
6.122035
 20
-15.935289
 30
0.0
 10
6.122038
 20
-16.592852
 30
0.0
 10
6.655097
 20
-17.125912
 30
0.0
 10
7.312660
 20
-17.125914
 30
0.0
  0
LWPOLYLINE
  5
212
100
AcDbEntity
  8
0
 62
7
100
AcDbPolyline
 90
2
 70
0
 10
6.121400
 20
-11.172586
 30
0.0
 10
6.121400
 20
-15.935086
 30
0.0
  0
LWPOLYLINE
  5
213
100
AcDbEntity
  8
0
 62
7
100
AcDbPolyline
 90
2
 70
0
 10
10.883900
 20
-8.790066
 30
0.0
 10
9.692640
 20
-9.981326
 30
0.0
  0
LWPOLYLINE
  5
214
100
AcDbEntity
  8
0
 62
7
100
AcDbPolyline
 90
2
 70
0
 10
18.026380
 20
-6.410086
 30
0.0
 10
18.026380
 20
-7.598806
 30
0.0
  0
SPLINE
  5
215
100
AcDbEntity
  8
0
 62
7
100
AcDbSpline
 70
8
 71
3
 72
8
 73
4
 74
0
 40
0
 40
0
 40
0
 40
0
 40
1
 40
1
 40
1
 40
1
 10
12.075185
 20
-5.219614
 30
0.0
 10
11.759408
 20
-5.219608
 30
0.0
 10
11.456562
 20
-5.345046
 30
0.0
 10
11.233271
 20
-5.568332
 30
0.0
  0
SPLINE
  5
216
100
AcDbEntity
  8
0
 62
7
100
AcDbSpline
 70
8
 71
3
 72
8
 73
4
 74
0
 40
0
 40
0
 40
0
 40
0
 40
1
 40
1
 40
1
 40
1
 10
11.233271
 20
-5.568332
 30
0.0
 10
11.009981
 20
-5.791618
 30
0.0
 10
10.884536
 20
-6.094461
 30
0.0
 10
10.884535
 20
-6.410239
 30
0.0
  0
SPLINE
  5
217
100
AcDbEntity
  8
0
 62
7
100
AcDbSpline
 70
8
 71
3
 72
8
 73
4
 74
0
 40
0
 40
0
 40
0
 40
0
 40
1
 40
1
 40
1
 40
1
 10
18.028336
 20
-6.410239
 30
0.0
 10
18.028334
 20
-6.094461
 30
0.0
 10
17.902890
 20
-5.791618
 30
0.0
 10
17.679599
 20
-5.568332
 30
0.0
  0
SPLINE
  5
218
100
AcDbEntity
  8
0
 62
7
100
AcDbSpline
 70
8
 71
3
 72
8
 73
4
 74
0
 40
0
 40
0
 40
0
 40
0
 40
1
 40
1
 40
1
 40
1
 10
17.679599
 20
-5.568332
 30
0.0
 10
17.456309
 20
-5.345046
 30
0.0
 10
17.153463
 20
-5.219608
 30
0.0
 10
16.837685
 20
-5.219614
 30
0.0
  0
SPLINE
  5
219
100
AcDbEntity
  8
0
 62
7
100
AcDbSpline
 70
8
 71
3
 72
8
 73
4
 74
0
 40
0
 40
0
 40
0
 40
0
 40
1
 40
1
 40
1
 40
1
 10
18.028336
 20
-7.600889
 30
0.0
 10
18.028339
 20
-8.258452
 30
0.0
 10
18.561398
 20
-8.791511
 30
0.0
 10
19.218961
 20
-8.791514
 30
0.0
  0
LWPOLYLINE
  5
21a
100
AcDbEntity
  8
0
 62
7
100
AcDbPolyline
 90
2
 70
0
 10
12.075160
 20
-5.218826
 30
0.0
 10
16.837660
 20
-5.218826
 30
0.0
  0
LWPOLYLINE
  5
21b
100
AcDbEntity
  8
0
 62
7
100
AcDbPolyline
 90
2
 70
0
 10
10.883900
 20
-8.790066
 30
0.0
 10
10.883900
 20
-6.410086
 30
0.0
  0
SPLINE
  5
21c
100
AcDbEntity
  8
0
 62
7
100
AcDbSpline
 70
8
 71
3
 72
8
 73
4
 74
0
 40
0
 40
0
 40
0
 40
0
 40
1
 40
1
 40
1
 40
1
 10
9.693910
 20
-18.316539
 30
0.0
 10
9.693907
 20
-17.658977
 30
0.0
 10
9.160848
 20
-17.125917
 30
0.0
 10
8.503285
 20
-17.125914
 30
0.0
  0
LWPOLYLINE
  5
21d
100
AcDbEntity
  8
0
 62
7
100
AcDbPolyline
 90
2
 70
0
 10
9.692640
 20
-9.981326
 30
0.0
 10
7.310120
 20
-9.981326
 30
0.0
  0
LWPOLYLINE
  5
21e
100
AcDbEntity
  8
0
 62
7
100
AcDbPolyline
 90
2
 70
0
 10
7.310120
 20
-76.656326
 30
0.0
 10
8.501380
 20
-76.656326
 30
0.0
  0
SPLINE
  5
21f
100
AcDbEntity
  8
0
 62
7
100
AcDbSpline
 70
8
 71
3
 72
8
 73
4
 74
0
 40
0
 40
0
 40
0
 40
0
 40
1
 40
1
 40
1
 40
1
 10
7.312660
 20
-76.657342
 30
0.0
 10
6.996865
 20
-76.657344
 30
0.0
 10
6.694006
 20
-76.782802
 30
0.0
 10
6.470718
 20
-77.006115
 30
0.0
  0
SPLINE
  5
220
100
AcDbEntity
  8
0
 62
7
100
AcDbSpline
 70
8
 71
3
 72
8
 73
4
 74
0
 40
0
 40
0
 40
0
 40
0
 40
1
 40
1
 40
1
 40
1
 10
6.470718
 20
-77.006115
 30
0.0
 10
6.247429
 20
-77.229427
 30
0.0
 10
6.122003
 20
-77.532299
 30
0.0
 10
6.122035
 20
-77.848094
 30
0.0
  0
SPLINE
  5
221
100
AcDbEntity
  8
0
 62
7
100
AcDbSpline
 70
8
 71
3
 72
8
 73
4
 74
0
 40
0
 40
0
 40
0
 40
0
 40
1
 40
1
 40
1
 40
1
 10
6.122035
 20
-82.610594
 30
0.0
 10
6.122108
 20
-83.268108
 30
0.0
 10
6.655147
 20
-83.801089
 30
0.0
 10
7.312660
 20
-83.801092
 30
0.0
  0
LWPOLYLINE
  5
222
100
AcDbEntity
  8
0
 62
7
100
AcDbPolyline
 90
2
 70
0
 10
6.121400
 20
-82.610086
 30
0.0
 10
6.121400
 20
-77.847586
 30
0.0
  0
SPLINE
  5
223
100
AcDbEntity
  8
0
 62
7
100
AcDbSpline
 70
8
 71
3
 72
8
 73
4
 74
0
 40
0
 40
0
 40
0
 40
0
 40
1
 40
1
 40
1
 40
1
 10
8.503285
 20
-76.657342
 30
0.0
 10
9.160798
 20
-76.657339
 30
0.0
 10
9.693837
 20
-76.124358
 30
0.0
 10
9.693910
 20
-75.466844
 30
0.0
  0
LWPOLYLINE
  5
224
100
AcDbEntity
  8
0
 62
7
100
AcDbPolyline
 90
2
 70
0
 10
9.692640
 20
-83.798806
 30
0.0
 10
7.310120
 20
-83.798806
 30
0.0
  0
LWPOLYLINE
  5
225
100
AcDbEntity
  8
0
 62
7
100
AcDbPolyline
 90
2
 70
0
 10
9.692640
 20
-83.798806
 30
0.0
 10
10.883900
 20
-84.990066
 30
0.0
  0
LWPOLYLINE
  5
226
100
AcDbEntity
  8
0
 62
7
100
AcDbPolyline
 90
2
 70
0
 10
18.026380
 20
-87.372586
 30
0.0
 10
18.026380
 20
-86.181326
 30
0.0
  0
SPLINE
  5
227
100
AcDbEntity
  8
0
 62
7
100
AcDbSpline
 70
8
 71
3
 72
8
 73
4
 74
0
 40
0
 40
0
 40
0
 40
0
 40
1
 40
1
 40
1
 40
1
 10
10.884535
 20
-87.373094
 30
0.0
 10
10.884608
 20
-88.030617
 30
0.0
 10
11.417662
 20
-88.563603
 30
0.0
 10
12.075185
 20
-88.563592
 30
0.0
  0
SPLINE
  5
228
100
AcDbEntity
  8
0
 62
7
100
AcDbSpline
 70
8
 71
3
 72
8
 73
4
 74
0
 40
0
 40
0
 40
0
 40
0
 40
1
 40
1
 40
1
 40
1
 10
16.837685
 20
-88.563592
 30
0.0
 10
17.495209
 20
-88.563603
 30
0.0
 10
18.028263
 20
-88.030617
 30
0.0
 10
18.028336
 20
-87.373094
 30
0.0
  0
SPLINE
  5
229
100
AcDbEntity
  8
0
 62
7
100
AcDbSpline
 70
8
 71
3
 72
8
 73
4
 74
0
 40
0
 40
0
 40
0
 40
0
 40
1
 40
1
 40
1
 40
1
 10
19.218961
 20
-84.991844
 30
0.0
 10
18.561448
 20
-84.991847
 30
0.0
 10
18.028409
 20
-85.524829
 30
0.0
 10
18.028336
 20
-86.182342
 30
0.0
  0
LWPOLYLINE
  5
22a
100
AcDbEntity
  8
0
 62
7
100
AcDbPolyline
 90
2
 70
0
 10
12.075160
 20
-88.561306
 30
0.0
 10
16.837660
 20
-88.561306
 30
0.0
  0
LWPOLYLINE
  5
22b
100
AcDbEntity
  8
0
 62
7
100
AcDbPolyline
 90
2
 70
0
 10
10.883900
 20
-84.990066
 30
0.0
 10
10.883900
 20
-87.372586
 30
0.0
  0
LWPOLYLINE
  5
22c
100
AcDbEntity
  8
0
 62
7
100
AcDbPolyline
 90
2
 70
0
 10
219.242640
 20
-18.315066
 30
0.0
 10
219.242640
 20
-75.465066
 30
0.0
  0
LWPOLYLINE
  5
22d
100
AcDbEntity
  8
0
 62
7
100
AcDbPolyline
 90
2
 70
0
 10
9.692640
 20
-75.465066
 30
0.0
 10
9.692640
 20
-18.315066
 30
0.0
  0
SPLINE
  5
22e
100
AcDbEntity
  8
0
 62
7
100
AcDbSpline
 70
8
 71
3
 72
8
 73
4
 74
0
 40
0
 40
0
 40
0
 40
0
 40
1
 40
1
 40
1
 40
1
 10
123.994418
 20
-7.600889
 30
0.0
 10
123.994421
 20
-8.258402
 30
0.0
 10
124.527403
 20
-8.791441
 30
0.0
 10
125.184916
 20
-8.791514
 30
0.0
  0
SPLINE
  5
22f
100
AcDbEntity
  8
0
 62
7
100
AcDbSpline
 70
8
 71
3
 72
8
 73
4
 74
0
 40
0
 40
0
 40
0
 40
0
 40
1
 40
1
 40
1
 40
1
 10
123.994418
 20
-6.410239
 30
0.0
 10
123.994417
 20
-6.094444
 30
0.0
 10
123.868958
 20
-5.791585
 30
0.0
 10
123.645646
 20
-5.568296
 30
0.0
  0
SPLINE
  5
230
100
AcDbEntity
  8
0
 62
7
100
AcDbSpline
 70
8
 71
3
 72
8
 73
4
 74
0
 40
0
 40
0
 40
0
 40
0
 40
1
 40
1
 40
1
 40
1
 10
123.645646
 20
-5.568296
 30
0.0
 10
123.422333
 20
-5.345007
 30
0.0
 10
123.119461
 20
-5.219581
 30
0.0
 10
122.803666
 20
-5.219614
 30
0.0
  0
SPLINE
  5
231
100
AcDbEntity
  8
0
 62
7
100
AcDbSpline
 70
8
 71
3
 72
8
 73
4
 74
0
 40
0
 40
0
 40
0
 40
0
 40
1
 40
1
 40
1
 40
1
 10
106.134916
 20
-5.219614
 30
0.0
 10
105.477403
 20
-5.219687
 30
0.0
 10
104.944421
 20
-5.752725
 30
0.0
 10
104.944418
 20
-6.410239
 30
0.0
  0
SPLINE
  5
232
100
AcDbEntity
  8
0
 62
7
100
AcDbSpline
 70
8
 71
3
 72
8
 73
4
 74
0
 40
0
 40
0
 40
0
 40
0
 40
1
 40
1
 40
1
 40
1
 10
103.753666
 20
-8.791514
 30
0.0
 10
104.069461
 20
-8.791546
 30
0.0
 10
104.372333
 20
-8.666120
 30
0.0
 10
104.595646
 20
-8.442831
 30
0.0
  0
SPLINE
  5
233
100
AcDbEntity
  8
0
 62
7
100
AcDbSpline
 70
8
 71
3
 72
8
 73
4
 74
0
 40
0
 40
0
 40
0
 40
0
 40
1
 40
1
 40
1
 40
1
 10
104.595646
 20
-8.442831
 30
0.0
 10
104.818958
 20
-8.219543
 30
0.0
 10
104.944417
 20
-7.916684
 30
0.0
 10
104.944418
 20
-7.600889
 30
0.0
  0
SPLINE
  5
234
100
AcDbEntity
  8
0
 62
7
100
AcDbSpline
 70
8
 71
3
 72
8
 73
4
 74
0
 40
0
 40
0
 40
0
 40
0
 40
1
 40
1
 40
1
 40
1
 10
125.184916
 20
-84.991844
 30
0.0
 10
124.527452
 20
-84.991917
 30
0.0
 10
123.994491
 20
-85.524879
 30
0.0
 10
123.994418
 20
-86.182342
 30
0.0
  0
SPLINE
  5
235
100
AcDbEntity
  8
0
 62
7
100
AcDbSpline
 70
8
 71
3
 72
8
 73
4
 74
0
 40
0
 40
0
 40
0
 40
0
 40
1
 40
1
 40
1
 40
1
 10
122.803666
 20
-88.563592
 30
0.0
 10
123.461229
 20
-88.563660
 30
0.0
 10
123.994345
 20
-88.030657
 30
0.0
 10
123.994418
 20
-87.373094
 30
0.0
  0
SPLINE
  5
236
100
AcDbEntity
  8
0
 62
7
100
AcDbSpline
 70
8
 71
3
 72
8
 73
4
 74
0
 40
0
 40
0
 40
0
 40
0
 40
1
 40
1
 40
1
 40
1
 10
104.944418
 20
-87.373094
 30
0.0
 10
104.944491
 20
-88.030558
 30
0.0
 10
105.477452
 20
-88.563519
 30
0.0
 10
106.134916
 20
-88.563592
 30
0.0
  0
SPLINE
  5
237
100
AcDbEntity
  8
0
 62
7
100
AcDbSpline
 70
8
 71
3
 72
8
 73
4
 74
0
 40
0
 40
0
 40
0
 40
0
 40
1
 40
1
 40
1
 40
1
 10
104.944418
 20
-86.182342
 30
0.0
 10
104.944345
 20
-85.524779
 30
0.0
 10
104.411229
 20
-84.991777
 30
0.0
 10
103.753666
 20
-84.991844
 30
0.0
  0
LWPOLYLINE
  5
238
100
AcDbEntity
  8
0
 62
7
100
AcDbPolyline
 90
2
 70
0
 10
125.183900
 20
-84.990066
 30
0.0
 10
209.717640
 20
-84.990066
 30
0.0
  0
LWPOLYLINE
  5
239
100
AcDbEntity
  8
0
 62
7
100
AcDbPolyline
 90
2
 70
0
 10
103.751380
 20
-84.990066
 30
0.0
 10
19.217640
 20
-84.990066
 30
0.0
  0
LWPOLYLINE
  5
23a
100
AcDbEntity
  8
0
 62
7
100
AcDbPolyline
 90
2
 70
0
 10
123.992640
 20
-87.372586
 30
0.0
 10
123.992640
 20
-86.181326
 30
0.0
  0
LWPOLYLINE
  5
23b
100
AcDbEntity
  8
0
 62
7
100
AcDbPolyline
 90
2
 70
0
 10
106.133900
 20
-88.561306
 30
0.0
 10
122.801380
 20
-88.561306
 30
0.0
  0
LWPOLYLINE
  5
23c
100
AcDbEntity
  8
0
 62
7
100
AcDbPolyline
 90
2
 70
0
 10
104.942640
 20
-86.181326
 30
0.0
 10
104.942640
 20
-87.372586
 30
0.0
  0
LWPOLYLINE
  5
23d
100
AcDbEntity
  8
0
 62
7
100
AcDbPolyline
 90
2
 70
0
 10
103.751380
 20
-8.790066
 30
0.0
 10
19.217640
 20
-8.790066
 30
0.0
  0
LWPOLYLINE
  5
23e
100
AcDbEntity
  8
0
 62
7
100
AcDbPolyline
 90
2
 70
0
 10
123.992640
 20
-6.410086
 30
0.0
 10
123.992640
 20
-7.598806
 30
0.0
  0
LWPOLYLINE
  5
23f
100
AcDbEntity
  8
0
 62
7
100
AcDbPolyline
 90
2
 70
0
 10
106.133900
 20
-5.218826
 30
0.0
 10
122.801380
 20
-5.218826
 30
0.0
  0
LWPOLYLINE
  5
240
100
AcDbEntity
  8
0
 62
7
100
AcDbPolyline
 90
2
 70
0
 10
104.942640
 20
-7.598806
 30
0.0
 10
104.942640
 20
-6.410086
 30
0.0
  0
LWPOLYLINE
  5
241
100
AcDbEntity
  8
0
 62
7
100
AcDbPolyline
 90
1
 70
1
 10
210.908900
 20
-6.410086
 30
0.0
  0
LWPOLYLINE
  5
242
100
AcDbEntity
  8
0
 62
7
100
AcDbPolyline
 90
1
 70
1
 10
218.053920
 20
-6.410086
 30
0.0
  0
ENDSEC
  0
SECTION
  2
OBJECTS
  0
DICTIONARY
  5
C
330
0
100
AcDbDictionary
  3
ACAD_GROUP
350
D
  3
ACAD_MLINESTYLE
350
17
  0
DICTIONARY
  5
D
330
C
100
AcDbDictionary
  0
DICTIONARY
  5
1A
330
C
100
AcDbDictionary
  0
DICTIONARY
  5
17
330
C
100
AcDbDictionary
  3
STANDARD
350
18
  0
DICTIONARY
  5
19
330
C
100
AcDbDictionary
  0
ENDSEC
  0
EOF
