  0
SECTION
  2
HEADER
  9
$ACADVER
  1
AC1014
  9
$HANDSEED
  5
FFFF
  9
$MEASUREMENT
 70
     1
  0
ENDSEC
  0
SECTION
  2
TABLES
  0
TABLE
  2
VPORT
  5
8
330
0
100
AcDbSymbolTable
 70
     4
  0
VPORT
  5
2E
330
8
100
AcDbSymbolTableRecord
100
AcDbViewportTableRecord
  2
*ACTIVE
 70
     0
 10
0.0
 20
0.0
 11
1.0
 21
1.0
 12
210.0
 22
148.5
 13
0.0
 23
0.0
 14
10.0
 24
10.0
 15
10.0
 25
10.0
 16
0.0
 26
0.0
 36
1.0
 17
0.0
 27
0.0
 37
0.0
 40
341.0
 41
1.24
 42
50.0
 43
0.0
 44
0.0
 50
0.0
 51
0.0
 71
     0
 72
   100
 73
     1
 74
     3
 75
     0
 76
     0
 77
     0
 78
     0
  0
ENDTAB
  0
TABLE
  2
LTYPE
  5
5
330
0
100
AcDbSymbolTable
 70
     1
  0
LTYPE
  5
14
330
5
100
AcDbSymbolTableRecord
100
AcDbLinetypeTableRecord
  2
BYBLOCK
 70
     0
  3

 72
    65
 73
     0
 40
0.0
  0
LTYPE
  5
15
330
5
100
AcDbSymbolTableRecord
100
AcDbLinetypeTableRecord
  2
BYLAYER
 70
     0
  3

 72
    65
 73
     0
 40
0.0
  0
LTYPE
  5
16
330
5
100
AcDbSymbolTableRecord
100
AcDbLinetypeTableRecord
  2
CONTINUOUS
 70
     0
  3
Solid line
 72
    65
 73
     0
 40
0.0
  0
ENDTAB
  0
TABLE
  2
LAYER
  5
2
100
AcDbSymbolTable
 70
1
  0
LAYER
  5
50
100
AcDbSymbolTableRecord
100
AcDbLayerTableRecord
  2
0
 70
0
  6
CONTINUOUS
  0
ENDTAB
  0
TABLE
  2
STYLE
  5
3
330
0
100
AcDbSymbolTable
 70
     1
  0
STYLE
  5
11
330
3
100
AcDbSymbolTableRecord
100
AcDbTextStyleTableRecord
  2
STANDARD
 70
     0
 40
0.0
 41
1.0
 50
0.0
 71
     0
 42
2.5
  3
txt
  4

  0
ENDTAB
  0
TABLE
  2
VIEW
  5
6
330
0
100
AcDbSymbolTable
 70
     0
  0
ENDTAB
  0
TABLE
  2
UCS
  5
7
330
0
100
AcDbSymbolTable
 70
     0
  0
ENDTAB
  0
TABLE
  2
APPID
  5
9
330
0
100
AcDbSymbolTable
 70
     2
  0
APPID
  5
12
330
9
100
AcDbSymbolTableRecord
100
AcDbRegAppTableRecord
  2
ACAD
 70
     0
  0
ENDTAB
  0
TABLE
  2
DIMSTYLE
  5
A
330
0
100
AcDbSymbolTable
 70
     1
  0
DIMSTYLE
105
27
330
A
100
AcDbSymbolTableRecord
100
AcDbDimStyleTableRecord
  2
ISO-25
 70
     0
  3

  4

  5

  6

  7

 40
1.0
 41
2.5
 42
0.625
 43
3.75
 44
1.25
 45
0.0
 46
0.0
 47
0.0
 48
0.0
140
2.5
141
2.5
142
0.0
143
0.03937007874016
144
1.0
145
0.0
146
1.0
147
0.625
 71
     0
 72
     0
 73
     0
 74
     0
 75
     0
 76
     0
 77
     1
 78
     8
170
     0
171
     3
172
     1
173
     0
174
     0
175
     0
176
     0
177
     0
178
     0
270
     2
271
     2
272
     2
273
     2
274
     3
340
11
275
     0
280
     0
281
     0
282
     0
283
     0
284
     8
285
     0
286
     0
287
     3
288
     0
  0
ENDTAB
  0
TABLE
  2
BLOCK_RECORD
  5
1
330
0
100
AcDbSymbolTable
 70
     1
  0
BLOCK_RECORD
  5
1F
330
1
100
AcDbSymbolTableRecord
100
AcDbBlockTableRecord
  2
*MODEL_SPACE
  0
BLOCK_RECORD
  5
1B
330
1
100
AcDbSymbolTableRecord
100
AcDbBlockTableRecord
  2
*PAPER_SPACE
  0
ENDTAB
  0
ENDSEC
  0
SECTION
  2
BLOCKS
  0
BLOCK
  5
20
330
1F
100
AcDbEntity
  8
0
100
AcDbBlockBegin
  2
*MODEL_SPACE
 70
     0
 10
0.0
 20
0.0
 30
0.0
  3
*MODEL_SPACE
  1

  0
ENDBLK
  5
21
330
1F
100
AcDbEntity
  8
0
100
AcDbBlockEnd
  0
BLOCK
  5
1C
330
1B
100
AcDbEntity
 67
     1
  8
0
100
AcDbBlockBegin
  2
*PAPER_SPACE
  1

  0
ENDBLK
  5
1D
330
1B
100
AcDbEntity
 67
     1
  8
0
100
AcDbBlockEnd
  0
ENDSEC
  0
SECTION
  2
ENTITIES
  0
LWPOLYLINE
  5
100
100
AcDbEntity
  8
0
 62
7
100
AcDbPolyline
 90
2
 70
1
 10
639.952450
 20
270.456588
 30
0.0
 10
640.621427
 20
270.429659
 30
0.0
  0
LWPOLYLINE
  5
101
100
AcDbEntity
  8
0
 62
7
100
AcDbPolyline
 90
2
 70
1
 10
640.621427
 20
270.429659
 30
0.0
 10
641.281899
 20
270.355675
 30
0.0
  0
LWPOLYLINE
  5
102
100
AcDbEntity
  8
0
 62
7
100
AcDbPolyline
 90
2
 70
1
 10
641.281899
 20
270.355675
 30
0.0
 10
641.936703
 20
270.222730
 30
0.0
  0
LWPOLYLINE
  5
103
100
AcDbEntity
  8
0
 62
7
100
AcDbPolyline
 90
2
 70
1
 10
641.936703
 20
270.222730
 30
0.0
 10
642.583002
 20
270.042730
 30
0.0
  0
LWPOLYLINE
  5
104
100
AcDbEntity
  8
0
 62
7
100
AcDbPolyline
 90
2
 70
1
 10
642.583002
 20
270.042730
 30
0.0
 10
643.206624
 20
269.808588
 30
0.0
  0
LWPOLYLINE
  5
105
100
AcDbEntity
  8
0
 62
7
100
AcDbPolyline
 90
2
 70
1
 10
643.206624
 20
269.808588
 30
0.0
 10
643.813239
 20
269.531643
 30
0.0
  0
LWPOLYLINE
  5
106
100
AcDbEntity
  8
0
 62
7
100
AcDbPolyline
 90
2
 70
1
 10
643.813239
 20
269.531643
 30
0.0
 10
644.394341
 20
269.203674
 30
0.0
  0
LWPOLYLINE
  5
107
100
AcDbEntity
  8
0
 62
7
100
AcDbPolyline
 90
2
 70
1
 10
644.394341
 20
269.203674
 30
0.0
 10
644.949932
 20
268.835737
 30
0.0
  0
LWPOLYLINE
  5
108
100
AcDbEntity
  8
0
 62
7
100
AcDbPolyline
 90
2
 70
1
 10
644.949932
 20
268.835737
 30
0.0
 10
645.477177
 20
268.421595
 30
0.0
  0
LWPOLYLINE
  5
109
100
AcDbEntity
  8
0
 62
7
100
AcDbPolyline
 90
2
 70
1
 10
645.477177
 20
268.421595
 30
0.0
 10
645.964736
 20
267.968619
 30
0.0
  0
LWPOLYLINE
  5
10a
100
AcDbEntity
  8
0
 62
7
100
AcDbPolyline
 90
2
 70
1
 10
645.964736
 20
267.968619
 30
0.0
 10
646.418279
 20
267.476808
 30
0.0
  0
LWPOLYLINE
  5
10b
100
AcDbEntity
  8
0
 62
7
100
AcDbPolyline
 90
2
 70
1
 10
646.418279
 20
267.476808
 30
0.0
 10
646.832138
 20
266.953532
 30
0.0
  0
LWPOLYLINE
  5
10c
100
AcDbEntity
  8
0
 62
7
100
AcDbPolyline
 90
2
 70
1
 10
646.832138
 20
266.953532
 30
0.0
 10
647.203476
 20
266.398791
 30
0.0
  0
LWPOLYLINE
  5
10d
100
AcDbEntity
  8
0
 62
7
100
AcDbPolyline
 90
2
 70
1
 10
647.203476
 20
266.398791
 30
0.0
 10
647.532295
 20
265.812586
 30
0.0
  0
LWPOLYLINE
  5
10e
100
AcDbEntity
  8
0
 62
7
100
AcDbPolyline
 90
2
 70
1
 10
647.532295
 20
265.812586
 30
0.0
 10
647.810091
 20
265.206539
 30
0.0
  0
LWPOLYLINE
  5
10f
100
AcDbEntity
  8
0
 62
7
100
AcDbPolyline
 90
2
 70
1
 10
647.810091
 20
265.206539
 30
0.0
 10
648.039697
 20
264.581783
 30
0.0
  0
LWPOLYLINE
  5
110
100
AcDbEntity
  8
0
 62
7
100
AcDbPolyline
 90
2
 70
1
 10
648.039697
 20
264.581783
 30
0.0
 10
648.223949
 20
263.937751
 30
0.0
  0
LWPOLYLINE
  5
111
100
AcDbEntity
  8
0
 62
7
100
AcDbPolyline
 90
2
 70
1
 10
648.223949
 20
263.937751
 30
0.0
 10
648.351508
 20
263.285782
 30
0.0
  0
LWPOLYLINE
  5
112
100
AcDbEntity
  8
0
 62
7
100
AcDbPolyline
 90
2
 70
1
 10
648.351508
 20
263.285782
 30
0.0
 10
648.430878
 20
262.621625
 30
0.0
  0
LWPOLYLINE
  5
113
100
AcDbEntity
  8
0
 62
7
100
AcDbPolyline
 90
2
 70
1
 10
648.430878
 20
262.621625
 30
0.0
 10
648.456390
 20
261.953782
 30
0.0
  0
LWPOLYLINE
  5
114
100
AcDbEntity
  8
0
 62
7
100
AcDbPolyline
 90
2
 70
1
 10
648.456390
 20
261.953782
 30
0.0
 10
648.456390
 20
8.503904
 30
0.0
  0
LWPOLYLINE
  5
115
100
AcDbEntity
  8
0
 62
7
100
AcDbPolyline
 90
2
 70
1
 10
648.456390
 20
8.503904
 30
0.0
 10
648.430878
 20
7.835948
 30
0.0
  0
LWPOLYLINE
  5
116
100
AcDbEntity
  8
0
 62
7
100
AcDbPolyline
 90
2
 70
1
 10
648.430878
 20
7.835948
 30
0.0
 10
648.351508
 20
7.175787
 30
0.0
  0
LWPOLYLINE
  5
117
100
AcDbEntity
  8
0
 62
7
100
AcDbPolyline
 90
2
 70
1
 10
648.351508
 20
7.175787
 30
0.0
 10
648.223949
 20
6.519538
 30
0.0
  0
LWPOLYLINE
  5
118
100
AcDbEntity
  8
0
 62
7
100
AcDbPolyline
 90
2
 70
1
 10
648.223949
 20
6.519538
 30
0.0
 10
648.039697
 20
5.874996
 30
0.0
  0
LWPOLYLINE
  5
119
100
AcDbEntity
  8
0
 62
7
100
AcDbPolyline
 90
2
 70
1
 10
648.039697
 20
5.874996
 30
0.0
 10
647.810091
 20
5.250013
 30
0.0
  0
LWPOLYLINE
  5
11a
100
AcDbEntity
  8
0
 62
7
100
AcDbPolyline
 90
2
 70
1
 10
647.810091
 20
5.250013
 30
0.0
 10
647.532295
 20
4.644532
 30
0.0
  0
LWPOLYLINE
  5
11b
100
AcDbEntity
  8
0
 62
7
100
AcDbPolyline
 90
2
 70
1
 10
647.532295
 20
4.644532
 30
0.0
 10
647.203476
 20
4.062494
 30
0.0
  0
LWPOLYLINE
  5
11c
100
AcDbEntity
  8
0
 62
7
100
AcDbPolyline
 90
2
 70
1
 10
647.203476
 20
4.062494
 30
0.0
 10
646.832138
 20
3.507810
 30
0.0
  0
LWPOLYLINE
  5
11d
100
AcDbEntity
  8
0
 62
7
100
AcDbPolyline
 90
2
 70
1
 10
646.832138
 20
3.507810
 30
0.0
 10
646.418279
 20
2.980481
 30
0.0
  0
LWPOLYLINE
  5
11e
100
AcDbEntity
  8
0
 62
7
100
AcDbPolyline
 90
2
 70
1
 10
646.418279
 20
2.980481
 30
0.0
 10
645.964736
 20
2.492193
 30
0.0
  0
LWPOLYLINE
  5
11f
100
AcDbEntity
  8
0
 62
7
100
AcDbPolyline
 90
2
 70
1
 10
645.964736
 20
2.492193
 30
0.0
 10
645.477177
 20
2.039064
 30
0.0
  0
LWPOLYLINE
  5
120
100
AcDbEntity
  8
0
 62
7
100
AcDbPolyline
 90
2
 70
1
 10
645.477177
 20
2.039064
 30
0.0
 10
644.949932
 20
1.625001
 30
0.0
  0
LWPOLYLINE
  5
121
100
AcDbEntity
  8
0
 62
7
100
AcDbPolyline
 90
2
 70
1
 10
644.949932
 20
1.625001
 30
0.0
 10
644.394341
 20
1.253903
 30
0.0
  0
LWPOLYLINE
  5
122
100
AcDbEntity
  8
0
 62
7
100
AcDbPolyline
 90
2
 70
1
 10
644.394341
 20
1.253903
 30
0.0
 10
643.813239
 20
0.925782
 30
0.0
  0
LWPOLYLINE
  5
123
100
AcDbEntity
  8
0
 62
7
100
AcDbPolyline
 90
2
 70
1
 10
643.813239
 20
0.925782
 30
0.0
 10
643.206624
 20
0.648437
 30
0.0
  0
LWPOLYLINE
  5
124
100
AcDbEntity
  8
0
 62
7
100
AcDbPolyline
 90
2
 70
1
 10
643.206624
 20
0.648437
 30
0.0
 10
642.583002
 20
0.417969
 30
0.0
  0
LWPOLYLINE
  5
125
100
AcDbEntity
  8
0
 62
7
100
AcDbPolyline
 90
2
 70
1
 10
642.583002
 20
0.417969
 30
0.0
 10
641.936703
 20
0.234375
 30
0.0
  0
LWPOLYLINE
  5
126
100
AcDbEntity
  8
0
 62
7
100
AcDbPolyline
 90
2
 70
1
 10
641.936703
 20
0.234375
 30
0.0
 10
641.281899
 20
0.105469
 30
0.0
  0
LWPOLYLINE
  5
127
100
AcDbEntity
  8
0
 62
7
100
AcDbPolyline
 90
2
 70
1
 10
641.281899
 20
0.105469
 30
0.0
 10
640.621427
 20
0.027343
 30
0.0
  0
LWPOLYLINE
  5
128
100
AcDbEntity
  8
0
 62
7
100
AcDbPolyline
 90
2
 70
1
 10
640.621427
 20
0.027343
 30
0.0
 10
639.952450
 20
0.000000
 30
0.0
  0
LWPOLYLINE
  5
129
100
AcDbEntity
  8
0
 62
7
100
AcDbPolyline
 90
2
 70
1
 10
639.952450
 20
0.000000
 30
0.0
 10
8.503899
 20
0.000000
 30
0.0
  0
LWPOLYLINE
  5
12a
100
AcDbEntity
  8
0
 62
7
100
AcDbPolyline
 90
2
 70
1
 10
8.503899
 20
0.000000
 30
0.0
 10
7.835943
 20
0.027343
 30
0.0
  0
LWPOLYLINE
  5
12b
100
AcDbEntity
  8
0
 62
7
100
AcDbPolyline
 90
2
 70
1
 10
7.835943
 20
0.027343
 30
0.0
 10
7.171870
 20
0.105469
 30
0.0
  0
LWPOLYLINE
  5
12c
100
AcDbEntity
  8
0
 62
7
100
AcDbPolyline
 90
2
 70
1
 10
7.171870
 20
0.105469
 30
0.0
 10
6.519533
 20
0.234375
 30
0.0
  0
LWPOLYLINE
  5
12d
100
AcDbEntity
  8
0
 62
7
100
AcDbPolyline
 90
2
 70
1
 10
6.519533
 20
0.234375
 30
0.0
 10
5.874991
 20
0.417969
 30
0.0
  0
LWPOLYLINE
  5
12e
100
AcDbEntity
  8
0
 62
7
100
AcDbPolyline
 90
2
 70
1
 10
5.874991
 20
0.417969
 30
0.0
 10
5.250008
 20
0.648437
 30
0.0
  0
LWPOLYLINE
  5
12f
100
AcDbEntity
  8
0
 62
7
100
AcDbPolyline
 90
2
 70
1
 10
5.250008
 20
0.648437
 30
0.0
 10
4.644527
 20
0.925782
 30
0.0
  0
LWPOLYLINE
  5
130
100
AcDbEntity
  8
0
 62
7
100
AcDbPolyline
 90
2
 70
1
 10
4.644527
 20
0.925782
 30
0.0
 10
4.058606
 20
1.253903
 30
0.0
  0
LWPOLYLINE
  5
131
100
AcDbEntity
  8
0
 62
7
100
AcDbPolyline
 90
2
 70
1
 10
4.058606
 20
1.253903
 30
0.0
 10
3.503922
 20
1.625001
 30
0.0
  0
LWPOLYLINE
  5
132
100
AcDbEntity
  8
0
 62
7
100
AcDbPolyline
 90
2
 70
1
 10
3.503922
 20
1.625001
 30
0.0
 10
2.980476
 20
2.039064
 30
0.0
  0
LWPOLYLINE
  5
133
100
AcDbEntity
  8
0
 62
7
100
AcDbPolyline
 90
2
 70
1
 10
2.980476
 20
2.039064
 30
0.0
 10
2.488280
 20
2.492193
 30
0.0
  0
LWPOLYLINE
  5
134
100
AcDbEntity
  8
0
 62
7
100
AcDbPolyline
 90
2
 70
1
 10
2.488280
 20
2.492193
 30
0.0
 10
2.035158
 20
2.980481
 30
0.0
  0
LWPOLYLINE
  5
135
100
AcDbEntity
  8
0
 62
7
100
AcDbPolyline
 90
2
 70
1
 10
2.035158
 20
2.980481
 30
0.0
 10
1.621099
 20
3.507810
 30
0.0
  0
LWPOLYLINE
  5
136
100
AcDbEntity
  8
0
 62
7
100
AcDbPolyline
 90
2
 70
1
 10
1.621099
 20
3.507810
 30
0.0
 10
1.253910
 20
4.062494
 30
0.0
  0
LWPOLYLINE
  5
137
100
AcDbEntity
  8
0
 62
7
100
AcDbPolyline
 90
2
 70
1
 10
1.253910
 20
4.062494
 30
0.0
 10
0.925780
 20
4.644532
 30
0.0
  0
LWPOLYLINE
  5
138
100
AcDbEntity
  8
0
 62
7
100
AcDbPolyline
 90
2
 70
1
 10
0.925780
 20
4.644532
 30
0.0
 10
0.648438
 20
5.250013
 30
0.0
  0
LWPOLYLINE
  5
139
100
AcDbEntity
  8
0
 62
7
100
AcDbPolyline
 90
2
 70
1
 10
0.648438
 20
5.250013
 30
0.0
 10
0.414064
 20
5.874996
 30
0.0
  0
LWPOLYLINE
  5
13a
100
AcDbEntity
  8
0
 62
7
100
AcDbPolyline
 90
2
 70
1
 10
0.414064
 20
5.874996
 30
0.0
 10
0.234375
 20
6.519538
 30
0.0
  0
LWPOLYLINE
  5
13b
100
AcDbEntity
  8
0
 62
7
100
AcDbPolyline
 90
2
 70
1
 10
0.234375
 20
6.519538
 30
0.0
 10
0.101564
 20
7.175787
 30
0.0
  0
LWPOLYLINE
  5
13c
100
AcDbEntity
  8
0
 62
7
100
AcDbPolyline
 90
2
 70
1
 10
0.101564
 20
7.175787
 30
0.0
 10
0.027344
 20
7.835948
 30
0.0
  0
LWPOLYLINE
  5
13d
100
AcDbEntity
  8
0
 62
7
100
AcDbPolyline
 90
2
 70
1
 10
0.027344
 20
7.835948
 30
0.0
 10
0.000000
 20
8.507816
 30
0.0
  0
LWPOLYLINE
  5
13e
100
AcDbEntity
  8
0
 62
7
100
AcDbPolyline
 90
2
 70
1
 10
0.000000
 20
8.507816
 30
0.0
 10
0.000000
 20
261.953782
 30
0.0
  0
LWPOLYLINE
  5
13f
100
AcDbEntity
  8
0
 62
7
100
AcDbPolyline
 90
2
 70
1
 10
0.000000
 20
261.953782
 30
0.0
 10
0.027344
 20
262.621625
 30
0.0
  0
LWPOLYLINE
  5
140
100
AcDbEntity
  8
0
 62
7
100
AcDbPolyline
 90
2
 70
1
 10
0.027344
 20
262.621625
 30
0.0
 10
0.101564
 20
263.285782
 30
0.0
  0
LWPOLYLINE
  5
141
100
AcDbEntity
  8
0
 62
7
100
AcDbPolyline
 90
2
 70
1
 10
0.101564
 20
263.285782
 30
0.0
 10
0.234375
 20
263.937751
 30
0.0
  0
LWPOLYLINE
  5
142
100
AcDbEntity
  8
0
 62
7
100
AcDbPolyline
 90
2
 70
1
 10
0.234375
 20
263.937751
 30
0.0
 10
0.414064
 20
264.581783
 30
0.0
  0
LWPOLYLINE
  5
143
100
AcDbEntity
  8
0
 62
7
100
AcDbPolyline
 90
2
 70
1
 10
0.414064
 20
264.581783
 30
0.0
 10
0.648438
 20
265.206539
 30
0.0
  0
LWPOLYLINE
  5
144
100
AcDbEntity
  8
0
 62
7
100
AcDbPolyline
 90
2
 70
1
 10
0.648438
 20
265.206539
 30
0.0
 10
0.925780
 20
265.812586
 30
0.0
  0
LWPOLYLINE
  5
145
100
AcDbEntity
  8
0
 62
7
100
AcDbPolyline
 90
2
 70
1
 10
0.925780
 20
265.812586
 30
0.0
 10
1.253910
 20
266.398791
 30
0.0
  0
LWPOLYLINE
  5
146
100
AcDbEntity
  8
0
 62
7
100
AcDbPolyline
 90
2
 70
1
 10
1.253910
 20
266.398791
 30
0.0
 10
1.621099
 20
266.953532
 30
0.0
  0
LWPOLYLINE
  5
147
100
AcDbEntity
  8
0
 62
7
100
AcDbPolyline
 90
2
 70
1
 10
1.621099
 20
266.953532
 30
0.0
 10
2.035158
 20
267.476808
 30
0.0
  0
LWPOLYLINE
  5
148
100
AcDbEntity
  8
0
 62
7
100
AcDbPolyline
 90
2
 70
1
 10
2.035158
 20
267.476808
 30
0.0
 10
2.488280
 20
267.968619
 30
0.0
  0
LWPOLYLINE
  5
149
100
AcDbEntity
  8
0
 62
7
100
AcDbPolyline
 90
2
 70
1
 10
2.488280
 20
267.968619
 30
0.0
 10
2.980476
 20
268.421595
 30
0.0
  0
LWPOLYLINE
  5
14a
100
AcDbEntity
  8
0
 62
7
100
AcDbPolyline
 90
2
 70
1
 10
2.980476
 20
268.421595
 30
0.0
 10
3.503922
 20
268.835737
 30
0.0
  0
LWPOLYLINE
  5
14b
100
AcDbEntity
  8
0
 62
7
100
AcDbPolyline
 90
2
 70
1
 10
3.503922
 20
268.835737
 30
0.0
 10
4.058606
 20
269.203674
 30
0.0
  0
LWPOLYLINE
  5
14c
100
AcDbEntity
  8
0
 62
7
100
AcDbPolyline
 90
2
 70
1
 10
4.058606
 20
269.203674
 30
0.0
 10
4.644527
 20
269.531643
 30
0.0
  0
LWPOLYLINE
  5
14d
100
AcDbEntity
  8
0
 62
7
100
AcDbPolyline
 90
2
 70
1
 10
4.644527
 20
269.531643
 30
0.0
 10
5.250008
 20
269.808588
 30
0.0
  0
LWPOLYLINE
  5
14e
100
AcDbEntity
  8
0
 62
7
100
AcDbPolyline
 90
2
 70
1
 10
5.250008
 20
269.808588
 30
0.0
 10
5.874991
 20
270.042730
 30
0.0
  0
LWPOLYLINE
  5
14f
100
AcDbEntity
  8
0
 62
7
100
AcDbPolyline
 90
2
 70
1
 10
5.874991
 20
270.042730
 30
0.0
 10
6.519533
 20
270.222730
 30
0.0
  0
LWPOLYLINE
  5
150
100
AcDbEntity
  8
0
 62
7
100
AcDbPolyline
 90
2
 70
1
 10
6.519533
 20
270.222730
 30
0.0
 10
7.171870
 20
270.355675
 30
0.0
  0
LWPOLYLINE
  5
151
100
AcDbEntity
  8
0
 62
7
100
AcDbPolyline
 90
2
 70
1
 10
7.171870
 20
270.355675
 30
0.0
 10
7.835943
 20
270.429659
 30
0.0
  0
LWPOLYLINE
  5
152
100
AcDbEntity
  8
0
 62
7
100
AcDbPolyline
 90
2
 70
1
 10
7.835943
 20
270.429659
 30
0.0
 10
8.503899
 20
270.456588
 30
0.0
  0
LWPOLYLINE
  5
153
100
AcDbEntity
  8
0
 62
7
100
AcDbPolyline
 90
2
 70
1
 10
8.503899
 20
270.456588
 30
0.0
 10
639.952450
 20
270.456588
 30
0.0
  0
LWPOLYLINE
  5
154
100
AcDbEntity
  8
0
 62
7
100
AcDbPolyline
 90
2
 70
1
 10
12.253881
 20
18.238279
 30
0.0
 10
10.929676
 20
17.562471
 30
0.0
  0
LWPOLYLINE
  5
155
100
AcDbEntity
  8
0
 62
7
100
AcDbPolyline
 90
2
 70
1
 10
10.929676
 20
17.562471
 30
0.0
 10
9.878873
 20
16.511781
 30
0.0
  0
LWPOLYLINE
  5
156
100
AcDbEntity
  8
0
 62
7
100
AcDbPolyline
 90
2
 70
1
 10
9.878873
 20
16.511781
 30
0.0
 10
9.203121
 20
15.187462
 30
0.0
  0
LWPOLYLINE
  5
157
100
AcDbEntity
  8
0
 62
7
100
AcDbPolyline
 90
2
 70
1
 10
9.203121
 20
15.187462
 30
0.0
 10
8.968753
 20
13.722659
 30
0.0
  0
LWPOLYLINE
  5
158
100
AcDbEntity
  8
0
 62
7
100
AcDbPolyline
 90
2
 70
1
 10
8.968753
 20
13.722659
 30
0.0
 10
9.203121
 20
12.253858
 30
0.0
  0
LWPOLYLINE
  5
159
100
AcDbEntity
  8
0
 62
7
100
AcDbPolyline
 90
2
 70
1
 10
9.203121
 20
12.253858
 30
0.0
 10
9.878873
 20
10.929653
 30
0.0
  0
LWPOLYLINE
  5
15a
100
AcDbEntity
  8
0
 62
7
100
AcDbPolyline
 90
2
 70
1
 10
9.878873
 20
10.929653
 30
0.0
 10
10.929676
 20
9.878878
 30
0.0
  0
LWPOLYLINE
  5
15b
100
AcDbEntity
  8
0
 62
7
100
AcDbPolyline
 90
2
 70
1
 10
10.929676
 20
9.878878
 30
0.0
 10
12.253881
 20
9.203126
 30
0.0
  0
LWPOLYLINE
  5
15c
100
AcDbEntity
  8
0
 62
7
100
AcDbPolyline
 90
2
 70
1
 10
12.253881
 20
9.203126
 30
0.0
 10
13.722682
 20
8.972669
 30
0.0
  0
LWPOLYLINE
  5
15d
100
AcDbEntity
  8
0
 62
7
100
AcDbPolyline
 90
2
 70
1
 10
13.722682
 20
8.972669
 30
0.0
 10
15.187486
 20
9.203126
 30
0.0
  0
LWPOLYLINE
  5
15e
100
AcDbEntity
  8
0
 62
7
100
AcDbPolyline
 90
2
 70
1
 10
15.187486
 20
9.203126
 30
0.0
 10
16.511776
 20
9.878878
 30
0.0
  0
LWPOLYLINE
  5
15f
100
AcDbEntity
  8
0
 62
7
100
AcDbPolyline
 90
2
 70
1
 10
16.511776
 20
9.878878
 30
0.0
 10
17.562466
 20
10.929653
 30
0.0
  0
LWPOLYLINE
  5
160
100
AcDbEntity
  8
0
 62
7
100
AcDbPolyline
 90
2
 70
1
 10
17.562466
 20
10.929653
 30
0.0
 10
18.238274
 20
12.253858
 30
0.0
  0
LWPOLYLINE
  5
161
100
AcDbEntity
  8
0
 62
7
100
AcDbPolyline
 90
2
 70
1
 10
18.238274
 20
12.253858
 30
0.0
 10
18.468788
 20
13.722659
 30
0.0
  0
LWPOLYLINE
  5
162
100
AcDbEntity
  8
0
 62
7
100
AcDbPolyline
 90
2
 70
1
 10
18.468788
 20
13.722659
 30
0.0
 10
18.238274
 20
15.187462
 30
0.0
  0
LWPOLYLINE
  5
163
100
AcDbEntity
  8
0
 62
7
100
AcDbPolyline
 90
2
 70
1
 10
18.238274
 20
15.187462
 30
0.0
 10
17.562466
 20
16.511781
 30
0.0
  0
LWPOLYLINE
  5
164
100
AcDbEntity
  8
0
 62
7
100
AcDbPolyline
 90
2
 70
1
 10
17.562466
 20
16.511781
 30
0.0
 10
16.511776
 20
17.562471
 30
0.0
  0
LWPOLYLINE
  5
165
100
AcDbEntity
  8
0
 62
7
100
AcDbPolyline
 90
2
 70
1
 10
16.511776
 20
17.562471
 30
0.0
 10
15.187486
 20
18.238279
 30
0.0
  0
LWPOLYLINE
  5
166
100
AcDbEntity
  8
0
 62
7
100
AcDbPolyline
 90
2
 70
1
 10
15.187486
 20
18.238279
 30
0.0
 10
13.722682
 20
18.468764
 30
0.0
  0
LWPOLYLINE
  5
167
100
AcDbEntity
  8
0
 62
7
100
AcDbPolyline
 90
2
 70
1
 10
13.722682
 20
18.468764
 30
0.0
 10
12.253881
 20
18.238279
 30
0.0
  0
LWPOLYLINE
  5
168
100
AcDbEntity
  8
0
 62
7
100
AcDbPolyline
 90
2
 70
1
 10
219.257420
 20
18.238279
 30
0.0
 10
217.933640
 20
17.562471
 30
0.0
  0
LWPOLYLINE
  5
169
100
AcDbEntity
  8
0
 62
7
100
AcDbPolyline
 90
2
 70
1
 10
217.933640
 20
17.562471
 30
0.0
 10
216.882553
 20
16.511781
 30
0.0
  0
LWPOLYLINE
  5
16a
100
AcDbEntity
  8
0
 62
7
100
AcDbPolyline
 90
2
 70
1
 10
216.882553
 20
16.511781
 30
0.0
 10
216.207624
 20
15.187462
 30
0.0
  0
LWPOLYLINE
  5
16b
100
AcDbEntity
  8
0
 62
7
100
AcDbPolyline
 90
2
 70
1
 10
216.207624
 20
15.187462
 30
0.0
 10
215.976600
 20
13.722659
 30
0.0
  0
LWPOLYLINE
  5
16c
100
AcDbEntity
  8
0
 62
7
100
AcDbPolyline
 90
2
 70
1
 10
215.976600
 20
13.722659
 30
0.0
 10
216.207624
 20
12.253858
 30
0.0
  0
LWPOLYLINE
  5
16d
100
AcDbEntity
  8
0
 62
7
100
AcDbPolyline
 90
2
 70
1
 10
216.207624
 20
12.253858
 30
0.0
 10
216.882553
 20
10.929653
 30
0.0
  0
LWPOLYLINE
  5
16e
100
AcDbEntity
  8
0
 62
7
100
AcDbPolyline
 90
2
 70
1
 10
216.882553
 20
10.929653
 30
0.0
 10
217.933640
 20
9.878878
 30
0.0
  0
LWPOLYLINE
  5
16f
100
AcDbEntity
  8
0
 62
7
100
AcDbPolyline
 90
2
 70
1
 10
217.933640
 20
9.878878
 30
0.0
 10
219.257420
 20
9.203126
 30
0.0
  0
LWPOLYLINE
  5
170
100
AcDbEntity
  8
0
 62
7
100
AcDbPolyline
 90
2
 70
1
 10
219.257420
 20
9.203126
 30
0.0
 10
220.726618
 20
8.972669
 30
0.0
  0
LWPOLYLINE
  5
171
100
AcDbEntity
  8
0
 62
7
100
AcDbPolyline
 90
2
 70
1
 10
220.726618
 20
8.972669
 30
0.0
 10
222.191563
 20
9.203126
 30
0.0
  0
LWPOLYLINE
  5
172
100
AcDbEntity
  8
0
 62
7
100
AcDbPolyline
 90
2
 70
1
 10
222.191563
 20
9.203126
 30
0.0
 10
223.515627
 20
9.878878
 30
0.0
  0
LWPOLYLINE
  5
173
100
AcDbEntity
  8
0
 62
7
100
AcDbPolyline
 90
2
 70
1
 10
223.515627
 20
9.878878
 30
0.0
 10
224.566430
 20
10.929653
 30
0.0
  0
LWPOLYLINE
  5
174
100
AcDbEntity
  8
0
 62
7
100
AcDbPolyline
 90
2
 70
1
 10
224.566430
 20
10.929653
 30
0.0
 10
225.242493
 20
12.253858
 30
0.0
  0
LWPOLYLINE
  5
175
100
AcDbEntity
  8
0
 62
7
100
AcDbPolyline
 90
2
 70
1
 10
225.242493
 20
12.253858
 30
0.0
 10
225.472667
 20
13.722659
 30
0.0
  0
LWPOLYLINE
  5
176
100
AcDbEntity
  8
0
 62
7
100
AcDbPolyline
 90
2
 70
1
 10
225.472667
 20
13.722659
 30
0.0
 10
225.242493
 20
15.187462
 30
0.0
  0
LWPOLYLINE
  5
177
100
AcDbEntity
  8
0
 62
7
100
AcDbPolyline
 90
2
 70
1
 10
225.242493
 20
15.187462
 30
0.0
 10
224.566430
 20
16.511781
 30
0.0
  0
LWPOLYLINE
  5
178
100
AcDbEntity
  8
0
 62
7
100
AcDbPolyline
 90
2
 70
1
 10
224.566430
 20
16.511781
 30
0.0
 10
223.515627
 20
17.562471
 30
0.0
  0
LWPOLYLINE
  5
179
100
AcDbEntity
  8
0
 62
7
100
AcDbPolyline
 90
2
 70
1
 10
223.515627
 20
17.562471
 30
0.0
 10
222.191563
 20
18.238279
 30
0.0
  0
LWPOLYLINE
  5
17a
100
AcDbEntity
  8
0
 62
7
100
AcDbPolyline
 90
2
 70
1
 10
222.191563
 20
18.238279
 30
0.0
 10
220.726618
 20
18.468764
 30
0.0
  0
LWPOLYLINE
  5
17b
100
AcDbEntity
  8
0
 62
7
100
AcDbPolyline
 90
2
 70
1
 10
220.726618
 20
18.468764
 30
0.0
 10
219.257420
 20
18.238279
 30
0.0
  0
LWPOLYLINE
  5
17c
100
AcDbEntity
  8
0
 62
7
100
AcDbPolyline
 90
2
 70
1
 10
426.265438
 20
18.238279
 30
0.0
 10
424.941658
 20
17.562471
 30
0.0
  0
LWPOLYLINE
  5
17d
100
AcDbEntity
  8
0
 62
7
100
AcDbPolyline
 90
2
 70
1
 10
424.941658
 20
17.562471
 30
0.0
 10
423.887169
 20
16.511781
 30
0.0
  0
LWPOLYLINE
  5
17e
100
AcDbEntity
  8
0
 62
7
100
AcDbPolyline
 90
2
 70
1
 10
423.887169
 20
16.511781
 30
0.0
 10
423.215358
 20
15.187462
 30
0.0
  0
LWPOLYLINE
  5
17f
100
AcDbEntity
  8
0
 62
7
100
AcDbPolyline
 90
2
 70
1
 10
423.215358
 20
15.187462
 30
0.0
 10
422.985751
 20
13.722659
 30
0.0
  0
LWPOLYLINE
  5
180
100
AcDbEntity
  8
0
 62
7
100
AcDbPolyline
 90
2
 70
1
 10
422.985751
 20
13.722659
 30
0.0
 10
423.215358
 20
12.253858
 30
0.0
  0
LWPOLYLINE
  5
181
100
AcDbEntity
  8
0
 62
7
100
AcDbPolyline
 90
2
 70
1
 10
423.215358
 20
12.253858
 30
0.0
 10
423.887169
 20
10.929653
 30
0.0
  0
LWPOLYLINE
  5
182
100
AcDbEntity
  8
0
 62
7
100
AcDbPolyline
 90
2
 70
1
 10
423.887169
 20
10.929653
 30
0.0
 10
424.941658
 20
9.878878
 30
0.0
  0
LWPOLYLINE
  5
183
100
AcDbEntity
  8
0
 62
7
100
AcDbPolyline
 90
2
 70
1
 10
424.941658
 20
9.878878
 30
0.0
 10
426.265438
 20
9.203126
 30
0.0
  0
LWPOLYLINE
  5
184
100
AcDbEntity
  8
0
 62
7
100
AcDbPolyline
 90
2
 70
1
 10
426.265438
 20
9.203126
 30
0.0
 10
427.730950
 20
8.972669
 30
0.0
  0
LWPOLYLINE
  5
185
100
AcDbEntity
  8
0
 62
7
100
AcDbPolyline
 90
2
 70
1
 10
427.730950
 20
8.972669
 30
0.0
 10
429.199297
 20
9.203126
 30
0.0
  0
LWPOLYLINE
  5
186
100
AcDbEntity
  8
0
 62
7
100
AcDbPolyline
 90
2
 70
1
 10
429.199297
 20
9.203126
 30
0.0
 10
430.520243
 20
9.878878
 30
0.0
  0
LWPOLYLINE
  5
187
100
AcDbEntity
  8
0
 62
7
100
AcDbPolyline
 90
2
 70
1
 10
430.520243
 20
9.878878
 30
0.0
 10
431.574731
 20
10.929653
 30
0.0
  0
LWPOLYLINE
  5
188
100
AcDbEntity
  8
0
 62
7
100
AcDbPolyline
 90
2
 70
1
 10
431.574731
 20
10.929653
 30
0.0
 10
432.246542
 20
12.253858
 30
0.0
  0
LWPOLYLINE
  5
189
100
AcDbEntity
  8
0
 62
7
100
AcDbPolyline
 90
2
 70
1
 10
432.246542
 20
12.253858
 30
0.0
 10
432.481818
 20
13.722659
 30
0.0
  0
LWPOLYLINE
  5
18a
100
AcDbEntity
  8
0
 62
7
100
AcDbPolyline
 90
2
 70
1
 10
432.481818
 20
13.722659
 30
0.0
 10
432.246542
 20
15.187462
 30
0.0
  0
LWPOLYLINE
  5
18b
100
AcDbEntity
  8
0
 62
7
100
AcDbPolyline
 90
2
 70
1
 10
432.246542
 20
15.187462
 30
0.0
 10
431.574731
 20
16.511781
 30
0.0
  0
LWPOLYLINE
  5
18c
100
AcDbEntity
  8
0
 62
7
100
AcDbPolyline
 90
2
 70
1
 10
431.574731
 20
16.511781
 30
0.0
 10
430.520243
 20
17.562471
 30
0.0
  0
LWPOLYLINE
  5
18d
100
AcDbEntity
  8
0
 62
7
100
AcDbPolyline
 90
2
 70
1
 10
430.520243
 20
17.562471
 30
0.0
 10
429.199297
 20
18.238279
 30
0.0
  0
LWPOLYLINE
  5
18e
100
AcDbEntity
  8
0
 62
7
100
AcDbPolyline
 90
2
 70
1
 10
429.199297
 20
18.238279
 30
0.0
 10
427.730950
 20
18.468764
 30
0.0
  0
LWPOLYLINE
  5
18f
100
AcDbEntity
  8
0
 62
7
100
AcDbPolyline
 90
2
 70
1
 10
427.730950
 20
18.468764
 30
0.0
 10
426.265438
 20
18.238279
 30
0.0
  0
LWPOLYLINE
  5
190
100
AcDbEntity
  8
0
 62
7
100
AcDbPolyline
 90
2
 70
1
 10
633.268353
 20
18.238279
 30
0.0
 10
631.944573
 20
17.562471
 30
0.0
  0
LWPOLYLINE
  5
191
100
AcDbEntity
  8
0
 62
7
100
AcDbPolyline
 90
2
 70
1
 10
631.944573
 20
17.562471
 30
0.0
 10
630.895754
 20
16.511781
 30
0.0
  0
LWPOLYLINE
  5
192
100
AcDbEntity
  8
0
 62
7
100
AcDbPolyline
 90
2
 70
1
 10
630.895754
 20
16.511781
 30
0.0
 10
630.218273
 20
15.187462
 30
0.0
  0
LWPOLYLINE
  5
193
100
AcDbEntity
  8
0
 62
7
100
AcDbPolyline
 90
2
 70
1
 10
630.218273
 20
15.187462
 30
0.0
 10
629.988667
 20
13.722659
 30
0.0
  0
LWPOLYLINE
  5
194
100
AcDbEntity
  8
0
 62
7
100
AcDbPolyline
 90
2
 70
1
 10
629.988667
 20
13.722659
 30
0.0
 10
630.218273
 20
12.253858
 30
0.0
  0
LWPOLYLINE
  5
195
100
AcDbEntity
  8
0
 62
7
100
AcDbPolyline
 90
2
 70
1
 10
630.218273
 20
12.253858
 30
0.0
 10
630.895754
 20
10.929653
 30
0.0
  0
LWPOLYLINE
  5
196
100
AcDbEntity
  8
0
 62
7
100
AcDbPolyline
 90
2
 70
1
 10
630.895754
 20
10.929653
 30
0.0
 10
631.944573
 20
9.878878
 30
0.0
  0
LWPOLYLINE
  5
197
100
AcDbEntity
  8
0
 62
7
100
AcDbPolyline
 90
2
 70
1
 10
631.944573
 20
9.878878
 30
0.0
 10
633.268353
 20
9.203126
 30
0.0
  0
LWPOLYLINE
  5
198
100
AcDbEntity
  8
0
 62
7
100
AcDbPolyline
 90
2
 70
1
 10
633.268353
 20
9.203126
 30
0.0
 10
634.739535
 20
8.972669
 30
0.0
  0
LWPOLYLINE
  5
199
100
AcDbEntity
  8
0
 62
7
100
AcDbPolyline
 90
2
 70
1
 10
634.739535
 20
8.972669
 30
0.0
 10
636.205047
 20
9.203126
 30
0.0
  0
LWPOLYLINE
  5
19a
100
AcDbEntity
  8
0
 62
7
100
AcDbPolyline
 90
2
 70
1
 10
636.205047
 20
9.203126
 30
0.0
 10
637.528827
 20
9.878878
 30
0.0
  0
LWPOLYLINE
  5
19b
100
AcDbEntity
  8
0
 62
7
100
AcDbPolyline
 90
2
 70
1
 10
637.528827
 20
9.878878
 30
0.0
 10
638.577646
 20
10.929653
 30
0.0
  0
LWPOLYLINE
  5
19c
100
AcDbEntity
  8
0
 62
7
100
AcDbPolyline
 90
2
 70
1
 10
638.577646
 20
10.929653
 30
0.0
 10
639.255127
 20
12.253858
 30
0.0
  0
LWPOLYLINE
  5
19d
100
AcDbEntity
  8
0
 62
7
100
AcDbPolyline
 90
2
 70
1
 10
639.255127
 20
12.253858
 30
0.0
 10
639.484733
 20
13.722659
 30
0.0
  0
LWPOLYLINE
  5
19e
100
AcDbEntity
  8
0
 62
7
100
AcDbPolyline
 90
2
 70
1
 10
639.484733
 20
13.722659
 30
0.0
 10
639.255127
 20
15.187462
 30
0.0
  0
LWPOLYLINE
  5
19f
100
AcDbEntity
  8
0
 62
7
100
AcDbPolyline
 90
2
 70
1
 10
639.255127
 20
15.187462
 30
0.0
 10
638.577646
 20
16.511781
 30
0.0
  0
LWPOLYLINE
  5
1a0
100
AcDbEntity
  8
0
 62
7
100
AcDbPolyline
 90
2
 70
1
 10
638.577646
 20
16.511781
 30
0.0
 10
637.528827
 20
17.562471
 30
0.0
  0
LWPOLYLINE
  5
1a1
100
AcDbEntity
  8
0
 62
7
100
AcDbPolyline
 90
2
 70
1
 10
637.528827
 20
17.562471
 30
0.0
 10
636.205047
 20
18.238279
 30
0.0
  0
LWPOLYLINE
  5
1a2
100
AcDbEntity
  8
0
 62
7
100
AcDbPolyline
 90
2
 70
1
 10
636.205047
 20
18.238279
 30
0.0
 10
634.739535
 20
18.468764
 30
0.0
  0
LWPOLYLINE
  5
1a3
100
AcDbEntity
  8
0
 62
7
100
AcDbPolyline
 90
2
 70
1
 10
634.739535
 20
18.468764
 30
0.0
 10
633.268353
 20
18.238279
 30
0.0
  0
LWPOLYLINE
  5
1a4
100
AcDbEntity
  8
0
 62
7
100
AcDbPolyline
 90
2
 70
1
 10
12.253881
 20
261.253624
 30
0.0
 10
10.929676
 20
260.578695
 30
0.0
  0
LWPOLYLINE
  5
1a5
100
AcDbEntity
  8
0
 62
7
100
AcDbPolyline
 90
2
 70
1
 10
10.929676
 20
260.578695
 30
0.0
 10
9.878873
 20
259.527608
 30
0.0
  0
LWPOLYLINE
  5
1a6
100
AcDbEntity
  8
0
 62
7
100
AcDbPolyline
 90
2
 70
1
 10
9.878873
 20
259.527608
 30
0.0
 10
9.203121
 20
258.203544
 30
0.0
  0
LWPOLYLINE
  5
1a7
100
AcDbEntity
  8
0
 62
7
100
AcDbPolyline
 90
2
 70
1
 10
9.203121
 20
258.203544
 30
0.0
 10
8.968753
 20
256.734630
 30
0.0
  0
LWPOLYLINE
  5
1a8
100
AcDbEntity
  8
0
 62
7
100
AcDbPolyline
 90
2
 70
1
 10
8.968753
 20
256.734630
 30
0.0
 10
9.203121
 20
255.269685
 30
0.0
  0
LWPOLYLINE
  5
1a9
100
AcDbEntity
  8
0
 62
7
100
AcDbPolyline
 90
2
 70
1
 10
9.203121
 20
255.269685
 30
0.0
 10
9.878873
 20
253.945621
 30
0.0
  0
LWPOLYLINE
  5
1aa
100
AcDbEntity
  8
0
 62
7
100
AcDbPolyline
 90
2
 70
1
 10
9.878873
 20
253.945621
 30
0.0
 10
10.929676
 20
252.894534
 30
0.0
  0
LWPOLYLINE
  5
1ab
100
AcDbEntity
  8
0
 62
7
100
AcDbPolyline
 90
2
 70
1
 10
10.929676
 20
252.894534
 30
0.0
 10
12.253881
 20
252.218754
 30
0.0
  0
LWPOLYLINE
  5
1ac
100
AcDbEntity
  8
0
 62
7
100
AcDbPolyline
 90
2
 70
1
 10
12.253881
 20
252.218754
 30
0.0
 10
13.722682
 20
251.988581
 30
0.0
  0
LWPOLYLINE
  5
1ad
100
AcDbEntity
  8
0
 62
7
100
AcDbPolyline
 90
2
 70
1
 10
13.722682
 20
251.988581
 30
0.0
 10
15.187486
 20
252.218754
 30
0.0
  0
LWPOLYLINE
  5
1ae
100
AcDbEntity
  8
0
 62
7
100
AcDbPolyline
 90
2
 70
1
 10
15.187486
 20
252.218754
 30
0.0
 10
16.511776
 20
252.894534
 30
0.0
  0
LWPOLYLINE
  5
1af
100
AcDbEntity
  8
0
 62
7
100
AcDbPolyline
 90
2
 70
1
 10
16.511776
 20
252.894534
 30
0.0
 10
17.562466
 20
253.945621
 30
0.0
  0
LWPOLYLINE
  5
1b0
100
AcDbEntity
  8
0
 62
7
100
AcDbPolyline
 90
2
 70
1
 10
17.562466
 20
253.945621
 30
0.0
 10
18.238274
 20
255.269685
 30
0.0
  0
LWPOLYLINE
  5
1b1
100
AcDbEntity
  8
0
 62
7
100
AcDbPolyline
 90
2
 70
1
 10
18.238274
 20
255.269685
 30
0.0
 10
18.468788
 20
256.734630
 30
0.0
  0
LWPOLYLINE
  5
1b2
100
AcDbEntity
  8
0
 62
7
100
AcDbPolyline
 90
2
 70
1
 10
18.468788
 20
256.734630
 30
0.0
 10
18.238274
 20
258.203544
 30
0.0
  0
LWPOLYLINE
  5
1b3
100
AcDbEntity
  8
0
 62
7
100
AcDbPolyline
 90
2
 70
1
 10
18.238274
 20
258.203544
 30
0.0
 10
17.562466
 20
259.527608
 30
0.0
  0
LWPOLYLINE
  5
1b4
100
AcDbEntity
  8
0
 62
7
100
AcDbPolyline
 90
2
 70
1
 10
17.562466
 20
259.527608
 30
0.0
 10
16.511776
 20
260.578695
 30
0.0
  0
LWPOLYLINE
  5
1b5
100
AcDbEntity
  8
0
 62
7
100
AcDbPolyline
 90
2
 70
1
 10
16.511776
 20
260.578695
 30
0.0
 10
15.187486
 20
261.253624
 30
0.0
  0
LWPOLYLINE
  5
1b6
100
AcDbEntity
  8
0
 62
7
100
AcDbPolyline
 90
2
 70
1
 10
15.187486
 20
261.253624
 30
0.0
 10
13.722682
 20
261.488616
 30
0.0
  0
LWPOLYLINE
  5
1b7
100
AcDbEntity
  8
0
 62
7
100
AcDbPolyline
 90
2
 70
1
 10
13.722682
 20
261.488616
 30
0.0
 10
12.253881
 20
261.253624
 30
0.0
  0
LWPOLYLINE
  5
1b8
100
AcDbEntity
  8
0
 62
7
100
AcDbPolyline
 90
2
 70
1
 10
633.268353
 20
261.253624
 30
0.0
 10
631.944573
 20
260.578695
 30
0.0
  0
LWPOLYLINE
  5
1b9
100
AcDbEntity
  8
0
 62
7
100
AcDbPolyline
 90
2
 70
1
 10
631.944573
 20
260.578695
 30
0.0
 10
630.895754
 20
259.527608
 30
0.0
  0
LWPOLYLINE
  5
1ba
100
AcDbEntity
  8
0
 62
7
100
AcDbPolyline
 90
2
 70
1
 10
630.895754
 20
259.527608
 30
0.0
 10
630.218273
 20
258.203544
 30
0.0
  0
LWPOLYLINE
  5
1bb
100
AcDbEntity
  8
0
 62
7
100
AcDbPolyline
 90
2
 70
1
 10
630.218273
 20
258.203544
 30
0.0
 10
629.988667
 20
256.734630
 30
0.0
  0
LWPOLYLINE
  5
1bc
100
AcDbEntity
  8
0
 62
7
100
AcDbPolyline
 90
2
 70
1
 10
629.988667
 20
256.734630
 30
0.0
 10
630.218273
 20
255.269685
 30
0.0
  0
LWPOLYLINE
  5
1bd
100
AcDbEntity
  8
0
 62
7
100
AcDbPolyline
 90
2
 70
1
 10
630.218273
 20
255.269685
 30
0.0
 10
630.895754
 20
253.945621
 30
0.0
  0
LWPOLYLINE
  5
1be
100
AcDbEntity
  8
0
 62
7
100
AcDbPolyline
 90
2
 70
1
 10
630.895754
 20
253.945621
 30
0.0
 10
631.944573
 20
252.894534
 30
0.0
  0
LWPOLYLINE
  5
1bf
100
AcDbEntity
  8
0
 62
7
100
AcDbPolyline
 90
2
 70
1
 10
631.944573
 20
252.894534
 30
0.0
 10
633.268353
 20
252.218754
 30
0.0
  0
LWPOLYLINE
  5
1c0
100
AcDbEntity
  8
0
 62
7
100
AcDbPolyline
 90
2
 70
1
 10
633.268353
 20
252.218754
 30
0.0
 10
634.739535
 20
251.988581
 30
0.0
  0
LWPOLYLINE
  5
1c1
100
AcDbEntity
  8
0
 62
7
100
AcDbPolyline
 90
2
 70
1
 10
634.739535
 20
251.988581
 30
0.0
 10
636.205047
 20
252.218754
 30
0.0
  0
LWPOLYLINE
  5
1c2
100
AcDbEntity
  8
0
 62
7
100
AcDbPolyline
 90
2
 70
1
 10
636.205047
 20
252.218754
 30
0.0
 10
637.528827
 20
252.894534
 30
0.0
  0
LWPOLYLINE
  5
1c3
100
AcDbEntity
  8
0
 62
7
100
AcDbPolyline
 90
2
 70
1
 10
637.528827
 20
252.894534
 30
0.0
 10
638.577646
 20
253.945621
 30
0.0
  0
LWPOLYLINE
  5
1c4
100
AcDbEntity
  8
0
 62
7
100
AcDbPolyline
 90
2
 70
1
 10
638.577646
 20
253.945621
 30
0.0
 10
639.255127
 20
255.269685
 30
0.0
  0
LWPOLYLINE
  5
1c5
100
AcDbEntity
  8
0
 62
7
100
AcDbPolyline
 90
2
 70
1
 10
639.255127
 20
255.269685
 30
0.0
 10
639.484733
 20
256.734630
 30
0.0
  0
LWPOLYLINE
  5
1c6
100
AcDbEntity
  8
0
 62
7
100
AcDbPolyline
 90
2
 70
1
 10
639.484733
 20
256.734630
 30
0.0
 10
639.255127
 20
258.203544
 30
0.0
  0
LWPOLYLINE
  5
1c7
100
AcDbEntity
  8
0
 62
7
100
AcDbPolyline
 90
2
 70
1
 10
639.255127
 20
258.203544
 30
0.0
 10
638.577646
 20
259.527608
 30
0.0
  0
LWPOLYLINE
  5
1c8
100
AcDbEntity
  8
0
 62
7
100
AcDbPolyline
 90
2
 70
1
 10
638.577646
 20
259.527608
 30
0.0
 10
637.528827
 20
260.578695
 30
0.0
  0
LWPOLYLINE
  5
1c9
100
AcDbEntity
  8
0
 62
7
100
AcDbPolyline
 90
2
 70
1
 10
637.528827
 20
260.578695
 30
0.0
 10
636.205047
 20
261.253624
 30
0.0
  0
LWPOLYLINE
  5
1ca
100
AcDbEntity
  8
0
 62
7
100
AcDbPolyline
 90
2
 70
1
 10
636.205047
 20
261.253624
 30
0.0
 10
634.739535
 20
261.488616
 30
0.0
  0
LWPOLYLINE
  5
1cb
100
AcDbEntity
  8
0
 62
7
100
AcDbPolyline
 90
2
 70
1
 10
634.739535
 20
261.488616
 30
0.0
 10
633.268353
 20
261.253624
 30
0.0
  0
LWPOLYLINE
  5
1cc
100
AcDbEntity
  8
0
 62
7
100
AcDbPolyline
 90
2
 70
1
 10
426.265438
 20
261.253624
 30
0.0
 10
424.941658
 20
260.578695
 30
0.0
  0
LWPOLYLINE
  5
1cd
100
AcDbEntity
  8
0
 62
7
100
AcDbPolyline
 90
2
 70
1
 10
424.941658
 20
260.578695
 30
0.0
 10
423.887169
 20
259.527608
 30
0.0
  0
LWPOLYLINE
  5
1ce
100
AcDbEntity
  8
0
 62
7
100
AcDbPolyline
 90
2
 70
1
 10
423.887169
 20
259.527608
 30
0.0
 10
423.215358
 20
258.203544
 30
0.0
  0
LWPOLYLINE
  5
1cf
100
AcDbEntity
  8
0
 62
7
100
AcDbPolyline
 90
2
 70
1
 10
423.215358
 20
258.203544
 30
0.0
 10
422.985751
 20
256.734630
 30
0.0
  0
LWPOLYLINE
  5
1d0
100
AcDbEntity
  8
0
 62
7
100
AcDbPolyline
 90
2
 70
1
 10
422.985751
 20
256.734630
 30
0.0
 10
423.215358
 20
255.269685
 30
0.0
  0
LWPOLYLINE
  5
1d1
100
AcDbEntity
  8
0
 62
7
100
AcDbPolyline
 90
2
 70
1
 10
423.215358
 20
255.269685
 30
0.0
 10
423.887169
 20
253.945621
 30
0.0
  0
LWPOLYLINE
  5
1d2
100
AcDbEntity
  8
0
 62
7
100
AcDbPolyline
 90
2
 70
1
 10
423.887169
 20
253.945621
 30
0.0
 10
424.941658
 20
252.894534
 30
0.0
  0
LWPOLYLINE
  5
1d3
100
AcDbEntity
  8
0
 62
7
100
AcDbPolyline
 90
2
 70
1
 10
424.941658
 20
252.894534
 30
0.0
 10
426.265438
 20
252.218754
 30
0.0
  0
LWPOLYLINE
  5
1d4
100
AcDbEntity
  8
0
 62
7
100
AcDbPolyline
 90
2
 70
1
 10
426.265438
 20
252.218754
 30
0.0
 10
427.730950
 20
251.988581
 30
0.0
  0
LWPOLYLINE
  5
1d5
100
AcDbEntity
  8
0
 62
7
100
AcDbPolyline
 90
2
 70
1
 10
427.730950
 20
251.988581
 30
0.0
 10
429.199297
 20
252.218754
 30
0.0
  0
LWPOLYLINE
  5
1d6
100
AcDbEntity
  8
0
 62
7
100
AcDbPolyline
 90
2
 70
1
 10
429.199297
 20
252.218754
 30
0.0
 10
430.520243
 20
252.894534
 30
0.0
  0
LWPOLYLINE
  5
1d7
100
AcDbEntity
  8
0
 62
7
100
AcDbPolyline
 90
2
 70
1
 10
430.520243
 20
252.894534
 30
0.0
 10
431.574731
 20
253.945621
 30
0.0
  0
LWPOLYLINE
  5
1d8
100
AcDbEntity
  8
0
 62
7
100
AcDbPolyline
 90
2
 70
1
 10
431.574731
 20
253.945621
 30
0.0
 10
432.246542
 20
255.269685
 30
0.0
  0
LWPOLYLINE
  5
1d9
100
AcDbEntity
  8
0
 62
7
100
AcDbPolyline
 90
2
 70
1
 10
432.246542
 20
255.269685
 30
0.0
 10
432.481818
 20
256.734630
 30
0.0
  0
LWPOLYLINE
  5
1da
100
AcDbEntity
  8
0
 62
7
100
AcDbPolyline
 90
2
 70
1
 10
432.481818
 20
256.734630
 30
0.0
 10
432.246542
 20
258.203544
 30
0.0
  0
LWPOLYLINE
  5
1db
100
AcDbEntity
  8
0
 62
7
100
AcDbPolyline
 90
2
 70
1
 10
432.246542
 20
258.203544
 30
0.0
 10
431.574731
 20
259.527608
 30
0.0
  0
LWPOLYLINE
  5
1dc
100
AcDbEntity
  8
0
 62
7
100
AcDbPolyline
 90
2
 70
1
 10
431.574731
 20
259.527608
 30
0.0
 10
430.520243
 20
260.578695
 30
0.0
  0
LWPOLYLINE
  5
1dd
100
AcDbEntity
  8
0
 62
7
100
AcDbPolyline
 90
2
 70
1
 10
430.520243
 20
260.578695
 30
0.0
 10
429.199297
 20
261.253624
 30
0.0
  0
LWPOLYLINE
  5
1de
100
AcDbEntity
  8
0
 62
7
100
AcDbPolyline
 90
2
 70
1
 10
429.199297
 20
261.253624
 30
0.0
 10
427.730950
 20
261.488616
 30
0.0
  0
LWPOLYLINE
  5
1df
100
AcDbEntity
  8
0
 62
7
100
AcDbPolyline
 90
2
 70
1
 10
427.730950
 20
261.488616
 30
0.0
 10
426.265438
 20
261.253624
 30
0.0
  0
LWPOLYLINE
  5
1e0
100
AcDbEntity
  8
0
 62
7
100
AcDbPolyline
 90
2
 70
1
 10
219.257420
 20
261.253624
 30
0.0
 10
217.933640
 20
260.578695
 30
0.0
  0
LWPOLYLINE
  5
1e1
100
AcDbEntity
  8
0
 62
7
100
AcDbPolyline
 90
2
 70
1
 10
217.933640
 20
260.578695
 30
0.0
 10
216.882553
 20
259.527608
 30
0.0
  0
LWPOLYLINE
  5
1e2
100
AcDbEntity
  8
0
 62
7
100
AcDbPolyline
 90
2
 70
1
 10
216.882553
 20
259.527608
 30
0.0
 10
216.207624
 20
258.203544
 30
0.0
  0
LWPOLYLINE
  5
1e3
100
AcDbEntity
  8
0
 62
7
100
AcDbPolyline
 90
2
 70
1
 10
216.207624
 20
258.203544
 30
0.0
 10
215.976600
 20
256.734630
 30
0.0
  0
LWPOLYLINE
  5
1e4
100
AcDbEntity
  8
0
 62
7
100
AcDbPolyline
 90
2
 70
1
 10
215.976600
 20
256.734630
 30
0.0
 10
216.207624
 20
255.269685
 30
0.0
  0
LWPOLYLINE
  5
1e5
100
AcDbEntity
  8
0
 62
7
100
AcDbPolyline
 90
2
 70
1
 10
216.207624
 20
255.269685
 30
0.0
 10
216.882553
 20
253.945621
 30
0.0
  0
LWPOLYLINE
  5
1e6
100
AcDbEntity
  8
0
 62
7
100
AcDbPolyline
 90
2
 70
1
 10
216.882553
 20
253.945621
 30
0.0
 10
217.933640
 20
252.894534
 30
0.0
  0
LWPOLYLINE
  5
1e7
100
AcDbEntity
  8
0
 62
7
100
AcDbPolyline
 90
2
 70
1
 10
217.933640
 20
252.894534
 30
0.0
 10
219.257420
 20
252.218754
 30
0.0
  0
LWPOLYLINE
  5
1e8
100
AcDbEntity
  8
0
 62
7
100
AcDbPolyline
 90
2
 70
1
 10
219.257420
 20
252.218754
 30
0.0
 10
220.726618
 20
251.988581
 30
0.0
  0
LWPOLYLINE
  5
1e9
100
AcDbEntity
  8
0
 62
7
100
AcDbPolyline
 90
2
 70
1
 10
220.726618
 20
251.988581
 30
0.0
 10
222.191563
 20
252.218754
 30
0.0
  0
LWPOLYLINE
  5
1ea
100
AcDbEntity
  8
0
 62
7
100
AcDbPolyline
 90
2
 70
1
 10
222.191563
 20
252.218754
 30
0.0
 10
223.515627
 20
252.894534
 30
0.0
  0
LWPOLYLINE
  5
1eb
100
AcDbEntity
  8
0
 62
7
100
AcDbPolyline
 90
2
 70
1
 10
223.515627
 20
252.894534
 30
0.0
 10
224.566430
 20
253.945621
 30
0.0
  0
LWPOLYLINE
  5
1ec
100
AcDbEntity
  8
0
 62
7
100
AcDbPolyline
 90
2
 70
1
 10
224.566430
 20
253.945621
 30
0.0
 10
225.242493
 20
255.269685
 30
0.0
  0
LWPOLYLINE
  5
1ed
100
AcDbEntity
  8
0
 62
7
100
AcDbPolyline
 90
2
 70
1
 10
225.242493
 20
255.269685
 30
0.0
 10
225.472667
 20
256.734630
 30
0.0
  0
LWPOLYLINE
  5
1ee
100
AcDbEntity
  8
0
 62
7
100
AcDbPolyline
 90
2
 70
1
 10
225.472667
 20
256.734630
 30
0.0
 10
225.242493
 20
258.203544
 30
0.0
  0
LWPOLYLINE
  5
1ef
100
AcDbEntity
  8
0
 62
7
100
AcDbPolyline
 90
2
 70
1
 10
225.242493
 20
258.203544
 30
0.0
 10
224.566430
 20
259.527608
 30
0.0
  0
LWPOLYLINE
  5
1f0
100
AcDbEntity
  8
0
 62
7
100
AcDbPolyline
 90
2
 70
1
 10
224.566430
 20
259.527608
 30
0.0
 10
223.515627
 20
260.578695
 30
0.0
  0
LWPOLYLINE
  5
1f1
100
AcDbEntity
  8
0
 62
7
100
AcDbPolyline
 90
2
 70
1
 10
223.515627
 20
260.578695
 30
0.0
 10
222.191563
 20
261.253624
 30
0.0
  0
LWPOLYLINE
  5
1f2
100
AcDbEntity
  8
0
 62
7
100
AcDbPolyline
 90
2
 70
1
 10
222.191563
 20
261.253624
 30
0.0
 10
220.726618
 20
261.488616
 30
0.0
  0
LWPOLYLINE
  5
1f3
100
AcDbEntity
  8
0
 62
7
100
AcDbPolyline
 90
2
 70
1
 10
220.726618
 20
261.488616
 30
0.0
 10
219.257420
 20
261.253624
 30
0.0
  0
LWPOLYLINE
  5
1f4
100
AcDbEntity
  8
0
 62
7
100
AcDbPolyline
 90
2
 70
1
 10
549.541177
 20
138.055799
 30
0.0
 10
548.217426
 20
137.380864
 30
0.0
  0
LWPOLYLINE
  5
1f5
100
AcDbEntity
  8
0
 62
7
100
AcDbPolyline
 90
2
 70
1
 10
548.217426
 20
137.380864
 30
0.0
 10
547.168606
 20
136.329777
 30
0.0
  0
LWPOLYLINE
  5
1f6
100
AcDbEntity
  8
0
 62
7
100
AcDbPolyline
 90
2
 70
1
 10
547.168606
 20
136.329777
 30
0.0
 10
546.491154
 20
135.005716
 30
0.0
  0
LWPOLYLINE
  5
1f7
100
AcDbEntity
  8
0
 62
7
100
AcDbPolyline
 90
2
 70
1
 10
546.491154
 20
135.005716
 30
0.0
 10
546.261519
 20
133.536805
 30
0.0
  0
LWPOLYLINE
  5
1f8
100
AcDbEntity
  8
0
 62
7
100
AcDbPolyline
 90
2
 70
1
 10
546.261519
 20
133.536805
 30
0.0
 10
546.491154
 20
132.071860
 30
0.0
  0
LWPOLYLINE
  5
1f9
100
AcDbEntity
  8
0
 62
7
100
AcDbPolyline
 90
2
 70
1
 10
546.491154
 20
132.071860
 30
0.0
 10
547.168606
 20
130.747799
 30
0.0
  0
LWPOLYLINE
  5
1fa
100
AcDbEntity
  8
0
 62
7
100
AcDbPolyline
 90
2
 70
1
 10
547.168606
 20
130.747799
 30
0.0
 10
548.217426
 20
129.696712
 30
0.0
  0
LWPOLYLINE
  5
1fb
100
AcDbEntity
  8
0
 62
7
100
AcDbPolyline
 90
2
 70
1
 10
548.217426
 20
129.696712
 30
0.0
 10
549.541177
 20
129.020924
 30
0.0
  0
LWPOLYLINE
  5
1fc
100
AcDbEntity
  8
0
 62
7
100
AcDbPolyline
 90
2
 70
1
 10
549.541177
 20
129.020924
 30
0.0
 10
551.012416
 20
128.790751
 30
0.0
  0
LWPOLYLINE
  5
1fd
100
AcDbEntity
  8
0
 62
7
100
AcDbPolyline
 90
2
 70
1
 10
551.012416
 20
128.790751
 30
0.0
 10
552.477928
 20
129.020924
 30
0.0
  0
LWPOLYLINE
  5
1fe
100
AcDbEntity
  8
0
 62
7
100
AcDbPolyline
 90
2
 70
1
 10
552.477928
 20
129.020924
 30
0.0
 10
553.801680
 20
129.696712
 30
0.0
  0
LWPOLYLINE
  5
1ff
100
AcDbEntity
  8
0
 62
7
100
AcDbPolyline
 90
2
 70
1
 10
553.801680
 20
129.696712
 30
0.0
 10
554.850499
 20
130.747799
 30
0.0
  0
LWPOLYLINE
  5
200
100
AcDbEntity
  8
0
 62
7
100
AcDbPolyline
 90
2
 70
1
 10
554.850499
 20
130.747799
 30
0.0
 10
555.527951
 20
132.071860
 30
0.0
  0
LWPOLYLINE
  5
201
100
AcDbEntity
  8
0
 62
7
100
AcDbPolyline
 90
2
 70
1
 10
555.527951
 20
132.071860
 30
0.0
 10
555.757586
 20
133.536805
 30
0.0
  0
LWPOLYLINE
  5
202
100
AcDbEntity
  8
0
 62
7
100
AcDbPolyline
 90
2
 70
1
 10
555.757586
 20
133.536805
 30
0.0
 10
555.527951
 20
135.005716
 30
0.0
  0
LWPOLYLINE
  5
203
100
AcDbEntity
  8
0
 62
7
100
AcDbPolyline
 90
2
 70
1
 10
555.527951
 20
135.005716
 30
0.0
 10
554.850499
 20
136.329777
 30
0.0
  0
LWPOLYLINE
  5
204
100
AcDbEntity
  8
0
 62
7
100
AcDbPolyline
 90
2
 70
1
 10
554.850499
 20
136.329777
 30
0.0
 10
553.801680
 20
137.380864
 30
0.0
  0
LWPOLYLINE
  5
205
100
AcDbEntity
  8
0
 62
7
100
AcDbPolyline
 90
2
 70
1
 10
553.801680
 20
137.380864
 30
0.0
 10
552.477928
 20
138.055799
 30
0.0
  0
LWPOLYLINE
  5
206
100
AcDbEntity
  8
0
 62
7
100
AcDbPolyline
 90
2
 70
1
 10
552.477928
 20
138.055799
 30
0.0
 10
551.012416
 20
138.290794
 30
0.0
  0
LWPOLYLINE
  5
207
100
AcDbEntity
  8
0
 62
7
100
AcDbPolyline
 90
2
 70
1
 10
551.012416
 20
138.290794
 30
0.0
 10
549.541177
 20
138.055799
 30
0.0
  0
LWPOLYLINE
  5
208
100
AcDbEntity
  8
0
 62
7
100
AcDbPolyline
 90
1
 70
1
 10
597.402629
 20
250.608817
 30
0.0
  0
LWPOLYLINE
  5
209
100
AcDbEntity
  8
0
 62
7
100
AcDbPolyline
 90
1
 70
1
 10
617.649037
 20
250.608817
 30
0.0
  0
LWPOLYLINE
  5
20a
100
AcDbEntity
  8
0
 62
7
100
AcDbPolyline
 90
2
 70
1
 10
503.024851
 20
270.456588
 30
0.0
 10
503.024851
 20
243.015790
 30
0.0
  0
LWPOLYLINE
  5
20b
100
AcDbEntity
  8
0
 62
7
100
AcDbPolyline
 90
2
 70
1
 10
503.024851
 20
243.015790
 30
0.0
 10
27.441379
 20
243.015790
 30
0.0
  0
LWPOLYLINE
  5
20c
100
AcDbEntity
  8
0
 62
7
100
AcDbPolyline
 90
2
 70
1
 10
27.441379
 20
243.015790
 30
0.0
 10
27.441379
 20
27.437468
 30
0.0
  0
LWPOLYLINE
  5
20d
100
AcDbEntity
  8
0
 62
7
100
AcDbPolyline
 90
2
 70
1
 10
27.441379
 20
27.437468
 30
0.0
 10
621.019829
 20
27.437468
 30
0.0
  0
LWPOLYLINE
  5
20e
100
AcDbEntity
  8
0
 62
7
100
AcDbPolyline
 90
2
 70
1
 10
621.019829
 20
27.437468
 30
0.0
 10
621.019829
 20
243.015790
 30
0.0
  0
LWPOLYLINE
  5
20f
100
AcDbEntity
  8
0
 62
7
100
AcDbPolyline
 90
2
 70
1
 10
621.019829
 20
243.015790
 30
0.0
 10
564.961854
 20
243.015790
 30
0.0
  0
LWPOLYLINE
  5
210
100
AcDbEntity
  8
0
 62
7
100
AcDbPolyline
 90
2
 70
1
 10
564.961854
 20
243.015790
 30
0.0
 10
564.961854
 20
270.456588
 30
0.0
  0
LWPOLYLINE
  5
211
100
AcDbEntity
  8
0
 62
7
100
AcDbPolyline
 90
2
 70
1
 10
564.961854
 20
270.456588
 30
0.0
 10
639.952435
 20
270.456588
 30
0.0
  0
LWPOLYLINE
  5
212
100
AcDbEntity
  8
0
 62
7
100
AcDbPolyline
 90
2
 70
1
 10
639.952435
 20
270.456588
 30
0.0
 10
640.621440
 20
270.429659
 30
0.0
  0
LWPOLYLINE
  5
213
100
AcDbEntity
  8
0
 62
7
100
AcDbPolyline
 90
2
 70
1
 10
640.621440
 20
270.429659
 30
0.0
 10
641.281912
 20
270.355675
 30
0.0
  0
LWPOLYLINE
  5
214
100
AcDbEntity
  8
0
 62
7
100
AcDbPolyline
 90
2
 70
1
 10
641.281912
 20
270.355675
 30
0.0
 10
641.936716
 20
270.222730
 30
0.0
  0
LWPOLYLINE
  5
215
100
AcDbEntity
  8
0
 62
7
100
AcDbPolyline
 90
2
 70
1
 10
641.936716
 20
270.222730
 30
0.0
 10
642.583015
 20
270.042730
 30
0.0
  0
LWPOLYLINE
  5
216
100
AcDbEntity
  8
0
 62
7
100
AcDbPolyline
 90
2
 70
1
 10
642.583015
 20
270.042730
 30
0.0
 10
643.206638
 20
269.808588
 30
0.0
  0
LWPOLYLINE
  5
217
100
AcDbEntity
  8
0
 62
7
100
AcDbPolyline
 90
2
 70
1
 10
643.206638
 20
269.808588
 30
0.0
 10
643.813224
 20
269.531643
 30
0.0
  0
LWPOLYLINE
  5
218
100
AcDbEntity
  8
0
 62
7
100
AcDbPolyline
 90
2
 70
1
 10
643.813224
 20
269.531643
 30
0.0
 10
644.394326
 20
269.203674
 30
0.0
  0
LWPOLYLINE
  5
219
100
AcDbEntity
  8
0
 62
7
100
AcDbPolyline
 90
2
 70
1
 10
644.394326
 20
269.203674
 30
0.0
 10
644.949917
 20
268.835737
 30
0.0
  0
LWPOLYLINE
  5
21a
100
AcDbEntity
  8
0
 62
7
100
AcDbPolyline
 90
2
 70
1
 10
644.949917
 20
268.835737
 30
0.0
 10
645.477190
 20
268.421595
 30
0.0
  0
LWPOLYLINE
  5
21b
100
AcDbEntity
  8
0
 62
7
100
AcDbPolyline
 90
2
 70
1
 10
645.477190
 20
268.421595
 30
0.0
 10
645.964720
 20
267.968619
 30
0.0
  0
LWPOLYLINE
  5
21c
100
AcDbEntity
  8
0
 62
7
100
AcDbPolyline
 90
2
 70
1
 10
645.964720
 20
267.968619
 30
0.0
 10
646.418292
 20
267.476808
 30
0.0
  0
LWPOLYLINE
  5
21d
100
AcDbEntity
  8
0
 62
7
100
AcDbPolyline
 90
2
 70
1
 10
646.418292
 20
267.476808
 30
0.0
 10
646.832122
 20
266.953532
 30
0.0
  0
LWPOLYLINE
  5
21e
100
AcDbEntity
  8
0
 62
7
100
AcDbPolyline
 90
2
 70
1
 10
646.832122
 20
266.953532
 30
0.0
 10
647.203461
 20
266.398791
 30
0.0
  0
LWPOLYLINE
  5
21f
100
AcDbEntity
  8
0
 62
7
100
AcDbPolyline
 90
2
 70
1
 10
647.203461
 20
266.398791
 30
0.0
 10
647.532308
 20
265.812587
 30
0.0
  0
LWPOLYLINE
  5
220
100
AcDbEntity
  8
0
 62
7
100
AcDbPolyline
 90
2
 70
1
 10
647.532308
 20
265.812587
 30
0.0
 10
647.810076
 20
265.206539
 30
0.0
  0
LWPOLYLINE
  5
221
100
AcDbEntity
  8
0
 62
7
100
AcDbPolyline
 90
2
 70
1
 10
647.810076
 20
265.206539
 30
0.0
 10
648.039710
 20
264.581783
 30
0.0
  0
LWPOLYLINE
  5
222
100
AcDbEntity
  8
0
 62
7
100
AcDbPolyline
 90
2
 70
1
 10
648.039710
 20
264.581783
 30
0.0
 10
648.223934
 20
263.937751
 30
0.0
  0
LWPOLYLINE
  5
223
100
AcDbEntity
  8
0
 62
7
100
AcDbPolyline
 90
2
 70
1
 10
648.223934
 20
263.937751
 30
0.0
 10
648.351521
 20
263.285782
 30
0.0
  0
LWPOLYLINE
  5
224
100
AcDbEntity
  8
0
 62
7
100
AcDbPolyline
 90
2
 70
1
 10
648.351521
 20
263.285782
 30
0.0
 10
648.430892
 20
262.621625
 30
0.0
  0
LWPOLYLINE
  5
225
100
AcDbEntity
  8
0
 62
7
100
AcDbPolyline
 90
2
 70
1
 10
648.430892
 20
262.621625
 30
0.0
 10
648.456375
 20
261.953782
 30
0.0
  0
LWPOLYLINE
  5
226
100
AcDbEntity
  8
0
 62
7
100
AcDbPolyline
 90
2
 70
1
 10
648.456375
 20
261.953782
 30
0.0
 10
648.456375
 20
8.503907
 30
0.0
  0
LWPOLYLINE
  5
227
100
AcDbEntity
  8
0
 62
7
100
AcDbPolyline
 90
2
 70
1
 10
648.456375
 20
8.503907
 30
0.0
 10
648.430892
 20
7.835948
 30
0.0
  0
LWPOLYLINE
  5
228
100
AcDbEntity
  8
0
 62
7
100
AcDbPolyline
 90
2
 70
1
 10
648.430892
 20
7.835948
 30
0.0
 10
648.351521
 20
7.175792
 30
0.0
  0
LWPOLYLINE
  5
229
100
AcDbEntity
  8
0
 62
7
100
AcDbPolyline
 90
2
 70
1
 10
648.351521
 20
7.175792
 30
0.0
 10
648.223934
 20
6.519532
 30
0.0
  0
LWPOLYLINE
  5
22a
100
AcDbEntity
  8
0
 62
7
100
AcDbPolyline
 90
2
 70
1
 10
648.223934
 20
6.519532
 30
0.0
 10
648.039710
 20
5.874996
 30
0.0
  0
LWPOLYLINE
  5
22b
100
AcDbEntity
  8
0
 62
7
100
AcDbPolyline
 90
2
 70
1
 10
648.039710
 20
5.874996
 30
0.0
 10
647.810076
 20
5.250007
 30
0.0
  0
LWPOLYLINE
  5
22c
100
AcDbEntity
  8
0
 62
7
100
AcDbPolyline
 90
2
 70
1
 10
647.810076
 20
5.250007
 30
0.0
 10
647.532308
 20
4.644526
 30
0.0
  0
LWPOLYLINE
  5
22d
100
AcDbEntity
  8
0
 62
7
100
AcDbPolyline
 90
2
 70
1
 10
647.532308
 20
4.644526
 30
0.0
 10
647.203461
 20
4.062488
 30
0.0
  0
LWPOLYLINE
  5
22e
100
AcDbEntity
  8
0
 62
7
100
AcDbPolyline
 90
2
 70
1
 10
647.203461
 20
4.062488
 30
0.0
 10
646.832122
 20
3.507808
 30
0.0
  0
LWPOLYLINE
  5
22f
100
AcDbEntity
  8
0
 62
7
100
AcDbPolyline
 90
2
 70
1
 10
646.832122
 20
3.507808
 30
0.0
 10
646.418292
 20
2.980484
 30
0.0
  0
LWPOLYLINE
  5
230
100
AcDbEntity
  8
0
 62
7
100
AcDbPolyline
 90
2
 70
1
 10
646.418292
 20
2.980484
 30
0.0
 10
645.964720
 20
2.492199
 30
0.0
  0
LWPOLYLINE
  5
231
100
AcDbEntity
  8
0
 62
7
100
AcDbPolyline
 90
2
 70
1
 10
645.964720
 20
2.492199
 30
0.0
 10
645.477190
 20
2.039055
 30
0.0
  0
LWPOLYLINE
  5
232
100
AcDbEntity
  8
0
 62
7
100
AcDbPolyline
 90
2
 70
1
 10
645.477190
 20
2.039055
 30
0.0
 10
644.949917
 20
1.624993
 30
0.0
  0
LWPOLYLINE
  5
233
100
AcDbEntity
  8
0
 62
7
100
AcDbPolyline
 90
2
 70
1
 10
644.949917
 20
1.624993
 30
0.0
 10
644.394326
 20
1.253901
 30
0.0
  0
LWPOLYLINE
  5
234
100
AcDbEntity
  8
0
 62
7
100
AcDbPolyline
 90
2
 70
1
 10
644.394326
 20
1.253901
 30
0.0
 10
643.813224
 20
0.925782
 30
0.0
  0
LWPOLYLINE
  5
235
100
AcDbEntity
  8
0
 62
7
100
AcDbPolyline
 90
2
 70
1
 10
643.813224
 20
0.925782
 30
0.0
 10
643.206638
 20
0.648443
 30
0.0
  0
LWPOLYLINE
  5
236
100
AcDbEntity
  8
0
 62
7
100
AcDbPolyline
 90
2
 70
1
 10
643.206638
 20
0.648443
 30
0.0
 10
642.583015
 20
0.417966
 30
0.0
  0
LWPOLYLINE
  5
237
100
AcDbEntity
  8
0
 62
7
100
AcDbPolyline
 90
2
 70
1
 10
642.583015
 20
0.417966
 30
0.0
 10
641.936716
 20
0.234377
 30
0.0
  0
LWPOLYLINE
  5
238
100
AcDbEntity
  8
0
 62
7
100
AcDbPolyline
 90
2
 70
1
 10
641.936716
 20
0.234377
 30
0.0
 10
641.281912
 20
0.105460
 30
0.0
  0
LWPOLYLINE
  5
239
100
AcDbEntity
  8
0
 62
7
100
AcDbPolyline
 90
2
 70
1
 10
641.281912
 20
0.105460
 30
0.0
 10
640.621440
 20
0.027346
 30
0.0
  0
LWPOLYLINE
  5
23a
100
AcDbEntity
  8
0
 62
7
100
AcDbPolyline
 90
2
 70
1
 10
640.621440
 20
0.027346
 30
0.0
 10
639.952435
 20
0.000009
 30
0.0
  0
LWPOLYLINE
  5
23b
100
AcDbEntity
  8
0
 62
7
100
AcDbPolyline
 90
2
 70
1
 10
639.952435
 20
0.000009
 30
0.0
 10
8.503899
 20
0.000009
 30
0.0
  0
LWPOLYLINE
  5
23c
100
AcDbEntity
  8
0
 62
7
100
AcDbPolyline
 90
2
 70
1
 10
8.503899
 20
0.000009
 30
0.0
 10
7.835943
 20
0.027346
 30
0.0
  0
LWPOLYLINE
  5
23d
100
AcDbEntity
  8
0
 62
7
100
AcDbPolyline
 90
2
 70
1
 10
7.835943
 20
0.027346
 30
0.0
 10
7.171870
 20
0.105460
 30
0.0
  0
LWPOLYLINE
  5
23e
100
AcDbEntity
  8
0
 62
7
100
AcDbPolyline
 90
2
 70
1
 10
7.171870
 20
0.105460
 30
0.0
 10
6.519533
 20
0.234377
 30
0.0
  0
LWPOLYLINE
  5
23f
100
AcDbEntity
  8
0
 62
7
100
AcDbPolyline
 90
2
 70
1
 10
6.519533
 20
0.234377
 30
0.0
 10
5.874991
 20
0.417966
 30
0.0
  0
LWPOLYLINE
  5
240
100
AcDbEntity
  8
0
 62
7
100
AcDbPolyline
 90
2
 70
1
 10
5.874991
 20
0.417966
 30
0.0
 10
5.250008
 20
0.648443
 30
0.0
  0
LWPOLYLINE
  5
241
100
AcDbEntity
  8
0
 62
7
100
AcDbPolyline
 90
2
 70
1
 10
5.250008
 20
0.648443
 30
0.0
 10
4.644527
 20
0.925782
 30
0.0
  0
LWPOLYLINE
  5
242
100
AcDbEntity
  8
0
 62
7
100
AcDbPolyline
 90
2
 70
1
 10
4.644527
 20
0.925782
 30
0.0
 10
4.058606
 20
1.253901
 30
0.0
  0
LWPOLYLINE
  5
243
100
AcDbEntity
  8
0
 62
7
100
AcDbPolyline
 90
2
 70
1
 10
4.058606
 20
1.253901
 30
0.0
 10
3.503922
 20
1.624993
 30
0.0
  0
LWPOLYLINE
  5
244
100
AcDbEntity
  8
0
 62
7
100
AcDbPolyline
 90
2
 70
1
 10
3.503922
 20
1.624993
 30
0.0
 10
2.980476
 20
2.039055
 30
0.0
  0
LWPOLYLINE
  5
245
100
AcDbEntity
  8
0
 62
7
100
AcDbPolyline
 90
2
 70
1
 10
2.980476
 20
2.039055
 30
0.0
 10
2.488280
 20
2.492199
 30
0.0
  0
LWPOLYLINE
  5
246
100
AcDbEntity
  8
0
 62
7
100
AcDbPolyline
 90
2
 70
1
 10
2.488280
 20
2.492199
 30
0.0
 10
2.035158
 20
2.980484
 30
0.0
  0
LWPOLYLINE
  5
247
100
AcDbEntity
  8
0
 62
7
100
AcDbPolyline
 90
2
 70
1
 10
2.035158
 20
2.980484
 30
0.0
 10
1.621099
 20
3.507808
 30
0.0
  0
LWPOLYLINE
  5
248
100
AcDbEntity
  8
0
 62
7
100
AcDbPolyline
 90
2
 70
1
 10
1.621099
 20
3.507808
 30
0.0
 10
1.253910
 20
4.062488
 30
0.0
  0
LWPOLYLINE
  5
249
100
AcDbEntity
  8
0
 62
7
100
AcDbPolyline
 90
2
 70
1
 10
1.253910
 20
4.062488
 30
0.0
 10
0.925780
 20
4.644526
 30
0.0
  0
LWPOLYLINE
  5
24a
100
AcDbEntity
  8
0
 62
7
100
AcDbPolyline
 90
2
 70
1
 10
0.925780
 20
4.644526
 30
0.0
 10
0.648438
 20
5.250007
 30
0.0
  0
LWPOLYLINE
  5
24b
100
AcDbEntity
  8
0
 62
7
100
AcDbPolyline
 90
2
 70
1
 10
0.648438
 20
5.250007
 30
0.0
 10
0.414064
 20
5.874996
 30
0.0
  0
LWPOLYLINE
  5
24c
100
AcDbEntity
  8
0
 62
7
100
AcDbPolyline
 90
2
 70
1
 10
0.414064
 20
5.874996
 30
0.0
 10
0.234375
 20
6.519532
 30
0.0
  0
LWPOLYLINE
  5
24d
100
AcDbEntity
  8
0
 62
7
100
AcDbPolyline
 90
2
 70
1
 10
0.234375
 20
6.519532
 30
0.0
 10
0.101564
 20
7.175792
 30
0.0
  0
LWPOLYLINE
  5
24e
100
AcDbEntity
  8
0
 62
7
100
AcDbPolyline
 90
2
 70
1
 10
0.101564
 20
7.175792
 30
0.0
 10
0.027344
 20
7.835948
 30
0.0
  0
LWPOLYLINE
  5
24f
100
AcDbEntity
  8
0
 62
7
100
AcDbPolyline
 90
2
 70
1
 10
0.027344
 20
7.835948
 30
0.0
 10
0.000000
 20
8.507821
 30
0.0
  0
LWPOLYLINE
  5
250
100
AcDbEntity
  8
0
 62
7
100
AcDbPolyline
 90
2
 70
1
 10
0.000000
 20
8.507821
 30
0.0
 10
0.000000
 20
261.953782
 30
0.0
  0
LWPOLYLINE
  5
251
100
AcDbEntity
  8
0
 62
7
100
AcDbPolyline
 90
2
 70
1
 10
0.000000
 20
261.953782
 30
0.0
 10
0.027344
 20
262.621625
 30
0.0
  0
LWPOLYLINE
  5
252
100
AcDbEntity
  8
0
 62
7
100
AcDbPolyline
 90
2
 70
1
 10
0.027344
 20
262.621625
 30
0.0
 10
0.101564
 20
263.285782
 30
0.0
  0
LWPOLYLINE
  5
253
100
AcDbEntity
  8
0
 62
7
100
AcDbPolyline
 90
2
 70
1
 10
0.101564
 20
263.285782
 30
0.0
 10
0.234375
 20
263.937751
 30
0.0
  0
LWPOLYLINE
  5
254
100
AcDbEntity
  8
0
 62
7
100
AcDbPolyline
 90
2
 70
1
 10
0.234375
 20
263.937751
 30
0.0
 10
0.414064
 20
264.581783
 30
0.0
  0
LWPOLYLINE
  5
255
100
AcDbEntity
  8
0
 62
7
100
AcDbPolyline
 90
2
 70
1
 10
0.414064
 20
264.581783
 30
0.0
 10
0.648438
 20
265.206539
 30
0.0
  0
LWPOLYLINE
  5
256
100
AcDbEntity
  8
0
 62
7
100
AcDbPolyline
 90
2
 70
1
 10
0.648438
 20
265.206539
 30
0.0
 10
0.925780
 20
265.812587
 30
0.0
  0
LWPOLYLINE
  5
257
100
AcDbEntity
  8
0
 62
7
100
AcDbPolyline
 90
2
 70
1
 10
0.925780
 20
265.812587
 30
0.0
 10
1.253910
 20
266.398791
 30
0.0
  0
LWPOLYLINE
  5
258
100
AcDbEntity
  8
0
 62
7
100
AcDbPolyline
 90
2
 70
1
 10
1.253910
 20
266.398791
 30
0.0
 10
1.621099
 20
266.953532
 30
0.0
  0
LWPOLYLINE
  5
259
100
AcDbEntity
  8
0
 62
7
100
AcDbPolyline
 90
2
 70
1
 10
1.621099
 20
266.953532
 30
0.0
 10
2.035158
 20
267.476808
 30
0.0
  0
LWPOLYLINE
  5
25a
100
AcDbEntity
  8
0
 62
7
100
AcDbPolyline
 90
2
 70
1
 10
2.035158
 20
267.476808
 30
0.0
 10
2.488280
 20
267.968619
 30
0.0
  0
LWPOLYLINE
  5
25b
100
AcDbEntity
  8
0
 62
7
100
AcDbPolyline
 90
2
 70
1
 10
2.488280
 20
267.968619
 30
0.0
 10
2.980476
 20
268.421595
 30
0.0
  0
LWPOLYLINE
  5
25c
100
AcDbEntity
  8
0
 62
7
100
AcDbPolyline
 90
2
 70
1
 10
2.980476
 20
268.421595
 30
0.0
 10
3.503922
 20
268.835737
 30
0.0
  0
LWPOLYLINE
  5
25d
100
AcDbEntity
  8
0
 62
7
100
AcDbPolyline
 90
2
 70
1
 10
3.503922
 20
268.835737
 30
0.0
 10
4.058606
 20
269.203674
 30
0.0
  0
LWPOLYLINE
  5
25e
100
AcDbEntity
  8
0
 62
7
100
AcDbPolyline
 90
2
 70
1
 10
4.058606
 20
269.203674
 30
0.0
 10
4.644527
 20
269.531643
 30
0.0
  0
LWPOLYLINE
  5
25f
100
AcDbEntity
  8
0
 62
7
100
AcDbPolyline
 90
2
 70
1
 10
4.644527
 20
269.531643
 30
0.0
 10
5.250008
 20
269.808588
 30
0.0
  0
LWPOLYLINE
  5
260
100
AcDbEntity
  8
0
 62
7
100
AcDbPolyline
 90
2
 70
1
 10
5.250008
 20
269.808588
 30
0.0
 10
5.874991
 20
270.042730
 30
0.0
  0
LWPOLYLINE
  5
261
100
AcDbEntity
  8
0
 62
7
100
AcDbPolyline
 90
2
 70
1
 10
5.874991
 20
270.042730
 30
0.0
 10
6.519533
 20
270.222730
 30
0.0
  0
LWPOLYLINE
  5
262
100
AcDbEntity
  8
0
 62
7
100
AcDbPolyline
 90
2
 70
1
 10
6.519533
 20
270.222730
 30
0.0
 10
7.171870
 20
270.355675
 30
0.0
  0
LWPOLYLINE
  5
263
100
AcDbEntity
  8
0
 62
7
100
AcDbPolyline
 90
2
 70
1
 10
7.171870
 20
270.355675
 30
0.0
 10
7.835943
 20
270.429659
 30
0.0
  0
LWPOLYLINE
  5
264
100
AcDbEntity
  8
0
 62
7
100
AcDbPolyline
 90
2
 70
1
 10
7.835943
 20
270.429659
 30
0.0
 10
8.503899
 20
270.456588
 30
0.0
  0
LWPOLYLINE
  5
265
100
AcDbEntity
  8
0
 62
7
100
AcDbPolyline
 90
2
 70
1
 10
8.503899
 20
270.456588
 30
0.0
 10
503.024851
 20
270.456588
 30
0.0
  0
LWPOLYLINE
  5
266
100
AcDbEntity
  8
0
 62
7
100
AcDbPolyline
 90
2
 70
1
 10
12.253882
 20
18.238274
 30
0.0
 10
10.929676
 20
17.562463
 30
0.0
  0
LWPOLYLINE
  5
267
100
AcDbEntity
  8
0
 62
7
100
AcDbPolyline
 90
2
 70
1
 10
10.929676
 20
17.562463
 30
0.0
 10
9.878873
 20
16.511775
 30
0.0
  0
LWPOLYLINE
  5
268
100
AcDbEntity
  8
0
 62
7
100
AcDbPolyline
 90
2
 70
1
 10
9.878873
 20
16.511775
 30
0.0
 10
9.203122
 20
15.187468
 30
0.0
  0
LWPOLYLINE
  5
269
100
AcDbEntity
  8
0
 62
7
100
AcDbPolyline
 90
2
 70
1
 10
9.203122
 20
15.187468
 30
0.0
 10
8.968753
 20
13.722653
 30
0.0
  0
LWPOLYLINE
  5
26a
100
AcDbEntity
  8
0
 62
7
100
AcDbPolyline
 90
2
 70
1
 10
8.968753
 20
13.722653
 30
0.0
 10
9.203122
 20
12.253858
 30
0.0
  0
LWPOLYLINE
  5
26b
100
AcDbEntity
  8
0
 62
7
100
AcDbPolyline
 90
2
 70
1
 10
9.203122
 20
12.253858
 30
0.0
 10
9.878873
 20
10.929658
 30
0.0
  0
LWPOLYLINE
  5
26c
100
AcDbEntity
  8
0
 62
7
100
AcDbPolyline
 90
2
 70
1
 10
9.878873
 20
10.929658
 30
0.0
 10
10.929676
 20
9.878886
 30
0.0
  0
LWPOLYLINE
  5
26d
100
AcDbEntity
  8
0
 62
7
100
AcDbPolyline
 90
2
 70
1
 10
10.929676
 20
9.878886
 30
0.0
 10
12.253882
 20
9.203118
 30
0.0
  0
LWPOLYLINE
  5
26e
100
AcDbEntity
  8
0
 62
7
100
AcDbPolyline
 90
2
 70
1
 10
12.253882
 20
9.203118
 30
0.0
 10
13.722682
 20
8.972664
 30
0.0
  0
LWPOLYLINE
  5
26f
100
AcDbEntity
  8
0
 62
7
100
AcDbPolyline
 90
2
 70
1
 10
13.722682
 20
8.972664
 30
0.0
 10
15.187485
 20
9.203118
 30
0.0
  0
LWPOLYLINE
  5
270
100
AcDbEntity
  8
0
 62
7
100
AcDbPolyline
 90
2
 70
1
 10
15.187485
 20
9.203118
 30
0.0
 10
16.511776
 20
9.878886
 30
0.0
  0
LWPOLYLINE
  5
271
100
AcDbEntity
  8
0
 62
7
100
AcDbPolyline
 90
2
 70
1
 10
16.511776
 20
9.878886
 30
0.0
 10
17.562466
 20
10.929658
 30
0.0
  0
LWPOLYLINE
  5
272
100
AcDbEntity
  8
0
 62
7
100
AcDbPolyline
 90
2
 70
1
 10
17.562466
 20
10.929658
 30
0.0
 10
18.238274
 20
12.253858
 30
0.0
  0
LWPOLYLINE
  5
273
100
AcDbEntity
  8
0
 62
7
100
AcDbPolyline
 90
2
 70
1
 10
18.238274
 20
12.253858
 30
0.0
 10
18.468788
 20
13.722653
 30
0.0
  0
LWPOLYLINE
  5
274
100
AcDbEntity
  8
0
 62
7
100
AcDbPolyline
 90
2
 70
1
 10
18.468788
 20
13.722653
 30
0.0
 10
18.238274
 20
15.187468
 30
0.0
  0
LWPOLYLINE
  5
275
100
AcDbEntity
  8
0
 62
7
100
AcDbPolyline
 90
2
 70
1
 10
18.238274
 20
15.187468
 30
0.0
 10
17.562466
 20
16.511775
 30
0.0
  0
LWPOLYLINE
  5
276
100
AcDbEntity
  8
0
 62
7
100
AcDbPolyline
 90
2
 70
1
 10
17.562466
 20
16.511775
 30
0.0
 10
16.511776
 20
17.562463
 30
0.0
  0
LWPOLYLINE
  5
277
100
AcDbEntity
  8
0
 62
7
100
AcDbPolyline
 90
2
 70
1
 10
16.511776
 20
17.562463
 30
0.0
 10
15.187485
 20
18.238274
 30
0.0
  0
LWPOLYLINE
  5
278
100
AcDbEntity
  8
0
 62
7
100
AcDbPolyline
 90
2
 70
1
 10
15.187485
 20
18.238274
 30
0.0
 10
13.722682
 20
18.468770
 30
0.0
  0
LWPOLYLINE
  5
279
100
AcDbEntity
  8
0
 62
7
100
AcDbPolyline
 90
2
 70
1
 10
13.722682
 20
18.468770
 30
0.0
 10
12.253882
 20
18.238274
 30
0.0
  0
LWPOLYLINE
  5
27a
100
AcDbEntity
  8
0
 62
7
100
AcDbPolyline
 90
2
 70
1
 10
219.257413
 20
18.238274
 30
0.0
 10
217.933648
 20
17.562463
 30
0.0
  0
LWPOLYLINE
  5
27b
100
AcDbEntity
  8
0
 62
7
100
AcDbPolyline
 90
2
 70
1
 10
217.933648
 20
17.562463
 30
0.0
 10
216.882549
 20
16.511775
 30
0.0
  0
LWPOLYLINE
  5
27c
100
AcDbEntity
  8
0
 62
7
100
AcDbPolyline
 90
2
 70
1
 10
216.882549
 20
16.511775
 30
0.0
 10
216.207625
 20
15.187468
 30
0.0
  0
LWPOLYLINE
  5
27d
100
AcDbEntity
  8
0
 62
7
100
AcDbPolyline
 90
2
 70
1
 10
216.207625
 20
15.187468
 30
0.0
 10
215.976610
 20
13.722653
 30
0.0
  0
LWPOLYLINE
  5
27e
100
AcDbEntity
  8
0
 62
7
100
AcDbPolyline
 90
2
 70
1
 10
215.976610
 20
13.722653
 30
0.0
 10
216.207625
 20
12.253858
 30
0.0
  0
LWPOLYLINE
  5
27f
100
AcDbEntity
  8
0
 62
7
100
AcDbPolyline
 90
2
 70
1
 10
216.207625
 20
12.253858
 30
0.0
 10
216.882549
 20
10.929658
 30
0.0
  0
LWPOLYLINE
  5
280
100
AcDbEntity
  8
0
 62
7
100
AcDbPolyline
 90
2
 70
1
 10
216.882549
 20
10.929658
 30
0.0
 10
217.933648
 20
9.878886
 30
0.0
  0
LWPOLYLINE
  5
281
100
AcDbEntity
  8
0
 62
7
100
AcDbPolyline
 90
2
 70
1
 10
217.933648
 20
9.878886
 30
0.0
 10
219.257413
 20
9.203118
 30
0.0
  0
LWPOLYLINE
  5
282
100
AcDbEntity
  8
0
 62
7
100
AcDbPolyline
 90
2
 70
1
 10
219.257413
 20
9.203118
 30
0.0
 10
220.726619
 20
8.972664
 30
0.0
  0
LWPOLYLINE
  5
283
100
AcDbEntity
  8
0
 62
7
100
AcDbPolyline
 90
2
 70
1
 10
220.726619
 20
8.972664
 30
0.0
 10
222.191565
 20
9.203118
 30
0.0
  0
LWPOLYLINE
  5
284
100
AcDbEntity
  8
0
 62
7
100
AcDbPolyline
 90
2
 70
1
 10
222.191565
 20
9.203118
 30
0.0
 10
223.515634
 20
9.878886
 30
0.0
  0
LWPOLYLINE
  5
285
100
AcDbEntity
  8
0
 62
7
100
AcDbPolyline
 90
2
 70
1
 10
223.515634
 20
9.878886
 30
0.0
 10
224.566429
 20
10.929658
 30
0.0
  0
LWPOLYLINE
  5
286
100
AcDbEntity
  8
0
 62
7
100
AcDbPolyline
 90
2
 70
1
 10
224.566429
 20
10.929658
 30
0.0
 10
225.242501
 20
12.253858
 30
0.0
  0
LWPOLYLINE
  5
287
100
AcDbEntity
  8
0
 62
7
100
AcDbPolyline
 90
2
 70
1
 10
225.242501
 20
12.253858
 30
0.0
 10
225.472674
 20
13.722653
 30
0.0
  0
LWPOLYLINE
  5
288
100
AcDbEntity
  8
0
 62
7
100
AcDbPolyline
 90
2
 70
1
 10
225.472674
 20
13.722653
 30
0.0
 10
225.242501
 20
15.187468
 30
0.0
  0
LWPOLYLINE
  5
289
100
AcDbEntity
  8
0
 62
7
100
AcDbPolyline
 90
2
 70
1
 10
225.242501
 20
15.187468
 30
0.0
 10
224.566429
 20
16.511775
 30
0.0
  0
LWPOLYLINE
  5
28a
100
AcDbEntity
  8
0
 62
7
100
AcDbPolyline
 90
2
 70
1
 10
224.566429
 20
16.511775
 30
0.0
 10
223.515634
 20
17.562463
 30
0.0
  0
LWPOLYLINE
  5
28b
100
AcDbEntity
  8
0
 62
7
100
AcDbPolyline
 90
2
 70
1
 10
223.515634
 20
17.562463
 30
0.0
 10
222.191565
 20
18.238274
 30
0.0
  0
LWPOLYLINE
  5
28c
100
AcDbEntity
  8
0
 62
7
100
AcDbPolyline
 90
2
 70
1
 10
222.191565
 20
18.238274
 30
0.0
 10
220.726619
 20
18.468770
 30
0.0
  0
LWPOLYLINE
  5
28d
100
AcDbEntity
  8
0
 62
7
100
AcDbPolyline
 90
2
 70
1
 10
220.726619
 20
18.468770
 30
0.0
 10
219.257413
 20
18.238274
 30
0.0
  0
LWPOLYLINE
  5
28e
100
AcDbEntity
  8
0
 62
7
100
AcDbPolyline
 90
2
 70
1
 10
426.265451
 20
18.238274
 30
0.0
 10
424.941642
 20
17.562463
 30
0.0
  0
LWPOLYLINE
  5
28f
100
AcDbEntity
  8
0
 62
7
100
AcDbPolyline
 90
2
 70
1
 10
424.941642
 20
17.562463
 30
0.0
 10
423.887182
 20
16.511775
 30
0.0
  0
LWPOLYLINE
  5
290
100
AcDbEntity
  8
0
 62
7
100
AcDbPolyline
 90
2
 70
1
 10
423.887182
 20
16.511775
 30
0.0
 10
423.215371
 20
15.187468
 30
0.0
  0
LWPOLYLINE
  5
291
100
AcDbEntity
  8
0
 62
7
100
AcDbPolyline
 90
2
 70
1
 10
423.215371
 20
15.187468
 30
0.0
 10
422.985736
 20
13.722653
 30
0.0
  0
LWPOLYLINE
  5
292
100
AcDbEntity
  8
0
 62
7
100
AcDbPolyline
 90
2
 70
1
 10
422.985736
 20
13.722653
 30
0.0
 10
423.215371
 20
12.253858
 30
0.0
  0
LWPOLYLINE
  5
293
100
AcDbEntity
  8
0
 62
7
100
AcDbPolyline
 90
2
 70
1
 10
423.215371
 20
12.253858
 30
0.0
 10
423.887182
 20
10.929658
 30
0.0
  0
LWPOLYLINE
  5
294
100
AcDbEntity
  8
0
 62
7
100
AcDbPolyline
 90
2
 70
1
 10
423.887182
 20
10.929658
 30
0.0
 10
424.941642
 20
9.878886
 30
0.0
  0
LWPOLYLINE
  5
295
100
AcDbEntity
  8
0
 62
7
100
AcDbPolyline
 90
2
 70
1
 10
424.941642
 20
9.878886
 30
0.0
 10
426.265451
 20
9.203118
 30
0.0
  0
LWPOLYLINE
  5
296
100
AcDbEntity
  8
0
 62
7
100
AcDbPolyline
 90
2
 70
1
 10
426.265451
 20
9.203118
 30
0.0
 10
427.730963
 20
8.972664
 30
0.0
  0
LWPOLYLINE
  5
297
100
AcDbEntity
  8
0
 62
7
100
AcDbPolyline
 90
2
 70
1
 10
427.730963
 20
8.972664
 30
0.0
 10
429.199282
 20
9.203118
 30
0.0
  0
LWPOLYLINE
  5
298
100
AcDbEntity
  8
0
 62
7
100
AcDbPolyline
 90
2
 70
1
 10
429.199282
 20
9.203118
 30
0.0
 10
430.520227
 20
9.878886
 30
0.0
  0
LWPOLYLINE
  5
299
100
AcDbEntity
  8
0
 62
7
100
AcDbPolyline
 90
2
 70
1
 10
430.520227
 20
9.878886
 30
0.0
 10
431.574716
 20
10.929658
 30
0.0
  0
LWPOLYLINE
  5
29a
100
AcDbEntity
  8
0
 62
7
100
AcDbPolyline
 90
2
 70
1
 10
431.574716
 20
10.929658
 30
0.0
 10
432.246527
 20
12.253858
 30
0.0
  0
LWPOLYLINE
  5
29b
100
AcDbEntity
  8
0
 62
7
100
AcDbPolyline
 90
2
 70
1
 10
432.246527
 20
12.253858
 30
0.0
 10
432.481831
 20
13.722653
 30
0.0
  0
LWPOLYLINE
  5
29c
100
AcDbEntity
  8
0
 62
7
100
AcDbPolyline
 90
2
 70
1
 10
432.481831
 20
13.722653
 30
0.0
 10
432.246527
 20
15.187468
 30
0.0
  0
LWPOLYLINE
  5
29d
100
AcDbEntity
  8
0
 62
7
100
AcDbPolyline
 90
2
 70
1
 10
432.246527
 20
15.187468
 30
0.0
 10
431.574716
 20
16.511775
 30
0.0
  0
LWPOLYLINE
  5
29e
100
AcDbEntity
  8
0
 62
7
100
AcDbPolyline
 90
2
 70
1
 10
431.574716
 20
16.511775
 30
0.0
 10
430.520227
 20
17.562463
 30
0.0
  0
LWPOLYLINE
  5
29f
100
AcDbEntity
  8
0
 62
7
100
AcDbPolyline
 90
2
 70
1
 10
430.520227
 20
17.562463
 30
0.0
 10
429.199282
 20
18.238274
 30
0.0
  0
LWPOLYLINE
  5
2a0
100
AcDbEntity
  8
0
 62
7
100
AcDbPolyline
 90
2
 70
1
 10
429.199282
 20
18.238274
 30
0.0
 10
427.730963
 20
18.468770
 30
0.0
  0
LWPOLYLINE
  5
2a1
100
AcDbEntity
  8
0
 62
7
100
AcDbPolyline
 90
2
 70
1
 10
427.730963
 20
18.468770
 30
0.0
 10
426.265451
 20
18.238274
 30
0.0
  0
LWPOLYLINE
  5
2a2
100
AcDbEntity
  8
0
 62
7
100
AcDbPolyline
 90
2
 70
1
 10
633.268338
 20
18.238274
 30
0.0
 10
631.944558
 20
17.562463
 30
0.0
  0
LWPOLYLINE
  5
2a3
100
AcDbEntity
  8
0
 62
7
100
AcDbPolyline
 90
2
 70
1
 10
631.944558
 20
17.562463
 30
0.0
 10
630.895767
 20
16.511775
 30
0.0
  0
LWPOLYLINE
  5
2a4
100
AcDbEntity
  8
0
 62
7
100
AcDbPolyline
 90
2
 70
1
 10
630.895767
 20
16.511775
 30
0.0
 10
630.218286
 20
15.187468
 30
0.0
  0
LWPOLYLINE
  5
2a5
100
AcDbEntity
  8
0
 62
7
100
AcDbPolyline
 90
2
 70
1
 10
630.218286
 20
15.187468
 30
0.0
 10
629.988651
 20
13.722653
 30
0.0
  0
LWPOLYLINE
  5
2a6
100
AcDbEntity
  8
0
 62
7
100
AcDbPolyline
 90
2
 70
1
 10
629.988651
 20
13.722653
 30
0.0
 10
630.218286
 20
12.253858
 30
0.0
  0
LWPOLYLINE
  5
2a7
100
AcDbEntity
  8
0
 62
7
100
AcDbPolyline
 90
2
 70
1
 10
630.218286
 20
12.253858
 30
0.0
 10
630.895767
 20
10.929658
 30
0.0
  0
LWPOLYLINE
  5
2a8
100
AcDbEntity
  8
0
 62
7
100
AcDbPolyline
 90
2
 70
1
 10
630.895767
 20
10.929658
 30
0.0
 10
631.944558
 20
9.878886
 30
0.0
  0
LWPOLYLINE
  5
2a9
100
AcDbEntity
  8
0
 62
7
100
AcDbPolyline
 90
2
 70
1
 10
631.944558
 20
9.878886
 30
0.0
 10
633.268338
 20
9.203118
 30
0.0
  0
LWPOLYLINE
  5
2aa
100
AcDbEntity
  8
0
 62
7
100
AcDbPolyline
 90
2
 70
1
 10
633.268338
 20
9.203118
 30
0.0
 10
634.739548
 20
8.972664
 30
0.0
  0
LWPOLYLINE
  5
2ab
100
AcDbEntity
  8
0
 62
7
100
AcDbPolyline
 90
2
 70
1
 10
634.739548
 20
8.972664
 30
0.0
 10
636.205060
 20
9.203118
 30
0.0
  0
LWPOLYLINE
  5
2ac
100
AcDbEntity
  8
0
 62
7
100
AcDbPolyline
 90
2
 70
1
 10
636.205060
 20
9.203118
 30
0.0
 10
637.528812
 20
9.878886
 30
0.0
  0
LWPOLYLINE
  5
2ad
100
AcDbEntity
  8
0
 62
7
100
AcDbPolyline
 90
2
 70
1
 10
637.528812
 20
9.878886
 30
0.0
 10
638.577631
 20
10.929658
 30
0.0
  0
LWPOLYLINE
  5
2ae
100
AcDbEntity
  8
0
 62
7
100
AcDbPolyline
 90
2
 70
1
 10
638.577631
 20
10.929658
 30
0.0
 10
639.255112
 20
12.253858
 30
0.0
  0
LWPOLYLINE
  5
2af
100
AcDbEntity
  8
0
 62
7
100
AcDbPolyline
 90
2
 70
1
 10
639.255112
 20
12.253858
 30
0.0
 10
639.484746
 20
13.722653
 30
0.0
  0
LWPOLYLINE
  5
2b0
100
AcDbEntity
  8
0
 62
7
100
AcDbPolyline
 90
2
 70
1
 10
639.484746
 20
13.722653
 30
0.0
 10
639.255112
 20
15.187468
 30
0.0
  0
LWPOLYLINE
  5
2b1
100
AcDbEntity
  8
0
 62
7
100
AcDbPolyline
 90
2
 70
1
 10
639.255112
 20
15.187468
 30
0.0
 10
638.577631
 20
16.511775
 30
0.0
  0
LWPOLYLINE
  5
2b2
100
AcDbEntity
  8
0
 62
7
100
AcDbPolyline
 90
2
 70
1
 10
638.577631
 20
16.511775
 30
0.0
 10
637.528812
 20
17.562463
 30
0.0
  0
LWPOLYLINE
  5
2b3
100
AcDbEntity
  8
0
 62
7
100
AcDbPolyline
 90
2
 70
1
 10
637.528812
 20
17.562463
 30
0.0
 10
636.205060
 20
18.238274
 30
0.0
  0
LWPOLYLINE
  5
2b4
100
AcDbEntity
  8
0
 62
7
100
AcDbPolyline
 90
2
 70
1
 10
636.205060
 20
18.238274
 30
0.0
 10
634.739548
 20
18.468770
 30
0.0
  0
LWPOLYLINE
  5
2b5
100
AcDbEntity
  8
0
 62
7
100
AcDbPolyline
 90
2
 70
1
 10
634.739548
 20
18.468770
 30
0.0
 10
633.268338
 20
18.238274
 30
0.0
  0
LWPOLYLINE
  5
2b6
100
AcDbEntity
  8
0
 62
7
100
AcDbPolyline
 90
2
 70
1
 10
12.253882
 20
261.253624
 30
0.0
 10
10.929676
 20
260.578695
 30
0.0
  0
LWPOLYLINE
  5
2b7
100
AcDbEntity
  8
0
 62
7
100
AcDbPolyline
 90
2
 70
1
 10
10.929676
 20
260.578695
 30
0.0
 10
9.878873
 20
259.527608
 30
0.0
  0
LWPOLYLINE
  5
2b8
100
AcDbEntity
  8
0
 62
7
100
AcDbPolyline
 90
2
 70
1
 10
9.878873
 20
259.527608
 30
0.0
 10
9.203122
 20
258.203544
 30
0.0
  0
LWPOLYLINE
  5
2b9
100
AcDbEntity
  8
0
 62
7
100
AcDbPolyline
 90
2
 70
1
 10
9.203122
 20
258.203544
 30
0.0
 10
8.968753
 20
256.734631
 30
0.0
  0
LWPOLYLINE
  5
2ba
100
AcDbEntity
  8
0
 62
7
100
AcDbPolyline
 90
2
 70
1
 10
8.968753
 20
256.734631
 30
0.0
 10
9.203122
 20
255.269684
 30
0.0
  0
LWPOLYLINE
  5
2bb
100
AcDbEntity
  8
0
 62
7
100
AcDbPolyline
 90
2
 70
1
 10
9.203122
 20
255.269684
 30
0.0
 10
9.878873
 20
253.945622
 30
0.0
  0
LWPOLYLINE
  5
2bc
100
AcDbEntity
  8
0
 62
7
100
AcDbPolyline
 90
2
 70
1
 10
9.878873
 20
253.945622
 30
0.0
 10
10.929676
 20
252.894534
 30
0.0
  0
LWPOLYLINE
  5
2bd
100
AcDbEntity
  8
0
 62
7
100
AcDbPolyline
 90
2
 70
1
 10
10.929676
 20
252.894534
 30
0.0
 10
12.253882
 20
252.218755
 30
0.0
  0
LWPOLYLINE
  5
2be
100
AcDbEntity
  8
0
 62
7
100
AcDbPolyline
 90
2
 70
1
 10
12.253882
 20
252.218755
 30
0.0
 10
13.722682
 20
251.988581
 30
0.0
  0
LWPOLYLINE
  5
2bf
100
AcDbEntity
  8
0
 62
7
100
AcDbPolyline
 90
2
 70
1
 10
13.722682
 20
251.988581
 30
0.0
 10
15.187485
 20
252.218755
 30
0.0
  0
LWPOLYLINE
  5
2c0
100
AcDbEntity
  8
0
 62
7
100
AcDbPolyline
 90
2
 70
1
 10
15.187485
 20
252.218755
 30
0.0
 10
16.511776
 20
252.894534
 30
0.0
  0
LWPOLYLINE
  5
2c1
100
AcDbEntity
  8
0
 62
7
100
AcDbPolyline
 90
2
 70
1
 10
16.511776
 20
252.894534
 30
0.0
 10
17.562466
 20
253.945622
 30
0.0
  0
LWPOLYLINE
  5
2c2
100
AcDbEntity
  8
0
 62
7
100
AcDbPolyline
 90
2
 70
1
 10
17.562466
 20
253.945622
 30
0.0
 10
18.238274
 20
255.269684
 30
0.0
  0
LWPOLYLINE
  5
2c3
100
AcDbEntity
  8
0
 62
7
100
AcDbPolyline
 90
2
 70
1
 10
18.238274
 20
255.269684
 30
0.0
 10
18.468788
 20
256.734631
 30
0.0
  0
LWPOLYLINE
  5
2c4
100
AcDbEntity
  8
0
 62
7
100
AcDbPolyline
 90
2
 70
1
 10
18.468788
 20
256.734631
 30
0.0
 10
18.238274
 20
258.203544
 30
0.0
  0
LWPOLYLINE
  5
2c5
100
AcDbEntity
  8
0
 62
7
100
AcDbPolyline
 90
2
 70
1
 10
18.238274
 20
258.203544
 30
0.0
 10
17.562466
 20
259.527608
 30
0.0
  0
LWPOLYLINE
  5
2c6
100
AcDbEntity
  8
0
 62
7
100
AcDbPolyline
 90
2
 70
1
 10
17.562466
 20
259.527608
 30
0.0
 10
16.511776
 20
260.578695
 30
0.0
  0
LWPOLYLINE
  5
2c7
100
AcDbEntity
  8
0
 62
7
100
AcDbPolyline
 90
2
 70
1
 10
16.511776
 20
260.578695
 30
0.0
 10
15.187485
 20
261.253624
 30
0.0
  0
LWPOLYLINE
  5
2c8
100
AcDbEntity
  8
0
 62
7
100
AcDbPolyline
 90
2
 70
1
 10
15.187485
 20
261.253624
 30
0.0
 10
13.722682
 20
261.488616
 30
0.0
  0
LWPOLYLINE
  5
2c9
100
AcDbEntity
  8
0
 62
7
100
AcDbPolyline
 90
2
 70
1
 10
13.722682
 20
261.488616
 30
0.0
 10
12.253882
 20
261.253624
 30
0.0
  0
LWPOLYLINE
  5
2ca
100
AcDbEntity
  8
0
 62
7
100
AcDbPolyline
 90
2
 70
1
 10
633.268338
 20
261.253624
 30
0.0
 10
631.944558
 20
260.578695
 30
0.0
  0
LWPOLYLINE
  5
2cb
100
AcDbEntity
  8
0
 62
7
100
AcDbPolyline
 90
2
 70
1
 10
631.944558
 20
260.578695
 30
0.0
 10
630.895767
 20
259.527608
 30
0.0
  0
LWPOLYLINE
  5
2cc
100
AcDbEntity
  8
0
 62
7
100
AcDbPolyline
 90
2
 70
1
 10
630.895767
 20
259.527608
 30
0.0
 10
630.218286
 20
258.203544
 30
0.0
  0
LWPOLYLINE
  5
2cd
100
AcDbEntity
  8
0
 62
7
100
AcDbPolyline
 90
2
 70
1
 10
630.218286
 20
258.203544
 30
0.0
 10
629.988651
 20
256.734631
 30
0.0
  0
LWPOLYLINE
  5
2ce
100
AcDbEntity
  8
0
 62
7
100
AcDbPolyline
 90
2
 70
1
 10
629.988651
 20
256.734631
 30
0.0
 10
630.218286
 20
255.269684
 30
0.0
  0
LWPOLYLINE
  5
2cf
100
AcDbEntity
  8
0
 62
7
100
AcDbPolyline
 90
2
 70
1
 10
630.218286
 20
255.269684
 30
0.0
 10
630.895767
 20
253.945622
 30
0.0
  0
LWPOLYLINE
  5
2d0
100
AcDbEntity
  8
0
 62
7
100
AcDbPolyline
 90
2
 70
1
 10
630.895767
 20
253.945622
 30
0.0
 10
631.944558
 20
252.894534
 30
0.0
  0
LWPOLYLINE
  5
2d1
100
AcDbEntity
  8
0
 62
7
100
AcDbPolyline
 90
2
 70
1
 10
631.944558
 20
252.894534
 30
0.0
 10
633.268338
 20
252.218755
 30
0.0
  0
LWPOLYLINE
  5
2d2
100
AcDbEntity
  8
0
 62
7
100
AcDbPolyline
 90
2
 70
1
 10
633.268338
 20
252.218755
 30
0.0
 10
634.739548
 20
251.988581
 30
0.0
  0
LWPOLYLINE
  5
2d3
100
AcDbEntity
  8
0
 62
7
100
AcDbPolyline
 90
2
 70
1
 10
634.739548
 20
251.988581
 30
0.0
 10
636.205060
 20
252.218755
 30
0.0
  0
LWPOLYLINE
  5
2d4
100
AcDbEntity
  8
0
 62
7
100
AcDbPolyline
 90
2
 70
1
 10
636.205060
 20
252.218755
 30
0.0
 10
637.528812
 20
252.894534
 30
0.0
  0
LWPOLYLINE
  5
2d5
100
AcDbEntity
  8
0
 62
7
100
AcDbPolyline
 90
2
 70
1
 10
637.528812
 20
252.894534
 30
0.0
 10
638.577631
 20
253.945622
 30
0.0
  0
LWPOLYLINE
  5
2d6
100
AcDbEntity
  8
0
 62
7
100
AcDbPolyline
 90
2
 70
1
 10
638.577631
 20
253.945622
 30
0.0
 10
639.255112
 20
255.269684
 30
0.0
  0
LWPOLYLINE
  5
2d7
100
AcDbEntity
  8
0
 62
7
100
AcDbPolyline
 90
2
 70
1
 10
639.255112
 20
255.269684
 30
0.0
 10
639.484746
 20
256.734631
 30
0.0
  0
LWPOLYLINE
  5
2d8
100
AcDbEntity
  8
0
 62
7
100
AcDbPolyline
 90
2
 70
1
 10
639.484746
 20
256.734631
 30
0.0
 10
639.255112
 20
258.203544
 30
0.0
  0
LWPOLYLINE
  5
2d9
100
AcDbEntity
  8
0
 62
7
100
AcDbPolyline
 90
2
 70
1
 10
639.255112
 20
258.203544
 30
0.0
 10
638.577631
 20
259.527608
 30
0.0
  0
LWPOLYLINE
  5
2da
100
AcDbEntity
  8
0
 62
7
100
AcDbPolyline
 90
2
 70
1
 10
638.577631
 20
259.527608
 30
0.0
 10
637.528812
 20
260.578695
 30
0.0
  0
LWPOLYLINE
  5
2db
100
AcDbEntity
  8
0
 62
7
100
AcDbPolyline
 90
2
 70
1
 10
637.528812
 20
260.578695
 30
0.0
 10
636.205060
 20
261.253624
 30
0.0
  0
LWPOLYLINE
  5
2dc
100
AcDbEntity
  8
0
 62
7
100
AcDbPolyline
 90
2
 70
1
 10
636.205060
 20
261.253624
 30
0.0
 10
634.739548
 20
261.488616
 30
0.0
  0
LWPOLYLINE
  5
2dd
100
AcDbEntity
  8
0
 62
7
100
AcDbPolyline
 90
2
 70
1
 10
634.739548
 20
261.488616
 30
0.0
 10
633.268338
 20
261.253624
 30
0.0
  0
LWPOLYLINE
  5
2de
100
AcDbEntity
  8
0
 62
7
100
AcDbPolyline
 90
2
 70
1
 10
426.265451
 20
261.253624
 30
0.0
 10
424.941642
 20
260.578695
 30
0.0
  0
LWPOLYLINE
  5
2df
100
AcDbEntity
  8
0
 62
7
100
AcDbPolyline
 90
2
 70
1
 10
424.941642
 20
260.578695
 30
0.0
 10
423.887182
 20
259.527608
 30
0.0
  0
LWPOLYLINE
  5
2e0
100
AcDbEntity
  8
0
 62
7
100
AcDbPolyline
 90
2
 70
1
 10
423.887182
 20
259.527608
 30
0.0
 10
423.215371
 20
258.203544
 30
0.0
  0
LWPOLYLINE
  5
2e1
100
AcDbEntity
  8
0
 62
7
100
AcDbPolyline
 90
2
 70
1
 10
423.215371
 20
258.203544
 30
0.0
 10
422.985736
 20
256.734631
 30
0.0
  0
LWPOLYLINE
  5
2e2
100
AcDbEntity
  8
0
 62
7
100
AcDbPolyline
 90
2
 70
1
 10
422.985736
 20
256.734631
 30
0.0
 10
423.215371
 20
255.269684
 30
0.0
  0
LWPOLYLINE
  5
2e3
100
AcDbEntity
  8
0
 62
7
100
AcDbPolyline
 90
2
 70
1
 10
423.215371
 20
255.269684
 30
0.0
 10
423.887182
 20
253.945622
 30
0.0
  0
LWPOLYLINE
  5
2e4
100
AcDbEntity
  8
0
 62
7
100
AcDbPolyline
 90
2
 70
1
 10
423.887182
 20
253.945622
 30
0.0
 10
424.941642
 20
252.894534
 30
0.0
  0
LWPOLYLINE
  5
2e5
100
AcDbEntity
  8
0
 62
7
100
AcDbPolyline
 90
2
 70
1
 10
424.941642
 20
252.894534
 30
0.0
 10
426.265451
 20
252.218755
 30
0.0
  0
LWPOLYLINE
  5
2e6
100
AcDbEntity
  8
0
 62
7
100
AcDbPolyline
 90
2
 70
1
 10
426.265451
 20
252.218755
 30
0.0
 10
427.730963
 20
251.988581
 30
0.0
  0
LWPOLYLINE
  5
2e7
100
AcDbEntity
  8
0
 62
7
100
AcDbPolyline
 90
2
 70
1
 10
427.730963
 20
251.988581
 30
0.0
 10
429.199282
 20
252.218755
 30
0.0
  0
LWPOLYLINE
  5
2e8
100
AcDbEntity
  8
0
 62
7
100
AcDbPolyline
 90
2
 70
1
 10
429.199282
 20
252.218755
 30
0.0
 10
430.520227
 20
252.894534
 30
0.0
  0
LWPOLYLINE
  5
2e9
100
AcDbEntity
  8
0
 62
7
100
AcDbPolyline
 90
2
 70
1
 10
430.520227
 20
252.894534
 30
0.0
 10
431.574716
 20
253.945622
 30
0.0
  0
LWPOLYLINE
  5
2ea
100
AcDbEntity
  8
0
 62
7
100
AcDbPolyline
 90
2
 70
1
 10
431.574716
 20
253.945622
 30
0.0
 10
432.246527
 20
255.269684
 30
0.0
  0
LWPOLYLINE
  5
2eb
100
AcDbEntity
  8
0
 62
7
100
AcDbPolyline
 90
2
 70
1
 10
432.246527
 20
255.269684
 30
0.0
 10
432.481831
 20
256.734631
 30
0.0
  0
LWPOLYLINE
  5
2ec
100
AcDbEntity
  8
0
 62
7
100
AcDbPolyline
 90
2
 70
1
 10
432.481831
 20
256.734631
 30
0.0
 10
432.246527
 20
258.203544
 30
0.0
  0
LWPOLYLINE
  5
2ed
100
AcDbEntity
  8
0
 62
7
100
AcDbPolyline
 90
2
 70
1
 10
432.246527
 20
258.203544
 30
0.0
 10
431.574716
 20
259.527608
 30
0.0
  0
LWPOLYLINE
  5
2ee
100
AcDbEntity
  8
0
 62
7
100
AcDbPolyline
 90
2
 70
1
 10
431.574716
 20
259.527608
 30
0.0
 10
430.520227
 20
260.578695
 30
0.0
  0
LWPOLYLINE
  5
2ef
100
AcDbEntity
  8
0
 62
7
100
AcDbPolyline
 90
2
 70
1
 10
430.520227
 20
260.578695
 30
0.0
 10
429.199282
 20
261.253624
 30
0.0
  0
LWPOLYLINE
  5
2f0
100
AcDbEntity
  8
0
 62
7
100
AcDbPolyline
 90
2
 70
1
 10
429.199282
 20
261.253624
 30
0.0
 10
427.730963
 20
261.488616
 30
0.0
  0
LWPOLYLINE
  5
2f1
100
AcDbEntity
  8
0
 62
7
100
AcDbPolyline
 90
2
 70
1
 10
427.730963
 20
261.488616
 30
0.0
 10
426.265451
 20
261.253624
 30
0.0
  0
LWPOLYLINE
  5
2f2
100
AcDbEntity
  8
0
 62
7
100
AcDbPolyline
 90
2
 70
1
 10
219.257413
 20
261.253624
 30
0.0
 10
217.933648
 20
260.578695
 30
0.0
  0
LWPOLYLINE
  5
2f3
100
AcDbEntity
  8
0
 62
7
100
AcDbPolyline
 90
2
 70
1
 10
217.933648
 20
260.578695
 30
0.0
 10
216.882549
 20
259.527608
 30
0.0
  0
LWPOLYLINE
  5
2f4
100
AcDbEntity
  8
0
 62
7
100
AcDbPolyline
 90
2
 70
1
 10
216.882549
 20
259.527608
 30
0.0
 10
216.207625
 20
258.203544
 30
0.0
  0
LWPOLYLINE
  5
2f5
100
AcDbEntity
  8
0
 62
7
100
AcDbPolyline
 90
2
 70
1
 10
216.207625
 20
258.203544
 30
0.0
 10
215.976610
 20
256.734631
 30
0.0
  0
LWPOLYLINE
  5
2f6
100
AcDbEntity
  8
0
 62
7
100
AcDbPolyline
 90
2
 70
1
 10
215.976610
 20
256.734631
 30
0.0
 10
216.207625
 20
255.269684
 30
0.0
  0
LWPOLYLINE
  5
2f7
100
AcDbEntity
  8
0
 62
7
100
AcDbPolyline
 90
2
 70
1
 10
216.207625
 20
255.269684
 30
0.0
 10
216.882549
 20
253.945622
 30
0.0
  0
LWPOLYLINE
  5
2f8
100
AcDbEntity
  8
0
 62
7
100
AcDbPolyline
 90
2
 70
1
 10
216.882549
 20
253.945622
 30
0.0
 10
217.933648
 20
252.894534
 30
0.0
  0
LWPOLYLINE
  5
2f9
100
AcDbEntity
  8
0
 62
7
100
AcDbPolyline
 90
2
 70
1
 10
217.933648
 20
252.894534
 30
0.0
 10
219.257413
 20
252.218755
 30
0.0
  0
LWPOLYLINE
  5
2fa
100
AcDbEntity
  8
0
 62
7
100
AcDbPolyline
 90
2
 70
1
 10
219.257413
 20
252.218755
 30
0.0
 10
220.726619
 20
251.988581
 30
0.0
  0
LWPOLYLINE
  5
2fb
100
AcDbEntity
  8
0
 62
7
100
AcDbPolyline
 90
2
 70
1
 10
220.726619
 20
251.988581
 30
0.0
 10
222.191565
 20
252.218755
 30
0.0
  0
LWPOLYLINE
  5
2fc
100
AcDbEntity
  8
0
 62
7
100
AcDbPolyline
 90
2
 70
1
 10
222.191565
 20
252.218755
 30
0.0
 10
223.515634
 20
252.894534
 30
0.0
  0
LWPOLYLINE
  5
2fd
100
AcDbEntity
  8
0
 62
7
100
AcDbPolyline
 90
2
 70
1
 10
223.515634
 20
252.894534
 30
0.0
 10
224.566429
 20
253.945622
 30
0.0
  0
LWPOLYLINE
  5
2fe
100
AcDbEntity
  8
0
 62
7
100
AcDbPolyline
 90
2
 70
1
 10
224.566429
 20
253.945622
 30
0.0
 10
225.242501
 20
255.269684
 30
0.0
  0
LWPOLYLINE
  5
2ff
100
AcDbEntity
  8
0
 62
7
100
AcDbPolyline
 90
2
 70
1
 10
225.242501
 20
255.269684
 30
0.0
 10
225.472674
 20
256.734631
 30
0.0
  0
LWPOLYLINE
  5
300
100
AcDbEntity
  8
0
 62
7
100
AcDbPolyline
 90
2
 70
1
 10
225.472674
 20
256.734631
 30
0.0
 10
225.242501
 20
258.203544
 30
0.0
  0
LWPOLYLINE
  5
301
100
AcDbEntity
  8
0
 62
7
100
AcDbPolyline
 90
2
 70
1
 10
225.242501
 20
258.203544
 30
0.0
 10
224.566429
 20
259.527608
 30
0.0
  0
LWPOLYLINE
  5
302
100
AcDbEntity
  8
0
 62
7
100
AcDbPolyline
 90
2
 70
1
 10
224.566429
 20
259.527608
 30
0.0
 10
223.515634
 20
260.578695
 30
0.0
  0
LWPOLYLINE
  5
303
100
AcDbEntity
  8
0
 62
7
100
AcDbPolyline
 90
2
 70
1
 10
223.515634
 20
260.578695
 30
0.0
 10
222.191565
 20
261.253624
 30
0.0
  0
LWPOLYLINE
  5
304
100
AcDbEntity
  8
0
 62
7
100
AcDbPolyline
 90
2
 70
1
 10
222.191565
 20
261.253624
 30
0.0
 10
220.726619
 20
261.488616
 30
0.0
  0
LWPOLYLINE
  5
305
100
AcDbEntity
  8
0
 62
7
100
AcDbPolyline
 90
2
 70
1
 10
220.726619
 20
261.488616
 30
0.0
 10
219.257413
 20
261.253624
 30
0.0
  0
ENDSEC
  0
SECTION
  2
OBJECTS
  0
DICTIONARY
  5
C
330
0
100
AcDbDictionary
  3
ACAD_GROUP
350
D
  3
ACAD_MLINESTYLE
350
17
  0
DICTIONARY
  5
D
330
C
100
AcDbDictionary
  0
DICTIONARY
  5
1A
330
C
100
AcDbDictionary
  0
DICTIONARY
  5
17
330
C
100
AcDbDictionary
  3
STANDARD
350
18
  0
DICTIONARY
  5
19
330
C
100
AcDbDictionary
  0
ENDSEC
  0
EOF
