<?xml version="1.0"?>
<svg xmlns="http://www.w3.org/2000/svg" xmlns:lc="http://www.librecad.org" xmlns:xlink="http://www.w3.org/1999/xlink" width="648.45639mm" height="270.456588mm" viewBox="0 0 648.45639 270.456588">
    <g lc:layername="0" lc:is_locked="false" lc:is_construction="false" fill="none" stroke="black" stroke-width="1">
        <path d="M640.621427,0.026929 L641.281899,0.100913 L640.621427,0.026929 Z "/>
        <path d="M641.281899,0.100913 L641.936703,0.233858 L641.281899,0.100913 Z "/>
        <path d="M641.936703,0.233858 L642.583002,0.413858 L641.936703,0.233858 Z "/>
        <path d="M642.583002,0.413858 L643.206624,0.648 L642.583002,0.413858 Z "/>
        <path d="M643.206624,0.648 L643.813239,0.924945 L643.206624,0.648 Z "/>
        <path d="M643.813239,0.924945 L644.394341,1.252914 L643.813239,0.924945 Z "/>
        <path d="M644.394341,1.252914 L644.949932,1.620851 L644.394341,1.252914 Z "/>
        <path d="M644.949932,1.620851 L645.477177,2.034993 L644.949932,1.620851 Z "/>
        <path d="M645.477177,2.034993 L645.964736,2.487969 L645.477177,2.034993 Z "/>
        <path d="M645.964736,2.487969 L646.418279,2.97978 L645.964736,2.487969 Z "/>
        <path d="M646.418279,2.97978 L646.832138,3.503056 L646.418279,2.97978 Z "/>
        <path d="M646.832138,3.503056 L647.203476,4.057797 L646.832138,3.503056 Z "/>
        <path d="M647.203476,4.057797 L647.532295,4.644002 L647.203476,4.057797 Z "/>
        <path d="M647.532295,4.644002 L647.810091,5.250049 L647.532295,4.644002 Z "/>
        <path d="M647.810091,5.250049 L648.039697,5.874805 L647.810091,5.250049 Z "/>
        <path d="M648.039697,5.874805 L648.223949,6.518837 L648.039697,5.874805 Z "/>
        <path d="M648.223949,6.518837 L648.351508,7.170806 L648.223949,6.518837 Z "/>
        <path d="M648.351508,7.170806 L648.430878,7.834963 L648.351508,7.170806 Z "/>
        <path d="M648.430878,7.834963 L648.45639,8.502806 L648.430878,7.834963 Z "/>
        <path d="M648.45639,8.502806 L648.45639,261.952684 L648.45639,8.502806 Z "/>
        <path d="M648.45639,261.952684 L648.430878,262.62064 L648.45639,261.952684 Z "/>
        <path d="M648.430878,262.62064 L648.351508,263.280801 L648.430878,262.62064 Z "/>
        <path d="M648.351508,263.280801 L648.223949,263.93705 L648.351508,263.280801 Z "/>
        <path d="M648.223949,263.93705 L648.039697,264.581592 L648.223949,263.93705 Z "/>
        <path d="M648.039697,264.581592 L647.810091,265.206575 L648.039697,264.581592 Z "/>
        <path d="M647.810091,265.206575 L647.532295,265.812056 L647.810091,265.206575 Z "/>
        <path d="M647.532295,265.812056 L647.203476,266.394094 L647.532295,265.812056 Z "/>
        <path d="M647.203476,266.394094 L646.832138,266.948778 L647.203476,266.394094 Z "/>
        <path d="M646.832138,266.948778 L646.418279,267.476107 L646.832138,266.948778 Z "/>
        <path d="M646.418279,267.476107 L645.964736,267.964395 L646.418279,267.476107 Z "/>
        <path d="M645.964736,267.964395 L645.477177,268.417524 L645.964736,267.964395 Z "/>
        <path d="M645.477177,268.417524 L644.949932,268.831587 L645.477177,268.417524 Z "/>
        <path d="M644.949932,268.831587 L644.394341,269.202685 L644.949932,268.831587 Z "/>
        <path d="M644.394341,269.202685 L643.813239,269.530806 L644.394341,269.202685 Z "/>
        <path d="M643.813239,269.530806 L643.206624,269.808151 L643.813239,269.530806 Z "/>
        <path d="M643.206624,269.808151 L642.583002,270.038619 L643.206624,269.808151 Z "/>
        <path d="M642.583002,270.038619 L641.936703,270.222213 L642.583002,270.038619 Z "/>
        <path d="M641.936703,270.222213 L641.281899,270.351119 L641.936703,270.222213 Z "/>
        <path d="M641.281899,270.351119 L640.621427,270.429245 L641.281899,270.351119 Z "/>
        <path d="M640.621427,270.429245 L639.95245,270.456588 L640.621427,270.429245 Z "/>
        <path d="M639.95245,270.456588 L8.503899,270.456588 L639.95245,270.456588 Z "/>
        <path d="M8.503899,270.456588 L7.835943,270.429245 L8.503899,270.456588 Z "/>
        <path d="M7.835943,270.429245 L7.17187,270.351119 L7.835943,270.429245 Z "/>
        <path d="M7.17187,270.351119 L6.519533,270.222213 L7.17187,270.351119 Z "/>
        <path d="M6.519533,270.222213 L5.874991,270.038619 L6.519533,270.222213 Z "/>
        <path d="M5.874991,270.038619 L5.250008,269.808151 L5.874991,270.038619 Z "/>
        <path d="M5.250008,269.808151 L4.644527,269.530806 L5.250008,269.808151 Z "/>
        <path d="M4.644527,269.530806 L4.058606,269.202685 L4.644527,269.530806 Z "/>
        <path d="M4.058606,269.202685 L3.503922,268.831587 L4.058606,269.202685 Z "/>
        <path d="M3.503922,268.831587 L2.980476,268.417524 L3.503922,268.831587 Z "/>
        <path d="M2.980476,268.417524 L2.48828,267.964395 L2.980476,268.417524 Z "/>
        <path d="M2.48828,267.964395 L2.035158,267.476107 L2.48828,267.964395 Z "/>
        <path d="M2.035158,267.476107 L1.621099,266.948778 L2.035158,267.476107 Z "/>
        <path d="M1.621099,266.948778 L1.25391,266.394094 L1.621099,266.948778 Z "/>
        <path d="M1.25391,266.394094 L0.92578,265.812056 L1.25391,266.394094 Z "/>
        <path d="M0.92578,265.812056 L0.648438,265.206575 L0.92578,265.812056 Z "/>
        <path d="M0.648438,265.206575 L0.414064,264.581592 L0.648438,265.206575 Z "/>
        <path d="M0.414064,264.581592 L0.234375,263.93705 L0.414064,264.581592 Z "/>
        <path d="M0.234375,263.93705 L0.101564,263.280801 L0.234375,263.93705 Z "/>
        <path d="M0.101564,263.280801 L0.027344,262.62064 L0.101564,263.280801 Z "/>
        <path d="M0.027344,262.62064 L0,261.948772 L0.027344,262.62064 Z "/>
        <path d="M0,261.948772 L0,8.502806 L0,261.948772 Z "/>
        <path d="M0,8.502806 L0.027344,7.834963 L0,8.502806 Z "/>
        <path d="M0.027344,7.834963 L0.101564,7.170806 L0.027344,7.834963 Z "/>
        <path d="M0.101564,7.170806 L0.234375,6.518837 L0.101564,7.170806 Z "/>
        <path d="M0.234375,6.518837 L0.414064,5.874805 L0.234375,6.518837 Z "/>
        <path d="M0.414064,5.874805 L0.648438,5.250049 L0.414064,5.874805 Z "/>
        <path d="M0.648438,5.250049 L0.92578,4.644002 L0.648438,5.250049 Z "/>
        <path d="M0.92578,4.644002 L1.25391,4.057797 L0.92578,4.644002 Z "/>
        <path d="M1.25391,4.057797 L1.621099,3.503056 L1.25391,4.057797 Z "/>
        <path d="M1.621099,3.503056 L2.035158,2.97978 L1.621099,3.503056 Z "/>
        <path d="M2.035158,2.97978 L2.48828,2.487969 L2.035158,2.97978 Z "/>
        <path d="M2.48828,2.487969 L2.980476,2.034993 L2.48828,2.487969 Z "/>
        <path d="M2.980476,2.034993 L3.503922,1.620851 L2.980476,2.034993 Z "/>
        <path d="M3.503922,1.620851 L4.058606,1.252914 L3.503922,1.620851 Z "/>
        <path d="M4.058606,1.252914 L4.644527,0.924945 L4.058606,1.252914 Z "/>
        <path d="M4.644527,0.924945 L5.250008,0.648 L4.644527,0.924945 Z "/>
        <path d="M5.250008,0.648 L5.874991,0.413858 L5.250008,0.648 Z "/>
        <path d="M5.874991,0.413858 L6.519533,0.233858 L5.874991,0.413858 Z "/>
        <path d="M6.519533,0.233858 L7.17187,0.100913 L6.519533,0.233858 Z "/>
        <path d="M7.17187,0.100913 L7.835943,0.026929 L7.17187,0.100913 Z "/>
        <path d="M7.835943,0.026929 L8.503899,0 L7.835943,0.026929 Z "/>
        <path d="M12.253881,252.218309 L10.929676,252.894117 L12.253881,252.218309 Z "/>
        <path d="M10.929676,252.894117 L9.878873,253.944807 L10.929676,252.894117 Z "/>
        <path d="M9.878873,253.944807 L9.203121,255.269126 L9.878873,253.944807 Z "/>
        <path d="M9.203121,255.269126 L8.968753,256.733929 L9.203121,255.269126 Z "/>
        <path d="M8.968753,256.733929 L9.203121,258.20273 L8.968753,256.733929 Z "/>
        <path d="M9.203121,258.20273 L9.878873,259.526935 L9.203121,258.20273 Z "/>
        <path d="M9.878873,259.526935 L10.929676,260.57771 L9.878873,259.526935 Z "/>
        <path d="M10.929676,260.57771 L12.253881,261.253462 L10.929676,260.57771 Z "/>
        <path d="M12.253881,261.253462 L13.722682,261.483919 L12.253881,261.253462 Z "/>
        <path d="M13.722682,261.483919 L15.187486,261.253462 L13.722682,261.483919 Z "/>
        <path d="M15.187486,261.253462 L16.511776,260.57771 L15.187486,261.253462 Z "/>
        <path d="M16.511776,260.57771 L17.562466,259.526935 L16.511776,260.57771 Z "/>
        <path d="M17.562466,259.526935 L18.238274,258.20273 L17.562466,259.526935 Z "/>
        <path d="M18.238274,258.20273 L18.468788,256.733929 L18.238274,258.20273 Z "/>
        <path d="M18.468788,256.733929 L18.238274,255.269126 L18.468788,256.733929 Z "/>
        <path d="M18.238274,255.269126 L17.562466,253.944807 L18.238274,255.269126 Z "/>
        <path d="M17.562466,253.944807 L16.511776,252.894117 L17.562466,253.944807 Z "/>
        <path d="M16.511776,252.894117 L15.187486,252.218309 L16.511776,252.894117 Z "/>
        <path d="M15.187486,252.218309 L13.722682,251.987824 L15.187486,252.218309 Z "/>
        <path d="M13.722682,251.987824 L12.253881,252.218309 L13.722682,251.987824 Z "/>
        <path d="M219.25742,252.218309 L217.93364,252.894117 L219.25742,252.218309 Z "/>
        <path d="M217.93364,252.894117 L216.882553,253.944807 L217.93364,252.894117 Z "/>
        <path d="M216.882553,253.944807 L216.207624,255.269126 L216.882553,253.944807 Z "/>
        <path d="M216.207624,255.269126 L215.9766,256.733929 L216.207624,255.269126 Z "/>
        <path d="M215.9766,256.733929 L216.207624,258.20273 L215.9766,256.733929 Z "/>
        <path d="M216.207624,258.20273 L216.882553,259.526935 L216.207624,258.20273 Z "/>
        <path d="M216.882553,259.526935 L217.93364,260.57771 L216.882553,259.526935 Z "/>
        <path d="M217.93364,260.57771 L219.25742,261.253462 L217.93364,260.57771 Z "/>
        <path d="M219.25742,261.253462 L220.726618,261.483919 L219.25742,261.253462 Z "/>
        <path d="M220.726618,261.483919 L222.191563,261.253462 L220.726618,261.483919 Z "/>
        <path d="M222.191563,261.253462 L223.515627,260.57771 L222.191563,261.253462 Z "/>
        <path d="M223.515627,260.57771 L224.56643,259.526935 L223.515627,260.57771 Z "/>
        <path d="M224.56643,259.526935 L225.242493,258.20273 L224.56643,259.526935 Z "/>
        <path d="M225.242493,258.20273 L225.472667,256.733929 L225.242493,258.20273 Z "/>
        <path d="M225.472667,256.733929 L225.242493,255.269126 L225.472667,256.733929 Z "/>
        <path d="M225.242493,255.269126 L224.56643,253.944807 L225.242493,255.269126 Z "/>
        <path d="M224.56643,253.944807 L223.515627,252.894117 L224.56643,253.944807 Z "/>
        <path d="M223.515627,252.894117 L222.191563,252.218309 L223.515627,252.894117 Z "/>
        <path d="M222.191563,252.218309 L220.726618,251.987824 L222.191563,252.218309 Z "/>
        <path d="M220.726618,251.987824 L219.25742,252.218309 L220.726618,251.987824 Z "/>
        <path d="M426.265438,252.218309 L424.941658,252.894117 L426.265438,252.218309 Z "/>
        <path d="M424.941658,252.894117 L423.887169,253.944807 L424.941658,252.894117 Z "/>
        <path d="M423.887169,253.944807 L423.215358,255.269126 L423.887169,253.944807 Z "/>
        <path d="M423.215358,255.269126 L422.985751,256.733929 L423.215358,255.269126 Z "/>
        <path d="M422.985751,256.733929 L423.215358,258.20273 L422.985751,256.733929 Z "/>
        <path d="M423.215358,258.20273 L423.887169,259.526935 L423.215358,258.20273 Z "/>
        <path d="M423.887169,259.526935 L424.941658,260.57771 L423.887169,259.526935 Z "/>
        <path d="M424.941658,260.57771 L426.265438,261.253462 L424.941658,260.57771 Z "/>
        <path d="M426.265438,261.253462 L427.73095,261.483919 L426.265438,261.253462 Z "/>
        <path d="M427.73095,261.483919 L429.199297,261.253462 L427.73095,261.483919 Z "/>
        <path d="M429.199297,261.253462 L430.520243,260.57771 L429.199297,261.253462 Z "/>
        <path d="M430.520243,260.57771 L431.574731,259.526935 L430.520243,260.57771 Z "/>
        <path d="M431.574731,259.526935 L432.246542,258.20273 L431.574731,259.526935 Z "/>
        <path d="M432.246542,258.20273 L432.481818,256.733929 L432.246542,258.20273 Z "/>
        <path d="M432.481818,256.733929 L432.246542,255.269126 L432.481818,256.733929 Z "/>
        <path d="M432.246542,255.269126 L431.574731,253.944807 L432.246542,255.269126 Z "/>
        <path d="M431.574731,253.944807 L430.520243,252.894117 L431.574731,253.944807 Z "/>
        <path d="M430.520243,252.894117 L429.199297,252.218309 L430.520243,252.894117 Z "/>
        <path d="M429.199297,252.218309 L427.73095,251.987824 L429.199297,252.218309 Z "/>
        <path d="M427.73095,251.987824 L426.265438,252.218309 L427.73095,251.987824 Z "/>
        <path d="M633.268353,252.218309 L631.944573,252.894117 L633.268353,252.218309 Z "/>
        <path d="M631.944573,252.894117 L630.895754,253.944807 L631.944573,252.894117 Z "/>
        <path d="M630.895754,253.944807 L630.218273,255.269126 L630.895754,253.944807 Z "/>
        <path d="M630.218273,255.269126 L629.988667,256.733929 L630.218273,255.269126 Z "/>
        <path d="M629.988667,256.733929 L630.218273,258.20273 L629.988667,256.733929 Z "/>
        <path d="M630.218273,258.20273 L630.895754,259.526935 L630.218273,258.20273 Z "/>
        <path d="M630.895754,259.526935 L631.944573,260.57771 L630.895754,259.526935 Z "/>
        <path d="M631.944573,260.57771 L633.268353,261.253462 L631.944573,260.57771 Z "/>
        <path d="M633.268353,261.253462 L634.739535,261.483919 L633.268353,261.253462 Z "/>
        <path d="M634.739535,261.483919 L636.205047,261.253462 L634.739535,261.483919 Z "/>
        <path d="M636.205047,261.253462 L637.528827,260.57771 L636.205047,261.253462 Z "/>
        <path d="M637.528827,260.57771 L638.577646,259.526935 L637.528827,260.57771 Z "/>
        <path d="M638.577646,259.526935 L639.255127,258.20273 L638.577646,259.526935 Z "/>
        <path d="M639.255127,258.20273 L639.484733,256.733929 L639.255127,258.20273 Z "/>
        <path d="M639.484733,256.733929 L639.255127,255.269126 L639.484733,256.733929 Z "/>
        <path d="M639.255127,255.269126 L638.577646,253.944807 L639.255127,255.269126 Z "/>
        <path d="M638.577646,253.944807 L637.528827,252.894117 L638.577646,253.944807 Z "/>
        <path d="M637.528827,252.894117 L636.205047,252.218309 L637.528827,252.894117 Z "/>
        <path d="M636.205047,252.218309 L634.739535,251.987824 L636.205047,252.218309 Z "/>
        <path d="M634.739535,251.987824 L633.268353,252.218309 L634.739535,251.987824 Z "/>
        <path d="M12.253881,9.202964 L10.929676,9.877893 L12.253881,9.202964 Z "/>
        <path d="M10.929676,9.877893 L9.878873,10.92898 L10.929676,9.877893 Z "/>
        <path d="M9.878873,10.92898 L9.203121,12.253044 L9.878873,10.92898 Z "/>
        <path d="M9.203121,12.253044 L8.968753,13.721958 L9.203121,12.253044 Z "/>
        <path d="M8.968753,13.721958 L9.203121,15.186903 L8.968753,13.721958 Z "/>
        <path d="M9.203121,15.186903 L9.878873,16.510967 L9.203121,15.186903 Z "/>
        <path d="M9.878873,16.510967 L10.929676,17.562054 L9.878873,16.510967 Z "/>
        <path d="M10.929676,17.562054 L12.253881,18.237834 L10.929676,17.562054 Z "/>
        <path d="M12.253881,18.237834 L13.722682,18.468007 L12.253881,18.237834 Z "/>
        <path d="M13.722682,18.468007 L15.187486,18.237834 L13.722682,18.468007 Z "/>
        <path d="M15.187486,18.237834 L16.511776,17.562054 L15.187486,18.237834 Z "/>
        <path d="M16.511776,17.562054 L17.562466,16.510967 L16.511776,17.562054 Z "/>
        <path d="M17.562466,16.510967 L18.238274,15.186903 L17.562466,16.510967 Z "/>
        <path d="M18.238274,15.186903 L18.468788,13.721958 L18.238274,15.186903 Z "/>
        <path d="M18.468788,13.721958 L18.238274,12.253044 L18.468788,13.721958 Z "/>
        <path d="M18.238274,12.253044 L17.562466,10.92898 L18.238274,12.253044 Z "/>
        <path d="M17.562466,10.92898 L16.511776,9.877893 L17.562466,10.92898 Z "/>
        <path d="M16.511776,9.877893 L15.187486,9.202964 L16.511776,9.877893 Z "/>
        <path d="M15.187486,9.202964 L13.722682,8.967972 L15.187486,9.202964 Z "/>
        <path d="M13.722682,8.967972 L12.253881,9.202964 L13.722682,8.967972 Z "/>
        <path d="M633.268353,9.202964 L631.944573,9.877893 L633.268353,9.202964 Z "/>
        <path d="M631.944573,9.877893 L630.895754,10.92898 L631.944573,9.877893 Z "/>
        <path d="M630.895754,10.92898 L630.218273,12.253044 L630.895754,10.92898 Z "/>
        <path d="M630.218273,12.253044 L629.988667,13.721958 L630.218273,12.253044 Z "/>
        <path d="M629.988667,13.721958 L630.218273,15.186903 L629.988667,13.721958 Z "/>
        <path d="M630.218273,15.186903 L630.895754,16.510967 L630.218273,15.186903 Z "/>
        <path d="M630.895754,16.510967 L631.944573,17.562054 L630.895754,16.510967 Z "/>
        <path d="M631.944573,17.562054 L633.268353,18.237834 L631.944573,17.562054 Z "/>
        <path d="M633.268353,18.237834 L634.739535,18.468007 L633.268353,18.237834 Z "/>
        <path d="M634.739535,18.468007 L636.205047,18.237834 L634.739535,18.468007 Z "/>
        <path d="M636.205047,18.237834 L637.528827,17.562054 L636.205047,18.237834 Z "/>
        <path d="M637.528827,17.562054 L638.577646,16.510967 L637.528827,17.562054 Z "/>
        <path d="M638.577646,16.510967 L639.255127,15.186903 L638.577646,16.510967 Z "/>
        <path d="M639.255127,15.186903 L639.484733,13.721958 L639.255127,15.186903 Z "/>
        <path d="M639.484733,13.721958 L639.255127,12.253044 L639.484733,13.721958 Z "/>
        <path d="M639.255127,12.253044 L638.577646,10.92898 L639.255127,12.253044 Z "/>
        <path d="M638.577646,10.92898 L637.528827,9.877893 L638.577646,10.92898 Z "/>
        <path d="M637.528827,9.877893 L636.205047,9.202964 L637.528827,9.877893 Z "/>
        <path d="M636.205047,9.202964 L634.739535,8.967972 L636.205047,9.202964 Z "/>
        <path d="M634.739535,8.967972 L633.268353,9.202964 L634.739535,8.967972 Z "/>
        <path d="M426.265438,9.202964 L424.941658,9.877893 L426.265438,9.202964 Z "/>
        <path d="M424.941658,9.877893 L423.887169,10.92898 L424.941658,9.877893 Z "/>
        <path d="M423.887169,10.92898 L423.215358,12.253044 L423.887169,10.92898 Z "/>
        <path d="M423.215358,12.253044 L422.985751,13.721958 L423.215358,12.253044 Z "/>
        <path d="M422.985751,13.721958 L423.215358,15.186903 L422.985751,13.721958 Z "/>
        <path d="M423.215358,15.186903 L423.887169,16.510967 L423.215358,15.186903 Z "/>
        <path d="M423.887169,16.510967 L424.941658,17.562054 L423.887169,16.510967 Z "/>
        <path d="M424.941658,17.562054 L426.265438,18.237834 L424.941658,17.562054 Z "/>
        <path d="M426.265438,18.237834 L427.73095,18.468007 L426.265438,18.237834 Z "/>
        <path d="M427.73095,18.468007 L429.199297,18.237834 L427.73095,18.468007 Z "/>
        <path d="M429.199297,18.237834 L430.520243,17.562054 L429.199297,18.237834 Z "/>
        <path d="M430.520243,17.562054 L431.574731,16.510967 L430.520243,17.562054 Z "/>
        <path d="M431.574731,16.510967 L432.246542,15.186903 L431.574731,16.510967 Z "/>
        <path d="M432.246542,15.186903 L432.481818,13.721958 L432.246542,15.186903 Z "/>
        <path d="M432.481818,13.721958 L432.246542,12.253044 L432.481818,13.721958 Z "/>
        <path d="M432.246542,12.253044 L431.574731,10.92898 L432.246542,12.253044 Z "/>
        <path d="M431.574731,10.92898 L430.520243,9.877893 L431.574731,10.92898 Z "/>
        <path d="M430.520243,9.877893 L429.199297,9.202964 L430.520243,9.877893 Z "/>
        <path d="M429.199297,9.202964 L427.73095,8.967972 L429.199297,9.202964 Z "/>
        <path d="M427.73095,8.967972 L426.265438,9.202964 L427.73095,8.967972 Z "/>
        <path d="M219.25742,9.202964 L217.93364,9.877893 L219.25742,9.202964 Z "/>
        <path d="M217.93364,9.877893 L216.882553,10.92898 L217.93364,9.877893 Z "/>
        <path d="M216.882553,10.92898 L216.207624,12.253044 L216.882553,10.92898 Z "/>
        <path d="M216.207624,12.253044 L215.9766,13.721958 L216.207624,12.253044 Z "/>
        <path d="M215.9766,13.721958 L216.207624,15.186903 L215.9766,13.721958 Z "/>
        <path d="M216.207624,15.186903 L216.882553,16.510967 L216.207624,15.186903 Z "/>
        <path d="M216.882553,16.510967 L217.93364,17.562054 L216.882553,16.510967 Z "/>
        <path d="M217.93364,17.562054 L219.25742,18.237834 L217.93364,17.562054 Z "/>
        <path d="M219.25742,18.237834 L220.726618,18.468007 L219.25742,18.237834 Z "/>
        <path d="M220.726618,18.468007 L222.191563,18.237834 L220.726618,18.468007 Z "/>
        <path d="M222.191563,18.237834 L223.515627,17.562054 L222.191563,18.237834 Z "/>
        <path d="M223.515627,17.562054 L224.56643,16.510967 L223.515627,17.562054 Z "/>
        <path d="M224.56643,16.510967 L225.242493,15.186903 L224.56643,16.510967 Z "/>
        <path d="M225.242493,15.186903 L225.472667,13.721958 L225.242493,15.186903 Z "/>
        <path d="M225.472667,13.721958 L225.242493,12.253044 L225.472667,13.721958 Z "/>
        <path d="M225.242493,12.253044 L224.56643,10.92898 L225.242493,12.253044 Z "/>
        <path d="M224.56643,10.92898 L223.515627,9.877893 L224.56643,10.92898 Z "/>
        <path d="M223.515627,9.877893 L222.191563,9.202964 L223.515627,9.877893 Z "/>
        <path d="M222.191563,9.202964 L220.726618,8.967972 L222.191563,9.202964 Z "/>
        <path d="M220.726618,8.967972 L219.25742,9.202964 L220.726618,8.967972 Z "/>
        <path d="M549.541177,132.400789 L548.217426,133.075724 L549.541177,132.400789 Z "/>
        <path d="M548.217426,133.075724 L547.168606,134.126811 L548.217426,133.075724 Z "/>
        <path d="M547.168606,134.126811 L546.491154,135.450872 L547.168606,134.126811 Z "/>
        <path d="M546.491154,135.450872 L546.261519,136.919783 L546.491154,135.450872 Z "/>
        <path d="M546.261519,136.919783 L546.491154,138.384728 L546.261519,136.919783 Z "/>
        <path d="M546.491154,138.384728 L547.168606,139.708789 L546.491154,138.384728 Z "/>
        <path d="M547.168606,139.708789 L548.217426,140.759876 L547.168606,139.708789 Z "/>
        <path d="M548.217426,140.759876 L549.541177,141.435664 L548.217426,140.759876 Z "/>
        <path d="M549.541177,141.435664 L551.012416,141.665837 L549.541177,141.435664 Z "/>
        <path d="M551.012416,141.665837 L552.477928,141.435664 L551.012416,141.665837 Z "/>
        <path d="M552.477928,141.435664 L553.80168,140.759876 L552.477928,141.435664 Z "/>
        <path d="M553.80168,140.759876 L554.850499,139.708789 L553.80168,140.759876 Z "/>
        <path d="M554.850499,139.708789 L555.527951,138.384728 L554.850499,139.708789 Z "/>
        <path d="M555.527951,138.384728 L555.757586,136.919783 L555.527951,138.384728 Z "/>
        <path d="M555.757586,136.919783 L555.527951,135.450872 L555.757586,136.919783 Z "/>
        <path d="M555.527951,135.450872 L554.850499,134.126811 L555.527951,135.450872 Z "/>
        <path d="M554.850499,134.126811 L553.80168,133.075724 L554.850499,134.126811 Z "/>
        <path d="M553.80168,133.075724 L552.477928,132.400789 L553.80168,133.075724 Z "/>
        <path d="M552.477928,132.400789 L551.012416,132.165794 L552.477928,132.400789 Z "/>
        <path d="M551.012416,132.165794 L549.541177,132.400789 L551.012416,132.165794 Z "/>
        <path d="M503.024851,0 L503.024851,27.440798 L503.024851,0 Z "/>
        <path d="M564.961854,27.440798 L564.961854,0 L564.961854,27.440798 Z "/>
        <path d="M564.961854,0 L639.952435,0 L564.961854,0 Z "/>
        <path d="M639.952435,0 L640.62144,0.026929 L639.952435,0 Z "/>
        <path d="M640.62144,0.026929 L641.281912,0.100913 L640.62144,0.026929 Z "/>
        <path d="M641.281912,0.100913 L641.936716,0.233858 L641.281912,0.100913 Z "/>
        <path d="M641.936716,0.233858 L642.583015,0.413858 L641.936716,0.233858 Z "/>
        <path d="M642.583015,0.413858 L643.206638,0.648 L642.583015,0.413858 Z "/>
        <path d="M643.206638,0.648 L643.813224,0.924945 L643.206638,0.648 Z "/>
        <path d="M643.813224,0.924945 L644.394326,1.252914 L643.813224,0.924945 Z "/>
        <path d="M644.394326,1.252914 L644.949917,1.620851 L644.394326,1.252914 Z "/>
        <path d="M644.949917,1.620851 L645.47719,2.034993 L644.949917,1.620851 Z "/>
        <path d="M645.47719,2.034993 L645.96472,2.487969 L645.47719,2.034993 Z "/>
        <path d="M645.96472,2.487969 L646.418292,2.97978 L645.96472,2.487969 Z "/>
        <path d="M646.418292,2.97978 L646.832122,3.503056 L646.418292,2.97978 Z "/>
        <path d="M646.832122,3.503056 L647.203461,4.057797 L646.832122,3.503056 Z "/>
        <path d="M647.203461,4.057797 L647.532308,4.644001 L647.203461,4.057797 Z "/>
        <path d="M647.532308,4.644001 L647.810076,5.250049 L647.532308,4.644001 Z "/>
        <path d="M647.810076,5.250049 L648.03971,5.874805 L647.810076,5.250049 Z "/>
        <path d="M648.03971,5.874805 L648.223934,6.518837 L648.03971,5.874805 Z "/>
        <path d="M648.223934,6.518837 L648.351521,7.170806 L648.223934,6.518837 Z "/>
        <path d="M648.351521,7.170806 L648.430892,7.834963 L648.351521,7.170806 Z "/>
        <path d="M648.430892,7.834963 L648.456375,8.502806 L648.430892,7.834963 Z "/>
        <path d="M648.456375,261.952681 L648.430892,262.62064 L648.456375,261.952681 Z "/>
        <path d="M648.430892,262.62064 L648.351521,263.280796 L648.430892,262.62064 Z "/>
        <path d="M648.351521,263.280796 L648.223934,263.937056 L648.351521,263.280796 Z "/>
        <path d="M648.223934,263.937056 L648.03971,264.581592 L648.223934,263.937056 Z "/>
        <path d="M648.03971,264.581592 L647.810076,265.206581 L648.03971,264.581592 Z "/>
        <path d="M647.810076,265.206581 L647.532308,265.812062 L647.810076,265.206581 Z "/>
        <path d="M647.532308,265.812062 L647.203461,266.3941 L647.532308,265.812062 Z "/>
        <path d="M647.203461,266.3941 L646.832122,266.94878 L647.203461,266.3941 Z "/>
        <path d="M646.832122,266.94878 L646.418292,267.476104 L646.832122,266.94878 Z "/>
        <path d="M646.418292,267.476104 L645.96472,267.964389 L646.418292,267.476104 Z "/>
        <path d="M645.96472,267.964389 L645.47719,268.417533 L645.96472,267.964389 Z "/>
        <path d="M645.47719,268.417533 L644.949917,268.831595 L645.47719,268.417533 Z "/>
        <path d="M644.949917,268.831595 L644.394326,269.202687 L644.949917,268.831595 Z "/>
        <path d="M644.394326,269.202687 L643.813224,269.530806 L644.394326,269.202687 Z "/>
        <path d="M643.813224,269.530806 L643.206638,269.808145 L643.813224,269.530806 Z "/>
        <path d="M643.206638,269.808145 L642.583015,270.038622 L643.206638,269.808145 Z "/>
        <path d="M642.583015,270.038622 L641.936716,270.222211 L642.583015,270.038622 Z "/>
        <path d="M641.936716,270.222211 L641.281912,270.351128 L641.936716,270.222211 Z "/>
        <path d="M641.281912,270.351128 L640.62144,270.429242 L641.281912,270.351128 Z "/>
        <path d="M640.62144,270.429242 L639.952435,270.456579 L640.62144,270.429242 Z "/>
        <path d="M8.503899,270.456579 L7.835943,270.429242 L8.503899,270.456579 Z "/>
        <path d="M7.835943,270.429242 L7.17187,270.351128 L7.835943,270.429242 Z "/>
        <path d="M7.17187,270.351128 L6.519533,270.222211 L7.17187,270.351128 Z "/>
        <path d="M6.519533,270.222211 L5.874991,270.038622 L6.519533,270.222211 Z "/>
        <path d="M5.874991,270.038622 L5.250008,269.808145 L5.874991,270.038622 Z "/>
        <path d="M5.250008,269.808145 L4.644527,269.530806 L5.250008,269.808145 Z "/>
        <path d="M4.644527,269.530806 L4.058606,269.202687 L4.644527,269.530806 Z "/>
        <path d="M4.058606,269.202687 L3.503922,268.831595 L4.058606,269.202687 Z "/>
        <path d="M3.503922,268.831595 L2.980476,268.417533 L3.503922,268.831595 Z "/>
        <path d="M2.980476,268.417533 L2.48828,267.964389 L2.980476,268.417533 Z "/>
        <path d="M2.48828,267.964389 L2.035158,267.476104 L2.48828,267.964389 Z "/>
        <path d="M2.035158,267.476104 L1.621099,266.94878 L2.035158,267.476104 Z "/>
        <path d="M1.621099,266.94878 L1.25391,266.3941 L1.621099,266.94878 Z "/>
        <path d="M1.25391,266.3941 L0.92578,265.812062 L1.25391,266.3941 Z "/>
        <path d="M0.92578,265.812062 L0.648438,265.206581 L0.92578,265.812062 Z "/>
        <path d="M0.648438,265.206581 L0.414064,264.581592 L0.648438,265.206581 Z "/>
        <path d="M0.414064,264.581592 L0.234375,263.937056 L0.414064,264.581592 Z "/>
        <path d="M0.234375,263.937056 L0.101564,263.280796 L0.234375,263.937056 Z "/>
        <path d="M0.101564,263.280796 L0.027344,262.62064 L0.101564,263.280796 Z "/>
        <path d="M0.027344,262.62064 L0,261.948767 L0.027344,262.62064 Z "/>
        <path d="M0,8.502806 L0.027344,7.834963 L0,8.502806 Z "/>
        <path d="M0.027344,7.834963 L0.101564,7.170806 L0.027344,7.834963 Z "/>
        <path d="M0.101564,7.170806 L0.234375,6.518837 L0.101564,7.170806 Z "/>
        <path d="M0.234375,6.518837 L0.414064,5.874805 L0.234375,6.518837 Z "/>
        <path d="M0.414064,5.874805 L0.648438,5.250049 L0.414064,5.874805 Z "/>
        <path d="M0.648438,5.250049 L0.92578,4.644001 L0.648438,5.250049 Z "/>
        <path d="M0.92578,4.644001 L1.25391,4.057797 L0.92578,4.644001 Z "/>
        <path d="M1.25391,4.057797 L1.621099,3.503056 L1.25391,4.057797 Z "/>
        <path d="M1.621099,3.503056 L2.035158,2.97978 L1.621099,3.503056 Z "/>
        <path d="M2.035158,2.97978 L2.48828,2.487969 L2.035158,2.97978 Z "/>
        <path d="M2.48828,2.487969 L2.980476,2.034993 L2.48828,2.487969 Z "/>
        <path d="M2.980476,2.034993 L3.503922,1.620851 L2.980476,2.034993 Z "/>
        <path d="M3.503922,1.620851 L4.058606,1.252914 L3.503922,1.620851 Z "/>
        <path d="M4.058606,1.252914 L4.644527,0.924945 L4.058606,1.252914 Z "/>
        <path d="M4.644527,0.924945 L5.250008,0.648 L4.644527,0.924945 Z "/>
        <path d="M5.250008,0.648 L5.874991,0.413858 L5.250008,0.648 Z "/>
        <path d="M5.874991,0.413858 L6.519533,0.233858 L5.874991,0.413858 Z "/>
        <path d="M6.519533,0.233858 L7.17187,0.100913 L6.519533,0.233858 Z "/>
        <path d="M7.17187,0.100913 L7.835943,0.026929 L7.17187,0.100913 Z "/>
        <path d="M7.835943,0.026929 L8.503899,0 L7.835943,0.026929 Z "/>
        <path d="M8.503899,0 L503.024851,0 L8.503899,0 Z "/>
        <path d="M12.253882,252.218314 L10.929676,252.894125 L12.253882,252.218314 Z "/>
        <path d="M10.929676,252.894125 L9.878873,253.944813 L10.929676,252.894125 Z "/>
        <path d="M9.878873,253.944813 L9.203122,255.26912 L9.878873,253.944813 Z "/>
        <path d="M9.203122,255.26912 L8.968753,256.733935 L9.203122,255.26912 Z "/>
        <path d="M8.968753,256.733935 L9.203122,258.20273 L8.968753,256.733935 Z "/>
        <path d="M9.203122,258.20273 L9.878873,259.52693 L9.203122,258.20273 Z "/>
        <path d="M9.878873,259.52693 L10.929676,260.577702 L9.878873,259.52693 Z "/>
        <path d="M10.929676,260.577702 L12.253882,261.25347 L10.929676,260.577702 Z "/>
        <path d="M12.253882,261.25347 L13.722682,261.483924 L12.253882,261.25347 Z "/>
        <path d="M13.722682,261.483924 L15.187485,261.25347 L13.722682,261.483924 Z "/>
        <path d="M15.187485,261.25347 L16.511776,260.577702 L15.187485,261.25347 Z "/>
        <path d="M16.511776,260.577702 L17.562466,259.52693 L16.511776,260.577702 Z "/>
        <path d="M17.562466,259.52693 L18.238274,258.20273 L17.562466,259.52693 Z "/>
        <path d="M18.238274,258.20273 L18.468788,256.733935 L18.238274,258.20273 Z "/>
        <path d="M18.468788,256.733935 L18.238274,255.26912 L18.468788,256.733935 Z "/>
        <path d="M18.238274,255.26912 L17.562466,253.944813 L18.238274,255.26912 Z "/>
        <path d="M17.562466,253.944813 L16.511776,252.894125 L17.562466,253.944813 Z "/>
        <path d="M16.511776,252.894125 L15.187485,252.218314 L16.511776,252.894125 Z "/>
        <path d="M15.187485,252.218314 L13.722682,251.987818 L15.187485,252.218314 Z "/>
        <path d="M13.722682,251.987818 L12.253882,252.218314 L13.722682,251.987818 Z "/>
        <path d="M219.257413,252.218314 L217.933648,252.894125 L219.257413,252.218314 Z "/>
        <path d="M217.933648,252.894125 L216.882549,253.944813 L217.933648,252.894125 Z "/>
        <path d="M216.882549,253.944813 L216.207625,255.26912 L216.882549,253.944813 Z "/>
        <path d="M216.207625,255.26912 L215.97661,256.733935 L216.207625,255.26912 Z "/>
        <path d="M215.97661,256.733935 L216.207625,258.20273 L215.97661,256.733935 Z "/>
        <path d="M216.207625,258.20273 L216.882549,259.52693 L216.207625,258.20273 Z "/>
        <path d="M216.882549,259.52693 L217.933648,260.577702 L216.882549,259.52693 Z "/>
        <path d="M217.933648,260.577702 L219.257413,261.25347 L217.933648,260.577702 Z "/>
        <path d="M219.257413,261.25347 L220.726619,261.483924 L219.257413,261.25347 Z "/>
        <path d="M220.726619,261.483924 L222.191565,261.25347 L220.726619,261.483924 Z "/>
        <path d="M222.191565,261.25347 L223.515634,260.577702 L222.191565,261.25347 Z "/>
        <path d="M223.515634,260.577702 L224.566429,259.52693 L223.515634,260.577702 Z "/>
        <path d="M224.566429,259.52693 L225.242501,258.20273 L224.566429,259.52693 Z "/>
        <path d="M225.242501,258.20273 L225.472674,256.733935 L225.242501,258.20273 Z "/>
        <path d="M225.472674,256.733935 L225.242501,255.26912 L225.472674,256.733935 Z "/>
        <path d="M225.242501,255.26912 L224.566429,253.944813 L225.242501,255.26912 Z "/>
        <path d="M224.566429,253.944813 L223.515634,252.894125 L224.566429,253.944813 Z "/>
        <path d="M223.515634,252.894125 L222.191565,252.218314 L223.515634,252.894125 Z "/>
        <path d="M222.191565,252.218314 L220.726619,251.987818 L222.191565,252.218314 Z "/>
        <path d="M220.726619,251.987818 L219.257413,252.218314 L220.726619,251.987818 Z "/>
        <path d="M426.265451,252.218314 L424.941642,252.894125 L426.265451,252.218314 Z "/>
        <path d="M424.941642,252.894125 L423.887182,253.944813 L424.941642,252.894125 Z "/>
        <path d="M423.887182,253.944813 L423.215371,255.26912 L423.887182,253.944813 Z "/>
        <path d="M423.215371,255.26912 L422.985736,256.733935 L423.215371,255.26912 Z "/>
        <path d="M422.985736,256.733935 L423.215371,258.20273 L422.985736,256.733935 Z "/>
        <path d="M423.215371,258.20273 L423.887182,259.52693 L423.215371,258.20273 Z "/>
        <path d="M423.887182,259.52693 L424.941642,260.577702 L423.887182,259.52693 Z "/>
        <path d="M424.941642,260.577702 L426.265451,261.25347 L424.941642,260.577702 Z "/>
        <path d="M426.265451,261.25347 L427.730963,261.483924 L426.265451,261.25347 Z "/>
        <path d="M427.730963,261.483924 L429.199282,261.25347 L427.730963,261.483924 Z "/>
        <path d="M429.199282,261.25347 L430.520227,260.577702 L429.199282,261.25347 Z "/>
        <path d="M430.520227,260.577702 L431.574716,259.52693 L430.520227,260.577702 Z "/>
        <path d="M431.574716,259.52693 L432.246527,258.20273 L431.574716,259.52693 Z "/>
        <path d="M432.246527,258.20273 L432.481831,256.733935 L432.246527,258.20273 Z "/>
        <path d="M432.481831,256.733935 L432.246527,255.26912 L432.481831,256.733935 Z "/>
        <path d="M432.246527,255.26912 L431.574716,253.944813 L432.246527,255.26912 Z "/>
        <path d="M431.574716,253.944813 L430.520227,252.894125 L431.574716,253.944813 Z "/>
        <path d="M430.520227,252.894125 L429.199282,252.218314 L430.520227,252.894125 Z "/>
        <path d="M429.199282,252.218314 L427.730963,251.987818 L429.199282,252.218314 Z "/>
        <path d="M427.730963,251.987818 L426.265451,252.218314 L427.730963,251.987818 Z "/>
        <path d="M633.268338,252.218314 L631.944558,252.894125 L633.268338,252.218314 Z "/>
        <path d="M631.944558,252.894125 L630.895767,253.944813 L631.944558,252.894125 Z "/>
        <path d="M630.895767,253.944813 L630.218286,255.26912 L630.895767,253.944813 Z "/>
        <path d="M630.218286,255.26912 L629.988651,256.733935 L630.218286,255.26912 Z "/>
        <path d="M629.988651,256.733935 L630.218286,258.20273 L629.988651,256.733935 Z "/>
        <path d="M630.218286,258.20273 L630.895767,259.52693 L630.218286,258.20273 Z "/>
        <path d="M630.895767,259.52693 L631.944558,260.577702 L630.895767,259.52693 Z "/>
        <path d="M631.944558,260.577702 L633.268338,261.25347 L631.944558,260.577702 Z "/>
        <path d="M633.268338,261.25347 L634.739548,261.483924 L633.268338,261.25347 Z "/>
        <path d="M634.739548,261.483924 L636.20506,261.25347 L634.739548,261.483924 Z "/>
        <path d="M636.20506,261.25347 L637.528812,260.577702 L636.20506,261.25347 Z "/>
        <path d="M637.528812,260.577702 L638.577631,259.52693 L637.528812,260.577702 Z "/>
        <path d="M638.577631,259.52693 L639.255112,258.20273 L638.577631,259.52693 Z "/>
        <path d="M639.255112,258.20273 L639.484746,256.733935 L639.255112,258.20273 Z "/>
        <path d="M639.484746,256.733935 L639.255112,255.26912 L639.484746,256.733935 Z "/>
        <path d="M639.255112,255.26912 L638.577631,253.944813 L639.255112,255.26912 Z "/>
        <path d="M638.577631,253.944813 L637.528812,252.894125 L638.577631,253.944813 Z "/>
        <path d="M637.528812,252.894125 L636.20506,252.218314 L637.528812,252.894125 Z "/>
        <path d="M636.20506,252.218314 L634.739548,251.987818 L636.20506,252.218314 Z "/>
        <path d="M634.739548,251.987818 L633.268338,252.218314 L634.739548,251.987818 Z "/>
        <path d="M12.253882,9.202964 L10.929676,9.877893 L12.253882,9.202964 Z "/>
        <path d="M10.929676,9.877893 L9.878873,10.92898 L10.929676,9.877893 Z "/>
        <path d="M9.878873,10.92898 L9.203122,12.253044 L9.878873,10.92898 Z "/>
        <path d="M9.203122,12.253044 L8.968753,13.721957 L9.203122,12.253044 Z "/>
        <path d="M8.968753,13.721957 L9.203122,15.186904 L8.968753,13.721957 Z "/>
        <path d="M9.203122,15.186904 L9.878873,16.510966 L9.203122,15.186904 Z "/>
        <path d="M9.878873,16.510966 L10.929676,17.562054 L9.878873,16.510966 Z "/>
        <path d="M10.929676,17.562054 L12.253882,18.237833 L10.929676,17.562054 Z "/>
        <path d="M12.253882,18.237833 L13.722682,18.468007 L12.253882,18.237833 Z "/>
        <path d="M13.722682,18.468007 L15.187485,18.237833 L13.722682,18.468007 Z "/>
        <path d="M15.187485,18.237833 L16.511776,17.562054 L15.187485,18.237833 Z "/>
        <path d="M16.511776,17.562054 L17.562466,16.510966 L16.511776,17.562054 Z "/>
        <path d="M17.562466,16.510966 L18.238274,15.186904 L17.562466,16.510966 Z "/>
        <path d="M18.238274,15.186904 L18.468788,13.721957 L18.238274,15.186904 Z "/>
        <path d="M18.468788,13.721957 L18.238274,12.253044 L18.468788,13.721957 Z "/>
        <path d="M18.238274,12.253044 L17.562466,10.92898 L18.238274,12.253044 Z "/>
        <path d="M17.562466,10.92898 L16.511776,9.877893 L17.562466,10.92898 Z "/>
        <path d="M16.511776,9.877893 L15.187485,9.202964 L16.511776,9.877893 Z "/>
        <path d="M15.187485,9.202964 L13.722682,8.967972 L15.187485,9.202964 Z "/>
        <path d="M13.722682,8.967972 L12.253882,9.202964 L13.722682,8.967972 Z "/>
        <path d="M633.268338,9.202964 L631.944558,9.877893 L633.268338,9.202964 Z "/>
        <path d="M631.944558,9.877893 L630.895767,10.92898 L631.944558,9.877893 Z "/>
        <path d="M630.895767,10.92898 L630.218286,12.253044 L630.895767,10.92898 Z "/>
        <path d="M630.218286,12.253044 L629.988651,13.721957 L630.218286,12.253044 Z "/>
        <path d="M629.988651,13.721957 L630.218286,15.186904 L629.988651,13.721957 Z "/>
        <path d="M630.218286,15.186904 L630.895767,16.510966 L630.218286,15.186904 Z "/>
        <path d="M630.895767,16.510966 L631.944558,17.562054 L630.895767,16.510966 Z "/>
        <path d="M631.944558,17.562054 L633.268338,18.237833 L631.944558,17.562054 Z "/>
        <path d="M633.268338,18.237833 L634.739548,18.468007 L633.268338,18.237833 Z "/>
        <path d="M634.739548,18.468007 L636.20506,18.237833 L634.739548,18.468007 Z "/>
        <path d="M636.20506,18.237833 L637.528812,17.562054 L636.20506,18.237833 Z "/>
        <path d="M637.528812,17.562054 L638.577631,16.510966 L637.528812,17.562054 Z "/>
        <path d="M638.577631,16.510966 L639.255112,15.186904 L638.577631,16.510966 Z "/>
        <path d="M639.255112,15.186904 L639.484746,13.721957 L639.255112,15.186904 Z "/>
        <path d="M639.484746,13.721957 L639.255112,12.253044 L639.484746,13.721957 Z "/>
        <path d="M639.255112,12.253044 L638.577631,10.92898 L639.255112,12.253044 Z "/>
        <path d="M638.577631,10.92898 L637.528812,9.877893 L638.577631,10.92898 Z "/>
        <path d="M637.528812,9.877893 L636.20506,9.202964 L637.528812,9.877893 Z "/>
        <path d="M636.20506,9.202964 L634.739548,8.967972 L636.20506,9.202964 Z "/>
        <path d="M634.739548,8.967972 L633.268338,9.202964 L634.739548,8.967972 Z "/>
        <path d="M426.265451,9.202964 L424.941642,9.877893 L426.265451,9.202964 Z "/>
        <path d="M424.941642,9.877893 L423.887182,10.92898 L424.941642,9.877893 Z "/>
        <path d="M423.887182,10.92898 L423.215371,12.253044 L423.887182,10.92898 Z "/>
        <path d="M423.215371,12.253044 L422.985736,13.721957 L423.215371,12.253044 Z "/>
        <path d="M422.985736,13.721957 L423.215371,15.186904 L422.985736,13.721957 Z "/>
        <path d="M423.215371,15.186904 L423.887182,16.510966 L423.215371,15.186904 Z "/>
        <path d="M423.887182,16.510966 L424.941642,17.562054 L423.887182,16.510966 Z "/>
        <path d="M424.941642,17.562054 L426.265451,18.237833 L424.941642,17.562054 Z "/>
        <path d="M426.265451,18.237833 L427.730963,18.468007 L426.265451,18.237833 Z "/>
        <path d="M427.730963,18.468007 L429.199282,18.237833 L427.730963,18.468007 Z "/>
        <path d="M429.199282,18.237833 L430.520227,17.562054 L429.199282,18.237833 Z "/>
        <path d="M430.520227,17.562054 L431.574716,16.510966 L430.520227,17.562054 Z "/>
        <path d="M431.574716,16.510966 L432.246527,15.186904 L431.574716,16.510966 Z "/>
        <path d="M432.246527,15.186904 L432.481831,13.721957 L432.246527,15.186904 Z "/>
        <path d="M432.481831,13.721957 L432.246527,12.253044 L432.481831,13.721957 Z "/>
        <path d="M432.246527,12.253044 L431.574716,10.92898 L432.246527,12.253044 Z "/>
        <path d="M431.574716,10.92898 L430.520227,9.877893 L431.574716,10.92898 Z "/>
        <path d="M430.520227,9.877893 L429.199282,9.202964 L430.520227,9.877893 Z "/>
        <path d="M429.199282,9.202964 L427.730963,8.967972 L429.199282,9.202964 Z "/>
        <path d="M427.730963,8.967972 L426.265451,9.202964 L427.730963,8.967972 Z "/>
        <path d="M219.257413,9.202964 L217.933648,9.877893 L219.257413,9.202964 Z "/>
        <path d="M217.933648,9.877893 L216.882549,10.92898 L217.933648,9.877893 Z "/>
        <path d="M216.882549,10.92898 L216.207625,12.253044 L216.882549,10.92898 Z "/>
        <path d="M216.207625,12.253044 L215.97661,13.721957 L216.207625,12.253044 Z "/>
        <path d="M215.97661,13.721957 L216.207625,15.186904 L215.97661,13.721957 Z "/>
        <path d="M216.207625,15.186904 L216.882549,16.510966 L216.207625,15.186904 Z "/>
        <path d="M216.882549,16.510966 L217.933648,17.562054 L216.882549,16.510966 Z "/>
        <path d="M217.933648,17.562054 L219.257413,18.237833 L217.933648,17.562054 Z "/>
        <path d="M219.257413,18.237833 L220.726619,18.468007 L219.257413,18.237833 Z "/>
        <path d="M220.726619,18.468007 L222.191565,18.237833 L220.726619,18.468007 Z "/>
        <path d="M222.191565,18.237833 L223.515634,17.562054 L222.191565,18.237833 Z "/>
        <path d="M223.515634,17.562054 L224.566429,16.510966 L223.515634,17.562054 Z "/>
        <path d="M224.566429,16.510966 L225.242501,15.186904 L224.566429,16.510966 Z "/>
        <path d="M225.242501,15.186904 L225.472674,13.721957 L225.242501,15.186904 Z "/>
        <path d="M225.472674,13.721957 L225.242501,12.253044 L225.472674,13.721957 Z "/>
        <path d="M225.242501,12.253044 L224.566429,10.92898 L225.242501,12.253044 Z "/>
        <path d="M224.566429,10.92898 L223.515634,9.877893 L224.566429,10.92898 Z "/>
        <path d="M223.515634,9.877893 L222.191565,9.202964 L223.515634,9.877893 Z "/>
        <path d="M222.191565,9.202964 L220.726619,8.967972 L222.191565,9.202964 Z "/>
        <path d="M220.726619,8.967972 L219.257413,9.202964 L220.726619,8.967972 Z "/>
        <line x1="503.02884365" y1="27.44495124" x2="503.02884365" y2="125.50063625"/>
        <line x1="503.02884365" y1="125.50063625" x2="565.03766851" y2="125.50063625"/>
        <line x1="565.03766851" y1="125.50063625" x2="565.03766851" y2="27.51625237"/>
        <path d="M639.95245,0 L640.621427,0.026929 L639.95245,0 "/>
    </g>
</svg>
